<svg width="101" height="101" viewBox="0 0 101 101" fill="none" xmlns="http://www.w3.org/2000/svg">
<circle cx="50.1187" cy="50.875" r="50" fill="#009BE1" fill-opacity="0.2"/>
<mask id="mask0_8_105" style="mask-type:alpha" maskUnits="userSpaceOnUse" x="0" y="0" width="101" height="101">
<circle cx="50.1187" cy="50.875" r="50" fill="#D9D9D9"/>
</mask>
<g mask="url(#mask0_8_105)">
<path d="M78.5287 107.291C78.2862 105.942 76.9427 104.754 75.6185 105.065C76.7244 104.153 76.7317 102.319 75.8611 101.184C74.9904 100.049 73.465 99.5571 72.0318 99.6007C70.5986 99.6444 69.2235 100.146 67.8946 100.68C68.5469 99.8505 67.5914 98.5555 66.5389 98.4973C65.4864 98.4391 64.5431 99.0963 63.687 99.7099C62.8309 100.323 61.8464 100.961 60.8036 100.799L61.7736 101.192C64.1138 101.546 66.4735 102.091 68.4984 103.314C70.5234 104.536 72.1943 106.529 72.5435 108.87C72.8927 111.21 71.6608 113.829 69.4418 114.649C70.9432 114.727 72.4417 114.445 73.8117 113.826C75.1817 113.206 76.3834 112.268 77.3161 111.088C78.1504 110.007 78.7712 108.637 78.5287 107.291Z" fill="#009BE1"/>
<path d="M1.63603 72.3263C1.5736 71.5754 1.55255 70.8217 1.57298 70.0685C1.55252 69.3145 1.57357 68.56 1.63603 67.8083C1.69996 68.5599 1.72101 69.3145 1.69909 70.0685C1.72098 70.8217 1.69992 71.5755 1.63603 72.3263V72.3263Z" fill="#009BE1"/>
<path d="M3.97127 70.0524C3.19448 70.1149 2.41491 70.1359 1.63589 70.1155C0.857668 70.1359 0.078913 70.1148 -0.697067 70.0524C0.0788337 69.9885 0.857668 69.9675 1.63589 69.9893C2.41491 69.9674 3.19456 69.9885 3.97127 70.0524V70.0524Z" fill="#009BE1"/>
<path d="M91.7258 95.5414C91.6619 94.7906 91.6409 94.0368 91.6628 93.2836C91.6409 92.5296 91.6619 91.775 91.7258 91.0234C91.7883 91.775 91.8093 92.5296 91.7889 93.2836C91.8093 94.0368 91.7883 94.7905 91.7258 95.5414Z" fill="#009BE1"/>
<path d="M94.0612 93.2781C93.2846 93.3435 92.5049 93.3654 91.7259 93.3436C90.9468 93.3655 90.1671 93.3436 89.3905 93.2781C90.1673 93.2156 90.9468 93.1946 91.7259 93.215C92.5049 93.1946 93.2844 93.2157 94.0612 93.2781Z" fill="#009BE1"/>
<path d="M78.0226 18.0208C77.9587 17.2692 77.9376 16.5146 77.9595 15.7606C77.9376 15.0075 77.9587 14.2536 78.0226 13.5029C78.085 14.2537 78.1061 15.0075 78.0856 15.7606C78.1061 16.5146 78.0851 17.2692 78.0226 18.0208V18.0208Z" fill="#009BE1"/>
<path d="M80.3573 15.7576C79.5806 15.8215 78.8009 15.8425 78.0219 15.8206C77.2429 15.8425 76.4632 15.8215 75.6865 15.7576C76.4633 15.6951 77.2429 15.674 78.0219 15.6945C78.8009 15.674 79.5805 15.6951 80.3573 15.7576V15.7576Z" fill="#009BE1"/>
<path d="M4.23479 52.4796C4.99688 52.4796 5.61468 51.8618 5.61468 51.0997C5.61468 50.3376 4.99688 49.7198 4.23479 49.7198C3.4727 49.7198 2.8549 50.3376 2.8549 51.0997C2.8549 51.8618 3.4727 52.4796 4.23479 52.4796Z" fill="#009BE1"/>
<path d="M72.1564 83.7957C72.1569 84.0684 72.0765 84.3351 71.9255 84.5622C71.7745 84.7893 71.5596 84.9665 71.3079 85.0716C71.0562 85.1766 70.7791 85.2047 70.5114 85.1523C70.2438 85.0999 69.9977 84.9694 69.8042 84.7772C69.6107 84.5851 69.4785 84.3399 69.4242 84.0726C69.3699 83.8054 69.3961 83.528 69.4993 83.2756C69.6026 83.0232 69.7783 82.8071 70.0043 82.6545C70.2303 82.5019 70.4965 82.4197 70.7692 82.4182C70.9508 82.4173 71.1309 82.4522 71.2989 82.5209C71.467 82.5897 71.6199 82.691 71.7488 82.819C71.8777 82.9469 71.98 83.0991 72.05 83.2667C72.1199 83.4343 72.1561 83.6141 72.1564 83.7957Z" fill="#009BE1"/>
<path d="M31.1443 15.0709C31.1443 15.3438 31.0634 15.6106 30.9118 15.8376C30.7601 16.0645 30.5446 16.2413 30.2925 16.3458C30.0403 16.4502 29.7629 16.4775 29.4952 16.4243C29.2276 16.3711 28.9817 16.2396 28.7887 16.0467C28.5957 15.8537 28.4643 15.6078 28.4111 15.3401C28.3578 15.0725 28.3851 14.795 28.4896 14.5429C28.594 14.2907 28.7709 14.0752 28.9978 13.9236C29.2247 13.772 29.4915 13.691 29.7644 13.691C30.1304 13.691 30.4814 13.8364 30.7402 14.0952C30.9989 14.354 31.1443 14.705 31.1443 15.0709V15.0709Z" fill="#009BE1"/>
<path d="M36.9944 97.4125C37.3761 97.4125 37.6856 97.1031 37.6856 96.7214C37.6856 96.3397 37.3761 96.0302 36.9944 96.0302C36.6127 96.0302 36.3033 96.3397 36.3033 96.7214C36.3033 97.1031 36.6127 97.4125 36.9944 97.4125Z" fill="#009BE1"/>
<path d="M21.032 93.2746C21.0324 93.4114 20.9923 93.5453 20.9167 93.6593C20.841 93.7732 20.7332 93.8622 20.607 93.9149C20.4807 93.9676 20.3417 93.9816 20.2074 93.9552C20.0732 93.9288 19.9498 93.8632 19.8529 93.7666C19.756 93.6701 19.69 93.5469 19.6631 93.4128C19.6362 93.2786 19.6498 93.1395 19.702 93.0131C19.7543 92.8867 19.8428 92.7786 19.9566 92.7025C20.0703 92.6265 20.204 92.5859 20.3408 92.5859C20.4314 92.5856 20.5213 92.6031 20.6051 92.6376C20.6889 92.6721 20.7652 92.7228 20.8294 92.7867C20.8936 92.8507 20.9445 92.9268 20.9793 93.0105C21.0141 93.0942 21.032 93.184 21.032 93.2746V93.2746Z" fill="#009BE1"/>
<path d="M38.0463 16.4579C38.0463 16.5946 38.0057 16.7283 37.9298 16.8419C37.8538 16.9556 37.7459 17.0442 37.6196 17.0965C37.4933 17.1488 37.3543 17.1625 37.2203 17.1358C37.0862 17.1091 36.963 17.0433 36.8664 16.9466C36.7697 16.85 36.7039 16.7268 36.6772 16.5928C36.6506 16.4587 36.6642 16.3197 36.7166 16.1934C36.7689 16.0671 36.8575 15.9592 36.9711 15.8832C37.0848 15.8073 37.2184 15.7668 37.3551 15.7668C37.5382 15.7674 37.7136 15.8404 37.8431 15.9699C37.9726 16.0994 38.0456 16.2748 38.0463 16.4579V16.4579Z" fill="#009BE1"/>
<path d="M68.4473 53.7983C68.4473 53.935 68.4067 54.0686 68.3308 54.1822C68.2549 54.2959 68.1469 54.3845 68.0206 54.4368C67.8943 54.4891 67.7554 54.5028 67.6213 54.4761C67.4872 54.4495 67.3641 54.3836 67.2674 54.287C67.1708 54.1903 67.1049 54.0672 67.0783 53.9331C67.0516 53.799 67.0653 53.6601 67.1176 53.5338C67.1699 53.4075 67.2585 53.2995 67.3721 53.2236C67.4858 53.1476 67.6194 53.1071 67.7561 53.1071C67.8469 53.1071 67.9368 53.125 68.0206 53.1597C68.1045 53.1944 68.1807 53.2454 68.2448 53.3095C68.309 53.3737 68.3599 53.4499 68.3947 53.5338C68.4294 53.6176 68.4473 53.7075 68.4473 53.7983V53.7983Z" fill="#009BE1"/>
<path d="M40.1414 22.5803C31.1515 23.2326 21.3347 24.4234 14.1369 27.188L16.4117 42.5705C16.4117 42.5705 30.3609 37.5772 41.7128 37.924L40.1414 22.5803Z" fill="#9AC4D8"/>
<g opacity="0.8">
<path d="M40.1411 22.5826C31.1513 23.2349 21.3344 24.4257 14.1367 27.1903L16.4114 42.5728C16.4114 42.5728 30.3607 37.5795 41.7126 37.9262L40.1411 22.5826Z" fill="white"/>
</g>
<path d="M39.4846 35.9015L39.3973 35.9161L39.1426 35.9525L38.1726 36.0737C37.7458 36.1247 37.2244 36.1877 36.6205 36.275C36.0167 36.3623 35.3279 36.4496 34.5713 36.5757C31.5375 37.0438 27.3615 37.8174 22.8265 39.0008C21.2502 39.4083 19.7296 39.8278 18.3401 40.2643L18.2697 40.2837V40.2134C17.7847 36.6873 17.3142 33.6462 16.9529 31.483C16.7686 30.4111 16.6207 29.5429 16.5188 28.9585C16.4679 28.6699 16.4291 28.4443 16.4 28.2843C16.4 28.2115 16.3806 28.1533 16.3733 28.1097C16.3701 28.0896 16.3701 28.0691 16.3733 28.049C16.3814 28.0677 16.3871 28.0872 16.3903 28.1072C16.3903 28.1509 16.4121 28.2091 16.4291 28.2794C16.4606 28.4395 16.5067 28.6626 16.5673 28.9512C16.6837 29.5356 16.8462 30.3917 17.0353 31.4684C17.4185 33.6219 17.9035 36.663 18.3983 40.1988L18.3182 40.1503C19.7127 39.709 21.2284 39.287 22.812 38.8796C26.6882 37.8808 30.6142 37.0858 34.5737 36.4981C35.3328 36.3793 36.0288 36.2993 36.6278 36.2192C37.2268 36.1392 37.7555 36.081 38.1823 36.0373L39.1669 35.9379L39.424 35.9161C39.4437 35.9094 39.464 35.9045 39.4846 35.9015V35.9015Z" fill="#9AC4D8"/>
<path d="M39.7993 32.1572C39.7993 32.1572 39.7654 32.0505 39.695 31.8492C39.5792 31.5642 39.4232 31.2971 39.2318 31.0562C38.9291 30.6735 38.5593 30.3489 38.1405 30.0983C38.0241 30.0207 37.8859 29.9625 37.7525 29.8922C37.6099 29.8299 37.4632 29.7772 37.3136 29.7346C36.9903 29.6318 36.649 29.5988 36.312 29.6375C35.9429 29.6779 35.5913 29.816 35.2935 30.0377C34.9721 30.2828 34.6963 30.5824 34.4786 30.9229C33.9936 31.6237 33.7002 32.4773 33.3364 33.3625C33.1588 33.8304 32.868 34.247 32.49 34.5751C32.2879 34.7438 32.0471 34.8596 31.7892 34.9122C31.5222 34.9572 31.248 34.9253 30.9986 34.82C29.9752 34.415 29.5193 33.234 28.4837 32.8799C27.9754 32.7186 27.4239 32.7639 26.9486 33.006C26.7167 33.1212 26.5099 33.2811 26.3399 33.4765C26.179 33.6759 26.043 33.8941 25.935 34.1264C25.7046 34.5823 25.53 35.0965 25.1395 35.4481C24.9478 35.6269 24.7021 35.7369 24.4411 35.7609C24.189 35.776 23.9375 35.7224 23.7136 35.6057C23.2956 35.3738 22.9486 35.0327 22.7096 34.6187C22.5021 34.2286 22.3246 33.8232 22.1785 33.4062C22.0424 33.0239 21.866 32.6573 21.6522 32.3124C21.4526 31.9992 21.1763 31.7421 20.8495 31.5655C20.5669 31.4159 20.2538 31.3333 19.9342 31.3241C19.6146 31.3148 19.2972 31.3792 19.0064 31.5122C18.5553 31.6979 18.1541 31.987 17.8351 32.3561C17.6359 32.5911 17.4865 32.8642 17.3961 33.1588C17.3331 33.3601 17.3258 33.4741 17.3161 33.4716C17.322 33.3631 17.3407 33.2556 17.3719 33.1515C17.4523 32.8486 17.5971 32.5666 17.7963 32.3246C18.1152 31.9429 18.5199 31.642 18.9773 31.4467C19.2778 31.3056 19.6069 31.2359 19.9389 31.2431C20.2708 31.2502 20.5966 31.334 20.8907 31.4879C21.2334 31.6686 21.5239 31.9341 21.7347 32.2591C21.9543 32.6088 22.1356 32.9812 22.2755 33.3698C22.4227 33.7793 22.6002 34.1773 22.8066 34.5605C23.0376 34.9571 23.3732 35.2826 23.7766 35.5015C23.9818 35.6087 24.2124 35.6581 24.4435 35.6445C24.6786 35.6205 24.8992 35.52 25.0716 35.3584C25.4305 35.031 25.6051 34.5363 25.8355 34.0731C25.9478 33.8303 26.0895 33.6022 26.2575 33.394C26.4382 33.1863 26.6582 33.0165 26.905 32.8945C27.4102 32.6366 27.9968 32.5886 28.5371 32.7611C29.0876 32.943 29.4829 33.3674 29.8491 33.7505C30.1794 34.1567 30.5929 34.4874 31.0616 34.7206C31.291 34.8179 31.5435 34.8473 31.7892 34.8055C32.0271 34.7564 32.2494 34.6498 32.4367 34.495C32.799 34.1791 33.0787 33.7795 33.2515 33.331C33.6129 32.4555 33.9305 31.5898 34.4156 30.8792C34.6396 30.5282 34.9256 30.2209 35.2595 29.9722C35.5722 29.7444 35.9394 29.6031 36.3241 29.5624C36.6723 29.5259 37.0243 29.5631 37.3572 29.6715C37.5104 29.717 37.6603 29.7729 37.8059 29.8388C38.3887 30.1223 38.8976 30.5374 39.2925 31.0514C39.4822 31.2997 39.6334 31.5752 39.7411 31.8686C39.7666 31.9483 39.7877 32.0292 39.8042 32.1112C39.8032 32.1266 39.8016 32.142 39.7993 32.1572V32.1572Z" fill="#9AC4D8"/>
<path d="M15.9722 30.1313C15.9722 30.1653 15.8607 30.2162 15.7103 30.2453C15.56 30.2744 15.4314 30.2696 15.4266 30.2453C15.4217 30.2211 15.5357 30.1604 15.6861 30.1313C15.8364 30.1022 15.9601 30.0974 15.9722 30.1313Z" fill="#9AC4D8"/>
<path d="M16.3708 32.9417C16.3853 32.9756 16.298 33.0459 16.1743 33.1041C16.0507 33.1623 15.9318 33.1817 15.9318 33.1502C15.9318 33.1187 16.007 33.0484 16.1307 32.9902C16.2544 32.932 16.3562 32.9174 16.3708 32.9417Z" fill="#9AC4D8"/>
<path d="M16.867 36.0121C16.867 36.046 16.787 36.1067 16.6633 36.1503C16.5396 36.194 16.4208 36.2012 16.4208 36.1697C16.4208 36.1382 16.5008 36.0751 16.6245 36.0315C16.7482 35.9878 16.8549 35.9806 16.867 36.0121Z" fill="#9AC4D8"/>
<path d="M17.4646 39.0287C17.4646 39.0627 17.37 39.1257 17.2221 39.167C17.0742 39.2082 16.9651 39.2203 16.9554 39.1864C16.9457 39.1524 17.0475 39.0918 17.1833 39.0481C17.3191 39.0045 17.4525 38.9972 17.4646 39.0287Z" fill="#9AC4D8"/>
<path d="M34.4185 24.5399C34.5133 24.5056 34.6118 24.4828 34.712 24.472C34.906 24.4405 35.197 24.3968 35.5486 24.3459C36.2761 24.244 37.2971 24.1034 38.5218 23.9603H38.58V24.0185C38.6746 25.0516 38.7861 26.2399 38.9025 27.501V27.5543V27.615H38.8419L34.8235 28.1H34.7677V28.0466C34.6562 26.9917 34.5616 26.1065 34.4937 25.4784C34.4646 25.1826 34.4428 24.9473 34.4234 24.7679C34.4137 24.6874 34.4088 24.6064 34.4088 24.5254C34.4285 24.6101 34.443 24.6959 34.4525 24.7824C34.4791 24.9619 34.5107 25.202 34.5519 25.51C34.6319 26.1356 34.7411 27.0038 34.8744 28.0466L34.8138 27.9981L38.8322 27.4864L38.7764 27.5543V27.5034C38.6649 26.2423 38.5606 25.0516 38.4684 24.0185L38.5315 24.0694L34.4185 24.5399Z" fill="#9AC4D8"/>
<path d="M38.1535 25.1457C38.1535 25.1845 37.4623 25.182 36.6184 25.2742C35.7744 25.3664 35.0978 25.5167 35.0881 25.4706C36.0761 25.1501 37.1202 25.0394 38.1535 25.1457V25.1457Z" fill="#9AC4D8"/>
<path d="M38.1972 26.0491C38.1972 26.0854 37.5522 26.1097 36.764 26.1873C35.9758 26.2649 35.3356 26.3619 35.3283 26.3255C35.7895 26.1764 36.268 26.0876 36.7519 26.0612C37.2311 25.994 37.717 25.9899 38.1972 26.0491V26.0491Z" fill="#9AC4D8"/>
<path d="M37.2336 26.8358C36.9709 26.9346 36.6943 26.9911 36.4139 27.0032C36.1403 27.0587 35.86 27.0734 35.5821 27.0468C35.8444 26.9496 36.12 26.8931 36.3994 26.8795C36.6738 26.824 36.9549 26.8093 37.2336 26.8358V26.8358Z" fill="#9AC4D8"/>
<path d="M83.968 27.116C75.1649 24.4339 67.7368 22.1422 57.7768 22.2052L56.2539 37.8787C66.6115 38.7954 70.077 39.4744 79.6368 42.935L83.968 27.116Z" fill="#9AC4D8"/>
<g opacity="0.8">
<path d="M83.9689 27.1134C75.1658 24.4312 67.7377 22.1395 57.7778 22.2025L56.2548 37.876C66.6124 38.7927 70.0779 39.4717 79.6377 42.9323L83.9689 27.1134Z" fill="white"/>
</g>
<path d="M64.039 29.8023L64.427 26.4774C63.4603 26.3806 62.4923 26.6487 61.7133 27.2292C61.1971 27.6073 60.7772 28.1016 60.4873 28.672C60.1975 29.2424 60.0459 29.873 60.0448 30.5128C60.0406 30.6746 60.0447 30.8365 60.0569 30.9978L63.9371 30.5613L64.039 29.8023Z" fill="#9AC4D8"/>
<path d="M68.052 29.2623C67.8669 28.6175 67.5127 28.034 67.0262 27.5722C66.5397 27.1104 65.9385 26.7871 65.285 26.6359L65.1686 26.6116L65.0934 26.5946L64.8655 26.5607H64.846L64.4629 29.871L64.3707 30.6518L68.0375 31.9905C68.1299 31.7141 68.1933 31.4288 68.2266 31.1393C68.2993 30.5083 68.2399 29.869 68.052 29.2623V29.2623Z" fill="#9AC4D8"/>
<g opacity="0.3">
<path d="M68.0522 29.2648C67.8671 28.62 67.5129 28.0365 67.0264 27.5747C66.5399 27.1129 65.9387 26.7896 65.2852 26.6384L65.1688 26.6141L65.0936 26.5971L64.8656 26.5632H64.8462L64.4631 29.8735L64.3709 30.6543L68.0377 31.993C68.1301 31.7166 68.1935 31.4313 68.2268 31.1418C68.2995 30.5108 68.2401 29.8715 68.0522 29.2648V29.2648Z" fill="black"/>
</g>
<path d="M64.0952 31.0201L60.215 31.4566C60.3775 33.3385 61.7501 34.8978 63.5932 35.1258C65.4363 35.3537 67.1654 34.1557 67.7716 32.3612L64.1049 31.0225" fill="#9AC4D8"/>
<path d="M80.5656 30.0936C80.4478 30.0577 80.3334 30.0114 80.2237 29.9553C80.0079 29.8559 79.6926 29.7128 79.2997 29.5552C78.2809 29.129 77.2379 28.763 76.1762 28.459C75.1129 28.154 74.0327 27.9111 72.9411 27.7315C72.524 27.6636 72.182 27.6151 71.9468 27.5836C71.8238 27.5745 71.7019 27.5534 71.583 27.5205C71.7069 27.5157 71.831 27.5205 71.9541 27.5351C72.1966 27.5521 72.5337 27.5884 72.9557 27.6442C75.1582 27.9437 77.3067 28.5561 79.3361 29.463C79.7241 29.6376 80.0345 29.788 80.2455 29.8996C80.3576 29.9549 80.4647 30.0198 80.5656 30.0936Z" fill="#9AC4D8"/>
<path d="M80.2991 31.7281C80.1815 31.6905 80.0672 31.6434 79.9571 31.5875C79.7413 31.4905 79.426 31.345 79.0332 31.1897C76.9943 30.3315 74.8593 29.7224 72.6745 29.3758C72.2574 29.3079 71.9155 29.2594 71.6802 29.2278C71.5576 29.2157 71.436 29.1947 71.3165 29.1648C71.4403 29.1568 71.5647 29.1616 71.6875 29.1793C71.93 29.1939 72.2671 29.2303 72.6891 29.286C73.7887 29.4366 74.8763 29.6652 75.9436 29.9699C77.0108 30.2758 78.0553 30.6558 79.0695 31.1073C79.4576 31.2819 79.768 31.4323 79.979 31.5438C80.0917 31.5941 80.199 31.6559 80.2991 31.7281Z" fill="#9AC4D8"/>
<path d="M80.0325 33.3684C79.9146 33.3325 79.8002 33.2862 79.6905 33.2302C79.4747 33.1332 79.1594 32.9877 78.7666 32.83C77.7475 32.4025 76.7046 32.034 75.643 31.7266C74.5794 31.4227 73.4993 31.1798 72.4079 30.9991C71.9908 30.9336 71.6513 30.8827 71.4136 30.8511C71.2906 30.8421 71.1688 30.821 71.0499 30.7881C71.1737 30.7832 71.2978 30.7881 71.4209 30.8026C71.6634 30.8196 72.0005 30.856 72.4225 30.9118C73.5221 31.0624 74.6097 31.2909 75.677 31.5957C76.7449 31.8993 77.7896 32.2794 78.8029 32.733C79.191 32.9076 79.5014 33.058 79.7124 33.1695C79.8253 33.2252 79.9326 33.2918 80.0325 33.3684V33.3684Z" fill="#9AC4D8"/>
<path d="M79.498 35.0004C79.3839 34.9628 79.2728 34.9165 79.1657 34.8622C78.9572 34.7627 78.6516 34.6196 78.2733 34.4644C76.2993 33.6075 74.2272 32.9975 72.1038 32.648C71.6964 32.5801 71.3763 32.5316 71.1338 32.5001C71.0139 32.4909 70.8953 32.4698 70.7797 32.437C70.9003 32.4306 71.0213 32.4355 71.141 32.4516C71.3714 32.4661 71.7037 32.5025 72.1111 32.5607C73.1813 32.7111 74.239 32.9397 75.2758 33.2446C76.3132 33.5531 77.3271 33.9356 78.3097 34.3893C78.6856 34.5639 78.9863 34.7142 79.1876 34.8258C79.2963 34.8741 79.4002 34.9326 79.498 35.0004V35.0004Z" fill="#9AC4D8"/>
<path d="M78.3394 36.3059C78.2367 36.2749 78.1369 36.2352 78.0411 36.187L77.2384 35.8305C75.4817 35.034 73.6168 34.502 71.7043 34.2518L70.8336 34.1305C70.7264 34.1207 70.6201 34.102 70.516 34.0748C70.6231 34.0621 70.7314 34.0621 70.8385 34.0748C71.0471 34.0748 71.3453 34.1136 71.714 34.1548C73.6451 34.3592 75.5264 34.8957 77.2747 35.7408C77.6118 35.9009 77.8786 36.0367 78.0629 36.1361C78.1608 36.1827 78.2535 36.2396 78.3394 36.3059V36.3059Z" fill="#9AC4D8"/>
<path d="M74.4276 36.5024C74.2161 36.4758 74.0069 36.4328 73.8019 36.3738C73.4188 36.2841 72.8877 36.1677 72.2959 36.0683C71.7042 35.9688 71.1634 35.8912 70.773 35.8258C70.5601 35.8075 70.3491 35.7709 70.1425 35.7166C70.3559 35.6999 70.5706 35.7064 70.7827 35.736C71.178 35.77 71.7212 35.8282 72.3178 35.9325C72.8259 36.0188 73.3287 36.1338 73.8238 36.2768C74.033 36.3286 74.2356 36.4043 74.4276 36.5024V36.5024Z" fill="#9AC4D8"/>
<path d="M59.2932 24.0603L59.4969 24.0481L60.1032 24.0287C60.6367 24.0287 61.4128 24.0287 62.4022 24.0797C65.1399 24.2618 67.8487 24.7499 70.4778 25.5347L70.5215 25.5493V25.5954C69.9152 29.0705 69.1925 33.2005 68.4213 37.6191C68.3898 37.7985 68.3583 37.978 68.3268 38.1526V38.2205L68.2589 38.2035C66.4826 37.7383 64.6831 37.3668 62.8678 37.0904C61.129 36.8236 59.4727 36.6345 57.9255 36.5375H57.8648V36.4793C58.2892 32.7713 58.6457 29.6671 58.8955 27.4821C59.0216 26.4005 59.1235 25.542 59.1914 24.96C59.2253 24.6738 59.2544 24.4531 59.2714 24.2979C59.2714 24.2276 59.2884 24.1718 59.2932 24.1282C59.2981 24.0845 59.2932 24.0724 59.2932 24.0748C59.2954 24.095 59.2954 24.1153 59.2932 24.1355C59.2932 24.1791 59.2932 24.2373 59.2762 24.3101C59.2617 24.4677 59.2374 24.6932 59.2083 24.9842C59.1477 25.576 59.0556 26.4393 58.9416 27.5209C58.6991 29.7035 58.3693 32.7955 57.9715 36.4938L57.9182 36.4332C59.4678 36.5253 61.1315 36.7121 62.8727 36.9764C64.6927 37.2519 66.497 37.6227 68.2783 38.0871L68.2007 38.138C68.2322 37.9634 68.2637 37.784 68.2952 37.6045C69.0737 33.186 69.8012 29.0584 70.4123 25.5857L70.4487 25.6463C67.8288 24.8588 65.1306 24.3603 62.4022 24.1597C61.4176 24.0942 60.6367 24.0772 60.1129 24.0797H59.2981L59.2932 24.0603Z" fill="#9AC4D8"/>
<path d="M48.3123 64.1855L58.2831 66.3937L59.8069 64.1855L59.5618 61.3435L58.0465 59.9577H52.8245L47.9461 64.3517" fill="#009BE1"/>
<g opacity="0.3">
<path d="M48.3125 64.1873L58.2833 66.3955L59.8071 64.1873L59.562 61.3453L58.0467 59.9596H52.8247L47.9463 64.3535" fill="black"/>
</g>
<path d="M63.5101 43.6577L76.0975 41.9678L78.0691 41.4044C78.0691 41.4044 82.6067 40.4074 83.0292 40.2553C83.5193 40.0806 83.7221 40.275 83.7728 40.4581C83.8545 40.7397 83.5784 41.0693 83.1616 41.2326C83.0207 41.289 80.7196 42.0776 80.7196 42.0776C80.9838 42.134 81.2436 42.2093 81.497 42.3029C82.0462 42.4888 82.5729 43.1986 82.8377 44.0267C83.1024 44.8548 83.1052 45.1083 82.787 45.2266C82.7259 45.245 82.6615 45.2501 82.5983 45.2413C82.5351 45.2326 82.4746 45.2102 82.4208 45.1759C82.2426 45.0682 82.1087 44.9004 82.0434 44.7027C81.6012 43.3817 80.7759 43.2775 80.7759 43.2775L80.5168 43.3507C80.5168 43.3507 81.3618 43.945 81.3618 44.6661C81.3596 44.7719 81.3366 44.8762 81.2942 44.9731C81.3567 45.1522 81.3714 45.3446 81.3369 45.5312C81.3023 45.7178 81.2196 45.8921 81.097 46.0369C80.9743 46.1817 80.816 46.292 80.6377 46.3569C80.4594 46.4217 80.2672 46.4389 80.0802 46.4067C79.8999 46.3729 79.7028 46.2659 79.6774 46.0856C79.6724 45.9882 79.6928 45.8912 79.7366 45.804C79.7546 45.7552 79.7696 45.7053 79.7816 45.6547L79.0268 45.7589C79.0268 45.7589 77.3171 45.8997 76.582 46.0406L64.7973 49.5895C64.4099 49.7072 64.0029 49.7467 63.6001 49.7056C63.1973 49.6646 62.8067 49.5438 62.451 49.3504C62.0954 49.1569 61.7817 48.8947 61.5283 48.5789C61.2749 48.2631 61.0869 47.9 60.9751 47.5108V47.5108C60.8562 47.0899 60.8293 46.6482 60.8961 46.2159C60.9629 45.7835 61.1219 45.3706 61.3623 45.0052C61.6028 44.6397 61.919 44.3302 62.2896 44.0977C62.6602 43.8652 63.0764 43.7152 63.5101 43.6577V43.6577Z" fill="#FFBE9D"/>
<path d="M76.394 42.2773C76.4208 42.4072 76.4876 42.5255 76.5851 42.6155C76.6827 42.7054 76.806 42.7625 76.9377 42.7786C77.1968 42.8322 77.4672 42.7984 77.7291 42.8322C78.5121 42.9392 79.1233 43.6518 79.9092 43.7194C80.019 43.7194 80.1599 43.7194 80.1908 43.6011C80.2218 43.4828 80.1373 43.4124 80.0613 43.3448L78.0896 41.6069" fill="#FFBE9D"/>
<path d="M78.0972 41.6069C78.1798 41.6541 78.2572 41.7098 78.3281 41.7731C78.469 41.8886 78.6746 42.0548 78.9225 42.2688L79.7928 43.0152L80.0407 43.2321C80.1167 43.3082 80.2463 43.3729 80.2688 43.5532C80.2695 43.5975 80.2571 43.6409 80.233 43.678C80.2089 43.7152 80.1743 43.7443 80.1336 43.7616C80.0668 43.7893 79.9944 43.8009 79.9223 43.7954C79.7939 43.7856 79.6671 43.7601 79.5449 43.7194C79.1109 43.537 78.6901 43.3242 78.2859 43.0828C78.1088 42.9922 77.9188 42.9295 77.7226 42.8969C77.5395 42.8688 77.3592 42.8744 77.1959 42.8631C77.0608 42.867 76.9265 42.8412 76.8025 42.7877C76.6784 42.7342 76.5675 42.6542 76.4776 42.5533C76.3622 42.3928 76.3847 42.2717 76.3903 42.2717C76.421 42.3573 76.4658 42.4373 76.5227 42.5082C76.6121 42.5938 76.7185 42.6596 76.8349 42.7013C76.9514 42.743 77.0753 42.7598 77.1987 42.7505C77.3791 42.7468 77.5596 42.7525 77.7395 42.7674C77.9485 42.7975 78.1518 42.8592 78.3422 42.9505C78.7441 43.1831 79.1599 43.391 79.5872 43.5729C79.6981 43.6073 79.8123 43.63 79.928 43.6405C80.0378 43.6405 80.1308 43.6095 80.1195 43.5532C80.1082 43.4969 80.0294 43.4067 79.9449 43.3335L79.697 43.1138L78.852 42.3421L78.2887 41.8125C78.1563 41.6886 78.0887 41.6154 78.0972 41.6069Z" fill="#EB996E"/>
<path d="M80.5086 43.3286C80.6715 43.2895 80.8414 43.2895 81.0043 43.3286C81.1745 43.3738 81.3256 43.4726 81.4353 43.6103C81.5695 43.7886 81.6741 43.9874 81.7451 44.199C81.818 44.4162 81.9123 44.6257 82.0267 44.8243C82.1264 44.9906 82.2682 45.1276 82.438 45.2214C82.4977 45.252 82.5638 45.268 82.6309 45.268C82.698 45.268 82.7641 45.252 82.8238 45.2214C82.9055 45.1791 82.9365 45.1369 82.9337 45.1341C82.9309 45.1313 82.8886 45.1566 82.8098 45.1876C82.7538 45.2062 82.6945 45.2129 82.6357 45.207C82.577 45.2012 82.5202 45.1831 82.4689 45.1538C82.3173 45.0581 82.1916 44.9265 82.1028 44.7707C81.9896 44.5745 81.8953 44.3679 81.8211 44.1539C81.7453 43.9339 81.6329 43.7282 81.4888 43.5455C81.3667 43.3926 81.1973 43.2846 81.0071 43.2385C80.8804 43.2072 80.748 43.2072 80.6212 43.2385C80.548 43.2948 80.5058 43.323 80.5086 43.3286Z" fill="#EB996E"/>
<path d="M83.3366 41.1621C83.1789 41.1988 83.0252 41.2507 82.8775 41.317L81.7847 41.7198L80.6918 42.1057C80.5361 42.1473 80.3851 42.2049 80.2411 42.2775C80.4023 42.259 80.5609 42.2231 80.7143 42.1705C80.996 42.0888 81.396 41.9649 81.8241 41.8099C82.2522 41.655 82.6381 41.5029 82.9113 41.3818C83.0609 41.3249 83.2036 41.2512 83.3366 41.1621Z" fill="#EB996E"/>
<path d="M80.1766 44.0253C80.1766 44.0253 80.2104 44.0704 80.2752 44.1408C80.3227 44.1848 80.3602 44.2385 80.385 44.2983C80.4098 44.3581 80.4213 44.4226 80.4188 44.4873C80.4123 44.5286 80.3952 44.5675 80.369 44.6001C80.3428 44.6327 80.3085 44.6579 80.2695 44.6732C80.1718 44.7131 80.0697 44.7415 79.9653 44.7577C79.8334 44.7736 79.712 44.8378 79.6245 44.9379C79.5837 44.9978 79.5573 45.0664 79.5475 45.1383C79.5378 45.2102 79.5448 45.2833 79.5682 45.352C79.592 45.4192 79.6292 45.4808 79.6777 45.5331C79.7261 45.5854 79.7847 45.6273 79.8499 45.6562C79.9669 45.7133 80.0987 45.7329 80.2273 45.7125C80.4311 45.6689 80.6276 45.5959 80.8103 45.4956C80.9364 45.4318 81.0507 45.3471 81.1483 45.2449C81.185 45.2079 81.212 45.1624 81.2272 45.1126C81.2272 45.1126 81.1906 45.1548 81.1202 45.2168C81.0176 45.3051 80.9028 45.3781 80.7793 45.4337C80.601 45.5225 80.4115 45.5869 80.216 45.6252C80.102 45.6451 79.9845 45.6262 79.8824 45.5716C79.7803 45.517 79.6994 45.4297 79.6527 45.3238C79.6335 45.2695 79.6271 45.2116 79.6339 45.1544C79.6408 45.0973 79.6607 45.0425 79.6921 44.9943C79.7649 44.9121 79.8649 44.859 79.9738 44.845C80.0846 44.8244 80.1924 44.7904 80.2949 44.7436C80.3434 44.7208 80.3853 44.6861 80.4168 44.6428C80.4483 44.5994 80.4684 44.5489 80.4752 44.4957C80.4759 44.4221 80.4598 44.3493 80.4281 44.2829C80.3964 44.2165 80.3498 44.1583 80.2921 44.1127C80.2273 44.0591 80.1794 44.0197 80.1766 44.0253Z" fill="#EB996E"/>
<path d="M79.9063 45.5945C79.9063 45.5945 79.8528 45.5945 79.7824 45.6536C79.7335 45.697 79.6953 45.7511 79.6709 45.8117C79.6465 45.8723 79.6364 45.9377 79.6415 46.0029C79.6536 46.1002 79.6908 46.1928 79.7496 46.2713C79.8084 46.3499 79.8867 46.4117 79.9767 46.4507C80.1954 46.5385 80.4396 46.5385 80.6583 46.4507C80.8788 46.3737 81.0691 46.2287 81.2019 46.0367C81.3084 45.8814 81.3716 45.7006 81.385 45.5128C81.3953 45.3873 81.3809 45.261 81.3428 45.141C81.3336 45.096 81.3143 45.0536 81.2864 45.0171C81.3171 45.1776 81.3275 45.3413 81.3174 45.5043C81.2917 45.6952 81.2136 45.8752 81.0918 46.0243C80.97 46.1735 80.8092 46.286 80.6273 46.3493C80.4299 46.4263 80.2108 46.4263 80.0133 46.3493C79.9351 46.3184 79.8661 46.2681 79.8129 46.203C79.7596 46.1379 79.7239 46.0603 79.7091 45.9775C79.7021 45.921 79.7073 45.8635 79.7243 45.8091C79.7413 45.7547 79.7698 45.7046 79.8077 45.6621C79.864 45.6198 79.9119 45.6029 79.9063 45.5945Z" fill="#EB996E"/>
<path d="M77.8126 44.5654C77.8126 44.5654 77.8126 44.4753 77.7309 44.3457C77.6231 44.1738 77.4618 44.0422 77.2718 43.9711V44.0556C77.3693 44.0098 77.4634 43.9571 77.5534 43.8979C77.8866 43.7047 78.1596 43.423 78.3421 43.0839C78.0868 43.3568 77.8036 43.6023 77.4971 43.8162C77.4013 43.8754 77.3084 43.9289 77.2155 43.9739L77.1197 44.0246L77.2211 44.0584C77.3964 44.1205 77.55 44.2321 77.6633 44.3795C77.7675 44.4894 77.7985 44.5682 77.8126 44.5654Z" fill="#EB996E"/>
<path d="M81.7313 43.2164C81.7144 43.1995 81.582 43.3459 81.5651 43.5797C81.5482 43.8135 81.6609 43.974 81.6834 43.96C81.706 43.9459 81.6468 43.7882 81.6637 43.5854C81.6806 43.3826 81.7567 43.2333 81.7313 43.2164Z" fill="#EB996E"/>
<path d="M23.0019 47.5979C23.0019 47.5979 21.1655 44.6208 20.8388 44.3673C20.512 44.1138 17.6025 43.0491 17.3546 43.128C17.1068 43.2068 13.5804 43.8068 13.9747 44.2265C14.369 44.6461 16.8392 44.1898 16.8392 44.1898L17.1715 44.356C17.1715 44.356 15.045 44.694 14.5972 44.9531C14.1493 45.2123 14.3155 45.6939 14.7183 45.6545C15.121 45.615 16.9518 45.2573 17.0617 45.3334C17.1715 45.4094 15.0534 45.8319 14.8253 45.9643C14.5183 46.1474 14.4873 46.691 14.876 46.6656C15.1041 46.6487 17.1011 46.1333 17.1011 46.1333C16.5114 46.3513 15.9341 46.6014 15.3717 46.8825C15.1323 47.1107 15.321 47.4458 15.6534 47.3782C15.89 47.3275 17.0082 46.7924 17.3236 46.7248C17.3236 46.7248 17.6053 46.8037 17.887 47.4008C18.0109 47.6824 18.5798 49.4146 19.6192 49.3921C20.5402 49.3724 21.4443 50.1301 21.4443 50.1301L23.0019 47.5979Z" fill="#FFBE9D"/>
<path d="M13.9917 44.2339C14.1911 44.3372 14.4098 44.3976 14.6339 44.4114C14.8745 44.4458 15.1179 44.4562 15.3606 44.4424C15.6422 44.4114 15.9239 44.3719 16.2337 44.3269L16.8928 44.2311H16.8534C17.3457 44.4335 17.8546 44.5927 18.3744 44.7071C17.9032 44.4587 17.4124 44.2495 16.9069 44.0818H16.89H16.8675L16.214 44.1691L15.3493 44.2959C15.115 44.314 14.8795 44.314 14.6452 44.2959C14.2452 44.2677 13.9973 44.2086 13.9917 44.2339Z" fill="#EB996E"/>
<path d="M21.6246 47.2553C21.5049 47.3404 21.3617 47.3861 21.2148 47.3861C21.0679 47.3861 20.9247 47.3404 20.805 47.2553C20.5543 47.1032 20.36 46.8722 20.1206 46.6919C19.4051 46.1849 18.3715 46.3061 17.6786 45.7653C17.5828 45.692 17.487 45.5681 17.5406 45.4583C17.5941 45.3484 17.7265 45.3456 17.8419 45.3484L20.7459 45.416" fill="#FFBE9D"/>
<path d="M20.7453 45.4187C20.6431 45.3932 20.5381 45.38 20.4327 45.3793C20.2299 45.3793 19.937 45.3483 19.5877 45.3342L18.3174 45.2835H17.9484C17.8751 45.2696 17.7998 45.2704 17.7267 45.2859C17.6537 45.3014 17.5845 45.3312 17.5231 45.3737C17.4871 45.4099 17.4631 45.4565 17.4545 45.5069C17.446 45.5573 17.4532 45.6092 17.4752 45.6553C17.508 45.7292 17.5582 45.794 17.6217 45.844C17.7343 45.9313 17.8561 46.006 17.9851 46.0665C18.4767 46.2452 18.9802 46.3892 19.4919 46.4975C19.7029 46.5613 19.9033 46.6562 20.0862 46.7791C20.2552 46.8946 20.3961 47.0355 20.5397 47.1509C20.6473 47.2543 20.7761 47.3331 20.9171 47.3817C21.0582 47.4304 21.2081 47.4477 21.3565 47.4326C21.5734 47.3932 21.6382 47.2749 21.6382 47.2749C21.5502 47.3221 21.4551 47.3544 21.3565 47.3706C21.2194 47.3706 21.0838 47.3426 20.9579 47.2884C20.832 47.2341 20.7184 47.1548 20.6242 47.0552C20.4918 46.9397 20.3426 46.7932 20.1736 46.6608C19.9813 46.5274 19.7694 46.4248 19.5455 46.3567C19.0443 46.242 18.5505 46.0971 18.0667 45.9229C17.9493 45.868 17.8379 45.801 17.7344 45.7229C17.6414 45.6469 17.5964 45.5427 17.6471 45.5032C17.6978 45.4638 17.8301 45.4553 17.9541 45.4582H18.3202H19.5933C19.9539 45.4582 20.2468 45.4582 20.4383 45.4582C20.5419 45.4585 20.6452 45.4452 20.7453 45.4187V45.4187Z" fill="#EB996E"/>
<path d="M44.1155 117.913L49.6445 74.1287L47.8757 63.9495L37.4542 64.5128L36.1501 117.105C36.1441 117.294 36.206 117.48 36.3248 117.628C36.4436 117.777 36.6113 117.877 36.7979 117.913L42.8705 118.851C43.0141 118.873 43.1605 118.866 43.3013 118.83C43.4421 118.795 43.5744 118.731 43.6903 118.644C43.8063 118.556 43.9037 118.447 43.9767 118.321C44.0497 118.196 44.0969 118.057 44.1155 117.913V117.913Z" fill="#263238"/>
<path d="M49.4843 75.5888L59.5424 85.5427L45.0735 89.0607L46.1016 96.3613L65.6883 93.6968C66.5164 93.5834 67.3129 93.3029 68.0295 92.8725C68.746 92.4421 69.3677 91.8707 69.8568 91.1928V91.1928C70.5976 90.1662 71.0042 88.9362 71.0214 87.6703C71.0385 86.4044 70.6653 85.1639 69.9526 84.1175L54.6922 61.7198L47.876 63.9422L49.4843 75.5888Z" fill="#263238"/>
<path d="M48.9284 73.0622C49.0922 73.4644 49.2094 73.884 49.2777 74.3128C49.3967 74.7303 49.4657 75.1605 49.4833 75.5944C49.3215 75.1915 49.2044 74.7722 49.134 74.3438C49.0183 73.9255 48.9493 73.4957 48.9284 73.0622V73.0622Z" fill="#455A64"/>
<path d="M47.4555 89.9744L47.6949 89.8955L48.3991 89.6758L51.0974 88.8562L60.9161 85.9044L60.8907 85.9973L48.8187 73.1395L48.9455 73.1001C48.7061 75.1196 48.4554 77.2292 48.2019 79.3811C46.957 89.8026 45.7853 99.2438 44.8811 106.066C44.4305 109.477 44.0361 112.234 43.7545 114.138C43.5939 115.084 43.4728 115.828 43.3771 116.321C43.3264 116.566 43.2841 116.752 43.2559 116.884C43.2278 117.017 43.2109 117.076 43.2109 117.076C43.2109 117.076 43.2109 117.008 43.2419 116.881C43.2728 116.755 43.3038 116.56 43.3489 116.318C43.4503 115.822 43.5461 115.082 43.6982 114.132C43.9798 112.226 44.3516 109.468 44.7854 106.054C45.667 99.2326 46.819 89.7941 48.0639 79.367C48.3202 77.2151 48.5709 75.1055 48.8103 73.086L48.8272 72.9311L48.9342 73.0437L60.9752 85.9241L61.0372 85.9917L60.9499 86.017L51.1171 88.9238L48.4075 89.7152L47.7006 89.918C47.5485 89.9744 47.4555 89.9744 47.4555 89.9744Z" fill="#455A64"/>
<path d="M44.2077 117.08C44.1682 117.08 45.3174 107.785 46.7736 96.3243C48.2298 84.8635 49.4438 75.5828 49.4832 75.5884C49.5226 75.5941 48.3763 84.8833 46.9201 96.344C45.4639 107.805 44.2499 117.083 44.2077 117.08Z" fill="#455A64"/>
<path d="M47.8528 68.4261C47.9536 68.6435 48.031 68.871 48.0837 69.1049C48.2077 69.5273 48.3654 70.1217 48.5062 70.7807C48.6471 71.4398 48.7569 72.0426 48.8217 72.4707C48.8713 72.7049 48.8949 72.9439 48.8921 73.1833C48.8121 72.9576 48.7546 72.7246 48.7203 72.4876C48.6161 72.006 48.495 71.4342 48.3626 70.7976C48.2302 70.1611 48.0809 69.5978 47.9852 69.1077C47.9178 68.8856 47.8734 68.6572 47.8528 68.4261V68.4261Z" fill="#455A64"/>
<path d="M48.4972 67.5738C48.4972 67.5738 48.6381 67.4357 48.9056 67.5287C48.9833 67.5572 49.0522 67.6054 49.1055 67.6686C49.1589 67.7318 49.1948 67.8079 49.2098 67.8892C49.2293 67.991 49.218 68.0963 49.1774 68.1916C49.1368 68.2869 49.0686 68.368 48.9817 68.4244C48.8927 68.4721 48.7914 68.4919 48.6909 68.4814C48.5905 68.4708 48.4955 68.4304 48.4184 68.3652C48.3547 68.3106 48.3085 68.2386 48.2855 68.1579C48.2625 68.0773 48.2636 67.9917 48.2888 67.9118C48.3169 67.8069 48.3846 67.7171 48.4775 67.6611C48.5423 67.6245 48.5845 67.6245 48.5874 67.6329C48.4904 67.7091 48.4212 67.815 48.3902 67.9343C48.3765 67.9941 48.3801 68.0565 48.4006 68.1144C48.421 68.1722 48.4575 68.2231 48.5057 68.261C48.5641 68.3069 48.6347 68.3348 48.7087 68.3413C48.7827 68.3478 48.857 68.3326 48.9225 68.2976C48.9838 68.2554 49.0321 68.1969 49.062 68.1287C49.0918 68.0606 49.1021 67.9854 49.0915 67.9118C49.0814 67.851 49.0565 67.7936 49.0193 67.7445C48.982 67.6954 48.9333 67.6562 48.8775 67.6301C48.7577 67.5787 48.6267 67.5593 48.4972 67.5738V67.5738Z" fill="#455A64"/>
<path d="M62.5052 87.2548C62.4742 87.2858 61.908 86.7647 61.0968 86.2971C60.2857 85.8296 59.5533 85.5874 59.5674 85.5451C60.1387 85.6452 60.6844 85.8577 61.1729 86.1704C61.6834 86.4415 62.136 86.8099 62.5052 87.2548V87.2548Z" fill="#455A64"/>
<path d="M40.7668 34.0877L34.9928 36.8761L37.4827 54.2489L36.5053 62.0453C36.4427 62.5401 36.5027 63.0426 36.68 63.5087C36.8573 63.9748 37.1465 64.3902 37.5221 64.7183V64.7183L46.8479 64.5352L53.3712 60.9553L56.3709 60.4483L55.1428 54.5137L55.7061 46.0949L62.5308 49.7367C63.0565 50.0182 63.6688 50.0916 64.2461 49.9423L76.749 46.6948L76.0984 41.8728L64.77 43.1543L56.1427 35.5326L49.7208 34.0877L48.5829 32.1977H42.0118L41.5414 32.5413C41.3219 32.7064 41.1562 32.9328 41.0654 33.192L40.7668 34.0877Z" fill="#009BE1"/>
<path d="M34.9917 36.8909C33.7915 37.7164 32.8819 38.899 32.392 40.2708C31.7329 42.3213 30.2429 50.6106 30.2429 50.6106L23.683 46.5491L19.9031 50.5233L28.6346 58.2352C29.2903 58.8137 30.1019 59.1861 30.9681 59.3058C31.8343 59.4256 32.7165 59.2873 33.5045 58.9083V58.9083C34.1662 58.5892 34.7386 58.1112 35.1706 57.517C35.6026 56.9228 35.8808 56.2309 35.9803 55.5031L37.0535 47.6419L34.9917 36.8909Z" fill="#009BE1"/>
<path d="M54.6921 61.7239L54.2865 61.1268L49.9686 61.9239L49.1743 63.7631L54.6921 61.7239Z" fill="#FFBE9D"/>
<path d="M37.5219 64.7231C41.3806 66.2751 45.5013 65.7033 49.1742 63.757C50.2839 63.1683 51.312 62.4388 52.4274 61.8586C53.5428 61.2784 54.7764 60.8531 56.0298 60.9404C57.2832 61.0277 58.5451 61.7178 59.0464 62.8698C59.5478 64.0218 59.0464 65.5878 57.8662 66.0188L58.2831 66.3905C60.0153 65.585 60.8378 63.2528 59.9928 61.5375C59.345 60.225 57.9817 59.4392 56.9846 58.366C55.5172 56.7887 55.3651 53.7355 55.3538 51.3583" fill="#009BE1"/>
<path d="M45.9851 37.4653C45.8914 37.4728 45.7972 37.4728 45.7035 37.4653C45.4451 37.4859 45.2026 37.5977 45.019 37.7807C44.7735 38.0932 44.6521 38.4854 44.6782 38.882C44.6806 39.3911 44.787 39.8943 44.9909 40.3607L45.1007 40.603L44.8895 40.4452C44.3682 40.0585 43.881 39.6279 43.4333 39.158C42.4751 38.1704 41.7158 37.0076 41.1969 35.733C41.0445 35.3471 40.923 34.9496 40.8336 34.5444C40.8005 34.3951 40.7788 34.2435 40.7688 34.091C40.9095 34.6357 41.0845 35.1709 41.2927 35.6936C41.835 36.9412 42.5984 38.0806 43.5459 39.0566C43.988 39.5196 44.4664 39.9462 44.9768 40.3326L44.8726 40.4199C44.7603 40.167 44.6799 39.9011 44.6332 39.6284C44.5846 39.3827 44.5629 39.1324 44.5684 38.882C44.5479 38.4587 44.69 38.0436 44.9655 37.7216C45.165 37.5304 45.43 37.4226 45.7063 37.4202C45.8007 37.4244 45.8942 37.4395 45.9851 37.4653V37.4653Z" fill="#263238"/>
<path d="M46.3295 37.4596C46.8055 37.2539 47.5096 37.5553 47.8504 37.944C48.0758 38.2031 48.2025 38.558 48.4983 38.727C48.794 38.896 49.7347 39.0284 50.008 38.82C50.008 38.82 50.1741 38.0172 50.2643 37.6933C50.5778 36.4277 50.7916 35.1393 50.9036 33.8402C49.9967 33.398 50.2474 32.8178 48.6109 32.9305C48.8471 33.6776 48.8676 34.4762 48.6701 35.2344" fill="#009BE1"/>
<path d="M48.6725 35.226C48.6556 35.226 48.7316 35.0091 48.7654 34.6091C48.8029 34.0446 48.7341 33.4781 48.5627 32.9389L48.5429 32.8713H48.6105C49.0154 32.8185 49.4269 32.855 49.816 32.9783C50.0277 33.0756 50.2189 33.2123 50.3794 33.3811C50.5458 33.5392 50.7358 33.6703 50.9427 33.7698L50.9878 33.7923V33.8402C50.9145 34.5246 50.8328 35.271 50.7061 36.0428C50.6216 36.547 50.5202 37.0342 50.4019 37.499C50.2836 37.9637 50.1907 38.4116 50.0921 38.8341V38.8622L50.0752 38.8763C49.9279 38.9598 49.7599 38.9999 49.5907 38.9918C49.44 38.9939 49.2893 38.9845 49.1401 38.9636C48.9971 38.9433 48.8559 38.9122 48.7176 38.8707C48.5806 38.8338 48.4543 38.7653 48.3486 38.6707C48.1846 38.4865 48.0393 38.2865 47.9148 38.0736C47.7946 37.9112 47.6433 37.7743 47.4698 37.6708C47.2275 37.5142 46.947 37.4266 46.6586 37.4173C46.556 37.4227 46.4542 37.4378 46.3544 37.4624C46.4468 37.4079 46.5515 37.3778 46.6586 37.3751C46.9561 37.367 47.2496 37.4452 47.5036 37.6004C47.691 37.7049 47.8549 37.8468 47.9853 38.0172C48.1105 38.2184 48.2548 38.4071 48.4162 38.5806C48.6311 38.7333 48.8852 38.8212 49.1485 38.8341C49.2913 38.8529 49.4354 38.8605 49.5794 38.8566C49.7204 38.8613 49.8602 38.8292 49.985 38.7636L49.9597 38.8031C50.0555 38.3778 50.1456 37.9215 50.2611 37.4596C50.3766 36.9976 50.4779 36.5132 50.5596 36.0118C50.6892 35.2457 50.7737 34.5021 50.8413 33.8205L50.8807 33.8909C50.6578 33.7851 50.4526 33.6454 50.2723 33.4769C50.1271 33.3168 49.952 33.1867 49.7569 33.0938C49.3864 32.9739 48.9948 32.9336 48.6077 32.9755L48.6556 32.9051C48.8211 33.4589 48.8757 34.0399 48.8161 34.6148C48.7957 34.77 48.7637 34.9235 48.7204 35.0739C48.7107 35.1263 48.6946 35.1774 48.6725 35.226V35.226Z" fill="#263238"/>
<path d="M58.2937 61.81C58.2937 61.81 58.2937 61.7001 58.2937 61.4889C58.2687 61.1809 58.1722 60.8829 58.0121 60.6186C57.7552 60.2042 57.3989 59.8605 56.9756 59.6187C56.4047 59.3151 55.7737 59.142 55.1279 59.1117C54.4124 59.0469 53.6182 59.0863 52.7647 59.0272C51.8529 58.9771 50.9543 58.7871 50.1002 58.4638C49.1482 58.0992 48.3164 57.477 47.6976 56.6669C47.3767 56.2341 47.1424 55.7435 47.0076 55.2219C46.8731 54.6855 46.82 54.132 46.8498 53.5798C46.8921 52.4532 47.1484 51.4082 47.3033 50.383C47.4581 49.3983 47.5521 48.4049 47.585 47.4087C47.6676 44.5737 47.2607 41.7457 46.3823 39.049C46.264 38.6631 46.1541 38.3702 46.0837 38.1702C46.0499 38.0744 46.0246 37.9984 46.0049 37.9392C45.9942 37.9139 45.9866 37.8875 45.9823 37.8604C45.9823 37.8604 45.9964 37.8829 46.0189 37.9336C46.0415 37.9843 46.0725 38.066 46.1119 38.1589C46.1908 38.3561 46.3091 38.6462 46.4386 39.0321C46.8122 40.1132 47.1059 41.2203 47.3174 42.3444C47.6271 44.0158 47.7621 45.7149 47.7202 47.4143C47.6887 48.4172 47.5946 49.4172 47.4385 50.4083C47.2864 51.4392 47.0329 52.4926 46.9907 53.5883C46.905 54.652 47.194 55.7121 47.8075 56.5852C48.4088 57.3757 49.2183 57.9833 50.1453 58.3399C50.9854 58.6608 51.8698 58.8508 52.7675 58.9032C53.6125 58.9652 54.4068 58.9342 55.1335 59.0075C55.7996 59.045 56.4486 59.2327 57.0319 59.5567C57.4623 59.8097 57.8211 60.1684 58.074 60.5988C58.2323 60.8717 58.3213 61.1793 58.3332 61.4945C58.3371 61.5765 58.3324 61.6586 58.3191 61.7396C58.3022 61.7931 58.2965 61.81 58.2937 61.81Z" fill="#263238"/>
<path d="M54.0799 56.6788C53.9827 56.8013 53.8742 56.9145 53.7559 57.0168C53.6489 57.121 53.5137 57.2477 53.3504 57.3858C53.187 57.5238 53.0067 57.69 52.787 57.8505C52.2905 58.2417 51.7703 58.602 51.2294 58.9293C49.9009 59.7304 48.4624 60.3329 46.9595 60.7178C46.3468 60.8739 45.725 60.9915 45.0977 61.0699C44.8301 61.1121 44.5879 61.1262 44.3738 61.1431C44.1598 61.16 43.9767 61.1713 43.8246 61.1741C43.669 61.1875 43.5126 61.1875 43.357 61.1741C43.5104 61.1451 43.6658 61.1272 43.8218 61.1206C43.971 61.1206 44.1541 61.0952 44.3654 61.0671C44.5766 61.0389 44.8188 61.022 45.0836 60.9741C45.7041 60.8796 46.319 60.7517 46.9257 60.5911C47.6662 60.3901 48.3934 60.1427 49.1029 59.8503C49.8097 59.5501 50.4965 59.2049 51.159 58.8166C51.6993 58.4975 52.2221 58.1496 52.7251 57.7744C52.9419 57.6195 53.1278 57.4618 53.2884 57.3294C53.4489 57.197 53.5954 57.0787 53.7081 56.9802C53.8247 56.871 53.9489 56.7703 54.0799 56.6788V56.6788Z" fill="#263238"/>
<path d="M52.2673 47.4464C52.2664 47.4989 52.2579 47.5511 52.242 47.6013L52.1434 48.0407C52.0946 48.2731 52.0326 48.5026 51.9575 48.7279C51.873 48.9927 51.7913 49.2912 51.6589 49.6236C51.5941 49.787 51.5294 49.9588 51.4618 50.1362C51.3942 50.3137 51.3012 50.4911 51.2195 50.6798C51.0562 51.0601 50.8421 51.4431 50.6252 51.8515C49.6369 53.6086 48.3303 55.1664 46.7721 56.4454C46.4059 56.7271 46.0651 57.0087 45.7187 57.2341C45.5497 57.3495 45.3891 57.4678 45.2258 57.5692L44.7554 57.8509C44.4738 58.0396 44.1724 58.1748 43.9245 58.3044C43.7159 58.416 43.5015 58.5166 43.2823 58.6058L42.8655 58.7804C42.8174 58.8018 42.7674 58.8188 42.7162 58.8311C42.759 58.7996 42.8053 58.7731 42.8542 58.7522L43.257 58.5551C43.4344 58.4734 43.6485 58.3692 43.8879 58.2311C44.1273 58.0931 44.4118 57.9495 44.7019 57.7636L45.1638 57.4819C45.3244 57.3805 45.4821 57.2594 45.6511 57.1439C45.9891 56.9158 46.3243 56.6369 46.6848 56.3497C47.4458 55.7059 48.1532 55.0013 48.8001 54.2428C49.4333 53.4737 50.0041 52.6552 50.5069 51.7952C50.7266 51.3896 50.9435 51.0122 51.1069 50.6376C51.1942 50.4517 51.2843 50.2742 51.3575 50.0996L51.5603 49.5926C51.7012 49.2743 51.7885 48.973 51.8786 48.711C51.9687 48.4491 52.0392 48.2209 52.0899 48.0322L52.2138 47.6013C52.224 47.5473 52.242 47.4951 52.2673 47.4464Z" fill="#263238"/>
<path d="M40.3888 66.1437C40.194 66.0501 40.0191 65.9201 39.8733 65.7606C39.5004 65.3967 39.2044 64.9616 39.0026 64.4812C38.8009 64.0008 38.6976 63.4848 38.6988 62.9638C38.6881 62.7491 38.7167 62.5343 38.7833 62.33C38.8086 62.33 38.7833 62.5751 38.803 62.9609C38.8595 63.9755 39.2644 64.9396 39.9494 65.6902C40.2113 65.9747 40.4141 66.124 40.3888 66.1437Z" fill="#263238"/>
<path d="M40.1835 63.9495C40.2257 63.9495 40.1469 64.3241 40.1835 64.7663C40.2201 65.2086 40.3581 65.555 40.3187 65.5747C40.1604 65.3375 40.0648 65.064 40.0406 64.7799C40.0165 64.4957 40.0647 64.2101 40.1807 63.9495H40.1835Z" fill="#263238"/>
<path d="M37.4032 53.8683C37.3853 53.8261 37.3739 53.7815 37.3694 53.7359C37.3497 53.6317 37.3272 53.5049 37.299 53.3528C37.2399 52.998 37.1582 52.5079 37.0624 51.9445C36.8653 50.7531 36.5836 49.1082 36.2456 47.2971C35.9076 45.4861 35.5781 43.8468 35.3443 42.661C35.226 42.0977 35.1274 41.6132 35.0626 41.2527C35.0317 41.1006 35.0091 40.971 34.9894 40.8724C34.9762 40.8277 34.9705 40.7811 34.9725 40.7344C34.993 40.7755 35.0082 40.8191 35.0176 40.864C35.0457 40.9682 35.0767 41.0921 35.1162 41.2414C35.2007 41.5682 35.3161 42.0442 35.4513 42.6328C35.733 43.8102 36.0682 45.4494 36.409 47.2577C36.7498 49.066 37.0089 50.7221 37.1807 51.9164C37.268 52.5163 37.3328 53.0008 37.3723 53.3247C37.3892 53.4796 37.4032 53.6063 37.4145 53.7134C37.4197 53.7653 37.4159 53.8177 37.4032 53.8683Z" fill="#263238"/>
<path d="M55.4291 53.8673C55.4203 53.8218 55.4156 53.7756 55.4151 53.7293C55.4151 53.6194 55.4151 53.487 55.4151 53.3293C55.4151 52.98 55.4151 52.4843 55.4151 51.8562C55.4151 50.6141 55.4827 48.8988 55.6263 47.0088C55.77 45.1189 55.9587 43.412 56.1051 42.1783C56.1812 41.5784 56.2431 41.0855 56.291 40.7193C56.3136 40.5616 56.3333 40.4292 56.3502 40.3222C56.3548 40.2763 56.3642 40.231 56.3783 40.187C56.3858 40.2336 56.3858 40.2812 56.3783 40.3278C56.3783 40.4349 56.3586 40.5672 56.3474 40.725C56.3136 41.0939 56.2657 41.5869 56.2093 42.1896C56.0882 43.4233 55.9277 45.1301 55.7728 47.0201C55.6179 48.91 55.5587 50.6197 55.5193 51.859C55.5024 52.4618 55.4883 52.9575 55.477 53.3293L55.4629 53.7293C55.459 53.7767 55.4476 53.8233 55.4291 53.8673Z" fill="#263238"/>
<path d="M32.9077 54.5912C32.8598 54.6109 32.488 53.5857 31.781 52.4703C31.074 51.3549 30.2178 50.6536 30.2544 50.617C30.4621 50.7393 30.6517 50.89 30.8177 51.0648C31.2319 51.4639 31.6003 51.9079 31.9162 52.3886C32.2263 52.8717 32.4904 53.3828 32.7049 53.9152C32.8003 54.1312 32.8684 54.3583 32.9077 54.5912Z" fill="#263238"/>
<path d="M33.3931 53.3687C33.2767 53.1874 33.1714 52.9993 33.0776 52.8054C32.8198 52.3767 32.4901 51.9956 32.1031 51.6788C31.7078 51.3652 31.2755 51.1012 30.8159 50.8929C30.6205 50.8152 30.432 50.7209 30.2525 50.6113C30.4639 50.6415 30.6698 50.7022 30.8638 50.7915C31.3483 50.9758 31.8007 51.2353 32.2045 51.5605C32.6077 51.8902 32.9385 52.2997 33.1762 52.7632C33.2835 52.9507 33.357 53.1557 33.3931 53.3687Z" fill="#263238"/>
<path d="M36.2927 46.5931C36.2927 46.5931 36.2787 46.6382 36.2336 46.717C36.1653 46.8309 36.0787 46.9327 35.9773 47.0184C35.7877 47.1763 35.5662 47.2913 35.3279 47.3554C35.0897 47.4196 34.8404 47.4315 34.5972 47.3902C34.2396 47.3154 33.9011 47.168 33.6027 46.9573C33.3043 46.7466 33.0522 46.4769 32.8621 46.165C32.6351 45.8103 32.4463 45.4327 32.2988 45.0383C32.2199 44.8327 32.1411 44.6243 32.0735 44.4046C31.9987 44.1759 31.9719 43.9343 31.9946 43.6948C32.0228 43.4455 32.1459 43.2165 32.3382 43.0554C32.4374 42.9838 32.5515 42.9355 32.6719 42.914C32.7924 42.8926 32.9161 42.8985 33.0339 42.9315C33.2482 42.9916 33.4446 43.1031 33.606 43.2562C33.7675 43.4093 33.8892 43.5995 33.9606 43.8103C34.0301 43.9985 34.0558 44.2 34.0358 44.3996C34.0158 44.5992 33.9506 44.7916 33.8451 44.9623C33.6611 45.2583 33.3758 45.4775 33.0424 45.5791C32.7644 45.6624 32.4664 45.6485 32.1974 45.5397C31.9991 45.4623 31.821 45.3409 31.6763 45.1848C31.5837 45.0892 31.5093 44.9775 31.4566 44.8552C31.42 44.7707 31.4087 44.7257 31.4144 44.7229C31.4939 44.8775 31.5954 45.0198 31.7158 45.1453C31.8612 45.2864 32.035 45.3949 32.2256 45.4636C32.4751 45.5531 32.7469 45.559 33.0001 45.4805C33.3052 45.3813 33.5643 45.1752 33.7296 44.9003C33.823 44.745 33.8799 44.5705 33.896 44.3899C33.9121 44.2094 33.887 44.0276 33.8226 43.8582C33.7569 43.668 33.6455 43.4968 33.4981 43.3598C33.3508 43.2228 33.172 43.1241 32.9776 43.0723C32.882 43.0466 32.782 43.0423 32.6846 43.0599C32.5872 43.0774 32.4949 43.1163 32.4143 43.1737C32.2546 43.3112 32.1537 43.5048 32.1326 43.7145C32.0819 44.1511 32.2791 44.5792 32.4143 44.9848C32.5593 45.3802 32.7483 45.7581 32.9776 46.1114C33.1563 46.4112 33.3935 46.672 33.6752 46.8781C33.9568 47.0843 34.2771 47.2316 34.6169 47.3113C34.8478 47.3538 35.085 47.3477 35.3134 47.2933C35.5418 47.239 35.7564 47.1377 35.9435 46.9959C36.0763 46.8768 36.1937 46.7414 36.2927 46.5931V46.5931Z" fill="#009BE1"/>
<path d="M47.369 50.9132L47.2901 50.978C47.2338 51.0258 47.1549 51.085 47.0563 51.161C46.7527 51.3931 46.4284 51.5968 46.0874 51.7694C45.8374 51.8945 45.5709 51.9837 45.296 52.0342C44.966 52.0929 44.6268 52.0707 44.3073 51.9694C43.5473 51.6705 42.9163 51.1143 42.5244 50.3977C41.9818 49.4918 41.6994 48.4539 41.7084 47.398C41.7173 46.342 42.0172 45.309 42.5751 44.4124C42.8837 43.8761 43.3457 43.4445 43.9017 43.1731C44.2004 43.0443 44.5294 43.0023 44.8509 43.052C45.1844 43.097 45.4873 43.2697 45.6959 43.5337C45.9007 43.8097 45.9951 44.1522 45.9607 44.4941C45.9359 44.8328 45.8316 45.1609 45.6565 45.4518C45.2889 46.0364 44.7383 46.483 44.0905 46.7221C43.4487 46.9613 42.7566 47.033 42.0794 46.9305C41.424 46.829 40.8028 46.571 40.2683 46.1785C39.2733 45.4205 38.5302 44.38 38.1361 43.1928C37.9132 42.6522 37.8243 42.0656 37.877 41.4832C37.9203 41.2006 38.0335 40.9333 38.2066 40.7058C38.3749 40.4793 38.6186 40.3205 38.8938 40.2579C39.1509 40.2102 39.416 40.2302 39.663 40.3162C39.9099 40.4021 40.1302 40.551 40.3021 40.748C40.4563 40.933 40.567 41.1503 40.626 41.3838C40.685 41.6174 40.6908 41.8611 40.6429 42.0972C40.5686 42.5224 40.3673 42.9152 40.0655 43.2238C39.7953 43.4957 39.4709 43.7078 39.1135 43.8463C38.5441 44.0664 37.9344 44.1624 37.325 44.128C36.9476 44.1101 36.5715 44.0716 36.1983 44.0125L35.9026 43.9646L35.804 43.9449H35.9054L36.2011 43.9787C36.4603 44.004 36.8433 44.0547 37.3278 44.066C37.9268 44.0942 38.5251 43.9983 39.0853 43.7843C39.43 43.6472 39.7419 43.4389 40.0007 43.1731C40.2883 42.8733 40.4779 42.4932 40.5443 42.0831C40.5875 41.8624 40.5809 41.6348 40.5248 41.4169C40.4688 41.1991 40.3648 40.9966 40.2204 40.8241C40.0591 40.6439 39.8541 40.5084 39.6252 40.4304C39.3964 40.3525 39.1512 40.3348 38.9135 40.3791C38.6659 40.454 38.4464 40.6013 38.2832 40.8021C38.1201 41.0029 38.0208 41.248 37.9981 41.5057C37.9479 42.067 38.0369 42.632 38.2573 43.1506C38.6436 44.3096 39.3699 45.3254 40.3415 46.0658C40.8597 46.4423 41.4604 46.6895 42.0935 46.7868C42.745 46.8867 43.4112 46.8178 44.0285 46.5869C44.646 46.3617 45.1712 45.9376 45.5213 45.3814C45.683 45.1085 45.7794 44.802 45.8029 44.4857C45.8358 44.1801 45.7523 43.8734 45.5692 43.6266C45.3809 43.39 45.1084 43.2356 44.8087 43.1957C44.5131 43.1498 44.2106 43.1878 43.9355 43.3055C43.4057 43.5653 42.9654 43.9771 42.6709 44.4885C42.0776 45.4209 41.7783 46.5102 41.8118 47.6149C41.832 48.5777 42.1008 49.5188 42.592 50.347C42.9678 51.0474 43.5766 51.5944 44.313 51.8934C44.89 52.0616 45.5097 52.0001 46.0424 51.7215C46.3836 51.5544 46.7105 51.3594 47.0197 51.1385L47.262 50.9695C47.2951 50.9462 47.331 50.9273 47.369 50.9132Z" fill="#009BE1"/>
<path d="M39.5971 35.1178C39.579 35.2052 39.5486 35.2896 39.507 35.3685C39.4062 35.5907 39.2845 35.8029 39.1436 36.0022C38.6839 36.6713 38.0561 37.2076 37.3233 37.5571C36.5906 37.9067 35.7788 38.0572 34.9694 37.9936C34.7269 37.9779 34.4864 37.9392 34.2512 37.8781C34.1624 37.8618 34.0768 37.8314 33.9977 37.788C33.9977 37.7626 34.3695 37.8696 34.9751 37.8922C35.7635 37.9245 36.5478 37.7638 37.2601 37.4241C37.9723 37.0845 38.5908 36.5761 39.062 35.9431C39.4253 35.4586 39.569 35.1037 39.5971 35.1178Z" fill="#009BE1"/>
<path d="M43.7574 36.3119C43.4722 36.396 43.2036 36.5284 42.9631 36.7034C42.7507 36.912 42.5763 37.156 42.4477 37.4245C42.4308 37.4245 42.4252 37.3118 42.4815 37.1428C42.5596 36.9273 42.6928 36.7359 42.8677 36.5877C43.0426 36.4395 43.2532 36.3396 43.4786 36.2978C43.6504 36.2725 43.7574 36.295 43.7574 36.3119Z" fill="#009BE1"/>
<path d="M49.7087 37.9669C49.6218 37.9484 49.54 37.9109 49.4693 37.857C49.2641 37.7289 49.0845 37.5636 48.9398 37.3698C48.7175 37.0812 48.5818 36.7354 48.5483 36.3727C48.5294 36.1474 48.5913 35.9228 48.7229 35.7389C48.7925 35.6341 48.891 35.5517 49.0065 35.5017C49.122 35.4517 49.2495 35.4363 49.3735 35.4573C49.4944 35.4879 49.6053 35.5494 49.6951 35.6358C49.785 35.7223 49.8509 35.8306 49.8862 35.9502C49.9221 36.0602 49.929 36.1776 49.9063 36.2911C49.8836 36.4046 49.8321 36.5103 49.7566 36.598C49.6372 36.7454 49.4748 36.8518 49.2919 36.9023C49.1091 36.9528 48.9151 36.9449 48.737 36.8797C48.5046 36.79 48.3071 36.6281 48.1737 36.4178C48.1203 36.3464 48.0845 36.2634 48.0695 36.1755C48.0695 36.1755 48.1202 36.2572 48.2216 36.384C48.3601 36.5665 48.5491 36.7046 48.7652 36.7811C48.9208 36.8328 49.0884 36.836 49.2459 36.7902C49.4033 36.7445 49.5432 36.6519 49.6468 36.5248C49.7061 36.4534 49.7463 36.3682 49.7635 36.277C49.7807 36.1858 49.7745 36.0918 49.7453 36.0037C49.7156 35.9094 49.6626 35.8241 49.5913 35.7557C49.5199 35.6873 49.4324 35.6379 49.3369 35.6122C49.2402 35.5962 49.141 35.6084 49.0511 35.6474C48.9612 35.6864 48.8844 35.7504 48.8299 35.8319C48.7197 35.9888 48.666 36.1785 48.6778 36.3699C48.7035 36.7104 48.8213 37.0376 49.0187 37.3163C49.2117 37.5693 49.4448 37.7891 49.7087 37.9669V37.9669Z" fill="#009BE1"/>
<path d="M50.8355 34.6775C50.5615 34.4122 50.2468 34.1925 49.9032 34.0268C49.54 33.9044 49.1598 33.8398 48.7766 33.8353C48.7766 33.8184 48.8977 33.7677 49.1146 33.7536C49.4032 33.7327 49.6926 33.78 49.9596 33.8916C50.2239 34.0004 50.4607 34.1669 50.6524 34.3789C50.7989 34.5423 50.8524 34.669 50.8355 34.6775Z" fill="#009BE1"/>
<path d="M58.5813 37.9593C58.5813 37.9593 58.5644 37.9733 58.5278 37.9931L58.3588 38.0832C58.2067 38.1564 57.9814 38.2578 57.68 38.3649C56.8293 38.6767 55.9327 38.8452 55.0267 38.8634C54.7239 38.8696 54.4214 38.8403 54.1254 38.7761C53.7977 38.7091 53.4924 38.5598 53.2382 38.3423C53.1029 38.2206 52.9942 38.0722 52.9191 37.9064C52.8439 37.7406 52.8039 37.561 52.8016 37.379C52.7976 36.9929 52.9303 36.6177 53.1762 36.32C53.4603 36.023 53.8227 35.8125 54.2215 35.7128C54.6202 35.6131 55.0391 35.6283 55.4295 35.7567C55.8505 35.8739 56.2354 36.0946 56.5493 36.3986C56.8631 36.7026 57.0959 37.0803 57.2265 37.4973C57.352 37.9165 57.3685 38.3608 57.2743 38.7881C57.1802 39.2155 56.9786 39.6117 56.6885 39.9393C56.1257 40.5197 55.3981 40.913 54.6043 41.066C53.8994 41.2011 53.184 41.2737 52.4664 41.2829C51.8477 41.2941 51.2308 41.3543 50.6216 41.4631C49.7351 41.6078 48.9302 42.0667 48.3542 42.7559C48.1574 43.019 48.0104 43.3159 47.9204 43.6319C47.9167 43.6105 47.9167 43.5886 47.9204 43.5671C47.9204 43.5249 47.9402 43.4601 47.9655 43.3812C48.0413 43.1456 48.1534 42.9232 48.2979 42.7221C48.8699 42.0021 49.6871 41.5178 50.5934 41.3617C51.2064 41.2437 51.8282 41.1768 52.4524 41.1617C53.1618 41.1492 53.8687 41.0737 54.5648 40.9364C55.3293 40.7868 56.0299 40.4075 56.5731 39.8492C56.846 39.5397 57.0355 39.1657 57.1237 38.7625C57.2119 38.3594 57.1959 37.9404 57.0772 37.5452C56.9546 37.1521 56.7358 36.7958 56.4407 36.5086C56.1456 36.2214 55.7835 36.0123 55.3873 35.9003C55.023 35.7829 54.6332 35.7697 54.2619 35.8623C53.8905 35.9548 53.5525 36.1495 53.2861 36.4242C53.0582 36.6965 52.9344 37.0409 52.9368 37.3959C52.9373 37.5609 52.9721 37.724 53.039 37.8748C53.1059 38.0256 53.2035 38.1609 53.3255 38.2719C53.5675 38.4794 53.8583 38.6218 54.1705 38.6859C54.4569 38.7509 54.75 38.7821 55.0436 38.7789C55.9405 38.7691 56.8302 38.6179 57.68 38.3311C57.9785 38.2268 58.2067 38.1339 58.3616 38.0691C58.432 38.0271 58.5055 37.9904 58.5813 37.9593Z" fill="#009BE1"/>
<path d="M51.5569 49.0198C51.5315 49.0198 51.4358 48.7832 51.1767 48.4565C50.8474 48.0241 50.4031 47.693 49.8945 47.5013C49.386 47.3095 48.8337 47.2647 48.3009 47.3721C47.8925 47.451 47.6559 47.5693 47.6446 47.5467C47.8314 47.4053 48.0482 47.3089 48.2784 47.2651C48.8315 47.1236 49.4148 47.1558 49.9489 47.3574C50.4831 47.5589 50.9422 47.9201 51.264 48.3917C51.4087 48.5757 51.509 48.7907 51.5569 49.0198V49.0198Z" fill="#009BE1"/>
<path d="M54.8468 51.1425C54.7677 51.3598 54.6349 51.5535 54.4609 51.7058C54.0614 52.1143 53.5273 52.3642 52.9577 52.4093C52.3881 52.4544 51.8214 52.2915 51.3626 51.9508C51.1668 51.8251 51.0052 51.6529 50.8922 51.4495C50.912 51.4298 51.0725 51.641 51.4218 51.8635C51.8717 52.156 52.4045 52.2944 52.9399 52.2578C53.4746 52.2082 53.9792 51.988 54.3792 51.6297C54.6975 51.3593 54.8242 51.1256 54.8468 51.1425Z" fill="#009BE1"/>
<path d="M55.7025 45.5426C55.7025 45.5651 55.5194 45.4609 55.2209 45.382C54.8331 45.2746 54.4224 45.2827 54.0392 45.4053C53.656 45.5279 53.3168 45.7596 53.0634 46.0721C52.8662 46.3115 52.7817 46.4918 52.7648 46.4833C52.7939 46.3092 52.8688 46.1459 52.9817 46.0101C53.2289 45.6578 53.5846 45.3961 53.9945 45.2649C54.4044 45.1337 54.846 45.1402 55.2519 45.2834C55.4222 45.3287 55.5777 45.4181 55.7025 45.5426V45.5426Z" fill="#009BE1"/>
<path d="M66.1977 42.9617C66.2197 43.0298 66.2366 43.0995 66.2484 43.1701C66.2672 43.2553 66.2785 43.342 66.2822 43.4292C66.2926 43.5482 66.2926 43.6679 66.2822 43.7869C66.2473 44.5555 65.9636 45.2919 65.4738 45.8853C65.1494 46.3026 64.7393 46.6454 64.2711 46.8908C63.7269 47.1664 63.1235 47.3047 62.5136 47.2936C61.8157 47.2809 61.1293 47.1139 60.5036 46.8047C59.8779 46.4955 59.3283 46.0516 58.8942 45.505C58.6623 45.2156 58.4891 44.8836 58.3844 44.5277C58.2843 44.1761 58.2901 43.8028 58.4013 43.4546C58.5077 43.1105 58.7442 42.8215 59.0604 42.649C59.3681 42.4988 59.7179 42.458 60.0519 42.5335C60.3708 42.5947 60.6647 42.7485 60.8968 42.9757C61.1071 43.1915 61.2651 43.4526 61.3588 43.739C61.5182 44.2516 61.5133 44.8011 61.3447 45.3107C61.2097 45.731 60.9826 46.1159 60.68 46.4373C60.455 46.6761 60.1936 46.8777 59.9054 47.0345C59.726 47.1306 59.5373 47.208 59.3421 47.2654C59.2718 47.2841 59.2003 47.2973 59.128 47.3049C59.3914 47.2241 59.6461 47.1175 59.8885 46.9866C60.5374 46.6112 61.0249 46.0094 61.2574 45.2966C61.4124 44.8082 61.4124 44.2838 61.2574 43.7954C61.1694 43.5279 61.0198 43.2848 60.8208 43.0856C60.6078 42.8797 60.3398 42.7398 60.049 42.6828C59.7451 42.6165 59.4277 42.6542 59.1477 42.7898C58.8648 42.946 58.6544 43.2069 58.5619 43.5165C58.4587 43.8373 58.4538 44.1816 58.5478 44.5052C58.6464 44.843 58.8111 45.158 59.0322 45.4318C59.4532 45.961 59.9851 46.3915 60.5905 46.6927C61.1959 46.994 61.8601 47.1587 62.5361 47.1753C63.0885 47.1907 63.6371 47.0783 64.1389 46.8467C64.6406 46.6151 65.0821 46.2706 65.4288 45.8402C65.9112 45.2646 66.2018 44.5526 66.2597 43.8038C66.26 43.5219 66.2393 43.2404 66.1977 42.9617V42.9617Z" fill="#009BE1"/>
<path d="M68.3686 48.7841C68.3011 48.7291 68.2431 48.6634 68.1968 48.5897C68.0579 48.3972 67.9539 48.1817 67.8898 47.9532C67.8046 47.6104 67.7903 47.2539 67.8475 46.9054C67.9137 46.4846 68.0078 46.0687 68.1292 45.6604C68.374 44.9269 68.7129 44.2281 69.1375 43.5818C69.2952 43.3339 69.4192 43.1339 69.5262 43.0016C69.5708 42.9274 69.6248 42.8592 69.6868 42.7988C69.554 43.091 69.4006 43.3734 69.2276 43.6437C68.8338 44.2958 68.5127 44.9891 68.27 45.7111C68.154 46.1132 68.0599 46.5213 67.9883 46.9336C67.9241 47.2647 67.9241 47.6051 67.9883 47.9363C68.0795 48.2335 68.2072 48.5183 68.3686 48.7841V48.7841Z" fill="#009BE1"/>
<path d="M73.7042 42.2969C73.743 42.3596 73.7715 42.4281 73.7887 42.4997C73.8518 42.6879 73.8989 42.881 73.9295 43.0771C74.1461 44.3941 73.8443 45.7437 73.0874 46.8429C72.977 47.0082 72.8526 47.1637 72.7156 47.3077C72.617 47.4091 72.5607 47.4626 72.5522 47.457C72.5438 47.4513 72.7409 47.2063 73 46.7866C73.3368 46.2377 73.5814 45.6373 73.7239 45.0093C73.8608 44.3805 73.8922 43.7332 73.8169 43.094C73.769 42.6011 73.6788 42.3054 73.7042 42.2969Z" fill="#009BE1"/>
<path d="M55.273 55.4796C55.2304 55.4624 55.1898 55.4407 55.1519 55.4148C55.0408 55.3466 54.9261 55.2846 54.8082 55.2289C54.3763 55.0204 53.911 54.8898 53.4337 54.843C52.7276 54.7762 52.016 54.8906 51.3663 55.1754C50.9843 55.3411 50.6344 55.5728 50.3327 55.8598C50.1726 56.0052 50.0358 56.1743 49.9271 56.3612C49.8144 56.5471 49.765 56.7645 49.7862 56.9808C49.7955 57.0852 49.827 57.1864 49.8785 57.2777C49.9299 57.369 50.0003 57.4483 50.0848 57.5103C50.1695 57.5602 50.2651 57.5885 50.3633 57.5929C50.4615 57.5974 50.5593 57.5777 50.6481 57.5357C50.8233 57.441 50.9665 57.2966 51.0598 57.1207C51.153 56.9448 51.192 56.7452 51.172 56.5471C51.1599 56.1988 51.0572 55.8597 50.8739 55.5633C50.6906 55.267 50.4332 55.0235 50.127 54.8571C49.7022 54.6377 49.2139 54.5739 48.7469 54.6768C48.577 54.7212 48.4096 54.7748 48.2455 54.8374C48.2811 54.8065 48.321 54.7809 48.3638 54.7613C48.4818 54.7021 48.6054 54.655 48.7328 54.6205C49.2153 54.4924 49.728 54.5444 50.1749 54.767C50.5032 54.9385 50.7803 55.1937 50.9781 55.5068C51.176 55.8199 51.2876 56.1798 51.3016 56.5499C51.3082 56.7684 51.2669 56.9856 51.1805 57.1864C51.0869 57.4026 50.9162 57.5763 50.7016 57.6737C50.5892 57.7276 50.4651 57.7525 50.3407 57.7461C50.2162 57.7397 50.0953 57.7022 49.989 57.6371C49.8862 57.5638 49.8002 57.4693 49.7371 57.36C49.6739 57.2507 49.635 57.129 49.6229 57.0033C49.597 56.7564 49.6535 56.5079 49.7834 56.2964C49.8988 56.0962 50.0452 55.9156 50.2172 55.7612C50.5323 55.4646 50.8976 55.2262 51.2959 55.0571C51.9677 54.7703 52.7023 54.6626 53.4281 54.7444C53.915 54.7997 54.3866 54.9489 54.8167 55.1838C54.9339 55.2452 55.0459 55.3158 55.1519 55.3951C55.2392 55.4429 55.2786 55.4739 55.273 55.4796Z" fill="#009BE1"/>
<path d="M56.2912 57.8036C56.222 58.0392 56.1061 58.2586 55.9504 58.4486C55.7279 58.7838 55.5223 59.0373 55.4885 59.0119C55.5578 58.7762 55.6737 58.5569 55.8293 58.3669C56.0518 58.0345 56.2574 57.781 56.2912 57.8036Z" fill="#009BE1"/>
<path d="M59.8677 61.8344C59.8452 61.8344 59.8058 61.7358 59.7072 61.5893C59.5792 61.401 59.4088 61.2453 59.2097 61.1347C59.0106 61.0242 58.7884 60.9618 58.5608 60.9528C58.3862 60.9528 58.2792 60.9668 58.2792 60.9528C58.2792 60.9387 58.3778 60.8767 58.5608 60.857C58.8124 60.8372 59.0642 60.8922 59.2847 61.0149C59.5051 61.1377 59.6845 61.3228 59.8001 61.5471C59.879 61.7104 59.8846 61.8315 59.8677 61.8344Z" fill="#009BE1"/>
<path d="M48.2331 60.3969C48.2331 60.4166 47.8951 60.5884 47.3515 60.901C46.6383 61.2888 45.9918 61.788 45.4362 62.3797C44.8913 62.9803 44.5373 63.7293 44.4194 64.5316C44.3918 64.8665 44.3974 65.2034 44.4363 65.5372C44.3956 65.4538 44.369 65.3644 44.3574 65.2724C44.3074 65.026 44.2941 64.7735 44.318 64.5232C44.4072 63.6885 44.7604 62.904 45.3263 62.284C45.8899 61.6779 46.5577 61.178 47.298 60.8081C47.5796 60.6644 47.8106 60.5574 47.9711 60.487C48.0532 60.4434 48.1416 60.413 48.2331 60.3969V60.3969Z" fill="#009BE1"/>
<path d="M52.3705 61.7747C52.3705 61.7747 52.2128 61.6818 52.0635 61.4367C51.8796 61.1084 51.7982 60.7325 51.8298 60.3575C51.8615 59.9825 52.0047 59.6256 52.241 59.3327C52.3314 59.2071 52.4554 59.1095 52.5987 59.051C52.6156 59.0736 52.4776 59.1778 52.317 59.3975C52.1192 59.6866 51.9999 60.0221 51.9708 60.3712C51.9416 60.7203 52.0037 61.0709 52.1508 61.3888C52.2719 61.6282 52.3902 61.7578 52.3705 61.7747Z" fill="#009BE1"/>
<path d="M45.9033 56.6711C45.9033 56.6711 45.8526 56.6091 45.7399 56.5077C45.5728 56.3681 45.3698 56.2783 45.1541 56.2486C44.8128 56.1983 44.4646 56.2701 44.1711 56.4514C43.7892 56.7046 43.4704 57.0418 43.2388 57.4372C42.9571 57.8653 42.7262 58.3808 42.3685 58.8821C41.9896 59.4259 41.4453 59.8329 40.8165 60.0426C40.1162 60.2759 39.3529 60.2315 38.6843 59.9186C37.9638 59.586 37.4011 58.9859 37.1155 58.2456C36.9677 57.8667 36.9508 57.4493 37.0676 57.0598C37.1959 56.6828 37.4559 56.3647 37.7999 56.1641C38.1235 55.9599 38.5068 55.8715 38.8871 55.9134C39.2482 55.9652 39.5851 56.1253 39.8532 56.3725C40.0979 56.5975 40.2924 56.8716 40.4239 57.1769C40.5554 57.4822 40.6211 57.8118 40.6165 58.1442C40.6045 58.7202 40.4222 59.2798 40.0926 59.7524C39.8257 60.1414 39.4779 60.468 39.073 60.7101C38.7705 60.8918 38.4458 61.0338 38.1069 61.1326C37.8936 61.1934 37.6762 61.2386 37.4563 61.2678L37.2845 61.2875H37.2225C37.2973 61.2661 37.3736 61.25 37.4507 61.2396C37.6672 61.1995 37.8808 61.1449 38.09 61.0763C38.4208 60.9709 38.7368 60.8242 39.0308 60.6397C39.4192 60.3982 39.7514 60.0765 40.0053 59.6961C40.3168 59.2378 40.4872 58.6982 40.4954 58.1442C40.4965 57.8301 40.4319 57.5193 40.3058 57.2316C40.1797 56.944 39.9948 56.6859 39.7631 56.4739C39.5152 56.2463 39.2037 56.0998 38.8702 56.0542C38.5214 56.0169 38.1701 56.0983 37.8732 56.2852C37.5609 56.4711 37.3245 56.7614 37.2056 57.1048C37.1 57.4643 37.1168 57.8488 37.2535 58.1977C37.5273 58.9007 38.0622 59.4709 38.7463 59.7891C39.3813 60.0892 40.1074 60.1336 40.7743 59.913C41.3788 59.7158 41.9034 59.3285 42.2699 58.8089C42.622 58.3272 42.8642 57.8118 43.1515 57.3809C43.3964 56.9762 43.732 56.6339 44.1317 56.381C44.4416 56.1967 44.8074 56.1298 45.1625 56.1923C45.3848 56.2259 45.5924 56.3238 45.7597 56.4739C45.8185 56.5309 45.8671 56.5976 45.9033 56.6711Z" fill="#009BE1"/>
<path d="M45.9975 61.0633C45.8213 60.9798 45.6663 60.8575 45.544 60.7056C45.2231 60.3583 44.986 59.9422 44.8508 59.4892C44.7155 59.0361 44.6858 58.5581 44.7638 58.0918C44.7824 57.8928 44.8449 57.7004 44.9469 57.5285C44.9722 57.5285 44.9046 57.7453 44.868 58.0918C44.8198 58.543 44.8614 58.9994 44.9905 59.4345C45.1195 59.8696 45.3335 60.2748 45.6201 60.6267C45.8426 60.9056 46.0144 61.0436 45.9975 61.0633Z" fill="#009BE1"/>
<path d="M47.0334 54.5667C47.0334 54.5667 46.8363 54.471 46.4701 54.3273C45.1814 53.8119 43.7653 53.7057 42.4142 54.0231C41.9433 54.1323 41.4887 54.3027 41.0622 54.5301C40.956 54.5855 40.8618 54.6612 40.7849 54.753C40.7081 54.8449 40.6501 54.951 40.6144 55.0653C40.5919 55.1771 40.6075 55.2933 40.6585 55.3953C40.7095 55.4973 40.7931 55.5794 40.896 55.6286C40.9468 55.6393 40.9994 55.6367 41.0488 55.6208C41.0982 55.605 41.1426 55.5766 41.1777 55.5385C41.2599 55.4505 41.3181 55.3428 41.3467 55.2258C41.4047 54.9806 41.4266 54.7282 41.4115 54.4766C41.3921 53.9951 41.2691 53.5233 41.0509 53.0936C40.8578 52.7028 40.5876 52.355 40.2567 52.0712C39.9653 51.8261 39.6324 51.6353 39.2737 51.5079C38.7511 51.3231 38.1917 51.2671 37.6428 51.3445C37.2541 51.4065 37.0485 51.4938 37.0457 51.4797C37.0902 51.4505 37.1385 51.4278 37.1894 51.4121C37.8748 51.1655 38.6248 51.1655 39.3103 51.4121C39.6828 51.5374 40.03 51.7282 40.3355 51.9755C40.6852 52.2662 40.9726 52.6245 41.1805 53.0289C41.4107 53.4753 41.5414 53.9663 41.5636 54.4681C41.5799 54.7348 41.5572 55.0024 41.496 55.2624C41.4593 55.4031 41.3887 55.5327 41.2903 55.6399C41.2351 55.6983 41.1652 55.7408 41.0879 55.7631C41.0107 55.7854 40.9288 55.7866 40.851 55.7666C40.7774 55.7422 40.7096 55.7028 40.6519 55.6509C40.5942 55.599 40.5479 55.5358 40.5158 55.4652C40.4519 55.3302 40.4303 55.179 40.4538 55.0315C40.4934 54.8969 40.5597 54.7717 40.6488 54.6633C40.7378 54.5549 40.8478 54.4655 40.9721 54.4006C41.4112 54.1667 41.8803 53.9942 42.3663 53.8879C43.1849 53.7002 44.0315 53.6687 44.8618 53.795C45.4186 53.8795 45.9614 54.0387 46.4757 54.2682C46.6188 54.3313 46.7579 54.4028 46.8926 54.4822C46.9902 54.5329 47.0372 54.5611 47.0334 54.5667Z" fill="#009BE1"/>
<path d="M25.0837 55.3756C25.0837 55.3756 25.2583 55.2404 25.5372 54.9587C25.9295 54.5581 26.2311 54.0778 26.4216 53.5504C26.5699 53.1687 26.6402 52.7611 26.6281 52.3518C26.616 51.9425 26.5218 51.5398 26.3512 51.1675C26.1448 50.7311 25.8367 50.3505 25.4527 50.0578C25.048 49.7418 24.5569 49.5562 24.0444 49.5255C23.7877 49.5176 23.5329 49.5707 23.3008 49.6804C23.0769 49.7786 22.8994 49.9591 22.8051 50.1846C22.7688 50.2937 22.7591 50.4099 22.7768 50.5235C22.7944 50.6372 22.8389 50.745 22.9065 50.838C23.0369 51.0239 23.2234 51.1631 23.4388 51.2351C23.645 51.2917 23.861 51.3023 24.0717 51.2663C24.2825 51.2303 24.4827 51.1485 24.6584 51.0267C24.9792 50.8195 25.2357 50.5269 25.3992 50.1817C25.6209 49.671 25.7405 49.1217 25.7512 48.565C25.7512 48.3791 25.7512 48.227 25.7709 48.1059C25.7677 48.0529 25.7725 47.9997 25.785 47.9482C25.7929 48.0004 25.7929 48.0536 25.785 48.1059C25.785 48.2129 25.785 48.3678 25.785 48.565C25.8067 49.1441 25.7049 49.7211 25.4865 50.2578C25.3194 50.6218 25.0541 50.932 24.7204 51.1535C24.5302 51.288 24.3126 51.3787 24.0833 51.4191C23.8539 51.4595 23.6184 51.4486 23.3937 51.3872C23.1476 51.3096 22.9339 51.1532 22.7853 50.9422C22.7042 50.8313 22.6509 50.7026 22.6298 50.5669C22.6088 50.4311 22.6206 50.2923 22.6642 50.162C22.7674 49.9001 22.9699 49.6895 23.2275 49.5762C23.4816 49.4556 23.7605 49.3967 24.0415 49.4044C24.5879 49.4335 25.1121 49.6302 25.5428 49.9677C25.9441 50.2763 26.2649 50.6773 26.4779 51.1366C26.6724 51.5493 26.7688 52.0014 26.7596 52.4576C26.7505 52.853 26.6723 53.2438 26.5286 53.6124C26.3228 54.1462 26.0004 54.6273 25.5851 55.0207C25.4756 55.1252 25.3568 55.2195 25.2302 55.3023C25.1344 55.353 25.0865 55.3812 25.0837 55.3756Z" fill="#009BE1"/>
<path d="M30.9228 59.5738C30.838 59.5076 30.7639 59.4288 30.7032 59.34C30.5184 59.1121 30.3561 58.8669 30.2187 58.6077C29.7549 57.7476 29.543 56.7743 29.6073 55.7993C29.6716 54.8244 30.0094 53.8873 30.582 53.0956C30.7487 52.8578 30.9373 52.6362 31.1454 52.4337C31.2215 52.3567 31.3077 52.2904 31.4017 52.2365C31.4214 52.259 31.0693 52.5576 30.6637 53.1632C30.1286 53.9508 29.8134 54.867 29.7505 55.8171C29.6876 56.7672 29.8794 57.7169 30.306 58.5682C30.4936 58.9142 30.6995 59.2498 30.9228 59.5738V59.5738Z" fill="#009BE1"/>
<path d="M36.4254 53.4495C36.4 53.4495 36.2817 53.027 35.9324 52.4045C35.481 51.5931 34.841 50.902 34.0665 50.3898C33.292 49.8775 32.4056 49.559 31.4822 49.4612C30.7724 49.3823 30.3274 49.4443 30.3274 49.4161C30.4279 49.3847 30.532 49.3667 30.6372 49.3626C30.9184 49.3395 31.201 49.3395 31.4822 49.3626C32.4314 49.4336 33.3465 49.7466 34.1403 50.2717C34.9342 50.7968 35.5803 51.5166 36.0169 52.3623C36.1501 52.6148 36.2604 52.8787 36.3465 53.1509C36.3864 53.2464 36.4129 53.3468 36.4254 53.4495Z" fill="#009BE1"/>
<g opacity="0.3">
<path d="M44.1244 61.3226C43.8428 61.4381 43.8794 61.8662 44.1047 62.0521C44.3544 62.2146 44.6554 62.2788 44.9497 62.2324C46.6061 62.1393 48.2192 61.6686 49.6657 60.8562C51.1122 60.0439 52.3537 58.9115 53.2953 57.5456C50.7604 59.6327 47.4086 60.4241 44.1949 61.1508" fill="black"/>
</g>
<g opacity="0.3">
<path d="M43.6204 58.4571C43.3387 58.0318 43.5303 57.4347 43.9021 57.0742C44.2914 56.7477 44.7308 56.4862 45.2033 56.2996C46.8744 55.4697 48.2134 54.096 49.0001 52.4042C49.5128 51.2945 49.8986 49.9341 51.0337 49.4778C50.7175 51.4364 49.8775 53.2731 48.6027 54.7933C47.3279 56.3135 45.6658 57.4608 43.7922 58.1135" fill="black"/>
</g>
<g opacity="0.3">
<path d="M35.6255 43.8573C35.9095 46.9404 35.6908 50.0491 34.9777 53.062C34.7916 53.693 34.6865 54.3451 34.6651 55.0027C34.6883 55.3542 34.7832 55.6972 34.944 56.0106C35.1049 56.324 35.3282 56.6012 35.6002 56.825C36.0677 55.7462 36.0762 54.7069 36.2734 53.5465C36.4508 52.5015 36.7494 50.0595 36.7494 50.0229C36.7916 47.8879 36.2874 46.0571 35.465 44.1334" fill="black"/>
</g>
<g opacity="0.3">
<path d="M40.9331 34.6004C41.3551 36.875 42.4685 38.9642 44.1215 40.5828C44.7439 41.1884 45.5298 41.7489 46.3888 41.7095C45.8892 40.6795 45.7361 39.5156 45.9523 38.3915C46.6835 38.8858 47.4607 39.3084 48.2732 39.6534C49.0918 39.9948 49.9916 40.0926 50.8644 39.935L51.3996 35.2792C51.4381 35.1038 51.4213 34.9208 51.3517 34.7553C51.332 34.7161 51.3039 34.6817 51.2696 34.6545C51.2352 34.6274 51.1953 34.608 51.1526 34.5978C51.11 34.5876 51.0656 34.5868 51.0227 34.5955C50.9797 34.6043 50.9392 34.6222 50.9039 34.6482C50.8579 34.7083 50.8278 34.779 50.8165 34.8539C50.5011 36.2199 50.3236 37.4451 50.0054 38.814C49.7772 39.0393 49.0759 38.9464 48.614 38.7746C48.2112 38.6253 48.0506 38.2929 47.7915 37.9578C47.5324 37.6226 47.5718 37.6761 47.1775 37.5127C46.4508 37.2057 45.0566 37.4508 44.7524 38.1014C44.4482 38.752 44.6792 39.6111 44.882 40.2533C42.8518 38.9292 41.3869 36.8971 40.7725 34.5525" fill="black"/>
</g>
<g opacity="0.3">
<path d="M56.292 41.206C56.2357 41.3186 58.0467 47.4251 58.0467 47.4251L55.7005 46.0872L56.292 41.206Z" fill="black"/>
</g>
<path d="M41.7134 23.5088V33.2289C41.7155 33.7857 41.9151 34.3237 42.2767 34.7471V34.7471C42.8254 35.3995 43.4876 35.9473 44.2314 36.3638L46.203 37.4707L47.8254 36.0202C48.0611 35.8094 48.2521 35.5535 48.3871 35.2675C48.522 34.9816 48.5983 34.6715 48.6112 34.3556C48.6394 33.6458 48.6366 32.9473 48.6366 32.9473C48.6366 32.9473 51.3856 32.7501 51.6447 30.0405C51.7658 28.7618 51.8053 26.148 51.8109 23.7398C51.8221 22.4049 51.3266 21.1155 50.4243 20.1317C49.5221 19.1479 48.2803 18.543 46.9494 18.4389H46.8734C46.1989 18.4227 45.5281 18.5421 44.9006 18.79C44.2732 19.0379 43.7019 19.4092 43.2206 19.8821C42.7394 20.3549 42.358 20.9195 42.0991 21.5425C41.8402 22.1655 41.709 22.8342 41.7134 23.5088Z" fill="#FFBE9D"/>
<path d="M48.6123 32.9197C47.3598 32.8121 46.1643 32.3478 45.1676 31.5818C45.1676 31.5818 45.8774 33.638 48.6066 33.6182L48.6123 32.9197Z" fill="#EB996E"/>
<path d="M44.9048 20.7674H44.8879C44.4235 21.0764 44.0981 21.5544 43.9809 22.0997V22.156C43.8091 22.9193 43.764 23.7079 43.5866 24.4712C43.4091 25.2345 43.443 25.8176 42.6768 25.9894C42.4766 26.0336 42.2677 26.0161 42.0776 25.9392C41.8875 25.8623 41.7252 25.7295 41.6122 25.5584C41.5567 25.4468 41.5323 25.3222 41.5417 25.1979C41.5417 23.3164 41.1756 22.5869 41.3389 20.635C41.36 20.3733 41.4431 20.1203 41.5812 19.897C41.7193 19.6737 41.9085 19.4864 42.1332 19.3506C42.567 19.0915 43.0909 18.8268 43.5415 19.069C43.9922 19.3112 44.4992 20.221 44.8203 20.6125" fill="#263238"/>
<path d="M42.5237 24.7935C42.4814 24.771 40.707 24.0893 40.6112 25.9483C40.5154 27.8073 42.4054 27.52 42.411 27.4665C42.4166 27.4129 42.5237 24.7935 42.5237 24.7935Z" fill="#FFBE9D"/>
<path d="M41.8785 26.7346C41.8785 26.7346 41.8447 26.7571 41.7884 26.7797C41.75 26.7956 41.7088 26.8039 41.6673 26.8039C41.6257 26.8039 41.5845 26.7956 41.5462 26.7797C41.4292 26.6974 41.3364 26.5853 41.2774 26.4551C41.2185 26.3248 41.1955 26.1811 41.211 26.0389C41.2137 25.879 41.2533 25.722 41.3265 25.5798C41.3468 25.5225 41.3807 25.4711 41.4254 25.4298C41.47 25.3886 41.5241 25.3589 41.5828 25.3432C41.6204 25.3357 41.6594 25.3414 41.6933 25.3593C41.7272 25.3773 41.7538 25.4064 41.7687 25.4418C41.7912 25.4953 41.7687 25.5319 41.7856 25.5347C41.8025 25.5375 41.8278 25.5066 41.8165 25.4305C41.8094 25.3833 41.7854 25.3403 41.7489 25.3094C41.7252 25.2886 41.6975 25.2728 41.6675 25.2632C41.6374 25.2535 41.6057 25.25 41.5743 25.2531C41.4957 25.2648 41.4215 25.297 41.3592 25.3464C41.2969 25.3958 41.2487 25.4608 41.2194 25.5347C41.1332 25.6922 41.0859 25.8679 41.0814 26.0474C41.0639 26.2125 41.0955 26.379 41.1721 26.5263C41.2488 26.6736 41.3671 26.795 41.5123 26.8754C41.5616 26.892 41.6138 26.8975 41.6654 26.8917C41.717 26.8859 41.7666 26.8688 41.8109 26.8416C41.8729 26.7797 41.8841 26.7402 41.8785 26.7346Z" fill="#EB996E"/>
<path d="M43.4337 19.3453C43.0366 18.5651 44.3773 17.6046 45.3152 17.3906C46.2532 17.1765 47.4249 17.7257 48.3121 18.1032C48.8754 18.3398 49.4218 18.6665 50.0274 18.6665C50.435 18.6591 50.8393 18.5917 51.2273 18.4665C51.6167 18.3399 52.0277 18.2929 52.4356 18.3285C52.642 18.3497 52.8385 18.4274 53.0035 18.5532C53.1685 18.6789 53.2956 18.8477 53.3707 19.0411C53.4016 19.1378 53.4112 19.2401 53.3987 19.3408C53.3862 19.4415 53.352 19.5384 53.2984 19.6246C53.2449 19.7109 53.1732 19.7844 53.0885 19.8403C53.0037 19.8961 52.9078 19.9329 52.8074 19.948C52.9426 19.8876 53.0905 19.8609 53.2383 19.8701C53.3861 19.8794 53.5294 19.9244 53.656 20.0012C53.7826 20.0781 53.8887 20.1845 53.9651 20.3114C54.0415 20.4382 54.086 20.5817 54.0948 20.7295C54.1036 20.8774 54.0763 21.0251 54.0154 21.1601C53.9546 21.2951 53.8618 21.4133 53.7452 21.5046C53.6286 21.5959 53.4915 21.6575 53.3458 21.6842C53.2002 21.7108 53.0502 21.7018 52.9088 21.6577C53.1905 21.4775 53.5679 21.8408 53.5059 22.1675C53.4571 22.3264 53.3678 22.4699 53.2468 22.584C53.1259 22.698 52.9774 22.7787 52.8159 22.8182C52.0131 23.0998 51.1259 22.9111 50.3429 22.5759C49.5599 22.2408 48.8557 21.7591 48.0896 21.4042C47.3235 21.0493 46.0335 20.4184 45.2138 20.6353C44.6083 20.793 44.1435 21.4662 43.8252 21.2803C43.6767 21.1849 43.5527 21.0559 43.4631 20.9037C43.3736 20.7516 43.3211 20.5805 43.3098 20.4043C43.2936 20.0488 43.3354 19.693 43.4337 19.3509" fill="#263238"/>
<path d="M53.0407 19.9149C53.0266 19.9149 52.9337 20.0417 52.7168 20.2417C52.4073 20.521 52.034 20.7202 51.6296 20.8219C51.0358 20.982 50.4028 20.9032 49.8664 20.6022C49.2608 20.2698 48.7679 19.6586 48.1905 19.0728C47.6585 18.4866 46.9596 18.0776 46.1879 17.9011C45.8673 17.8341 45.5356 17.8415 45.2183 17.9225C44.901 18.0036 44.6064 18.1562 44.3571 18.3686C44.1962 18.5171 44.0673 18.6969 43.9782 18.8969C43.8891 19.0969 43.8417 19.313 43.8389 19.5319C43.8386 19.6492 43.8557 19.766 43.8896 19.8783C43.9001 19.9184 43.9172 19.9565 43.9403 19.991C43.9175 19.84 43.9071 19.6874 43.9093 19.5347C43.9413 19.1218 44.1334 18.7378 44.4444 18.4644C44.6813 18.2751 44.9576 18.1412 45.2529 18.0725C45.5482 18.0038 45.8552 18.002 46.1513 18.0673C46.8847 18.243 47.5482 18.6356 48.0553 19.1939C48.6187 19.7572 49.1285 20.391 49.7791 20.7402C50.2592 20.9931 50.8079 21.0853 51.3443 21.0032C51.8807 20.9211 52.3766 20.6689 52.7591 20.2839C52.8406 20.1968 52.9141 20.1025 52.9788 20.0023C53.0266 19.9544 53.0464 19.9178 53.0407 19.9149Z" fill="#455A64"/>
<path d="M42.0592 24.6773C42.0592 24.6773 42.1437 24.6323 42.2254 24.4914C42.3356 24.2879 42.3873 24.0578 42.3747 23.8267C42.3747 23.224 41.9071 22.5395 41.9071 21.7086C41.8926 21.3233 41.9968 20.9428 42.2057 20.6186C42.3865 20.3613 42.6483 20.1719 42.9493 20.0806C43.1512 20.0153 43.3667 20.0036 43.5746 20.0468C43.7239 20.0834 43.7999 20.1257 43.8084 20.1116C43.8168 20.0975 43.7464 20.0384 43.5971 19.9792C43.3776 19.9025 43.1401 19.8937 42.9155 19.9539C42.577 20.038 42.2783 20.2371 42.0705 20.5172C41.8308 20.8671 41.7103 21.2849 41.7269 21.7086C41.7412 22.1202 41.83 22.5258 41.9888 22.9057C42.1158 23.2008 42.2029 23.5115 42.2479 23.8295C42.2733 24.1248 42.2074 24.4207 42.0592 24.6773V24.6773Z" fill="#455A64"/>
<path d="M50.8809 68.3326H50.5196L49.4622 68.3471C48.531 68.3617 47.1584 68.3981 45.3929 68.4829C43.6274 68.5678 41.4691 68.7254 38.9736 69.0165C37.7295 69.1668 36.3957 69.3366 34.9916 69.5694C33.5874 69.8022 32.1081 70.0738 30.5682 70.4255C29.0282 70.7771 27.4155 71.1942 25.7859 71.7302C24.0783 72.2713 22.4194 72.9552 20.8265 73.7745C19.9911 74.2104 19.1958 74.7192 18.4499 75.2951C17.673 75.8742 17.0144 76.597 16.5098 77.4243C16.4492 77.531 16.3862 77.6353 16.3304 77.7444L16.1946 78.0864L16.1242 78.2585C16.1048 78.3168 16.0951 78.3774 16.0782 78.438L15.9933 78.7969C15.9144 79.2905 15.9391 79.7952 16.066 80.2787C16.3085 81.2608 16.9512 82.1072 17.6957 82.8202C19.2138 84.2486 21.1515 85.2453 23.1619 86.0747C25.2327 86.9032 27.3621 87.5768 29.5327 88.0899C34.1016 89.16 38.7523 89.8447 43.4358 90.1367C48.1185 90.453 52.8164 90.4716 57.5014 90.1925C61.867 89.9476 66.2085 89.3802 70.4903 88.4949C72.481 88.0751 74.4468 87.5448 76.3785 86.9065C78.2045 86.3164 79.968 85.548 81.6434 84.6123C82.4307 84.1565 83.1736 83.6279 83.8624 83.0336C84.5319 82.4683 85.0783 81.7717 85.4678 80.9868L85.5891 80.6909C85.6323 80.5941 85.6664 80.4934 85.6909 80.3902L85.7637 80.0847C85.7758 80.0337 85.7928 79.9828 85.8 79.9319V79.7742C85.8511 79.368 85.8198 78.9556 85.7079 78.5617C85.5897 78.1748 85.4174 77.8066 85.1962 77.468C84.9739 77.138 84.7223 76.8288 84.4444 76.544C83.9037 75.9999 83.3089 75.5123 82.6692 75.0889C82.0649 74.6782 81.4365 74.3041 80.7873 73.9685C79.6001 73.3483 78.3755 72.8024 77.1206 72.334C75.1087 71.5842 73.0553 70.951 70.9705 70.4376C69.256 70.0108 67.91 69.7391 66.9958 69.5645C66.5398 69.4748 66.1882 69.4166 65.9554 69.3705L65.5989 69.3026C65.5989 69.3026 66.0839 69.373 67.0006 69.5451C67.9173 69.7173 69.2632 69.9744 70.9826 70.3964C73.0719 70.9001 75.1295 71.5268 77.1448 72.2734C78.4045 72.739 79.6339 73.2825 80.8262 73.9006C81.4782 74.2375 82.1098 74.6124 82.7177 75.0235C83.3635 75.452 83.964 75.9453 84.5099 76.4955C84.7909 76.7835 85.0457 77.096 85.2714 77.4292C85.5006 77.7747 85.6794 78.1511 85.8025 78.5471C85.9197 78.9566 85.9527 79.3856 85.8995 79.8082L85.8874 79.9682C85.8874 80.0216 85.8631 80.0725 85.851 80.1259L85.7758 80.4387C85.751 80.5445 85.716 80.6476 85.6715 80.7467L85.5503 81.0499C85.1552 81.847 84.6015 82.5551 83.923 83.1306C83.2297 83.7318 82.481 84.2661 81.6871 84.7263C80.0081 85.6672 78.2405 86.4405 76.41 87.035C74.4746 87.6774 72.5048 88.2109 70.5097 88.6332C66.2223 89.5195 61.8751 90.0869 57.5039 90.3307C52.8133 90.612 48.1096 90.5942 43.4213 90.2774C38.7303 89.9841 34.0722 89.297 29.4963 88.2233C27.3195 87.7096 25.1843 87.0336 23.1086 86.2008C21.0933 85.3617 19.1459 84.365 17.6084 82.9196C16.8542 82.1921 16.1921 81.3336 15.9472 80.3199C15.8179 79.8219 15.7931 79.3025 15.8745 78.7945L15.9642 78.4235C15.9787 78.3604 15.9909 78.2998 16.0103 78.2392L16.0806 78.0621L16.2237 77.7129C16.2794 77.6013 16.3449 77.4922 16.4056 77.3831C16.9202 76.5438 17.5911 75.8111 18.382 75.2247C19.1347 74.6466 19.9364 74.1354 20.778 73.6969C22.3761 72.8762 24.0408 72.1923 25.7543 71.6526C27.3986 71.119 29.004 70.7019 30.5464 70.3527C32.0887 70.0035 33.5729 69.727 34.9795 69.5063C36.386 69.2856 37.7198 69.1062 38.9663 68.9607C41.4642 68.6818 43.625 68.5339 45.3905 68.449C47.1559 68.3641 48.531 68.3423 49.4622 68.335H50.8809V68.3326Z" fill="#009BE1"/>
<path d="M31.0636 49.9592C31.0636 49.9592 30.9254 49.9907 30.6562 50.0441C30.387 50.0974 29.9844 50.175 29.4582 50.2866C28.4057 50.5048 26.8561 50.8419 24.8893 51.3803C22.4978 52.0196 20.1607 52.8476 17.9001 53.8563C17.2429 54.1571 16.5687 54.4893 15.897 54.87C15.2006 55.2577 14.5291 55.6886 13.8866 56.1602C13.2066 56.6549 12.5843 57.2243 12.0314 57.8578C11.4422 58.522 11.0119 59.3115 10.7727 60.1665C10.5391 61.0685 10.6098 62.0225 10.974 62.8802C11.3634 63.772 11.935 64.5724 12.6522 65.2301C14.0879 66.6051 15.9091 67.6552 17.8468 68.5452C21.7536 70.3204 26.2134 71.5111 30.9424 72.3987C35.91 73.2975 40.9339 73.8518 45.978 74.0575C51.3948 74.3011 56.8215 74.2047 62.2263 73.7689C67.7701 73.3057 73.1659 72.4909 78.2441 71.1571C80.739 70.5201 83.1784 69.6832 85.5388 68.6544C86.6708 68.1536 87.7642 67.57 88.8103 66.9083C89.8443 66.2658 90.7797 65.4767 91.5871 64.5656C92.3607 63.6611 92.9306 62.5528 92.9645 61.3839C92.9694 61.239 92.9645 61.094 92.95 60.9498C92.9444 60.8058 92.929 60.6624 92.9039 60.5205L92.8093 60.0986C92.7727 59.9597 92.7265 59.8236 92.6711 59.6912C92.4639 59.1595 92.184 58.6592 91.8393 58.2046C91.1348 57.3304 90.3054 56.5647 89.3778 55.9322C88.4803 55.3161 87.5393 54.7657 86.5622 54.2856C84.7014 53.3832 82.7733 52.6267 80.7953 52.023C78.894 51.4288 77.0413 50.9559 75.2612 50.5679C69.6217 49.3785 63.8951 48.6486 58.1375 48.3853C56.1004 48.281 54.5144 48.2762 53.4401 48.2495L52.2275 48.2228L51.8128 48.2083C51.8128 48.2083 51.9535 48.2083 52.2275 48.2083L53.4401 48.2228C54.5144 48.2422 56.1077 48.2374 58.14 48.3368C63.9026 48.5821 69.6354 49.2999 75.2806 50.483C77.0631 50.8759 78.9183 51.3439 80.8244 51.9381C82.8086 52.5408 84.7425 53.2982 86.6083 54.2031C87.5911 54.678 88.5379 55.2244 89.4408 55.8377C90.3772 56.4757 91.2147 57.2479 91.9266 58.1294C92.2788 58.5926 92.5645 59.1027 92.7754 59.6451C92.8331 59.7802 92.8801 59.9197 92.916 60.0622L93.0154 60.4939C93.0418 60.6396 93.0572 60.7872 93.0615 60.9352C93.0781 61.0826 93.0837 61.2309 93.0785 61.379C93.0547 61.9801 92.9113 62.5704 92.6565 63.1154C92.4058 63.6644 92.0793 64.1754 91.6865 64.6335C90.8722 65.5548 89.9278 66.3522 88.8831 67.0004C87.8256 67.6728 86.7191 68.2646 85.5728 68.7708C83.2067 69.8033 80.7617 70.6442 78.2611 71.2856C73.1684 72.6218 67.7725 73.4391 62.2214 73.9023C56.8167 74.3379 51.3899 74.4335 45.9732 74.1885C40.9289 73.9796 35.9051 73.4229 30.9375 72.5224C26.1964 71.6275 21.7221 70.432 17.8128 68.6422C15.8727 67.7377 14.0418 66.69 12.594 65.298C11.8687 64.6308 11.2906 63.8197 10.8964 62.9166C10.5267 62.0388 10.4568 61.0637 10.6976 60.1422C10.9401 59.2759 11.3773 58.4763 11.9756 57.8044C12.5334 57.1629 13.1623 56.5869 13.8502 56.0874C14.4957 55.6152 15.1704 55.1843 15.8703 54.7973C16.5445 54.4165 17.2211 54.0843 17.8807 53.7836C20.1502 52.7793 22.4963 51.9578 24.8966 51.327C26.8682 50.7959 28.4202 50.466 29.4752 50.2551C30.5301 50.0441 31.0636 49.9592 31.0636 49.9592Z" fill="#009BE1"/>
<path d="M39.5655 86.5516L38.3529 86.7432C37.5599 86.8693 36.3934 87.0706 34.902 87.3956C33.0938 87.7856 31.3119 88.2886 29.5667 88.9016C28.4773 89.289 27.4159 89.7508 26.3898 90.2839C25.8309 90.5743 25.2928 90.9033 24.7796 91.2685C24.2349 91.6476 23.7374 92.0905 23.2978 92.5877C23.0726 92.8472 22.8758 93.1302 22.711 93.4317C22.5413 93.7345 22.4194 94.0617 22.3496 94.4017C22.3375 94.489 22.3157 94.5763 22.3084 94.666L22.2914 94.9328C22.2914 95.1098 22.3157 95.2893 22.3302 95.4687C22.3677 95.6465 22.4147 95.8222 22.4709 95.995L22.5727 96.2496L22.6236 96.3782L22.6915 96.497C23.0638 97.1554 23.5575 97.7372 24.1466 98.2115C24.7534 98.7121 25.4082 99.1515 26.1013 99.5235C27.5608 100.304 29.0915 100.943 30.6726 101.432C32.3445 101.961 34.0448 102.396 35.7653 102.734C39.4662 103.461 43.2161 103.909 46.9839 104.075C51.0259 104.275 55.0767 104.204 59.1094 103.864C63.2515 103.506 67.282 102.873 71.0579 101.806C72.914 101.295 74.7168 100.608 76.4417 99.7539C77.2716 99.332 78.0558 98.8257 78.7819 98.2431C78.9662 98.1048 79.1238 97.9351 79.2936 97.7823C79.4633 97.6295 79.6016 97.4476 79.7568 97.2827C80.0439 96.9362 80.2762 96.5477 80.4455 96.1308C80.6117 95.7215 80.6881 95.2813 80.6697 94.84C80.6513 94.3986 80.5385 93.9664 80.3388 93.5723C79.9249 92.8157 79.3565 92.1547 78.6703 91.6322C77.3341 90.57 75.816 89.8546 74.3342 89.2605C72.8951 88.6966 71.4217 88.2244 69.923 87.8466C68.4825 87.4756 67.0832 87.1822 65.7421 86.9469C61.4948 86.2215 57.1974 85.8283 52.889 85.7707L48.1528 85.7465C48.1528 85.7465 49.8382 85.7247 52.889 85.7465C57.1969 85.7928 61.4946 86.1779 65.7421 86.8984C67.088 87.1409 68.4873 87.4247 69.9302 87.7957C71.4368 88.1753 72.9175 88.6508 74.3633 89.2192C75.8475 89.8134 77.3705 90.5288 78.7164 91.5983C79.4144 92.1271 79.9929 92.7973 80.414 93.565C80.6179 93.9673 80.7332 94.4085 80.752 94.8591C80.7709 95.3097 80.6928 95.7591 80.5231 96.1769C80.3508 96.6003 80.1153 96.9953 79.8247 97.3482C79.6671 97.5155 79.524 97.6974 79.3542 97.8551C79.1845 98.0127 79.0268 98.18 78.8401 98.3182C78.11 98.906 77.3208 99.4164 76.4853 99.8412C74.7567 100.699 72.9498 101.388 71.0894 101.9C67.1759 102.96 63.1715 103.65 59.1288 103.961C55.0913 104.301 51.0356 104.372 46.9887 104.172C43.2186 104.003 39.4662 103.553 35.7629 102.827C34.0425 102.484 32.3423 102.047 30.6702 101.517C29.0842 101.028 27.5492 100.386 26.0867 99.6011C25.3912 99.2256 24.7341 98.7829 24.1248 98.2794C23.5289 97.8004 23.03 97.2119 22.6552 96.5455L22.5848 96.4242L22.5339 96.2933L22.4296 96.0362C22.3642 95.8616 22.3375 95.6773 22.289 95.5003C22.2405 95.3232 22.2502 95.1341 22.2502 94.9522L22.2672 94.6806C22.2672 94.5909 22.2963 94.5036 22.3108 94.4138C22.3798 94.0644 22.5034 93.7281 22.677 93.4171C22.8444 93.1131 23.0435 92.8278 23.2712 92.5659C23.7133 92.0655 24.214 91.6201 24.7626 91.2394C25.2795 90.8739 25.8208 90.5441 26.3826 90.2523C27.4018 89.7183 28.4568 89.2556 29.5401 88.8676C31.2907 88.256 33.0783 87.7563 34.8923 87.3713C36.3837 87.0512 37.5599 86.8548 38.3456 86.7335C39.1314 86.6123 39.5655 86.5516 39.5655 86.5516Z" fill="#009BE1"/>
<path d="M17.6578 71.1216C17.6573 71.2745 17.6115 71.4238 17.5262 71.5507C17.4409 71.6776 17.32 71.7764 17.1786 71.8346C17.0372 71.8928 16.8817 71.9078 16.7318 71.8776C16.5819 71.8475 16.4443 71.7736 16.3363 71.6654C16.2284 71.5571 16.1549 71.4192 16.1253 71.2692C16.0956 71.1192 16.1111 70.9638 16.1697 70.8226C16.2283 70.6814 16.3275 70.5607 16.4546 70.4758C16.5818 70.3909 16.7313 70.3456 16.8842 70.3456C16.986 70.3456 17.0868 70.3657 17.1808 70.4047C17.2748 70.4437 17.3602 70.5009 17.4321 70.573C17.5039 70.6451 17.5609 70.7307 17.5996 70.8248C17.6383 70.919 17.6581 71.0198 17.6578 71.1216V71.1216Z" fill="#009BE1"/>
<path d="M86.8995 72.4174C87.3267 72.4174 87.6731 72.0711 87.6731 71.6438C87.6731 71.2166 87.3267 70.8702 86.8995 70.8702C86.4722 70.8702 86.1259 71.2166 86.1259 71.6438C86.1259 72.0711 86.4722 72.4174 86.8995 72.4174Z" fill="#009BE1"/>
<path d="M56.0957 100.174C56.0962 100.327 56.0511 100.478 55.966 100.606C55.8809 100.734 55.7597 100.834 55.6178 100.893C55.4759 100.952 55.3197 100.967 55.1689 100.937C55.0181 100.907 54.8796 100.834 54.771 100.725C54.6623 100.616 54.5883 100.478 54.5585 100.327C54.5286 100.176 54.5442 100.02 54.6032 99.878C54.6622 99.7361 54.7621 99.615 54.8901 99.5299C55.0181 99.4448 55.1684 99.3996 55.3221 99.4001C55.5273 99.4001 55.7241 99.4816 55.8692 99.6267C56.0142 99.7718 56.0957 99.9685 56.0957 100.174Z" fill="#009BE1"/>
<path d="M32.5843 80.274C32.5843 80.3507 32.5616 80.4257 32.5189 80.4895C32.4763 80.5534 32.4157 80.6031 32.3448 80.6325C32.2739 80.6618 32.1959 80.6695 32.1206 80.6545C32.0453 80.6396 31.9762 80.6026 31.9219 80.5483C31.8677 80.4941 31.8307 80.4249 31.8157 80.3497C31.8008 80.2744 31.8085 80.1964 31.8378 80.1255C31.8672 80.0546 31.9169 79.994 31.9807 79.9513C32.0445 79.9087 32.1196 79.886 32.1963 79.886C32.2992 79.886 32.3979 79.9268 32.4707 79.9996C32.5434 80.0724 32.5843 80.1711 32.5843 80.274V80.274Z" fill="#009BE1"/>
<path d="M80.7246 89.649C80.7246 89.7258 80.7018 89.8009 80.659 89.8648C80.6163 89.9287 80.5555 89.9784 80.4845 90.0077C80.4134 90.037 80.3353 90.0445 80.26 90.0294C80.1846 90.0142 80.1155 89.977 80.0613 89.9225C80.0072 89.868 79.9704 89.7986 79.9557 89.7232C79.941 89.6478 79.949 89.5697 79.9788 89.4988C80.0085 89.4279 80.0586 89.3675 80.1228 89.3252C80.1869 89.2828 80.2621 89.2605 80.339 89.261C80.4415 89.2616 80.5396 89.3028 80.6118 89.3755C80.684 89.4482 80.7246 89.5465 80.7246 89.649Z" fill="#009BE1"/>
<path d="M29.9572 39.9797C30.0644 39.9797 30.1512 39.8929 30.1512 39.7857C30.1512 39.6786 30.0644 39.5917 29.9572 39.5917C29.8501 39.5917 29.7632 39.6786 29.7632 39.7857C29.7632 39.8929 29.8501 39.9797 29.9572 39.9797Z" fill="#009BE1"/>
<path d="M64.8631 69.5664C55.4609 72.0546 46.3983 71.8654 36.5208 69.5664L35.3616 51.5042C45.5689 53.4904 55.815 53.2381 64.8582 51.0774L64.8631 69.5664Z" fill="white"/>
<g opacity="0.8">
<path d="M64.8645 69.5721C55.4623 72.0603 46.3997 71.8711 36.5222 69.5721L35.363 51.5099C45.5703 53.4961 55.8164 53.2439 64.8596 51.0831L64.8645 69.5721Z" fill="#80B6CE"/>
</g>
<path d="M63.4059 66.8164C63.3871 66.8289 63.3667 66.8387 63.3452 66.8455L63.1682 66.9207C63.0106 66.9838 62.7826 67.0856 62.4795 67.1948C61.6269 67.5117 60.7583 67.7837 59.8773 68.0096C56.9622 68.7417 53.9629 69.0842 50.9578 69.0281C47.9561 68.9679 44.9654 68.6482 42.0188 68.0726C40.8863 67.8568 39.9769 67.6579 39.3512 67.5124C39.0384 67.4421 38.7958 67.3815 38.6237 67.3403L38.4369 67.2918C38.3957 67.2796 38.3739 67.2724 38.3763 67.2699H38.4418L38.6309 67.3063L39.3585 67.4542C39.9866 67.5852 40.9008 67.7719 42.0261 67.9732C44.9708 68.5226 47.9556 68.83 50.9505 68.8923C53.9456 68.9493 56.9357 68.6233 59.8482 67.9223C60.9613 67.641 61.8489 67.3597 62.4552 67.1438C62.7608 67.0444 62.9912 66.9498 63.1512 66.9013L63.3331 66.8383C63.3555 66.8259 63.3803 66.8185 63.4059 66.8164Z" fill="white"/>
<path d="M49.5902 67.5413C48.3992 67.8644 47.1386 67.8221 45.9719 67.42V60.9935C47.1658 60.751 48.3963 60.751 49.5902 60.9935V67.5413Z" fill="white"/>
<path d="M55.4341 67.161C55.4324 67.1441 55.4324 67.127 55.4341 67.1101C55.4341 67.0737 55.4341 67.0276 55.4341 66.9719C55.4341 66.8409 55.4341 66.6615 55.4171 66.4335C55.4171 65.9606 55.3953 65.284 55.3783 64.4376C55.354 62.7401 55.3177 60.3465 55.2764 57.5794L55.3249 57.6376C54.0877 57.3962 52.8154 57.3962 51.5782 57.6376L51.6291 57.577V57.7031C51.6679 61.5008 51.7043 64.9324 51.7285 67.3817L51.6921 67.3381C52.2113 67.451 52.7398 67.5159 53.2709 67.5321C53.6701 67.5391 54.0691 67.5058 54.4616 67.4326C54.7082 67.3852 54.9512 67.3212 55.1891 67.2411L55.371 67.178C55.3927 67.1685 55.4155 67.1619 55.4389 67.1586L55.3807 67.1853L55.1964 67.2653C54.9596 67.3551 54.7164 67.4273 54.4689 67.4811C54.0741 67.5632 53.6717 67.603 53.2685 67.6C52.7321 67.5936 52.1977 67.5351 51.6727 67.4254H51.6388V67.3769C51.6024 64.9275 51.5539 61.4984 51.5005 57.7007V57.5188H51.5539C52.8061 57.2712 54.0946 57.2712 55.3468 57.5188L55.3953 57.5309V57.5794C55.4171 60.3586 55.4341 62.757 55.4486 64.4692C55.4486 65.3107 55.4486 65.9824 55.4486 66.4553C55.4486 66.6784 55.4486 66.853 55.4486 66.9816C55.4486 67.0349 55.4486 67.081 55.4486 67.1174C55.4486 67.1538 55.4365 67.161 55.4341 67.161Z" fill="white"/>
<path d="M60.9977 66.4133C60.0277 66.9371 58.7545 67.0074 57.377 66.9274V56.3103C58.5669 56.0241 59.8078 56.0241 60.9977 56.3103V66.4133Z" fill="white"/>
<path d="M43.8498 67.0214C43.8498 67.0214 43.8498 66.922 43.8377 66.7474C43.8255 66.5728 43.8377 66.3133 43.8231 66.0053C43.8231 65.3602 43.8061 64.4654 43.7964 63.4008L43.8304 63.4517C42.7257 63.0041 41.5357 62.8062 40.3455 62.8721V62.8721L40.4037 62.809C40.4037 64.1356 40.4037 65.3748 40.4037 66.4297L40.3722 66.3812C40.8222 66.5635 41.2905 66.6969 41.7691 66.7789C42.1983 66.8565 42.5742 66.9002 42.887 66.9317L43.6146 66.9923C43.7007 66.9972 43.7866 67.0069 43.8716 67.0214C43.786 67.0272 43.7002 67.0272 43.6146 67.0214C43.4448 67.0214 43.1999 67.0215 42.887 66.9899C42.5742 66.9584 42.1934 66.9317 41.7618 66.8614C41.2733 66.7876 40.7949 66.6582 40.3358 66.4758L40.3043 66.4612V66.4249C40.3043 65.37 40.3043 64.1307 40.3043 62.8042V62.746H40.3673C41.5764 62.6782 42.7851 62.8847 43.9032 63.3498L43.9395 63.362V63.4008C43.9395 64.4799 43.9177 65.3869 43.9104 66.0417C43.9104 66.3448 43.9104 66.5874 43.8959 66.7692C43.888 66.8545 43.8725 66.9389 43.8498 67.0214V67.0214Z" fill="white"/>
<path d="M45.5475 57.6239C45.3135 57.6615 45.0763 57.6761 44.8394 57.6675C44.4005 57.6675 43.7942 57.6675 43.1273 57.6263C42.4604 57.5851 41.8589 57.5245 41.4297 57.4662C41.1933 57.4474 40.9593 57.4052 40.7313 57.3401C40.9672 57.3343 41.2031 57.3473 41.437 57.3789C41.8735 57.4129 42.4749 57.4614 43.1345 57.5002C43.7942 57.539 44.4029 57.5633 44.8321 57.5778C45.0714 57.575 45.3106 57.5904 45.5475 57.6239V57.6239Z" fill="white"/>
<path d="M45.0064 58.4238C44.8 58.4445 44.592 58.4445 44.3856 58.4238C44.0024 58.4044 43.4738 58.3705 42.8893 58.3268C42.3049 58.2832 41.7762 58.2347 41.3954 58.1935C41.1883 58.1835 40.9828 58.1526 40.7819 58.1013C40.9883 58.0807 41.1963 58.0807 41.4027 58.1013C41.7883 58.1207 42.3146 58.1547 42.899 58.1983C43.4835 58.242 44.0097 58.2905 44.3905 58.3317C44.5983 58.3421 44.8046 58.373 45.0064 58.4238V58.4238Z" fill="white"/>
<path d="M46.3303 59.4658C46.3303 59.4658 46.3303 59.3833 46.3303 59.2403C46.3303 59.0972 46.3424 58.8765 46.3545 58.6146C46.3788 58.0665 46.4152 57.2953 46.4612 56.3471L46.5073 56.398C44.2681 56.4184 42.0299 56.2937 39.8067 56.0246L39.8771 55.9664V56.0634V56.1652L39.8649 56.3689C39.8649 56.5047 39.8504 56.6405 39.8407 56.7739C39.8261 57.0431 39.8116 57.3075 39.7946 57.5669C39.7631 58.0883 39.734 58.5928 39.7049 59.0754L39.654 59.0123C41.594 59.2548 43.2649 59.3518 44.4508 59.3979L45.8404 59.4391L46.2042 59.4512H46.3376C46.2972 59.4547 46.2566 59.4547 46.2163 59.4512C46.1338 59.4512 46.0029 59.4512 45.8404 59.4634C45.5155 59.4634 45.0426 59.4634 44.4484 59.4634C43.2601 59.4391 41.5819 59.3518 39.6394 59.1214H39.5836V59.0632C39.6103 58.5782 39.6394 58.0762 39.6685 57.5548C39.6831 57.2953 39.6976 57.031 39.7146 56.7618L39.7364 56.3568V56.1531V56.0512V55.9542L39.8067 55.896C42.0335 56.164 44.2742 56.3009 46.517 56.3059H46.5655V56.3544C46.5 57.3099 46.4467 58.0908 46.4079 58.6437C46.3885 58.9007 46.3715 59.1069 46.3594 59.2572C46.3565 59.3275 46.3468 59.3974 46.3303 59.4658V59.4658Z" fill="white"/>
<path d="M47.1574 60.8206C46.972 60.6277 46.8144 60.4097 46.6894 60.1731C46.5295 59.958 46.408 59.7167 46.3305 59.4601C46.5159 59.6531 46.6735 59.871 46.7985 60.1076C46.9584 60.3228 47.0799 60.564 47.1574 60.8206V60.8206Z" fill="white"/>
<path d="M7.8703 37.3114L10.9429 55.9071C10.9429 55.9071 15.6355 64.6909 28.1006 66.6698L26.0901 50.0723C26.0901 50.0723 14.5612 46.5026 7.8703 37.3114Z" fill="white"/>
<g opacity="0.8">
<path d="M7.87051 37.3018L10.9431 55.8976C10.9431 55.8976 15.6357 64.6813 28.1008 66.6602L26.0904 50.0628C26.0904 50.0628 14.5614 46.493 7.87051 37.3018Z" fill="#80B6CE"/>
</g>
<path d="M26.4922 65.3432L26.4146 65.3238L26.1721 65.2583L25.2942 64.9892C24.9134 64.8679 24.4405 64.7466 23.9143 64.5284L23.0679 64.2058C22.7648 64.0919 22.4471 63.9633 22.1246 63.8178C21.477 63.522 20.7568 63.2164 20.0244 62.8041C19.292 62.3919 18.5111 61.9481 17.7157 61.4412C16.0004 60.3149 14.4427 58.9652 13.0837 57.4277C12.447 56.7113 11.887 55.9302 11.4128 55.0971L10.0063 46.003C9.83652 44.868 9.69829 43.9586 9.60371 43.3208L9.50186 42.5933L9.47761 42.4065C9.47489 42.3848 9.47489 42.3628 9.47761 42.3411C9.48525 42.3613 9.49015 42.3825 9.49216 42.4041L9.52853 42.5909L9.65221 43.3184C9.75649 43.9538 9.89473 44.8632 10.0912 45.986C10.4549 48.2705 10.9642 51.4522 11.5462 55.0729V55.0559C12.0175 55.8783 12.5717 56.6503 13.2001 57.3598C14.554 58.8891 16.1032 60.2337 17.8079 61.3588C18.5984 61.868 19.3527 62.3458 20.0996 62.7265C20.8465 63.1073 21.5425 63.4541 22.1876 63.7499C22.5077 63.9076 22.8254 64.0312 23.1237 64.1452L23.9628 64.475C24.4842 64.6957 24.9547 64.8267 25.3305 64.9601L26.2012 65.2511L26.4267 65.3287C26.449 65.3313 26.4709 65.3362 26.4922 65.3432V65.3432Z" fill="white"/>
<path d="M25.3977 59.9378C25.3977 59.9378 25.3977 59.9523 25.3565 59.9766L25.2231 60.0833L24.7066 60.4859L22.7519 61.987L22.7228 62.0112L22.6986 61.9773C22.039 61.0679 21.2265 59.9426 20.305 58.6646L20.3778 58.6767L18.5419 59.9863L18.4813 60.0299L18.4546 59.9572C17.7271 58.0171 16.9341 55.8345 16.0877 53.5379L15.7482 52.6139H15.8622L14.3683 55.5823L14.3029 55.7108L14.2568 55.575C12.9545 51.8258 11.8511 48.6392 11.1332 46.5706H11.1987C11.0023 47.4 10.8471 48.0523 10.7404 48.5107C10.687 48.7289 10.6434 48.8987 10.6143 49.0199L10.5803 49.1509C10.577 49.1662 10.5712 49.181 10.5633 49.1945V49.1485C10.5633 49.1145 10.5779 49.0709 10.5876 49.0175L10.6967 48.5034C10.7962 48.045 10.9392 47.3903 11.1235 46.5633L11.1502 46.4469L11.1914 46.5609C11.919 48.6246 13.0418 51.804 14.3635 55.5459H14.2519L15.7434 52.5776L15.8089 52.4466L15.8598 52.5824L16.1993 53.5064C17.0408 55.8054 17.8411 57.9856 18.5541 59.9305L18.4668 59.9038L20.3099 58.604L20.3511 58.5749L20.3826 58.6161L22.7519 61.9336H22.6962L24.6775 60.4616L25.2061 60.0736L25.3444 59.9766L25.3977 59.9378Z" fill="white"/>
<path d="M24.9674 51.0264C24.8781 51.0174 24.7902 50.9979 24.7055 50.9682C24.5406 50.9221 24.3005 50.8493 24.0095 50.7523C23.2518 50.499 22.5078 50.2059 21.7808 49.8745C21.049 49.5446 20.3343 49.178 19.6395 48.7759C19.3751 48.6207 19.1545 48.4897 19.0186 48.3951C18.9406 48.3516 18.8681 48.2986 18.8028 48.2375C18.888 48.2665 18.9694 48.3055 19.0453 48.3539L19.6856 48.6983C20.2263 48.9869 20.9806 49.3749 21.8342 49.7605C22.6878 50.1461 23.476 50.4541 24.0507 50.6699C24.3199 50.7669 24.5358 50.8518 24.7322 50.9124C24.8154 50.9396 24.8945 50.9779 24.9674 51.0264Z" fill="white"/>
<path d="M25.4619 51.7956C25.2578 51.7847 25.0558 51.7488 24.8604 51.6889C24.382 51.5734 23.9101 51.4325 23.4466 51.267C22.9835 51.1009 22.5294 50.9106 22.0861 50.6971C21.898 50.6187 21.7198 50.5186 21.555 50.3988C21.7513 50.4539 21.9421 50.5269 22.1249 50.617C22.4717 50.7601 22.9519 50.9541 23.4902 51.1481C24.0286 51.3421 24.5233 51.4949 24.8847 51.6041C25.0826 51.6501 25.2758 51.7142 25.4619 51.7956Z" fill="white"/>
<path d="M20.5518 58.6726C20.5518 58.8278 20.4572 58.9515 20.3408 58.9515C20.2244 58.9515 20.1322 58.8278 20.1322 58.6726C20.1322 58.5174 20.2268 58.3938 20.3408 58.3938C20.4548 58.3938 20.5518 58.5199 20.5518 58.6726Z" fill="white"/>
<path d="M15.7816 53.0722C15.8968 53.0722 15.9901 52.9473 15.9901 52.7933C15.9901 52.6393 15.8968 52.5144 15.7816 52.5144C15.6664 52.5144 15.573 52.6393 15.573 52.7933C15.573 52.9473 15.6664 53.0722 15.7816 53.0722Z" fill="white"/>
<path d="M11.3846 46.6631C11.3846 46.8159 11.29 46.942 11.1761 46.942C11.0621 46.942 10.9675 46.8159 10.9675 46.6631C10.9675 46.5103 11.0597 46.3842 11.1761 46.3842C11.2925 46.3842 11.3846 46.5103 11.3846 46.6631Z" fill="white"/>
<path d="M89.1989 40.6246L87.6589 59.5162C87.6589 59.5162 83.1555 67.5942 70.7681 67.9022L72.2983 48.8821C72.2983 48.8821 83.107 48.4432 89.1989 40.6246Z" fill="white"/>
<path d="M88.956 39.634C88.5534 38.3269 87.5737 36.462 85.2456 36.074L82.5003 61.4842C82.5003 61.4842 87.6682 60.4536 87.8065 57.6211C87.8186 57.3785 88.8517 44.7461 89.1112 41.6153C89.1894 40.9511 89.1366 40.278 88.956 39.634V39.634Z" fill="white"/>
<g opacity="0.8">
<path d="M89.1984 40.6271L87.6585 59.5187C87.6585 59.5187 83.155 67.5967 70.7676 67.9047L72.2978 48.8846C72.2978 48.8846 83.1065 48.4457 89.1984 40.6271Z" fill="#80B6CE"/>
</g>
<path d="M88.8227 45.4433C87.583 47.2433 86.8976 49.367 86.8511 51.5521C86.839 52.1802 86.8753 52.8277 86.6353 53.4073C86.3952 53.9869 85.7743 54.4719 85.1802 54.307C84.586 54.1421 84.2659 53.3855 83.713 53.0363C83.4581 52.8935 83.1696 52.8216 82.8774 52.828C82.5853 52.8344 82.3003 52.9189 82.0518 53.0726C81.5579 53.3894 81.1761 53.8534 80.9605 54.3992C80.5119 55.4347 80.4755 56.6036 80.1505 57.6828C79.8256 58.762 79.0059 59.8508 77.8758 59.8993C77.4635 59.9163 77.0561 59.7926 76.6438 59.8047C75.7732 59.8314 75.0166 60.4789 74.6116 61.2598C74.2066 62.0407 74.0829 62.9162 73.9665 63.7795C73.9665 63.7795 80.5676 64.41 87.9763 55.6602L88.8227 45.4433Z" fill="white"/>
<path d="M78.3301 56.8964C78.3301 57.1389 78.2137 57.3208 78.0706 57.3208C77.9275 57.3208 77.8136 57.1316 77.8136 56.8964C77.8136 56.6612 77.9275 56.472 78.0706 56.472C78.2137 56.472 78.3301 56.6636 78.3301 56.8964Z" fill="white"/>
<path d="M81.4387 49.044C81.4387 49.2865 81.3223 49.4684 81.1792 49.4684C81.0362 49.4684 80.9222 49.2768 80.9222 49.044C80.9222 48.8112 81.0362 48.6196 81.1792 48.6196C81.3223 48.6196 81.4387 48.8087 81.4387 49.044Z" fill="white"/>
<path d="M88.6757 46.3443C88.6655 46.3811 88.6517 46.4168 88.6345 46.451L88.4939 46.759C88.3629 47.033 88.181 47.421 87.9506 47.9109L85.9814 52.0118L85.9548 52.0675L85.9014 52.0336L81.2331 49.0798L81.3252 49.0507C81.2646 49.201 81.1967 49.3635 81.1312 49.5357L78.1168 56.9105L78.095 56.9614L78.0489 56.9347C76.8849 56.2799 75.9342 55.7537 75.2746 55.3948C74.9423 55.2153 74.6853 55.0771 74.5083 54.9874L74.307 54.8904L74.2366 54.8588C74.6066 54.9833 74.9625 55.1458 75.2988 55.3438C75.9682 55.6882 76.9237 56.2023 78.095 56.8474L78.0271 56.8717L81.0148 49.4775C81.0803 49.315 81.1482 49.1525 81.2088 48.9925L81.2379 48.9222L81.301 48.9634L85.962 51.9317L85.882 51.9535C86.709 50.2729 87.4025 48.8688 87.8924 47.8745L88.472 46.742L88.6272 46.4437C88.6406 46.4093 88.6569 46.376 88.6757 46.3443V46.3443Z" fill="white"/>
</g>
</svg>
