<svg width="101" height="101" viewBox="0 0 101 101" fill="none" xmlns="http://www.w3.org/2000/svg">
<circle cx="50.5" cy="50.875" r="50" fill="#002C8A" fill-opacity="0.2"/>
<mask id="mask0_8_2" style="mask-type:alpha" maskUnits="userSpaceOnUse" x="0" y="0" width="101" height="101">
<circle cx="50.5" cy="50.875" r="50" fill="#D9D9D9"/>
</mask>
<g mask="url(#mask0_8_2)">
<path d="M30.7405 56.0944C37.0226 62.9212 41.3568 67.1628 44.1004 72.9901C44.1004 72.9901 46.8348 81.826 49.4862 84.7883C57.2446 93.4477 69.1151 89.0915 75.0937 79.775C81.2855 70.1275 74.1456 61.1107 74.1456 61.1107C66.3618 49.9704 65.1217 40.7334 65.236 35.5543C65.3229 31.4059 62.8371 27.5751 58.9293 26.1933C58.0747 25.8703 57.1622 25.7289 56.2499 25.7779C44.3275 26.7111 36.303 35.5679 30.9047 39.8849C28.9026 41.4832 24.4573 49.2652 30.7405 56.0944Z" stroke="#002C8A" stroke-opacity="0.1" stroke-linecap="round" stroke-linejoin="round" stroke-dasharray="2 2"/>
<path d="M74.71 40.5126C70.7358 41.9346 66.7012 43.3646 62.9164 45.1953C53.7442 49.6244 44.9351 54.7696 35.9612 59.5782C30.6131 62.4452 25.2882 66.1918 19.3073 67.5812C13.702 68.8854 7.6008 66.7328 4.77764 61.5539C1.66943 55.8541 5.22603 49.0869 11.0511 47.2039C15.4145 45.7935 20.38 46.5367 24.6232 44.7777C30.3342 42.4071 26.6099 36.168 28.2816 30.2446C30.2418 23.2771 33.6334 15.734 39.5603 11.2648C41.2626 9.9786 43.2321 8.94877 45.3736 8.81966C55.0479 8.24506 63.2732 20.7973 58.678 29.2319C53.9389 37.9242 42.4877 40.5784 45.5412 49.8695C48.5947 59.1605 56.3228 66.1201 62.3394 73.6635C68.3561 81.2069 67.4492 93.0958 55.6437 96.7046C43.8382 100.313 37.8722 86.4155 42.6645 76.5111C47.4567 66.6067 64.5113 62.3821 71.341 60.8473C75.0862 60.0083 78.9975 60.4594 82.7864 60.691C85.773 60.8715 89.0179 61.3375 91.6672 59.6274C99.4773 54.585 95.466 39.5333 86.3054 38.5826C86.2941 38.5822 82.342 37.7797 74.71 40.5126Z" stroke="#002C8A" stroke-opacity="0.1" stroke-linecap="round" stroke-linejoin="round" stroke-dasharray="2 2"/>
<path d="M26.6341 38.8003C24.2676 38.8003 21.998 37.8602 20.3246 36.1868C18.6513 34.5135 17.7112 32.2439 17.7112 29.8774V29.8774C17.7112 27.5109 18.6513 25.2413 20.3246 23.5679C21.998 21.8945 24.2676 20.9544 26.6341 20.9544V20.9544C29.0006 20.9544 31.2702 21.8945 32.9436 23.5679C34.6169 25.2413 35.557 27.5109 35.557 29.8774C35.557 32.2439 34.6169 34.5135 32.9436 36.1868C31.2702 37.8602 29.0006 38.8003 26.6341 38.8003V38.8003Z" fill="white" stroke="white" stroke-miterlimit="10"/>
<g clip-path="url(#clip0_8_2)">
<path d="M28.6754 23.1214C26.307 23.1214 24.2963 24.943 24.0429 27.2869C21.699 27.5403 19.8774 29.5518 19.8774 31.9194C19.8783 33.1562 20.37 34.3421 21.2446 35.2167C22.1192 36.0912 23.3051 36.583 24.5419 36.5838C26.9103 36.5838 28.9288 34.7623 29.1744 32.4184C31.5183 32.1649 33.3398 30.1535 33.3398 27.7859C33.339 26.5491 32.8472 25.3631 31.9727 24.4886C31.0981 23.614 29.9122 23.1223 28.6754 23.1214V23.1214ZM32.2487 28.3086C32.1318 29.0735 31.7735 29.7809 31.2261 30.3278C30.6788 30.8746 29.9709 31.2323 29.206 31.3484V28.3086H32.2487ZM20.9702 31.3966C21.0853 30.6304 21.4426 29.9212 21.9898 29.3726C22.537 28.8241 23.2454 28.4651 24.0113 28.3481V31.39H20.9702V31.3966ZM28.1132 32.45C27.9859 33.3062 27.5552 34.0881 26.8997 34.6534C26.2441 35.2187 25.4073 35.5297 24.5417 35.5297C23.6761 35.5297 22.8393 35.2187 22.1837 34.6534C21.5282 34.0881 21.0975 33.3062 20.9702 32.45H28.1132ZM28.1527 28.3086V31.39H25.0646V28.3086H28.1527ZM32.2471 27.2553H25.1041C25.2314 26.3991 25.6621 25.6171 26.3176 25.0518C26.9732 24.4866 27.81 24.1756 28.6756 24.1756C29.5412 24.1756 30.378 24.4866 31.0335 25.0518C31.6891 25.6171 32.1198 26.3991 32.2471 27.2553V27.2553Z" fill="#00DCFA"/>
</g>
<path d="M30.1313 22.5626C30.9679 22.962 31.7298 23.5021 32.3836 24.1594" stroke="white" stroke-width="0.75" stroke-linecap="round" stroke-linejoin="round"/>
<path d="M21.611 23.5163C21.7957 23.3695 21.9906 23.2303 22.193 23.0962C23.2723 22.3884 24.5052 21.9488 25.7888 21.8141C27.0724 21.6794 28.3696 21.8535 29.5723 22.3218" stroke="white" stroke-width="0.75" stroke-linecap="round" stroke-linejoin="round"/>
<path d="M25.6471 37.9202C24.478 37.7767 23.3543 37.38 22.3543 36.7576C21.3543 36.1352 20.502 35.3022 19.8571 34.3166V34.3166C18.9456 32.9271 18.4837 31.2909 18.5339 29.6299C18.5842 27.9689 19.1442 26.3636 20.138 25.0318" stroke="white" stroke-width="0.75" stroke-linecap="round" stroke-linejoin="round"/>
<path d="M28.6433 37.7314C28.116 37.8705 27.5758 37.9553 27.0313 37.9844" stroke="white" stroke-width="0.75" stroke-linecap="round" stroke-linejoin="round"/>
<path d="M32.3833 24.1593C32.7678 24.5465 33.1136 24.9702 33.4157 25.4246V25.4246C34.0001 26.3148 34.4032 27.3116 34.6018 28.3579C34.8005 29.4041 34.7908 30.4792 34.5734 31.5217C34.3559 32.5642 33.935 33.5536 33.3347 34.4332C32.7344 35.3128 31.9665 36.0654 31.0749 36.6478C30.4896 37.0304 29.8577 37.3366 29.1947 37.5588" stroke="white" stroke-width="0.75" stroke-linecap="round" stroke-linejoin="round"/>
<path d="M88.2922 61.875C85.9257 61.875 83.6561 60.935 81.9828 59.2616C80.3094 57.5882 79.3693 55.3186 79.3693 52.9521V52.9521C79.3693 50.5856 80.3094 48.316 81.9828 46.6427C83.6561 44.9693 85.9257 44.0292 88.2922 44.0292V44.0292C90.6587 44.0292 92.9283 44.9693 94.6017 46.6427C96.2751 48.316 97.2152 50.5856 97.2152 52.9521V52.9521C97.2152 55.3186 96.2751 57.5882 94.6017 59.2616C92.9283 60.935 90.6587 61.875 88.2922 61.875V61.875Z" fill="#FFF8F8" stroke="#FFF8F8" stroke-miterlimit="10"/>
<path d="M84.0483 59.8561C83.2583 59.3705 82.5581 58.7525 81.9782 58.029" stroke="white" stroke-width="0.75" stroke-linecap="round" stroke-linejoin="round"/>
<path d="M92.6223 59.8139C92.4198 59.9404 92.2123 60.0669 91.9972 60.1707C90.8493 60.7596 89.5773 61.0657 88.2871 61.0635C86.9969 61.0613 85.7259 60.7508 84.58 60.158" stroke="white" stroke-width="0.75" stroke-linecap="round" stroke-linejoin="round"/>
<path d="M90.1429 45.0614C91.2901 45.3275 92.3654 45.8411 93.2934 46.5663C94.2215 47.2915 94.9798 48.2107 95.5153 49.2596V49.2596C96.2738 50.7379 96.5593 52.4137 96.3329 54.0597C96.1066 55.7057 95.3794 57.2423 94.25 58.4609" stroke="white" stroke-width="0.75" stroke-linecap="round" stroke-linejoin="round"/>
<path d="M87.1355 44.9274C87.675 44.8493 88.221 44.8264 88.7652 44.8591" stroke="white" stroke-width="0.75" stroke-linecap="round" stroke-linejoin="round"/>
<path d="M81.9783 58.025C81.6363 57.5969 81.3379 57.1357 81.0875 56.6483C80.6012 55.7012 80.3064 54.6675 80.22 53.6064C80.1336 52.5452 80.2573 51.4775 80.584 50.4642C80.9107 49.4509 81.4341 48.512 82.124 47.7011C82.814 46.8903 83.6571 46.2235 84.6051 45.7389V45.7389C85.2275 45.4201 85.8884 45.1828 86.5714 45.0328" stroke="white" stroke-width="0.75" stroke-linecap="round" stroke-linejoin="round"/>
<g clip-path="url(#clip1_8_2)">
<path d="M95.5684 52.4268C95.4842 52.1091 94.8291 51.3802 94.3518 50.7915C94.3424 50.7821 94.3143 50.7354 94.2582 50.7354C94.2114 50.7354 94.1739 50.7821 94.1927 50.8195C94.2114 50.8569 94.67 51.81 94.5857 52.1184C94.5015 52.4361 94.0804 52.3707 94.0148 52.3707C93.9774 52.3707 94.0055 52.3988 94.0429 52.4361C94.2769 52.6417 94.4266 52.9314 94.4266 53.3052V53.5855C94.4266 53.5949 94.4266 53.5949 94.436 53.5949C94.9694 53.5482 95.7836 53.2211 95.5684 52.4268M93.5001 54.2677C93.5001 54.5387 93.1351 54.6882 92.9012 54.6882C92.6485 54.6882 92.2928 54.5387 92.2928 54.2677V53.3145C92.2928 53.0435 92.6485 52.9221 92.9012 52.9221C93.1351 52.9221 93.5001 53.0529 93.5001 53.3145V54.2677ZM92.9012 52.324C92.3396 52.3333 91.6845 52.6511 91.6845 53.3052V54.3051C91.6845 54.9686 92.3396 55.2863 92.9012 55.2863C93.4533 55.2769 94.1084 54.9686 94.1084 54.3051V53.3145C94.1084 52.6604 93.4533 52.3333 92.9012 52.324M89.27 54.2677C89.27 54.5387 88.905 54.6882 88.671 54.6882C88.4183 54.6882 88.0627 54.5387 88.0627 54.2677V53.3145C88.0627 53.0435 88.4183 52.9221 88.671 52.9221C88.905 52.9221 89.27 53.0529 89.27 53.3145V54.2677ZM88.6617 52.324C88.1001 52.3333 87.445 52.6511 87.445 53.3052V54.3051C87.445 54.9686 88.1001 55.2863 88.6617 55.2863C89.2138 55.2769 89.8689 54.9686 89.8689 54.3051V53.3145C89.8689 52.6604 89.2138 52.3333 88.6617 52.324M82.5598 52.4361C82.5972 52.3988 82.6253 52.3707 82.5879 52.3707C82.5224 52.3707 82.1012 52.4361 82.017 52.1184C81.9328 51.8007 82.3913 50.8569 82.4101 50.8195C82.4194 50.7821 82.3913 50.7354 82.3352 50.7354C82.2884 50.7354 82.251 50.7915 82.2416 50.7915C81.7737 51.3802 81.1092 52.1091 81.025 52.4268C80.8097 53.2211 81.6426 53.5482 82.1667 53.6042C82.1761 53.6042 82.1761 53.5949 82.1761 53.5949V53.3145C82.1854 52.9314 82.3258 52.6417 82.5598 52.4361M87.4076 52.5483C86.9584 52.4268 86.6308 52.3801 86.1442 52.3801C85.6669 52.3801 85.33 52.4268 84.8808 52.5483C84.862 52.5576 84.8527 52.5763 84.862 52.5857C85.0118 52.7165 85.0773 52.8847 85.1054 53.0716C85.3487 53.0155 85.5733 52.9781 85.8353 52.9594V55.2676C85.8353 55.2769 85.8447 55.2769 85.8541 55.2769H86.4343C86.4437 55.2769 86.453 55.2769 86.453 55.2676V52.9594C86.7057 52.9781 86.9116 53.0062 87.1549 53.0716C87.1924 52.8847 87.2672 52.7071 87.4263 52.5857C87.4263 52.567 87.417 52.5483 87.4076 52.5483ZM91.7032 52.352C91.6565 52.3427 91.5348 52.324 91.4225 52.3333C90.8703 52.352 90.2433 52.6791 90.2433 53.3145V55.2863C90.2433 55.2956 90.2526 55.2956 90.262 55.2956H90.8422C90.8516 55.2956 90.861 55.2956 90.861 55.2863V53.3145C90.861 53.0996 91.123 52.9781 91.3383 52.9314C91.4038 52.7258 91.5254 52.567 91.7126 52.4174C91.7407 52.3894 91.7313 52.352 91.7032 52.352M84.235 53.4827C84.235 53.4921 84.235 53.4921 84.2256 53.5014C84.2256 53.5108 84.2163 53.5108 84.2069 53.5108H83.1026V53.3145C83.1026 53.0435 83.4302 52.9127 83.6828 52.9127C83.9262 52.9127 84.235 53.0435 84.235 53.3145V53.4827ZM83.6828 52.3053C83.112 52.3147 82.4849 52.6417 82.4849 53.3052V54.3144C82.4849 54.9872 83.112 55.305 83.6828 55.3143C84.0946 55.3143 84.5532 55.1461 84.7778 54.7817C84.7872 54.7723 84.7778 54.7536 84.7684 54.7443C84.5719 54.6321 84.4596 54.5667 84.2631 54.4639C84.2537 54.4639 84.2537 54.4639 84.2444 54.4733C84.1414 54.6508 83.87 54.7443 83.6828 54.7443C83.4302 54.7443 83.1026 54.5854 83.1026 54.3144V54.0154H84.6842C84.7684 54.0154 84.834 53.95 84.834 53.8659V53.3145C84.834 52.6417 84.2444 52.3147 83.6828 52.3053" fill="#6AAE22"/>
</g>
<path d="M77.4347 38.0773C75.0682 38.0773 72.7987 37.1372 71.1253 35.4639C69.4519 33.7905 68.5118 31.5209 68.5118 29.1544V29.1544C68.5118 26.7877 69.4518 24.5178 71.1251 22.8441C72.7984 21.1703 75.068 20.2296 77.4347 20.229V20.229C79.8015 20.2296 82.0711 21.1703 83.7444 22.8441C85.4177 24.5178 86.3577 26.7877 86.3577 29.1544V29.1544C86.3577 31.5209 85.4176 33.7905 83.7442 35.4639C82.0708 37.1372 79.8012 38.0773 77.4347 38.0773V38.0773Z" fill="white" stroke="white" stroke-miterlimit="10"/>
<g clip-path="url(#clip2_8_2)">
<path d="M77.0889 24.1069C78.187 24.0354 79.3057 24.2588 80.2946 24.7532C81.7498 25.474 82.9099 26.7786 83.4589 28.3184C83.701 28.9975 83.8309 29.7183 83.8309 30.439V33.1196C83.8309 33.2298 83.8338 33.34 83.8072 33.4472C83.7482 33.7183 83.5563 33.9566 83.3054 34.0697C83.1313 34.1531 82.9306 34.1621 82.7416 34.1323C82.3372 34.0578 82.0214 33.6736 82.0184 33.2596C82.0155 32.4286 82.0184 31.5976 82.0184 30.7637C82.0243 30.5284 82.0273 30.2752 81.9004 30.0667C81.6937 29.6825 81.1978 29.5008 80.7964 29.6646C80.4569 29.7868 80.2119 30.1323 80.209 30.4956C80.206 31.3415 80.209 32.1844 80.209 33.0273C80.209 33.1851 80.2178 33.346 80.1706 33.4979C80.085 33.7957 79.84 34.037 79.5448 34.1174C79.1581 34.2246 78.7124 34.0519 78.5176 33.6915C78.3848 33.4741 78.3936 33.2119 78.3966 32.9677C78.3936 32.1308 78.3995 31.2909 78.3936 30.4539C78.3848 30.028 78.0394 29.6438 77.6203 29.5902C77.3487 29.5485 77.0624 29.6408 76.8646 29.8344C76.6875 30.0042 76.5842 30.2484 76.5842 30.4956V32.9379C76.5812 33.1434 76.6048 33.3549 76.5281 33.5485C76.4071 33.897 76.0587 34.1531 75.6898 34.1442C75.3119 34.165 74.9459 33.9029 74.8249 33.5455C74.757 33.3698 74.7718 33.1792 74.7718 32.9945C74.7718 32.1516 74.7747 31.3087 74.7718 30.4658C74.7688 30.0489 74.4471 29.6676 74.0427 29.5932C73.6737 29.5127 73.2663 29.7004 73.0833 30.034C73.0036 30.174 72.9623 30.3348 72.9623 30.4926V33.2298C72.9652 33.4949 72.8442 33.76 72.6405 33.9297C72.3336 34.2008 71.8377 34.2157 71.5159 33.9655C71.2827 33.8047 71.144 33.5277 71.144 33.2417V30.4688C71.1469 29.4204 71.4096 28.375 71.9055 27.4517C72.3099 26.6981 72.8678 26.028 73.5349 25.4919C74.5386 24.6758 75.799 24.1844 77.0889 24.1069Z" fill="#0DA8FF"/>
</g>
<path d="M73.2314 22.222C74.0228 21.739 74.8918 21.3966 75.8 21.2098" stroke="white" stroke-width="0.75" stroke-linecap="round" stroke-linejoin="round"/>
<path d="M69.3619 29.8748C69.3417 29.6394 69.3315 29.399 69.3315 29.1586C69.3306 27.8681 69.6381 26.5961 70.2284 25.4485C70.8187 24.3009 71.6747 23.311 72.7251 22.5613" stroke="white" stroke-width="0.75" stroke-linecap="round" stroke-linejoin="round"/>
<path d="M83.6192 34.3866C82.8599 35.2869 81.9128 36.0102 80.8444 36.5059C79.7761 37.0017 78.6122 37.2578 77.4344 37.2563C75.7738 37.2565 74.1531 36.7471 72.7914 35.7967C71.4296 34.8463 70.3924 33.5008 69.8198 31.942" stroke="white" stroke-width="0.75" stroke-linecap="round" stroke-linejoin="round"/>
<path d="M85.1077 31.7766C84.9311 32.2917 84.703 32.7877 84.4269 33.257" stroke="white" stroke-width="0.75" stroke-linecap="round" stroke-linejoin="round"/>
<path d="M75.7997 21.226C76.3376 21.1159 76.8854 21.0608 77.4345 21.0615V21.0615C79.5822 21.0615 81.6419 21.9147 83.1606 23.4334C84.6792 24.952 85.5324 27.0118 85.5324 29.1595C85.5326 29.859 85.4425 30.5556 85.2642 31.2321" stroke="white" stroke-width="0.75" stroke-linecap="round" stroke-linejoin="round"/>
<path d="M13.4451 61.875C12.2727 61.876 11.1116 61.646 10.0281 61.198C8.94468 60.75 7.96013 60.0929 7.13075 59.2643C6.30138 58.4356 5.64344 57.4516 5.19455 56.3685C4.74565 55.2855 4.5146 54.1245 4.5146 52.9521C4.5146 51.7797 4.74565 50.6188 5.19455 49.5357C5.64344 48.4526 6.30138 47.4686 7.13075 46.64C7.96013 45.8113 8.94468 45.1542 10.0281 44.7062C11.1116 44.2583 12.2727 44.0282 13.4451 44.0292C15.8116 44.0292 18.0812 44.9693 19.7546 46.6427C21.428 48.316 22.368 50.5856 22.368 52.9521C22.368 55.3186 21.428 57.5882 19.7546 59.2616C18.0812 60.935 15.8116 61.875 13.4451 61.875Z" fill="white" stroke="white" stroke-miterlimit="10"/>
<g clip-path="url(#clip3_8_2)">
<path d="M6.80975 53.8591C6.80632 53.8263 6.80289 53.7953 6.79884 53.7579C6.83862 53.7555 6.86739 53.752 6.89596 53.752C7.07066 53.7515 7.24516 53.7483 7.41986 53.7525C7.79524 53.7619 8.10705 53.5379 8.2293 53.24C8.40514 52.8122 8.16739 52.3616 7.75255 52.2095C7.63902 52.1674 7.51891 52.146 7.39784 52.1461C6.98923 52.1464 6.58083 52.1461 6.17221 52.1461C6.14905 52.1461 6.1262 52.1451 6.10283 52.1469C6.03926 52.1518 6.03095 52.1603 6.02784 52.2207C6.02701 52.2392 6.02784 52.2576 6.02784 52.2761V54.4796H5.92532C5.90476 54.4041 5.90039 52.1633 5.92044 52.056C5.95222 52.0522 5.98723 52.0447 6.02181 52.0447C6.49617 52.044 6.97053 52.0483 7.4451 52.0432C7.87771 52.0386 8.25495 52.3221 8.36412 52.6914C8.47172 53.056 8.38074 53.3845 8.07848 53.648C7.93369 53.7747 7.75192 53.8429 7.55946 53.8551C7.31485 53.8712 7.06713 53.8592 6.80975 53.8592V53.8591Z" fill="#444854"/>
<path d="M6.1505 54.4792V52.2598C6.18425 52.2571 6.21271 52.2531 6.24128 52.2531C6.64989 52.2526 7.05809 52.2523 7.4667 52.2531C7.75306 52.2536 8.03277 52.4586 8.12947 52.6999C8.18041 52.8267 8.19043 52.9663 8.15814 53.0991C8.10101 53.3412 7.95082 53.5242 7.68887 53.6065C7.6278 53.6258 7.56215 53.6397 7.49786 53.6411C7.29023 53.6452 7.0827 53.6431 6.87538 53.6426C6.84339 53.6426 6.806 53.648 6.79852 53.6042C6.7926 53.5679 6.81545 53.539 6.85773 53.5352C6.89335 53.532 6.93012 53.5339 6.96616 53.5339C7.13069 53.5337 7.29573 53.5303 7.46026 53.5344C7.71473 53.5406 7.93753 53.3736 8.00971 53.1742C8.13643 52.8232 7.996 52.5711 7.69905 52.4134C7.64223 52.3832 7.56911 52.3677 7.50316 52.3668C7.10794 52.3623 6.71273 52.3641 6.3172 52.3639C6.30432 52.3639 6.29144 52.3668 6.26693 52.37C6.26434 52.4081 6.25945 52.4467 6.25945 52.4849C6.25893 53.1046 6.25914 53.7241 6.25914 54.3436C6.25914 54.3653 6.26008 54.3867 6.25893 54.4085C6.25561 54.4801 6.24813 54.4852 6.1505 54.479V54.4792Z" fill="#444854"/>
<path d="M6.48121 54.4792H6.37184V52.4804C6.40851 52.4768 6.4432 52.4705 6.4781 52.4705C6.79759 52.4697 7.1175 52.4774 7.43679 52.4678C7.70404 52.4598 7.926 52.6679 7.95436 52.8963C7.97929 53.0963 7.86711 53.344 7.60713 53.4076C7.53759 53.4251 7.46639 53.4352 7.39472 53.4377C7.23674 53.4424 7.07824 53.4391 6.92026 53.4391H6.82574C6.78118 53.3459 6.79178 53.328 6.88681 53.3274C7.06474 53.3267 7.24266 53.3228 7.42059 53.3282C7.61669 53.3341 7.77207 53.2184 7.81995 53.0676C7.86721 52.9188 7.82432 52.767 7.67371 52.6505C7.60495 52.5971 7.52435 52.5738 7.437 52.5733C7.15032 52.572 6.86386 52.5725 6.57719 52.5733C6.54862 52.5733 6.52006 52.5798 6.48163 52.5843C6.48121 53.2186 6.48121 53.8463 6.48121 54.4794V54.4792Z" fill="#444854"/>
<path d="M6.806 53.2048C6.80174 53.1194 6.80746 53.1098 6.88255 53.1093C7.05726 53.1076 7.23175 53.109 7.40646 53.1084C7.43938 53.1084 7.47293 53.1086 7.50471 53.1025C7.5528 53.0932 7.58833 53.0672 7.59435 53.0176C7.59809 52.9871 7.60152 52.956 7.59975 52.9254C7.59404 52.8289 7.55094 52.791 7.44208 52.7897C7.27413 52.788 7.10597 52.7891 6.93802 52.7891H6.72301C6.7201 52.8362 6.71553 52.8751 6.71553 52.9139C6.71491 53.3919 6.71522 53.8698 6.71522 54.3475C6.71522 54.3692 6.71636 54.3906 6.71491 54.4124C6.71034 54.4802 6.69891 54.4872 6.60585 54.4758V52.6837C6.63732 52.6812 6.66298 52.6778 6.68832 52.6778C6.93542 52.6775 7.18242 52.6788 7.42962 52.6773C7.54927 52.6765 7.63465 52.723 7.69354 52.82C7.76573 52.9392 7.71307 53.1355 7.58739 53.2005C7.56702 53.2104 7.54463 53.2155 7.52196 53.2154C7.29158 53.2162 7.0611 53.2157 6.83031 53.2152C6.82428 53.215 6.81836 53.2105 6.806 53.2048V53.2048ZM16.9853 52.5846L16.9202 52.633C16.901 52.6183 16.8824 52.6062 16.8671 52.5918C16.796 52.5253 16.7308 52.453 16.6546 52.3924C16.5121 52.2786 16.3442 52.2124 16.1619 52.1691C15.9635 52.122 15.7686 52.1297 15.5774 52.1813C15.2638 52.2663 15.0116 52.4344 14.8482 52.7041C14.7279 52.9021 14.6538 53.1163 14.6778 53.346C14.7252 53.7997 14.9597 54.1358 15.4116 54.3303C15.6484 54.4321 15.8957 54.4514 16.1446 54.4049C16.4125 54.3548 16.6407 54.2275 16.8208 54.0314C16.838 54.0129 16.8515 53.9915 16.8686 53.9732C16.9003 53.94 16.9333 53.9365 16.9625 53.9629C16.9929 53.9908 16.9785 54.0115 16.9557 54.0407C16.8169 54.218 16.633 54.3397 16.4228 54.4308C16.1884 54.5326 15.939 54.5551 15.6902 54.5184C15.4319 54.4802 15.1978 54.3757 15.0036 54.2063C14.8279 54.0556 14.6972 53.8593 14.626 53.639C14.5573 53.4298 14.5475 53.2168 14.6008 53.0108C14.6971 52.6381 14.9255 52.3516 15.298 52.1733C15.5762 52.0405 15.8703 52.0061 16.1706 52.0632C16.5045 52.1268 16.7758 52.2936 16.9765 52.5551C16.9796 52.5602 16.9799 52.5672 16.9853 52.5845V52.5846Z" fill="#444854"/>
<path d="M16.81 53.8846C16.5276 54.27 16.028 54.4229 15.5589 54.2839C15.0894 54.1446 14.783 53.7574 14.7824 53.2852C14.7821 52.8132 15.0816 52.4368 15.5234 52.2979C16.0138 52.1433 16.5189 52.2847 16.8163 52.6928C16.7959 52.7096 16.7754 52.7272 16.75 52.7482C16.7314 52.7351 16.71 52.7255 16.6966 52.71C16.629 52.6306 16.5532 52.5603 16.4621 52.5048C16.3439 52.4327 16.2225 52.3711 16.0774 52.3604C16.0094 52.3554 15.9411 52.33 15.8749 52.3355C15.4871 52.3687 15.1807 52.5245 15.0003 52.8628C14.9258 53.0023 14.8792 53.1486 14.8888 53.3039C14.9095 53.6345 15.0596 53.8971 15.3601 54.0834C15.5974 54.2305 15.8602 54.2483 16.1232 54.2056C16.3367 54.1711 16.5201 54.0586 16.6611 53.8972C16.6674 53.8899 16.674 53.8833 16.6803 53.8761C16.7384 53.8119 16.7466 53.8124 16.81 53.8846V53.8846Z" fill="#444854"/>
<path d="M16.6358 52.8152C16.6038 52.8302 16.5778 52.8419 16.5499 52.855C16.4508 52.7313 16.3285 52.6367 16.1722 52.5876C15.8581 52.4893 15.5742 52.5408 15.3371 52.759C14.9452 53.1199 15.0598 53.7455 15.5728 53.9635C15.7261 54.0292 15.8957 54.0469 16.0593 54.0142C16.2229 53.9816 16.3728 53.9002 16.4892 53.7808C16.4958 53.7741 16.499 53.7647 16.5052 53.758C16.5598 53.7004 16.5731 53.7009 16.6306 53.7623C16.4772 54.0321 16.0692 54.1791 15.7745 54.1296C15.2653 54.0438 14.9994 53.6618 14.9952 53.2916C14.9903 52.8712 15.3124 52.5241 15.7203 52.4506C16.0952 52.3833 16.4641 52.5319 16.6358 52.8152V52.8152Z" fill="#444854"/>
<path d="M16.3837 53.5985C16.4653 53.6535 16.4673 53.6615 16.4154 53.715C16.0401 54.1021 15.413 53.9405 15.2469 53.4991C15.1348 53.202 15.2745 52.8294 15.6195 52.6899C15.892 52.5798 16.2087 52.6355 16.4108 52.8541C16.4699 52.9175 16.4696 52.9197 16.378 52.9662C16.2254 52.7834 16.0192 52.7163 15.7755 52.753C15.6436 52.7727 15.5406 52.8417 15.4515 52.9352C15.2725 53.1231 15.2676 53.4739 15.4847 53.6697C15.6156 53.7876 15.7714 53.8456 15.9545 53.8286C16.1321 53.812 16.2674 53.7237 16.3837 53.5985V53.5985ZM17.6059 52.015H17.7021C17.727 52.0867 17.7306 54.429 17.7061 54.5238H17.6056C17.6059 53.6875 17.6059 52.8544 17.6059 52.015V52.015ZM17.2489 54.5242C17.2205 54.5256 17.1893 54.5269 17.1506 54.5285V52.0146H17.248C17.2726 52.0869 17.2743 54.4323 17.2489 54.5242ZM17.4779 52.02V54.5166C17.386 54.5315 17.3791 54.5275 17.3736 54.4545C17.3717 54.4299 17.3728 54.4053 17.3728 54.3806V52.1534C17.3728 52.1288 17.3717 52.1041 17.3739 52.0794C17.38 52.0154 17.3891 52.0101 17.4779 52.02V52.02ZM17.9245 54.5237C17.8416 54.5253 17.8355 54.5222 17.8292 54.4632C17.8264 54.4358 17.8275 54.4076 17.8275 54.3801V52.1544C17.8275 52.1269 17.8261 52.0986 17.8295 52.0713C17.8367 52.0148 17.8473 52.01 17.9226 52.0197C17.9418 52.0893 17.9446 54.4243 17.9245 54.5237ZM18.0973 54.5135C18.1771 54.3279 18.2546 54.15 18.3297 53.9711C18.3902 53.8268 18.4463 53.6806 18.5061 53.5364C18.5663 53.3912 18.6292 53.2473 18.6899 53.1024C18.7541 52.9492 18.8168 52.7954 18.8807 52.6423C18.9624 52.4466 19.0438 52.251 19.1263 52.0559C19.1552 51.9874 19.2174 52.0129 19.282 52.0089C19.6362 52.8426 19.9809 53.6784 20.337 54.5238H20.2082L19.2284 52.1854C19.2032 52.2188 19.1809 52.2395 19.1702 52.2643C19.0477 52.5529 18.926 52.8414 18.8061 53.131C18.6893 53.4126 18.5756 53.6951 18.459 53.977C18.3924 54.1386 18.3231 54.299 18.2546 54.4599C18.2226 54.5344 18.2091 54.5395 18.0973 54.5136V54.5135ZM19.9108 52.0274C20.0004 51.9851 20.0379 52.0155 20.0651 52.0795C20.1747 52.3371 20.2844 52.595 20.3921 52.8533C20.508 53.1321 20.6202 53.4116 20.7364 53.6903C20.8393 53.9361 20.9455 54.1809 21.0492 54.4265C21.0609 54.454 21.0645 54.4847 21.072 54.513C20.9718 54.5398 20.9646 54.5356 20.9338 54.4624C20.8283 54.2134 20.7204 53.9649 20.6159 53.7156C20.5412 53.5372 20.472 53.357 20.3972 53.1785C20.3082 52.9658 20.2145 52.7544 20.1253 52.5417C20.0631 52.3944 20.005 52.2454 19.9445 52.0976C19.9353 52.0753 19.9239 52.0541 19.9108 52.0274V52.0274ZM20.5695 54.5256H20.4569L19.4103 52.0256C19.5222 51.9903 19.5302 52.009 19.5674 52.0895C19.6285 52.2214 19.6807 52.3568 19.7372 52.4907C19.804 52.6491 19.872 52.8066 19.938 52.9651C20.0102 53.1385 20.0797 53.3125 20.1522 53.4859C20.2567 53.7353 20.3631 53.9837 20.4686 54.2328C20.4994 54.3062 20.5305 54.3799 20.559 54.454C20.5663 54.473 20.5651 54.4953 20.5695 54.5257V54.5256ZM20.8216 54.5231H20.7077C20.3579 53.6886 20.0104 52.8591 19.6632 52.0298C19.76 51.9963 19.7828 52.0019 19.8154 52.0761C19.8608 52.18 19.9022 52.2856 19.9451 52.3903C20.0187 52.5696 20.0913 52.7489 20.1664 52.9277C20.2272 53.0721 20.2921 53.2147 20.3522 53.359C20.4279 53.5399 20.4994 53.7222 20.5755 53.903C20.6509 54.0821 20.7299 54.2593 20.8055 54.4383C20.8158 54.4627 20.8158 54.4906 20.8216 54.5231V54.5231Z" fill="#444854"/>
<path d="M19.2196 52.4346C19.2914 52.4984 19.3058 52.553 19.2677 52.6315C19.1986 52.7731 19.1439 52.9212 19.0829 53.0663C19.0056 53.2498 18.9278 53.4332 18.851 53.6171C18.7631 53.8273 18.676 54.0379 18.5891 54.2485C18.5584 54.3222 18.5295 54.3966 18.4988 54.4702C18.4722 54.5343 18.4512 54.5402 18.35 54.5123C18.6389 53.8217 18.9279 53.1319 19.2196 52.4346V52.4346ZM18.6026 54.5083L19.3424 52.7392C19.4104 52.7884 19.4327 52.841 19.4063 52.904C19.3212 53.1086 19.2339 53.3122 19.1479 53.5164C19.0854 53.6637 19.0227 53.8109 18.9611 53.9584C18.8893 54.131 18.82 54.3045 18.7476 54.4771C18.7231 54.5352 18.6973 54.5403 18.6026 54.5083V54.5083ZM18.8529 54.5092L19.4663 53.0395C19.5354 53.0971 19.5531 53.1514 19.5245 53.2181C19.3934 53.5266 19.2612 53.834 19.1299 54.1425C19.0857 54.2472 19.0425 54.3523 19.0003 54.4578C18.9688 54.5363 18.9548 54.5427 18.8529 54.5092V54.5092ZM20.0094 54.2143H19.1823C19.2123 54.1134 19.2157 54.1099 19.3123 54.1097C19.4999 54.1091 19.6876 54.1091 19.8752 54.1097C19.9659 54.1102 19.9659 54.1115 20.0094 54.2144V54.2143ZM19.8969 54.0033C19.8731 54.0063 19.8476 54.0117 19.8223 54.0119C19.6715 54.0129 19.5206 54.0129 19.3698 54.0119C19.2761 54.0111 19.272 54.0042 19.3027 53.9059C19.3315 53.9039 19.3637 53.8999 19.3954 53.8999C19.5363 53.8994 19.6774 53.898 19.8184 53.9007C19.9003 53.9024 19.908 53.9153 19.8969 54.0033V54.0033ZM19.8176 53.7856H19.3787C19.3678 53.6884 19.3749 53.6794 19.4686 53.678C19.5539 53.6767 19.6393 53.6767 19.7246 53.678C19.798 53.6793 19.8181 53.703 19.8176 53.7856ZM9.95515 54.4048V52.6534C9.95515 52.6069 9.91496 52.5687 9.86479 52.5687H9.37173C9.32198 52.5687 9.28137 52.5309 9.28137 52.484V52.1385C9.28137 52.0919 9.32157 52.0538 9.37173 52.0538H11.1326C11.1823 52.0538 11.2231 52.0916 11.2231 52.1385V52.4839C11.2231 52.5305 11.1828 52.5686 11.1326 52.5686H10.6396C10.5899 52.5686 10.5492 52.6063 10.5492 52.6533V54.4048C10.5492 54.4513 10.5088 54.4894 10.4586 54.4894H10.0457C9.99587 54.4893 9.95526 54.4513 9.95526 54.4047L9.95515 54.4048ZM13.3461 54.4895H12.9029C12.8861 54.4898 12.8695 54.4853 12.8551 54.4767C12.8406 54.4681 12.8288 54.4557 12.8209 54.4408L12.4556 53.7124C12.4068 53.6227 12.3289 53.5777 12.2227 53.5777H12.1342C12.0843 53.5777 12.0436 53.6155 12.0436 53.6625V54.4051C12.0436 54.4515 12.0033 54.4896 11.9532 54.4896H11.556C11.5062 54.4896 11.4655 54.4519 11.4655 54.405V52.1388C11.4655 52.0923 11.5058 52.0542 11.556 52.0542H12.5385C12.8111 52.0542 13.0161 52.1183 13.1532 52.246C13.2906 52.3738 13.3591 52.5587 13.3591 52.8005C13.3591 52.9848 13.3122 53.1407 13.2185 53.2685C13.1591 53.3499 13.0813 53.4163 12.9915 53.4622C12.9372 53.4902 12.9284 53.5619 12.9764 53.599C13.0369 53.6458 13.0889 53.7126 13.1323 53.7986L13.4273 54.3678C13.4566 54.4243 13.4132 54.4895 13.3461 54.4895V54.4895ZM12.7257 53.0351C12.7821 52.9915 12.8106 52.92 12.8106 52.8211C12.8106 52.7199 12.7822 52.6466 12.7257 52.6018C12.6693 52.5568 12.5761 52.5345 12.4463 52.5345H12.128C12.0783 52.5345 12.0377 52.5722 12.0377 52.6191V53.0164C12.0377 53.0629 12.0779 53.1011 12.128 53.1011H12.4465C12.576 53.1008 12.6694 53.0792 12.7259 53.0351H12.7257ZM13.7241 54.4049V52.1388C13.7241 52.0923 13.7644 52.0542 13.8146 52.0542H14.2215C14.2713 52.0542 14.312 52.0919 14.312 52.1388V54.4049C14.312 54.4514 14.2717 54.4895 14.2216 54.4895H13.8146C13.7646 54.4895 13.7241 54.4515 13.7241 54.4049V54.4049ZM8.65516 52.036H8.31073C8.29309 52.0357 8.27574 52.0405 8.26083 52.05C8.24591 52.0594 8.23409 52.073 8.22681 52.0891L8.20313 52.1441C8.19665 52.159 8.19484 52.1754 8.19793 52.1913C8.20103 52.2072 8.20889 52.2217 8.22047 52.233C8.36454 52.3739 8.46612 52.5529 8.50694 52.752C8.50777 52.7559 8.50891 52.7603 8.51057 52.7642L8.75331 53.3764C8.77533 53.4317 8.7316 53.4904 8.66856 53.4904H8.41065C8.39619 53.4902 8.38186 53.4933 8.36882 53.4996C8.35578 53.5059 8.34439 53.5151 8.33556 53.5266C8.13655 53.8002 7.80137 53.9801 7.42174 53.9801H7.41031L7.24849 54.3548C7.22449 54.4106 7.26822 54.4712 7.33241 54.4712H7.72638C7.76419 54.4712 7.79805 54.4491 7.81124 54.4161L7.96828 54.0217C7.9753 54.0051 7.98714 53.991 8.00227 53.9812C8.01739 53.9714 8.03512 53.9663 8.05314 53.9667H8.92407C8.96177 53.9667 8.99574 53.9887 9.00882 54.0217L9.16597 54.4161C9.17916 54.4493 9.21282 54.4712 9.25073 54.4712H9.63493C9.69912 54.4712 9.74285 54.4102 9.71886 54.3548L8.73804 52.0887C8.73096 52.0727 8.71931 52.0592 8.70456 52.0498C8.68981 52.0404 8.67263 52.0356 8.65516 52.036V52.036Z" fill="#444854"/>
<path d="M6.80975 53.8591C6.80632 53.8263 6.80289 53.7953 6.79884 53.7579C6.83862 53.7555 6.86739 53.752 6.89596 53.752C7.07066 53.7515 7.24516 53.7483 7.41986 53.7525C7.79524 53.7619 8.10705 53.5379 8.2293 53.24C8.40514 52.8122 8.16739 52.3616 7.75255 52.2095C7.63902 52.1674 7.51891 52.146 7.39784 52.1461C6.98923 52.1464 6.58083 52.1461 6.17221 52.1461C6.14905 52.1461 6.1262 52.1451 6.10283 52.1469C6.03926 52.1518 6.03095 52.1603 6.02784 52.2207C6.02701 52.2392 6.02784 52.2576 6.02784 52.2761V54.4796H5.92532C5.90476 54.4041 5.90039 52.1633 5.92044 52.056C5.95222 52.0522 5.98723 52.0447 6.02181 52.0447C6.49617 52.044 6.97053 52.0483 7.4451 52.0432C7.87771 52.0386 8.25495 52.3221 8.36412 52.6914C8.47172 53.056 8.38074 53.3845 8.07848 53.648C7.93369 53.7747 7.75192 53.8429 7.55946 53.8551C7.31485 53.8712 7.06713 53.8592 6.80975 53.8592V53.8591Z" fill="#444854"/>
<path d="M6.1505 54.4792V52.2598C6.18425 52.2571 6.21271 52.2531 6.24128 52.2531C6.64989 52.2526 7.05809 52.2523 7.4667 52.2531C7.75306 52.2536 8.03277 52.4586 8.12947 52.6999C8.18041 52.8267 8.19043 52.9663 8.15814 53.0991C8.10101 53.3412 7.95082 53.5242 7.68887 53.6065C7.6278 53.6258 7.56215 53.6397 7.49786 53.6411C7.29023 53.6452 7.0827 53.6431 6.87538 53.6426C6.84339 53.6426 6.806 53.648 6.79852 53.6042C6.7926 53.5679 6.81545 53.539 6.85773 53.5352C6.89335 53.532 6.93012 53.5339 6.96616 53.5339C7.13069 53.5337 7.29573 53.5303 7.46026 53.5344C7.71473 53.5406 7.93753 53.3736 8.00971 53.1742C8.13643 52.8232 7.996 52.5711 7.69905 52.4134C7.64223 52.3832 7.56911 52.3677 7.50316 52.3668C7.10794 52.3623 6.71273 52.3641 6.3172 52.3639C6.30432 52.3639 6.29144 52.3668 6.26693 52.37C6.26434 52.4081 6.25945 52.4467 6.25945 52.4849C6.25893 53.1046 6.25914 53.7241 6.25914 54.3436C6.25914 54.3653 6.26008 54.3867 6.25893 54.4085C6.25561 54.4801 6.24813 54.4852 6.1505 54.479V54.4792Z" fill="#444854"/>
<path d="M6.48121 54.4792H6.37184V52.4804C6.40851 52.4768 6.4432 52.4705 6.4781 52.4705C6.79759 52.4697 7.1175 52.4774 7.43679 52.4678C7.70404 52.4598 7.926 52.6679 7.95436 52.8963C7.97929 53.0963 7.86711 53.344 7.60713 53.4076C7.53759 53.4251 7.46639 53.4352 7.39472 53.4377C7.23674 53.4424 7.07824 53.4391 6.92026 53.4391H6.82574C6.78118 53.3459 6.79178 53.328 6.88681 53.3274C7.06474 53.3267 7.24266 53.3228 7.42059 53.3282C7.61669 53.3341 7.77207 53.2184 7.81995 53.0676C7.86721 52.9188 7.82432 52.767 7.67371 52.6505C7.60495 52.5971 7.52435 52.5738 7.437 52.5733C7.15032 52.572 6.86386 52.5725 6.57719 52.5733C6.54862 52.5733 6.52006 52.5798 6.48163 52.5843C6.48121 53.2186 6.48121 53.8463 6.48121 54.4794V54.4792Z" fill="#444854"/>
<path d="M6.806 53.2048C6.80174 53.1194 6.80746 53.1098 6.88255 53.1093C7.05726 53.1076 7.23175 53.109 7.40646 53.1084C7.43938 53.1084 7.47293 53.1086 7.50471 53.1025C7.5528 53.0932 7.58833 53.0672 7.59435 53.0176C7.59809 52.9871 7.60152 52.956 7.59975 52.9254C7.59404 52.8289 7.55094 52.791 7.44208 52.7897C7.27413 52.788 7.10597 52.7892 6.93802 52.7892H6.72301C6.7201 52.8362 6.71553 52.8752 6.71553 52.9139C6.71491 53.3919 6.71522 53.8698 6.71522 54.3475C6.71522 54.3692 6.71636 54.3906 6.71491 54.4124C6.71034 54.4802 6.69891 54.4872 6.60585 54.4758V52.6837C6.63732 52.6812 6.66298 52.6778 6.68832 52.6778C6.93542 52.6775 7.18242 52.6788 7.42962 52.6773C7.54927 52.6765 7.63465 52.723 7.69354 52.82C7.76573 52.9392 7.71307 53.1355 7.58739 53.2005C7.56702 53.2104 7.54463 53.2155 7.52196 53.2154C7.29158 53.2163 7.0611 53.2157 6.83031 53.2152C6.82428 53.215 6.81836 53.2105 6.806 53.2048V53.2048Z" fill="#444854"/>
</g>
<path d="M50.5909 23.3791C48.2244 23.3791 45.9548 22.4391 44.2814 20.7657C42.6081 19.0923 41.668 16.8227 41.668 14.4562V14.4562C41.668 12.0897 42.6081 9.82013 44.2814 8.14676C45.9548 6.47338 48.2244 5.53329 50.5909 5.53329V5.53329C52.9574 5.53329 55.227 6.47338 56.9004 8.14676C58.5737 9.82013 59.5138 12.0897 59.5138 14.4562C59.5138 16.8227 58.5737 19.0923 56.9004 20.7657C55.227 22.4391 52.9574 23.3791 50.5909 23.3791Z" fill="white" stroke="white" stroke-miterlimit="10"/>
<g clip-path="url(#clip4_8_2)">
<path d="M47.6483 13.234L50.5936 10.2899L53.54 13.2363L55.2528 11.5224L50.5936 6.86198L45.9344 11.5212L47.6483 13.234Z" fill="#F3BA2F"/>
<path d="M43.0095 14.4449L44.7223 12.7309L46.4362 14.4449L44.7223 16.1576L43.0095 14.4449Z" fill="#F3BA2F"/>
<path d="M47.6483 15.6546L50.5936 18.5998L53.54 15.6534L55.254 17.3649L50.5948 22.0253L45.9344 17.3685L47.6483 15.6546Z" fill="#F3BA2F"/>
<path d="M54.7473 14.4449L56.4601 12.7309L58.174 14.4437L56.4601 16.1588L54.7473 14.4449Z" fill="#F3BA2F"/>
<path d="M52.3315 14.4437L50.5936 12.7046L49.3084 13.9897L49.1599 14.1371L48.8557 14.4413L50.5936 16.178L52.3315 14.4449V14.4437Z" fill="#F3BA2F"/>
</g>
<path d="M46.3875 7.52068C47.179 7.03768 48.048 6.69522 48.9561 6.50844" stroke="white" stroke-width="0.75" stroke-linecap="round" stroke-linejoin="round"/>
<path d="M42.5181 15.1734C42.4978 14.9381 42.4877 14.6976 42.4877 14.4572C42.4867 13.1667 42.7942 11.8947 43.3845 10.7471C43.9748 9.59953 44.8308 8.60964 45.8812 7.85994" stroke="white" stroke-width="0.75" stroke-linecap="round" stroke-linejoin="round"/>
<path d="M56.7754 19.6934C56.0156 20.593 55.0684 21.3157 54 21.811C52.9317 22.3062 51.7681 22.5621 50.5906 22.5606V22.5606C48.93 22.5609 47.3093 22.0514 45.9475 21.101C44.5857 20.1506 43.5485 18.8051 42.976 17.2463" stroke="white" stroke-width="0.75" stroke-linecap="round" stroke-linejoin="round"/>
<path d="M58.2638 17.081C58.0868 17.5967 57.8588 18.0935 57.5831 18.5639" stroke="white" stroke-width="0.75" stroke-linecap="round" stroke-linejoin="round"/>
<path d="M48.9558 6.51325C49.4938 6.40314 50.0415 6.34803 50.5906 6.34876V6.34876C52.7383 6.34876 54.7981 7.20194 56.3167 8.7206C57.8354 10.2393 58.6886 12.299 58.6886 14.4467C58.6888 15.1462 58.5986 15.8429 58.4203 16.5193" stroke="white" stroke-width="0.75" stroke-linecap="round" stroke-linejoin="round"/>
<path d="M58.3686 43.439C58.3686 43.439 60.3387 43.5514 60.957 42.596C61.5752 41.6405 60.0695 40.401 60.2263 39.7827C60.3831 39.1645 63.2643 39.2769 62.4745 36.0141C61.6847 32.7512 58.9247 31.7395 57.4693 31.8519C56.0139 31.9643 54.5999 32.5826 53.3042 32.3578C52.0085 32.1329 47.5683 29.8256 43.2465 32.5826C38.9246 35.3396 40.7143 40.5696 40.9953 41.6405C41.2763 42.7113 36.4397 42.4835 35.7653 46.5895C35.0908 50.6954 38.0697 53.8488 44.9356 53.4554C51.8015 53.0619 51.9109 50.3611 51.5737 48.0538C51.2365 45.7464 52.8102 40.6258 54.4993 40.2324C56.1884 39.839 56.7505 41.5843 57.0315 42.3031C57.3125 43.0219 57.9751 43.652 58.3686 43.439Z" fill="#263238" stroke="#263238" stroke-linecap="round" stroke-linejoin="round"/>
<path d="M56.5848 57.9685C56.5848 57.9685 58.9513 58.3265 59.679 59.912C60.4067 61.4976 61.9834 73.7266 61.9834 73.7266L56.4428 75.8861C56.4428 75.8861 56.3688 73.5847 55.579 68.115C54.7892 62.6454 55.363 57.6816 56.5848 57.9685Z" fill="#002C8A" stroke="#263238" stroke-linecap="round" stroke-linejoin="round"/>
<path d="M28.7584 84.8232C30.5045 85.4886 32.3538 85.8421 34.2222 85.8674C37.1803 85.8674 36.2485 82.9093 36.1864 82.6756C36.1243 82.4419 30.5984 83.7819 28.7584 84.8232Z" fill="white" stroke="#263238" stroke-linecap="round" stroke-linejoin="round"/>
<path d="M35.2299 81.0898C35.2299 81.0898 40.3327 90.2364 43.3116 93.4283C46.2904 96.6201 47.3554 99.7025 47.3554 99.7025L48.9498 102.255C48.9498 102.255 45.545 108.423 45.545 108.743C45.545 109.062 36.9308 123.315 36.5048 123.634C36.0789 123.954 32.89 124.38 32.5705 125.441C32.251 126.503 33.2065 128.846 33.4195 129.272C33.6325 129.698 33.7389 132.994 34.6974 134.165C35.6558 135.337 36.1765 135.44 36.5048 134.801C36.8332 134.162 36.9308 128.42 38.0993 126.518C39.2678 124.616 52.7777 113.434 55.1176 110.248C57.4575 107.062 58.8094 94.3778 58.3094 90.2512C57.8095 86.1246 56.8303 83.764 56.8303 83.764C56.8303 83.764 46.6099 77.2619 35.2299 81.0898Z" fill="#5EA4C6" stroke="#263238" stroke-linecap="round" stroke-linejoin="round"/>
<path d="M44.9104 83.104C49.2707 86.2958 56.7164 101.291 56.5034 102.462C56.2905 103.634 51.2912 108.417 47.7798 110.334C44.2685 112.251 31.4005 121.075 30.658 121.607C29.9155 122.14 27.2532 126.607 26.8272 127.562C26.4012 128.518 26.4012 129.583 25.8717 130.754C25.3422 131.925 23.7418 130.222 23.1058 128.092C22.4698 125.962 22.8928 120.539 23.2123 119.69C23.5318 118.841 28.537 118.945 28.537 118.945C28.537 118.945 37.2458 109.375 38.9527 107.674C40.6595 105.973 46.7119 103.95 46.7119 103.95C46.7119 103.95 40.8607 97.7823 37.6718 93.7415C34.4829 89.7007 32.779 82.252 32.779 82.252C32.779 82.252 40.766 81.0835 43.8396 81.19" fill="#5EA4C6"/>
<path d="M44.9104 83.104C49.2707 86.2958 56.7164 101.291 56.5034 102.462C56.2905 103.634 51.2912 108.417 47.7798 110.334C44.2685 112.251 31.4005 121.075 30.658 121.607C29.9155 122.14 27.2532 126.607 26.8272 127.562C26.4012 128.518 26.4012 129.583 25.8717 130.754C25.3422 131.925 23.7418 130.222 23.1058 128.092C22.4698 125.962 22.8928 120.539 23.2123 119.69C23.5318 118.841 28.537 118.945 28.537 118.945C28.537 118.945 37.2458 109.375 38.9527 107.674C40.6595 105.973 46.7119 103.95 46.7119 103.95C46.7119 103.95 40.8607 97.7823 37.6718 93.7415C34.4829 89.7007 32.779 82.252 32.779 82.252C32.779 82.252 40.766 81.0835 43.8396 81.19" stroke="#263238" stroke-linecap="round" stroke-linejoin="round"/>
<path d="M51.3732 89.9708C53.5859 93.6448 57.5646 100.768 56.8664 103.422C55.911 107.063 44.9865 112.811 44.9865 112.811" stroke="#D1D1D1" stroke-linecap="round" stroke-linejoin="round"/>
<path d="M49.9648 87.6955C49.9648 87.6955 50.2606 88.1718 50.7606 88.9616" stroke="#D1D1D1" stroke-linecap="round" stroke-linejoin="round"/>
<path d="M78.5411 77.7952C78.5411 77.7952 78.0649 79.6411 74.8967 79.1145C73.9856 78.9637 71.0511 80.5404 66.2914 81.0669C64.2207 81.2976 61.7861 81.1675 60.949 81.1675C60.3923 81.211 59.8405 81.0359 59.4107 80.6794C59.1297 80.4339 57.4879 75.7481 57.4879 75.7481L61.298 74.4199L62.3452 76.2747C62.3452 76.2747 62.3896 76.6267 66.1908 77.3189C70.0364 78.023 76.1243 76.3072 76.9289 75.9937C77.7336 75.6801 78.5766 77.4106 78.5411 77.7952Z" fill="#FFBE9D" stroke="#263238" stroke-linecap="round" stroke-linejoin="round"/>
<path d="M56.2276 74.7252C56.2276 74.7252 62.703 72.3586 62.919 72.7107C63.1349 73.0627 63.2148 76.3078 63.2148 76.3078C63.2148 76.3078 62.425 77.0296 60.3365 77.5325C59.1051 77.832 57.8549 78.0484 56.5944 78.1803L56.2276 74.7252Z" fill="white" stroke="#263238" stroke-linecap="round" stroke-linejoin="round"/>
<path d="M80.6019 68.5577L75.292 76.8761L77.8597 79.1775L83.3471 70.9479L80.6019 68.5577Z" fill="#263238" stroke="#263238" stroke-linecap="round" stroke-linejoin="round"/>
<path d="M75.2928 76.8686L77.4168 74.3039L78.038 74.1264C78.6562 73.9489 79.8129 73.9489 80.1619 73.6827C80.511 73.4165 80.1619 72.887 79.7182 72.9757C78.8653 73.0481 78.0093 73.0777 77.1535 73.0644C76.7985 73.0644 74.4911 75.0997 74.4911 75.0997L74.0474 77.6673" fill="white"/>
<path d="M75.2928 76.8686L77.4168 74.3039L78.038 74.1264C78.6562 73.9489 79.8129 73.9489 80.1619 73.6827C80.511 73.4165 80.1619 72.887 79.7182 72.9757C78.8653 73.0481 78.0093 73.0777 77.1535 73.0644C76.7985 73.0644 74.4911 75.0997 74.4911 75.0997L74.0474 77.6673" stroke="#263238" stroke-linecap="round" stroke-linejoin="round"/>
<path d="M82.208 72.7947C82.208 72.7947 83.0954 73.3272 82.2967 73.7679C81.498 74.2087 81.5513 73.7147 81.5513 73.7147L82.208 72.7947Z" fill="white" stroke="#263238" stroke-linecap="round" stroke-linejoin="round"/>
<path d="M81.0846 74.5226C81.1783 74.5938 81.2436 74.6958 81.2691 74.8107C81.2945 74.9255 81.2785 75.0456 81.2237 75.1497C81.0166 75.5017 80.3865 75.4455 80.3865 75.4455L81.0846 74.5226Z" fill="white" stroke="#263238" stroke-linecap="round" stroke-linejoin="round"/>
<path d="M80.3141 75.7771C80.4075 75.8492 80.4726 75.9518 80.498 76.0669C80.5234 76.1821 80.5075 76.3026 80.4531 76.4072C80.2461 76.7563 79.616 76.6853 79.616 76.6853L80.3141 75.7771Z" fill="white" stroke="#263238" stroke-linecap="round" stroke-linejoin="round"/>
<path d="M79.545 76.8663C79.6383 76.9384 79.7034 77.041 79.7288 77.1561C79.7543 77.2713 79.7384 77.3918 79.684 77.4964C79.4769 77.8455 78.8468 77.7774 78.8468 77.7774L79.545 76.8663Z" fill="white" stroke="#263238" stroke-linecap="round" stroke-linejoin="round"/>
<path d="M56.5842 72.7897C56.5842 72.7897 57.1758 76.1176 58.5514 78.493C59.9269 80.8684 60.3055 84.4093 60.3055 84.4093L60.4801 87.7166L55.957 85.279C55.957 85.279 56.0813 76.8128 55.6612 75.3012C55.2412 73.7895 54.8684 70.1895 55.5163 70.5504C56.1641 70.9112 56.5842 72.7897 56.5842 72.7897Z" fill="white" stroke="#263238" stroke-linecap="round" stroke-linejoin="round"/>
<path d="M53.8518 56.4564C53.8518 56.4564 54.6416 56.6724 55.1474 58.039C55.6533 59.4057 56.2982 68.1855 56.2272 69.5522C56.1562 70.9189 56.3692 74.374 56.4431 75.8856C56.5171 77.3972 57.8098 86.1061 57.8098 86.1061C54.6742 84.3654 51.2264 83.2596 47.6633 82.8521C41.6168 82.1332 37.5878 82.6361 37.0849 82.7811C36.582 82.926 40.3951 75.223 40.611 69.3954C40.827 63.5678 39.9632 56.0837 43.1284 55.7879C46.2937 55.492 48.6691 55.285 49.5329 55.211C50.3966 55.1371 53.8518 56.4564 53.8518 56.4564Z" fill="#D1D1D1" stroke="#263238" stroke-linecap="round" stroke-linejoin="round"/>
<path d="M53.5653 69.1223L47.2319 72.0715" stroke="#263238" stroke-linecap="round" stroke-linejoin="round"/>
<path d="M51.8377 70.7817L48.0217 72.6542" stroke="#263238" stroke-linecap="round" stroke-linejoin="round"/>
<path d="M49.0775 47.0249C49.0775 47.0249 48.5746 50.6723 47.6458 52.8169C46.7169 54.9616 44.1433 55.3905 44.4273 55.7485C44.7113 56.1064 48.6486 61.7565 50.0064 61.8985C51.3642 62.0405 54.3667 58.0529 54.4436 57.3222C54.5205 56.5915 54.0147 57.1773 53.7277 55.5473C53.4408 53.9174 54.7986 51.613 54.7986 51.613C54.7986 51.613 49.1367 48.1697 49.0775 47.0249Z" fill="#FFBE9D" stroke="#263238" stroke-linecap="round" stroke-linejoin="round"/>
<path d="M56.9078 39.2084C56.4703 38.8768 55.9491 38.6736 55.4026 38.6213C54.8562 38.5691 54.306 38.6699 53.8135 38.9126C52.0682 39.7557 52.012 42.7937 50.8879 44.3142C49.7638 45.8347 48.5806 45.2016 48.5806 45.2016C48.5806 45.2016 46.779 42.9505 46.5542 45.9885C46.3294 49.0265 48.3557 48.6893 48.8054 48.6893C49.255 48.6893 49.0302 48.3521 49.0302 48.3521C49.0302 48.3521 49.8171 50.266 50.3791 50.7186C50.9412 51.1712 55.4405 52.7301 56.6238 52.7893C58.5377 52.9017 58.4253 51.047 58.4253 51.047L59.3808 47.1096C59.3808 47.1096 61.0699 45.8702 60.7327 45.3643C60.3954 44.8585 58.8187 44.4769 58.3661 43.3942C57.9135 42.3115 58.5436 40.2763 56.9078 39.2084Z" fill="#FFBE9D" stroke="#263238" stroke-linecap="round" stroke-linejoin="round"/>
<path d="M44.903 60.1328C44.903 60.1328 44.7788 68.605 44.6072 71.1224C44.4356 73.6397 42.5187 79.2869 41.5988 80.5145C40.6788 81.7422 40.2498 82.6621 37.7916 83.3987C35.3334 84.1353 28.7692 84.8098 28.7692 84.8098C28.7692 84.8098 34.724 76.9529 35.644 74.681C36.564 72.4092 36.9959 67.0076 36.9959 67.0076L27.0505 66.271C27.0505 66.271 32.6355 61.1149 33.9253 59.1507C35.215 57.1865 36.8835 55.7754 39.8801 55.4057C42.8767 55.0359 44.4268 55.7488 44.4268 55.7488L44.903 60.1328Z" fill="#002C8A" stroke="#263238" stroke-linecap="round" stroke-linejoin="round"/>
<path d="M45.5952 54.7739C45.5952 54.7739 44.9651 57.1404 44.9651 58.6402C44.9841 59.3801 44.9316 60.1201 44.8083 60.8499C44.8083 60.8499 43.5452 60.6931 43.0719 60.8499C42.5985 61.0067 40.8621 61.3232 40.8621 61.3232C40.8621 61.3232 41.4922 55.4838 42.9121 54.5372C44.332 53.5906 45.5952 54.7739 45.5952 54.7739Z" fill="white" stroke="#263238" stroke-linecap="round" stroke-linejoin="round"/>
<path d="M55.0665 61.7124C55.0665 61.7124 55.9362 70.6283 56.584 72.7878C57.0498 71.4202 57.4351 70.0265 57.7377 68.6138C58.0956 66.7443 57.1608 62.2804 56.9449 61.0587C56.729 59.8369 55.2883 59.6299 55.0665 61.7124Z" fill="#002C8A" stroke="#263238" stroke-linecap="round" stroke-linejoin="round"/>
<path d="M53.7121 55.5374L54.5995 59.1079L55.0728 61.714L57.5192 62.4239C57.5192 62.4239 57.7382 58.8268 56.6318 57.2501C55.5254 55.6734 54.1055 54.9753 53.7121 55.5374Z" fill="white" stroke="#263238" stroke-linecap="round" stroke-linejoin="round"/>
<path d="M44.2265 73.0912C44.2265 73.0912 42.4516 75.6086 41.221 76.3452C39.9904 77.0818 36.6151 80.1494 36.6151 80.1494C36.6151 80.1494 38.8249 80.5192 39.4993 81.2558C40.1738 81.9924 40.0525 82.3592 40.0525 82.3592C40.0525 82.3592 41.5316 81.5013 42.6941 78.9218C43.8567 76.3423 44.2265 73.0912 44.2265 73.0912Z" fill="white" stroke="#263238" stroke-linecap="round" stroke-linejoin="round"/>
<path d="M27.651 64.6187C27.651 64.6187 25.8111 67.074 25.6868 67.3195C25.5626 67.565 26.1187 67.6893 26.4855 67.6153C26.8523 67.5414 30.1063 68.0442 30.1063 68.0442L33.6058 66.5149C33.6058 66.5149 33.4845 65.7191 31.2127 64.9825C28.9408 64.246 28.0741 64.1898 27.651 64.6187Z" fill="white" stroke="#263238" stroke-linecap="round" stroke-linejoin="round"/>
<path d="M40.8509 65.0306C40.8509 65.0306 28.6337 67.1812 26.4861 67.6102C24.3385 68.0391 24.0308 70.4322 23.9066 71.2309C23.7823 72.0296 26.6695 73.5649 30.6601 72.5828C34.6506 71.6007 40.7178 67.7314 41.342 67.4267C41.9661 67.1221 43.6138 66.8115 44.5959 66.5659C45.5781 66.3204 46.498 65.3383 46.8678 65.1549C47.2376 64.9715 49.1397 64.1728 50.1218 63.4954C51.1039 62.8179 51.0418 62.3298 50.2431 62.392C49.4444 62.4541 48.0333 63.1285 47.6044 63.1907L47.1725 63.2498L50.0597 60.8567C50.0597 60.8567 51.2252 59.5078 50.4886 59.5078C49.752 59.5078 46.007 60.3656 45.2083 60.9188C44.4096 61.472 40.8509 65.0306 40.8509 65.0306Z" fill="#FFBE9D" stroke="#263238" stroke-linecap="round" stroke-linejoin="round"/>
<path d="M49.983 59.6446C49.983 59.6446 50.5214 59.7866 50.125 60.325C49.7286 60.8634 46.8947 63.0879 46.8947 63.0879" fill="white"/>
<path d="M49.983 59.6446C49.983 59.6446 50.5214 59.7866 50.125 60.325C49.7286 60.8634 46.8947 63.0879 46.8947 63.0879" stroke="#263238" stroke-linecap="round" stroke-linejoin="round"/>
<path d="M44.3122 62.232C44.3122 62.232 46.0693 61.1907 46.7526 60.8328C47.436 60.4748 49.9475 59.7915 49.7315 60.2589C49.5156 60.7263 48.2939 61.6226 48.2939 61.6226" fill="white"/>
<path d="M44.3122 62.232C44.3122 62.232 46.0693 61.1907 46.7526 60.8328C47.436 60.4748 49.9475 59.7915 49.7315 60.2589C49.5156 60.7263 48.2939 61.6226 48.2939 61.6226" stroke="#263238" stroke-linecap="round" stroke-linejoin="round"/>
<path d="M43.3055 64.1298C43.3055 64.1298 45.6395 62.0414 46.4352 61.7367C47.2309 61.432 49.0768 60.2014 48.8313 60.8759C48.5858 61.5503 45.9441 63.3933 45.9441 63.3933C45.6818 63.9438 45.3519 64.4596 44.962 64.9285C44.4118 65.5409 43.1221 66.1562 42.8765 66.2183" fill="white"/>
<path d="M43.3055 64.1298C43.3055 64.1298 45.6395 62.0414 46.4352 61.7367C47.2309 61.432 49.0768 60.2014 48.8313 60.8759C48.5858 61.5503 45.9441 63.3933 45.9441 63.3933C45.6818 63.9438 45.3519 64.4596 44.962 64.9285C44.4118 65.5409 43.1221 66.1562 42.8765 66.2183" stroke="#263238" stroke-linecap="round" stroke-linejoin="round"/>
</g>
<defs>
<clipPath id="clip0_8_2">
<rect width="13.4624" height="13.4624" fill="white" transform="translate(19.8774 23.1214)"/>
</clipPath>
<clipPath id="clip1_8_2">
<rect width="15.1646" height="4.57891" fill="white" transform="translate(80.7144 50.7354)"/>
</clipPath>
<clipPath id="clip2_8_2">
<rect width="12.6887" height="10.0581" fill="white" transform="translate(71.1428 24.0953)"/>
</clipPath>
<clipPath id="clip3_8_2">
<rect width="15.1646" height="2.59667" fill="white" transform="translate(5.90746 51.9729)"/>
</clipPath>
<clipPath id="clip4_8_2">
<rect width="15.1646" height="15.1646" fill="white" transform="translate(43.0095 6.86198)"/>
</clipPath>
</defs>
</svg>
