<svg width="101" height="101" viewBox="0 0 101 101" fill="none" xmlns="http://www.w3.org/2000/svg">
<circle cx="50.5" cy="50.875" r="50" fill="#33CC33" fill-opacity="0.2"/>
<mask id="mask0_8_298" style="mask-type:alpha" maskUnits="userSpaceOnUse" x="0" y="0" width="101" height="101">
<circle cx="50.5" cy="50.875" r="50" fill="#D9D9D9"/>
</mask>
<g mask="url(#mask0_8_298)">
<path d="M51.5226 54.5356V16.2727H61.1719V0.174149" stroke="#455A64" stroke-opacity="0.2" stroke-miterlimit="10"/>
<path d="M55.2941 16.093V0.174149" stroke="#455A64" stroke-opacity="0.2" stroke-miterlimit="10"/>
<path d="M52.244 60.6235H96.6703V51.0923H105.162" stroke="#455A64" stroke-opacity="0.2" stroke-miterlimit="10"/>
<path d="M50.0667 60.3005H7.82069V50.1171H-1.32443" stroke="#455A64" stroke-opacity="0.2" stroke-miterlimit="10"/>
<path d="M42.879 -10.0163V4.44357H37.4351V13.6404H44.1866V44.5291" stroke="#455A64" stroke-opacity="0.2" stroke-miterlimit="10"/>
<path d="M72.714 32.6943V11.9931H76.4153V3.12238H79.4655" stroke="#455A64" stroke-opacity="0.2" stroke-miterlimit="10"/>
<path d="M27.8556 30.7321V14.9596L24.8054 10.357V-1.14314" stroke="#455A64" stroke-opacity="0.2" stroke-miterlimit="10"/>
<path d="M80.9891 39.9243H88.6105V32.3662H93.6194V28.0939H97.9745" stroke="#455A64" stroke-opacity="0.2" stroke-miterlimit="10"/>
<path d="M20.2322 42.5578H12.1759V33.0266H0.853226" stroke="#455A64" stroke-opacity="0.2" stroke-miterlimit="10"/>
<path d="M27.6363 72.2487V80.7934H23.935V90.3246H13.2634" stroke="#455A64" stroke-opacity="0.2" stroke-miterlimit="10"/>
<path d="M68.3579 73.5603V82.4311H76.8492V78.8192H79.2456V86.3731H86.651" stroke="#455A64" stroke-opacity="0.2" stroke-miterlimit="10"/>
<path d="M63.1295 0.43042C63.129 0.615442 63.0921 0.796075 63.0236 0.949514C62.9551 1.10295 62.858 1.22232 62.7445 1.29256C62.6311 1.36279 62.5064 1.38074 62.3862 1.34413C62.266 1.30753 62.1557 1.21802 62.0692 1.0869C61.9827 0.955776 61.9238 0.78892 61.9001 0.607391C61.8764 0.425862 61.8889 0.237796 61.9359 0.0669341C61.983 -0.103927 62.0625 -0.249927 62.1645 -0.352636C62.2665 -0.455346 62.3863 -0.510161 62.509 -0.510162C62.5907 -0.510164 62.6716 -0.485804 62.7471 -0.438485C62.8226 -0.391165 62.8911 -0.321816 62.9488 -0.234419C63.0064 -0.147023 63.0521 -0.0433024 63.0831 0.0707901C63.1141 0.184883 63.1299 0.307098 63.1295 0.43042V0.43042Z" fill="#455A64" stroke="#455A64" stroke-linecap="round" stroke-linejoin="round"/>
<path d="M57.2737 0.43042C57.2732 0.615442 57.2363 0.796075 57.1678 0.949514C57.0993 1.10295 57.0022 1.22232 56.8887 1.29256C56.7753 1.36279 56.6506 1.38074 56.5304 1.34413C56.4102 1.30753 56.2999 1.21802 56.2134 1.0869C56.1269 0.955776 56.068 0.78892 56.0443 0.607391C56.0206 0.425862 56.033 0.237796 56.0801 0.0669341C56.1271 -0.103927 56.2067 -0.249927 56.3087 -0.352636C56.4107 -0.455346 56.5305 -0.510161 56.6532 -0.510162C56.7349 -0.510164 56.8158 -0.485804 56.8913 -0.438485C56.9668 -0.391165 57.0353 -0.321816 57.093 -0.234419C57.1506 -0.147023 57.1963 -0.0433024 57.2273 0.0707901C57.2583 0.184883 57.2741 0.307098 57.2737 0.43042V0.43042Z" fill="#455A64" stroke="#455A64" stroke-linecap="round" stroke-linejoin="round"/>
<path d="M2.8113 33.2787C2.81185 33.4651 2.77569 33.6475 2.7074 33.8028C2.63912 33.9581 2.5418 34.0793 2.42778 34.151C2.31377 34.2227 2.18821 34.2417 2.06703 34.2055C1.94586 34.1694 1.83454 34.0797 1.74719 33.9479C1.65985 33.8161 1.60043 33.6482 1.57646 33.4653C1.5525 33.2825 1.56508 33.093 1.6126 32.921C1.66012 32.7489 1.74045 32.6021 1.84338 32.499C1.94631 32.396 2.06721 32.3414 2.19073 32.3423C2.35531 32.3423 2.51316 32.4409 2.62954 32.6165C2.74592 32.7921 2.8113 33.0303 2.8113 33.2787Z" fill="#455A64" stroke="#455A64" stroke-linecap="round" stroke-linejoin="round"/>
<path d="M100.226 28.1635C100.226 28.3487 100.19 28.5297 100.121 28.6837C100.053 28.8377 99.9564 28.9577 99.843 29.0286C99.7296 29.0995 99.6048 29.118 99.4844 29.0819C99.364 29.0457 99.2535 28.9566 99.1667 28.8256C99.0799 28.6946 99.0208 28.5278 98.9968 28.3462C98.9729 28.1645 98.9852 27.9762 99.0322 27.8051C99.0791 27.634 99.1587 27.4878 99.2607 27.3849C99.3628 27.282 99.4828 27.2271 99.6055 27.2271C99.7701 27.2271 99.9279 27.3257 100.044 27.5013C100.161 27.6769 100.226 27.9151 100.226 28.1635Z" fill="#455A64" stroke="#455A64" stroke-linecap="round" stroke-linejoin="round"/>
<path d="M81.8246 3.36876C81.8246 3.55396 81.7882 3.735 81.7201 3.88899C81.6519 4.04299 81.5549 4.16301 81.4416 4.23388C81.3282 4.30475 81.2034 4.3233 81.083 4.28717C80.9626 4.25104 80.852 4.16185 80.7653 4.03089C80.6785 3.89993 80.6194 3.73309 80.5954 3.55144C80.5715 3.3698 80.5838 3.18152 80.6307 3.01041C80.6777 2.83931 80.7572 2.69306 80.8593 2.59017C80.9613 2.48727 81.0813 2.43236 81.2041 2.43236C81.3687 2.43236 81.5265 2.53101 81.6429 2.70662C81.7593 2.88223 81.8246 3.12041 81.8246 3.36876Z" fill="#455A64" stroke="#455A64" stroke-linecap="round" stroke-linejoin="round"/>
<path d="M43.8514 117.664H61.7534C61.1128 112.213 60.7759 106.057 60.7752 99.7943V74.2852H44.8297V99.7943C44.829 106.057 44.492 112.213 43.8514 117.664Z" fill="#92E3A9"/>
<path d="M61.1162 82.7912V60.5243H44.4954V82.7912C44.4903 90.071 43.8665 97.1238 42.7279 102.774L42 106.405H63.6059L62.8808 102.774C61.7422 97.1246 61.1193 90.0704 61.1162 82.7912V82.7912Z" stroke="#455A64" stroke-linecap="round" stroke-linejoin="round"/>
<path d="M82.1815 22.0549H19.8034C18.4686 22.0549 17.3865 23.2632 17.3865 24.7537V74.461C17.3865 75.9515 18.4686 77.1598 19.8034 77.1598H82.1815C83.5163 77.1598 84.5984 75.9515 84.5984 74.461V24.7537C84.5984 23.2632 83.5163 22.0549 82.1815 22.0549Z" fill="#455A64" stroke="#455A64" stroke-linecap="round" stroke-linejoin="round"/>
<path d="M17.3865 68.5992H84.5984V74.4645C84.5984 75.1802 84.3438 75.8667 83.8905 76.3728C83.4373 76.8789 82.8225 77.1632 82.1815 77.1632H19.8034C19.1624 77.1632 18.5477 76.8789 18.0944 76.3728C17.6412 75.8667 17.3865 75.1802 17.3865 74.4645V68.5992Z" fill="white" stroke="#455A64" stroke-linecap="round" stroke-linejoin="round"/>
<path d="M81.2145 25.4878H20.766V64.4193H81.2145V25.4878Z" fill="white" stroke="#455A64" stroke-linecap="round" stroke-linejoin="round"/>
<path d="M52.2314 74.2549C52.2365 73.9799 52.1682 73.7095 52.0351 73.4781C51.902 73.2467 51.7102 73.0648 51.4841 72.9556C51.2581 72.8465 51.008 72.8149 50.7659 72.8651C50.5237 72.9152 50.3004 73.0447 50.1244 73.2372C49.9485 73.4296 49.8278 73.6762 49.7778 73.9455C49.7279 74.2148 49.7509 74.4946 49.8439 74.7492C49.937 75.0038 50.0958 75.2218 50.3002 75.3752C50.5046 75.5286 50.7453 75.6106 50.9916 75.6106C51.3169 75.614 51.6302 75.4732 51.8626 75.219C52.095 74.9649 52.2277 74.6181 52.2314 74.2549Z" fill="#455A64" stroke="#455A64" stroke-linecap="round" stroke-linejoin="round"/>
<path d="M84.8064 48.4862H17.1784V53.3745H84.8064V48.4862Z" fill="#455A64"/>
<path d="M19.7248 49.2109C19.7267 49.3264 19.6978 49.4399 19.6418 49.5369C19.5858 49.634 19.5051 49.7103 19.4101 49.756C19.3151 49.8017 19.2101 49.8148 19.1084 49.7936C19.0068 49.7724 18.913 49.7179 18.8392 49.637C18.7654 49.5561 18.7148 49.4525 18.6939 49.3394C18.673 49.2263 18.6827 49.1088 18.7218 49.0019C18.7609 48.895 18.8277 48.8035 18.9135 48.7391C18.9994 48.6747 19.1005 48.6403 19.2039 48.6403C19.2717 48.6393 19.339 48.6533 19.402 48.6815C19.4649 48.7097 19.5222 48.7515 19.5706 48.8046C19.6191 48.8576 19.6576 48.9208 19.684 48.9905C19.7105 49.0603 19.7243 49.1352 19.7248 49.2109V49.2109Z" fill="white"/>
<path d="M18.9027 49.5305C18.9602 49.5969 19.034 49.6428 19.1148 49.6625C19.1956 49.6822 19.2798 49.6748 19.3568 49.6412C19.4339 49.6075 19.5003 49.5492 19.5477 49.4736C19.5951 49.3979 19.6214 49.3083 19.6234 49.2159C19.6223 49.1061 19.5849 49.0006 19.5185 48.9196C19.3011 49.1074 19.0953 49.3115 18.9027 49.5305V49.5305Z" fill="#455A64"/>
<path d="M21.7648 49.2109C21.7668 49.3264 21.7379 49.4399 21.6819 49.5369C21.6258 49.634 21.5452 49.7103 21.4502 49.756C21.3552 49.8017 21.2502 49.8148 21.1485 49.7936C21.0469 49.7724 20.9531 49.7179 20.8793 49.637C20.8055 49.5561 20.7549 49.4525 20.734 49.3394C20.7131 49.2263 20.7228 49.1088 20.7619 49.0019C20.801 48.895 20.8678 48.8035 20.9536 48.7391C21.0395 48.6747 21.1406 48.6403 21.244 48.6403C21.3118 48.6393 21.3791 48.6533 21.4421 48.6815C21.505 48.7097 21.5623 48.7515 21.6107 48.8046C21.6591 48.8576 21.6977 48.9208 21.7241 48.9905C21.7506 49.0603 21.7644 49.1352 21.7648 49.2109V49.2109Z" fill="white"/>
<path d="M20.9328 49.5305C20.972 49.5755 21.0189 49.6112 21.0706 49.6357C21.1224 49.6602 21.178 49.6729 21.2342 49.6731C21.2887 49.6741 21.3428 49.663 21.3934 49.6405C21.444 49.618 21.4901 49.5846 21.5291 49.5421C21.5681 49.4996 21.5992 49.4488 21.6205 49.3929C21.6418 49.3369 21.6531 49.2768 21.6535 49.2159C21.6524 49.1061 21.6151 49.0006 21.5487 48.9196C21.3319 49.1084 21.1262 49.3124 20.9328 49.5305Z" fill="#455A64"/>
<path d="M23.8056 49.2109C23.8076 49.3264 23.7787 49.4399 23.7227 49.5369C23.6666 49.634 23.586 49.7103 23.491 49.756C23.396 49.8017 23.291 49.8148 23.1893 49.7936C23.0877 49.7724 22.9939 49.7179 22.9201 49.637C22.8463 49.5561 22.7957 49.4525 22.7748 49.3394C22.7539 49.2263 22.7636 49.1088 22.8027 49.0019C22.8418 48.895 22.9086 48.8035 22.9944 48.7391C23.0803 48.6747 23.1814 48.6403 23.2848 48.6403C23.3526 48.6393 23.4199 48.6533 23.4829 48.6815C23.5458 48.7097 23.6031 48.7515 23.6515 48.8046C23.6999 48.8576 23.7385 48.9208 23.7649 48.9905C23.7914 49.0603 23.8052 49.1352 23.8056 49.2109V49.2109Z" fill="white"/>
<path d="M22.9871 49.5305C23.0442 49.5974 23.1178 49.6438 23.1985 49.6638C23.2793 49.6838 23.3636 49.6765 23.4406 49.6427C23.5176 49.6089 23.5839 49.5503 23.6309 49.4743C23.6779 49.3982 23.7035 49.3083 23.7045 49.2159C23.7034 49.1061 23.6661 49.0006 23.5997 48.9196C23.3833 49.1074 23.1786 49.3115 22.9871 49.5305V49.5305Z" fill="#455A64"/>
<path d="M25.8465 49.2109C25.8491 49.3272 25.8206 49.4418 25.7646 49.5399C25.7086 49.6381 25.6277 49.7154 25.5322 49.7619C25.4367 49.8084 25.3309 49.8221 25.2284 49.8012C25.1259 49.7803 25.0313 49.7258 24.9567 49.6446C24.882 49.5633 24.8308 49.4591 24.8095 49.3452C24.7882 49.2313 24.7978 49.1129 24.837 49.0051C24.8763 48.8973 24.9434 48.805 25.0299 48.74C25.1163 48.675 25.2182 48.6403 25.3224 48.6403C25.3904 48.6393 25.4578 48.6533 25.521 48.6814C25.5841 48.7096 25.6416 48.7514 25.6903 48.8043C25.739 48.8573 25.7778 48.9205 25.8046 48.9903C25.8314 49.06 25.8457 49.135 25.8465 49.2109V49.2109Z" fill="white"/>
<path d="M25.0279 49.5305C25.085 49.5974 25.1586 49.6438 25.2394 49.6638C25.3201 49.6838 25.4044 49.6765 25.4814 49.6427C25.5584 49.6089 25.6247 49.5503 25.6717 49.4743C25.7187 49.3982 25.7443 49.3083 25.7453 49.2159C25.7442 49.1061 25.7069 49.0006 25.6405 48.9196C25.4248 49.1084 25.2202 49.3124 25.0279 49.5305Z" fill="#455A64"/>
<path d="M27.8915 49.2109C27.8935 49.3264 27.8646 49.4399 27.8086 49.5369C27.7525 49.634 27.6719 49.7103 27.5769 49.756C27.4819 49.8017 27.3769 49.8148 27.2752 49.7936C27.1735 49.7724 27.0798 49.7179 27.006 49.637C26.9322 49.5561 26.8816 49.4525 26.8607 49.3394C26.8398 49.2263 26.8495 49.1088 26.8886 49.0019C26.9277 48.895 26.9945 48.8035 27.0803 48.7391C27.1662 48.6747 27.2672 48.6403 27.3707 48.6403C27.4385 48.6393 27.5058 48.6533 27.5687 48.6815C27.6317 48.7097 27.689 48.7515 27.7374 48.8046C27.7858 48.8576 27.8244 48.9208 27.8508 48.9905C27.8773 49.0603 27.8911 49.1352 27.8915 49.2109V49.2109Z" fill="white"/>
<path d="M27.0695 49.5305C27.1086 49.5756 27.1554 49.6115 27.2072 49.636C27.2589 49.6605 27.3146 49.6731 27.3708 49.6731C27.425 49.6736 27.4788 49.6622 27.529 49.6395C27.5793 49.6167 27.625 49.5832 27.6637 49.5407C27.7023 49.4983 27.7331 49.4477 27.7542 49.392C27.7753 49.3363 27.7864 49.2764 27.7869 49.2159C27.787 49.1058 27.7495 48.9999 27.682 48.9196C27.4663 49.1084 27.2617 49.3124 27.0695 49.5305V49.5305Z" fill="#455A64"/>
<path d="M29.9323 49.2109C29.9343 49.3264 29.9054 49.4399 29.8494 49.5369C29.7933 49.634 29.7127 49.7103 29.6177 49.756C29.5227 49.8017 29.4177 49.8148 29.316 49.7936C29.2143 49.7724 29.1206 49.7179 29.0468 49.637C28.973 49.5561 28.9224 49.4525 28.9015 49.3394C28.8806 49.2263 28.8903 49.1088 28.9294 49.0019C28.9685 48.895 29.0353 48.8035 29.1211 48.7391C29.207 48.6747 29.308 48.6403 29.4115 48.6403C29.4793 48.6393 29.5466 48.6533 29.6096 48.6815C29.6725 48.7097 29.7298 48.7515 29.7782 48.8046C29.8266 48.8576 29.8652 48.9208 29.8916 48.9905C29.9181 49.0603 29.9319 49.1352 29.9323 49.2109V49.2109Z" fill="white"/>
<path d="M29.1217 49.5305C29.1791 49.5969 29.2529 49.6428 29.3337 49.6625C29.4145 49.6822 29.4988 49.6748 29.5758 49.6412C29.6528 49.6075 29.7192 49.5492 29.7667 49.4736C29.8141 49.3979 29.8404 49.3083 29.8423 49.2159C29.8412 49.1061 29.8039 49.0006 29.7375 48.9196C29.5208 49.1084 29.3151 49.3124 29.1217 49.5305V49.5305Z" fill="#455A64"/>
<path d="M31.9717 49.2109C31.9737 49.3264 31.9448 49.4399 31.8887 49.5369C31.8327 49.634 31.7521 49.7103 31.6571 49.756C31.5621 49.8017 31.4571 49.8148 31.3554 49.7936C31.2537 49.7724 31.16 49.7179 31.0862 49.637C31.0123 49.5561 30.9617 49.4525 30.9408 49.3394C30.9199 49.2263 30.9297 49.1088 30.9688 49.0019C31.0079 48.895 31.0746 48.8035 31.1605 48.7391C31.2463 48.6747 31.3474 48.6403 31.4508 48.6403C31.5187 48.6393 31.586 48.6533 31.6489 48.6815C31.7119 48.7097 31.7692 48.7515 31.8176 48.8046C31.866 48.8576 31.9045 48.9208 31.931 48.9905C31.9574 49.0603 31.9713 49.1352 31.9717 49.2109V49.2109Z" fill="white"/>
<path d="M31.1496 49.5305C31.1888 49.5755 31.2357 49.6112 31.2874 49.6357C31.3392 49.6602 31.3948 49.6729 31.451 49.6731C31.5055 49.6741 31.5596 49.663 31.6102 49.6405C31.6608 49.618 31.707 49.5846 31.7459 49.5421C31.7849 49.4996 31.816 49.4488 31.8373 49.3929C31.8587 49.3369 31.8699 49.2768 31.8703 49.2159C31.8692 49.1061 31.8319 49.0006 31.7655 48.9196C31.5487 49.1084 31.343 49.3124 31.1496 49.5305Z" fill="#455A64"/>
<path d="M34.0125 49.2109C34.0145 49.3264 33.9856 49.4399 33.9295 49.5369C33.8735 49.634 33.7929 49.7103 33.6979 49.756C33.6029 49.8017 33.4979 49.8148 33.3962 49.7936C33.2945 49.7724 33.2008 49.7179 33.127 49.637C33.0531 49.5561 33.0025 49.4525 32.9816 49.3394C32.9607 49.2263 32.9705 49.1088 33.0096 49.0019C33.0487 48.895 33.1154 48.8035 33.2013 48.7391C33.2871 48.6747 33.3882 48.6403 33.4916 48.6403C33.5595 48.6393 33.6268 48.6533 33.6897 48.6815C33.7527 48.7097 33.81 48.7515 33.8584 48.8046C33.9068 48.8576 33.9453 48.9208 33.9718 48.9905C33.9982 49.0603 34.0121 49.1352 34.0125 49.2109V49.2109Z" fill="white"/>
<path d="M33.1947 49.5305C33.2517 49.5974 33.3254 49.6438 33.4061 49.6638C33.4869 49.6838 33.5712 49.6765 33.6482 49.6427C33.7252 49.6089 33.7914 49.5503 33.8385 49.4743C33.8855 49.3982 33.9111 49.3083 33.9121 49.2159C33.911 49.1061 33.8737 49.0006 33.8073 48.9196C33.5916 49.1084 33.387 49.3124 33.1947 49.5305V49.5305Z" fill="#455A64"/>
<path d="M36.0576 49.2109C36.0603 49.3274 36.0317 49.4421 35.9755 49.5403C35.9194 49.6385 35.8383 49.7158 35.7426 49.7623C35.6469 49.8087 35.5409 49.8222 35.4383 49.801C35.3357 49.7798 35.2411 49.7249 35.1666 49.6433C35.0921 49.5617 35.0411 49.4571 35.0202 49.3429C34.9993 49.2288 35.0093 49.1102 35.0491 49.0025C35.0889 48.8948 35.1565 48.8027 35.2434 48.7382C35.3303 48.6737 35.4324 48.6396 35.5368 48.6403C35.6046 48.6393 35.6719 48.6533 35.7349 48.6815C35.7978 48.7097 35.8551 48.7515 35.9035 48.8046C35.952 48.8576 35.9905 48.9208 36.0169 48.9905C36.0434 49.0603 36.0572 49.1352 36.0576 49.2109V49.2109Z" fill="white"/>
<path d="M35.2355 49.5305C35.2925 49.5974 35.3662 49.6438 35.4469 49.6638C35.5277 49.6838 35.612 49.6765 35.689 49.6427C35.766 49.6089 35.8322 49.5503 35.8793 49.4743C35.9263 49.3982 35.9519 49.3083 35.9529 49.2159C35.9531 49.1058 35.9156 48.9999 35.8481 48.9196C35.6324 49.1084 35.4278 49.3124 35.2355 49.5305Z" fill="#455A64"/>
<path d="M38.0991 49.2109C38.101 49.3264 38.0722 49.4399 38.0161 49.5369C37.9601 49.634 37.8795 49.7103 37.7845 49.756C37.6895 49.8017 37.5845 49.8148 37.4828 49.7936C37.3811 49.7724 37.2874 49.7179 37.2136 49.637C37.1397 49.5561 37.0891 49.4525 37.0682 49.3394C37.0473 49.2263 37.0571 49.1088 37.0962 49.0019C37.1353 48.895 37.202 48.8035 37.2879 48.7391C37.3737 48.6747 37.4748 48.6403 37.5782 48.6403C37.6461 48.6393 37.7134 48.6533 37.7763 48.6815C37.8393 48.7097 37.8966 48.7515 37.945 48.8046C37.9934 48.8576 38.0319 48.9208 38.0584 48.9905C38.0848 49.0603 38.0987 49.1352 38.0991 49.2109V49.2109Z" fill="white"/>
<path d="M37.277 49.5305C37.3345 49.5969 37.4083 49.6428 37.4891 49.6625C37.5699 49.6822 37.6541 49.6748 37.7312 49.6412C37.8082 49.6075 37.8746 49.5492 37.922 49.4736C37.9695 49.3979 37.9958 49.3083 37.9977 49.2159C37.9966 49.1061 37.9593 49.0006 37.8929 48.9196C37.6754 49.1074 37.4697 49.3115 37.277 49.5305Z" fill="#455A64"/>
<path d="M40.1399 49.2109C40.1419 49.3264 40.113 49.4399 40.0569 49.5369C40.0009 49.634 39.9203 49.7103 39.8253 49.756C39.7303 49.8017 39.6253 49.8148 39.5236 49.7936C39.4219 49.7724 39.3282 49.7179 39.2544 49.637C39.1805 49.5561 39.1299 49.4525 39.109 49.3394C39.0881 49.2263 39.0978 49.1088 39.137 49.0019C39.1761 48.895 39.2428 48.8035 39.3287 48.7391C39.4145 48.6747 39.5156 48.6403 39.619 48.6403C39.6869 48.6393 39.7542 48.6533 39.8171 48.6815C39.8801 48.7097 39.9374 48.7515 39.9858 48.8046C40.0342 48.8576 40.0727 48.9208 40.0992 48.9905C40.1256 49.0603 40.1395 49.1352 40.1399 49.2109V49.2109Z" fill="white"/>
<path d="M39.3171 49.5305C39.3563 49.5755 39.4032 49.6112 39.4549 49.6357C39.5067 49.6602 39.5623 49.6729 39.6185 49.6731C39.673 49.6741 39.7271 49.663 39.7777 49.6405C39.8283 49.618 39.8745 49.5846 39.9134 49.5421C39.9524 49.4996 39.9835 49.4488 40.0048 49.3929C40.0262 49.3369 40.0374 49.2768 40.0378 49.2159C40.0367 49.1061 39.9994 49.0006 39.933 48.9196C39.7162 49.1084 39.5105 49.3124 39.3171 49.5305Z" fill="#455A64"/>
<path d="M19.7247 52.8397C19.7273 52.9553 19.699 53.0692 19.6433 53.1667C19.5877 53.2643 19.5073 53.3411 19.4124 53.3874C19.3175 53.4337 19.2124 53.4473 19.1105 53.4265C19.0086 53.4058 18.9146 53.3516 18.8404 53.2708C18.7663 53.1901 18.7153 53.0865 18.6941 52.9733C18.673 52.8601 18.6825 52.7424 18.7215 52.6353C18.7605 52.5282 18.8272 52.4365 18.9131 52.3719C18.9991 52.3073 19.1003 52.2728 19.2038 52.2728C19.2714 52.2718 19.3384 52.2857 19.4011 52.3137C19.4639 52.3417 19.5211 52.3831 19.5694 52.4358C19.6178 52.4884 19.6564 52.5512 19.683 52.6205C19.7097 52.6898 19.7238 52.7643 19.7247 52.8397V52.8397Z" fill="white"/>
<path d="M18.9027 53.1573C18.9604 53.2239 19.0344 53.2699 19.1156 53.2895C19.1967 53.3091 19.2811 53.3013 19.3583 53.2672C19.4355 53.2332 19.5018 53.1743 19.549 53.0981C19.5962 53.0219 19.6221 52.9317 19.6234 52.8391C19.6215 52.7306 19.5842 52.6265 19.5185 52.5465C19.3011 52.7343 19.0953 52.9384 18.9027 53.1573V53.1573Z" fill="#455A64"/>
<path d="M21.7655 52.8397C21.7681 52.9553 21.7398 53.0692 21.6841 53.1667C21.6285 53.2643 21.5481 53.3411 21.4532 53.3874C21.3583 53.4337 21.2532 53.4473 21.1513 53.4265C21.0494 53.4058 20.9554 53.3516 20.8812 53.2708C20.8071 53.1901 20.7561 53.0865 20.7349 52.9733C20.7138 52.8601 20.7233 52.7424 20.7623 52.6353C20.8013 52.5282 20.868 52.4365 20.9539 52.3719C21.0399 52.3073 21.1411 52.2728 21.2446 52.2728C21.3122 52.2718 21.3792 52.2857 21.4419 52.3137C21.5047 52.3417 21.5619 52.3831 21.6102 52.4358C21.6586 52.4884 21.6972 52.5512 21.7238 52.6205C21.7505 52.6898 21.7646 52.7643 21.7655 52.8397V52.8397Z" fill="white"/>
<path d="M20.9328 53.1573C20.972 53.2023 21.0189 53.2381 21.0706 53.2625C21.1224 53.287 21.178 53.2998 21.2342 53.3C21.2888 53.3005 21.343 53.2889 21.3936 53.266C21.4443 53.2431 21.4904 53.2093 21.5293 53.1665C21.5683 53.1237 21.5993 53.0728 21.6206 53.0166C21.6419 52.9604 21.6531 52.9001 21.6535 52.8391C21.6516 52.7306 21.6143 52.6265 21.5487 52.5465C21.3319 52.7352 21.1262 52.9392 20.9328 53.1573Z" fill="#455A64"/>
<path d="M23.807 52.8397C23.8096 52.9553 23.7813 53.0692 23.7257 53.1667C23.67 53.2643 23.5896 53.3411 23.4947 53.3874C23.3998 53.4337 23.2947 53.4473 23.1928 53.4265C23.0909 53.4058 22.9969 53.3516 22.9227 53.2708C22.8486 53.1901 22.7977 53.0865 22.7765 52.9733C22.7553 52.8601 22.7648 52.7424 22.8038 52.6353C22.8428 52.5282 22.9095 52.4365 22.9955 52.3719C23.0814 52.3073 23.1826 52.2728 23.2861 52.2728C23.3537 52.2718 23.4207 52.2857 23.4835 52.3137C23.5462 52.3417 23.6034 52.3831 23.6517 52.4358C23.7001 52.4884 23.7387 52.5512 23.7654 52.6205C23.792 52.6898 23.8061 52.7643 23.807 52.8397V52.8397Z" fill="white"/>
<path d="M22.9871 53.1573C23.0255 53.2025 23.0717 53.2385 23.123 53.263C23.1743 53.2875 23.2295 53.3001 23.2852 53.3C23.3399 53.3005 23.3941 53.2889 23.4447 53.266C23.4953 53.2431 23.5414 53.2093 23.5804 53.1665C23.6193 53.1237 23.6503 53.0728 23.6716 53.0166C23.6929 52.9604 23.7041 52.9001 23.7045 52.8391C23.7026 52.7306 23.6654 52.6265 23.5997 52.5465C23.3833 52.7343 23.1786 52.9384 22.9871 53.1573V53.1573Z" fill="#455A64"/>
<path d="M25.8464 52.8397C25.8497 52.9562 25.8217 53.0711 25.7662 53.1697C25.7106 53.2683 25.6299 53.3462 25.5345 53.3933C25.439 53.4404 25.3332 53.4546 25.2305 53.4342C25.1277 53.4137 25.0328 53.3595 24.9579 53.2784C24.8829 53.1973 24.8313 53.0931 24.8098 52.9791C24.7882 52.8651 24.7975 52.7465 24.8367 52.6385C24.8758 52.5305 24.943 52.438 25.0295 52.3728C25.116 52.3077 25.2179 52.2728 25.3223 52.2728C25.459 52.2708 25.5909 52.3293 25.6891 52.4356C25.7873 52.5418 25.8438 52.6871 25.8464 52.8397V52.8397Z" fill="white"/>
<path d="M25.0279 53.1573C25.0663 53.2025 25.1125 53.2385 25.1638 53.263C25.2151 53.2875 25.2703 53.3001 25.326 53.3C25.3807 53.3005 25.4349 53.2889 25.4855 53.266C25.5361 53.2431 25.5822 53.2093 25.6212 53.1665C25.6601 53.1237 25.6911 53.0728 25.7124 53.0166C25.7337 52.9604 25.7449 52.9001 25.7453 52.8391C25.7434 52.7306 25.7062 52.6265 25.6405 52.5465C25.4248 52.7352 25.2202 52.9392 25.0279 53.1573Z" fill="#455A64"/>
<path d="M27.8915 52.8397C27.8941 52.9553 27.8657 53.0692 27.8101 53.1667C27.7545 53.2643 27.6741 53.3411 27.5792 53.3874C27.4843 53.4337 27.3791 53.4473 27.2773 53.4265C27.1754 53.4058 27.0814 53.3516 27.0072 53.2708C26.933 53.1901 26.8821 53.0865 26.8609 52.9733C26.8397 52.8601 26.8493 52.7424 26.8883 52.6353C26.9273 52.5282 26.994 52.4365 27.0799 52.3719C27.1658 52.3073 27.267 52.2728 27.3706 52.2728C27.4381 52.2718 27.5052 52.2857 27.5679 52.3137C27.6307 52.3417 27.6878 52.3831 27.7362 52.4358C27.7846 52.4884 27.8232 52.5512 27.8498 52.6205C27.8765 52.6898 27.8906 52.7643 27.8915 52.8397V52.8397Z" fill="white"/>
<path d="M27.0695 53.1573C27.1267 53.2245 27.2006 53.271 27.2817 53.2908C27.3627 53.3107 27.4473 53.303 27.5244 53.2688C27.6016 53.2346 27.6678 53.1754 27.7146 53.0988C27.7613 53.0222 27.7865 52.9318 27.7869 52.8391C27.7865 52.7302 27.749 52.6256 27.682 52.5465C27.4663 52.7352 27.2617 52.9392 27.0695 53.1573V53.1573Z" fill="#455A64"/>
<path d="M29.9323 52.8397C29.9349 52.9553 29.9065 53.0692 29.8509 53.1667C29.7953 53.2643 29.7149 53.3411 29.62 53.3874C29.5251 53.4337 29.42 53.4473 29.3181 53.4265C29.2162 53.4058 29.1222 53.3516 29.048 53.2708C28.9738 53.1901 28.9229 53.0865 28.9017 52.9733C28.8805 52.8601 28.8901 52.7424 28.9291 52.6353C28.9681 52.5282 29.0348 52.4365 29.1207 52.3719C29.2066 52.3073 29.3078 52.2728 29.4114 52.2728C29.479 52.2718 29.546 52.2857 29.6087 52.3137C29.6715 52.3417 29.7286 52.3831 29.777 52.4358C29.8254 52.4884 29.864 52.5512 29.8906 52.6205C29.9173 52.6898 29.9314 52.7643 29.9323 52.8397V52.8397Z" fill="white"/>
<path d="M29.1217 53.1573C29.1793 53.2239 29.2534 53.2699 29.3345 53.2895C29.4156 53.3091 29.5001 53.3013 29.5773 53.2672C29.6544 53.2332 29.7208 53.1743 29.768 53.0981C29.8152 53.0219 29.8411 52.9317 29.8423 52.8391C29.8404 52.7306 29.8032 52.6265 29.7375 52.5465C29.5208 52.7352 29.3151 52.9392 29.1217 53.1573Z" fill="#455A64"/>
<path d="M31.9731 52.8397C31.9757 52.9553 31.9474 53.0692 31.8917 53.1667C31.8361 53.2643 31.7557 53.3411 31.6608 53.3874C31.5659 53.4337 31.4608 53.4473 31.3589 53.4265C31.257 53.4058 31.163 53.3516 31.0888 53.2708C31.0146 53.1901 30.9637 53.0865 30.9425 52.9733C30.9213 52.8601 30.9309 52.7424 30.9699 52.6353C31.0089 52.5282 31.0756 52.4365 31.1615 52.3719C31.2474 52.3073 31.3486 52.2728 31.4522 52.2728C31.5198 52.2718 31.5868 52.2857 31.6495 52.3137C31.7123 52.3417 31.7694 52.3831 31.8178 52.4358C31.8662 52.4884 31.9048 52.5512 31.9314 52.6205C31.9581 52.6898 31.9722 52.7643 31.9731 52.8397V52.8397Z" fill="white"/>
<path d="M31.1496 53.1573C31.1888 53.2023 31.2357 53.2381 31.2874 53.2625C31.3392 53.287 31.3948 53.2998 31.451 53.3C31.5056 53.3005 31.5598 53.2889 31.6105 53.266C31.6611 53.2431 31.7072 53.2093 31.7461 53.1665C31.7851 53.1237 31.8161 53.0728 31.8374 53.0166C31.8587 52.9604 31.8699 52.9001 31.8703 52.8391C31.8684 52.7306 31.8311 52.6265 31.7655 52.5465C31.5487 52.7352 31.343 52.9392 31.1496 53.1573V53.1573Z" fill="#455A64"/>
<path d="M34.0124 52.8397C34.015 52.9553 33.9867 53.0692 33.9311 53.1667C33.8755 53.2643 33.7951 53.3411 33.7001 53.3874C33.6052 53.4337 33.5001 53.4473 33.3982 53.4265C33.2963 53.4058 33.2023 53.3516 33.1282 53.2708C33.054 53.1901 33.0031 53.0865 32.9819 52.9733C32.9607 52.8601 32.9702 52.7424 33.0092 52.6353C33.0483 52.5282 33.115 52.4365 33.2009 52.3719C33.2868 52.3073 33.388 52.2728 33.4916 52.2728C33.5591 52.2718 33.6262 52.2857 33.6889 52.3137C33.7516 52.3417 33.8088 52.3831 33.8572 52.4358C33.9055 52.4884 33.9441 52.5512 33.9708 52.6205C33.9974 52.6898 34.0116 52.7643 34.0124 52.8397V52.8397Z" fill="white"/>
<path d="M33.1947 53.1573C33.2331 53.2025 33.2793 53.2385 33.3306 53.263C33.3818 53.2875 33.437 53.3001 33.4928 53.3C33.5475 53.3005 33.6016 53.2889 33.6523 53.266C33.7029 53.2431 33.749 53.2093 33.788 53.1665C33.8269 53.1237 33.8579 53.0728 33.8792 53.0166C33.9005 52.9604 33.9117 52.9001 33.9121 52.8391C33.9102 52.7306 33.873 52.6265 33.8073 52.5465C33.5916 52.7352 33.387 52.9392 33.1947 53.1573V53.1573Z" fill="#455A64"/>
<path d="M36.0576 52.8397C36.0608 52.9564 36.0328 53.0714 35.9771 53.1701C35.9214 53.2688 35.8405 53.3467 35.7449 53.3937C35.6492 53.4407 35.5432 53.4547 35.4404 53.4339C35.3376 53.4132 35.2426 53.3585 35.1678 53.2771C35.093 53.1956 35.0417 53.0911 35.0205 52.9769C34.9993 52.8626 35.0091 52.7439 35.0488 52.6359C35.0884 52.528 35.156 52.4357 35.243 52.371C35.3299 52.3063 35.4322 52.2721 35.5367 52.2728C35.6042 52.2718 35.6713 52.2857 35.734 52.3137C35.7968 52.3417 35.8539 52.3831 35.9023 52.4358C35.9507 52.4884 35.9893 52.5512 36.0159 52.6205C36.0426 52.6898 36.0567 52.7643 36.0576 52.8397V52.8397Z" fill="white"/>
<path d="M35.2355 53.1573C35.2927 53.2245 35.3666 53.271 35.4477 53.2908C35.5288 53.3107 35.6133 53.303 35.6905 53.2688C35.7676 53.2346 35.8338 53.1754 35.8806 53.0988C35.9274 53.0222 35.9526 52.9318 35.9529 52.8391C35.9526 52.7302 35.9151 52.6256 35.8481 52.5465C35.6324 52.7352 35.4278 52.9392 35.2355 53.1573V53.1573Z" fill="#455A64"/>
<path d="M38.099 52.8397C38.1016 52.9553 38.0733 53.0692 38.0177 53.1667C37.9621 53.2643 37.8817 53.3411 37.7867 53.3874C37.6918 53.4337 37.5867 53.4473 37.4848 53.4265C37.3829 53.4058 37.2889 53.3516 37.2148 53.2708C37.1406 53.1901 37.0897 53.0865 37.0685 52.9733C37.0473 52.8601 37.0568 52.7424 37.0958 52.6353C37.1348 52.5282 37.2016 52.4365 37.2875 52.3719C37.3734 52.3073 37.4746 52.2728 37.5782 52.2728C37.6457 52.2718 37.7128 52.2857 37.7755 52.3137C37.8382 52.3417 37.8954 52.3831 37.9438 52.4358C37.9921 52.4884 38.0307 52.5512 38.0574 52.6205C38.084 52.6898 38.0982 52.7643 38.099 52.8397V52.8397Z" fill="white"/>
<path d="M37.277 53.1573C37.3347 53.2239 37.4088 53.2699 37.4899 53.2895C37.571 53.3091 37.6555 53.3013 37.7326 53.2672C37.8098 53.2332 37.8762 53.1743 37.9234 53.0981C37.9705 53.0219 37.9964 52.9317 37.9977 52.8391C37.9958 52.7306 37.9585 52.6265 37.8929 52.5465C37.6754 52.7343 37.4697 52.9384 37.277 53.1573Z" fill="#455A64"/>
<path d="M40.1398 52.8397C40.1424 52.9553 40.1141 53.0692 40.0585 53.1667C40.0029 53.2643 39.9225 53.3411 39.8275 53.3874C39.7326 53.4337 39.6275 53.4473 39.5256 53.4265C39.4237 53.4058 39.3297 53.3516 39.2556 53.2708C39.1814 53.1901 39.1305 53.0865 39.1093 52.9733C39.0881 52.8601 39.0976 52.7424 39.1366 52.6353C39.1756 52.5282 39.2424 52.4365 39.3283 52.3719C39.4142 52.3073 39.5154 52.2728 39.619 52.2728C39.6865 52.2718 39.7536 52.2857 39.8163 52.3137C39.879 52.3417 39.9362 52.3831 39.9846 52.4358C40.0329 52.4884 40.0715 52.5512 40.0982 52.6205C40.1248 52.6898 40.139 52.7643 40.1398 52.8397V52.8397Z" fill="white"/>
<path d="M39.3171 53.1573C39.3563 53.2023 39.4032 53.2381 39.4549 53.2625C39.5067 53.287 39.5623 53.2998 39.6185 53.3C39.6731 53.3005 39.7273 53.2889 39.778 53.266C39.8286 53.2431 39.8747 53.2093 39.9136 53.1665C39.9526 53.1237 39.9836 53.0728 40.0049 53.0166C40.0262 52.9604 40.0374 52.9001 40.0378 52.8391C40.0359 52.7306 39.9986 52.6265 39.933 52.5465C39.7162 52.7352 39.5105 52.9392 39.3171 53.1573V53.1573Z" fill="#455A64"/>
<path d="M62.7584 49.2109C62.7603 49.3264 62.7315 49.4399 62.6754 49.5369C62.6194 49.634 62.5387 49.7103 62.4438 49.756C62.3488 49.8017 62.2437 49.8148 62.1421 49.7936C62.0404 49.7724 61.9467 49.7179 61.8728 49.637C61.799 49.5561 61.7484 49.4525 61.7275 49.3394C61.7066 49.2263 61.7163 49.1088 61.7555 49.0019C61.7946 48.895 61.8613 48.8035 61.9472 48.7391C62.033 48.6747 62.1341 48.6403 62.2375 48.6403C62.3053 48.6393 62.3727 48.6533 62.4356 48.6815C62.4985 48.7097 62.5559 48.7515 62.6043 48.8046C62.6527 48.8576 62.6912 48.9208 62.7177 48.9905C62.7441 49.0603 62.758 49.1352 62.7584 49.2109V49.2109Z" fill="white"/>
<path d="M61.9399 49.5305C61.9969 49.5974 62.0705 49.6438 62.1513 49.6638C62.2321 49.6838 62.3163 49.6765 62.3934 49.6427C62.4704 49.6089 62.5366 49.5503 62.5836 49.4743C62.6306 49.3982 62.6563 49.3083 62.6573 49.2159C62.6562 49.1061 62.6189 49.0006 62.5525 48.9196C62.3367 49.1084 62.1321 49.3124 61.9399 49.5305V49.5305Z" fill="#455A64"/>
<path d="M64.8028 49.2109C64.8054 49.3274 64.7768 49.4421 64.7207 49.5403C64.6646 49.6385 64.5834 49.7158 64.4877 49.7623C64.392 49.8087 64.2861 49.8222 64.1835 49.801C64.0809 49.7798 63.9863 49.7249 63.9118 49.6433C63.8373 49.5617 63.7863 49.4571 63.7654 49.3429C63.7444 49.2288 63.7545 49.1102 63.7942 49.0025C63.834 48.8948 63.9017 48.8027 63.9886 48.7382C64.0754 48.6737 64.1776 48.6396 64.2819 48.6403C64.3498 48.6393 64.4171 48.6533 64.48 48.6815C64.543 48.7097 64.6003 48.7515 64.6487 48.8046C64.6971 48.8576 64.7356 48.9208 64.7621 48.9905C64.7885 49.0603 64.8024 49.1352 64.8028 49.2109V49.2109Z" fill="white"/>
<path d="M63.9814 49.5305C64.0384 49.5974 64.112 49.6438 64.1928 49.6638C64.2736 49.6838 64.3578 49.6765 64.4349 49.6427C64.5119 49.6089 64.5781 49.5503 64.6251 49.4743C64.6721 49.3982 64.6978 49.3083 64.6988 49.2159C64.699 49.1058 64.6615 48.9999 64.594 48.9196C64.3783 49.1084 64.1736 49.3124 63.9814 49.5305Z" fill="#455A64"/>
<path d="M66.8443 49.2109C66.8462 49.3264 66.8173 49.4399 66.7613 49.5369C66.7053 49.634 66.6246 49.7103 66.5296 49.756C66.4346 49.8017 66.3296 49.8148 66.228 49.7936C66.1263 49.7724 66.0326 49.7179 65.9587 49.637C65.8849 49.5561 65.8343 49.4525 65.8134 49.3394C65.7925 49.2263 65.8022 49.1088 65.8413 49.0019C65.8804 48.895 65.9472 48.8035 66.033 48.7391C66.1189 48.6747 66.22 48.6403 66.3234 48.6403C66.3912 48.6393 66.4585 48.6533 66.5215 48.6815C66.5844 48.7097 66.6417 48.7515 66.6902 48.8046C66.7386 48.8576 66.7771 48.9208 66.8035 48.9905C66.83 49.0603 66.8438 49.1352 66.8443 49.2109V49.2109Z" fill="white"/>
<path d="M66.0222 49.5305C66.0797 49.5969 66.1535 49.6428 66.2343 49.6625C66.3151 49.6822 66.3993 49.6748 66.4763 49.6412C66.5534 49.6075 66.6198 49.5492 66.6672 49.4736C66.7146 49.3979 66.7409 49.3083 66.7429 49.2159C66.7418 49.1061 66.7044 49.0006 66.638 48.9196C66.4206 49.1074 66.2148 49.3115 66.0222 49.5305Z" fill="#455A64"/>
<path d="M68.8851 49.2109C68.887 49.3264 68.8581 49.4399 68.8021 49.5369C68.7461 49.634 68.6654 49.7103 68.5704 49.756C68.4755 49.8017 68.3704 49.8148 68.2688 49.7936C68.1671 49.7724 68.0734 49.7179 67.9995 49.637C67.9257 49.5561 67.8751 49.4525 67.8542 49.3394C67.8333 49.2263 67.843 49.1088 67.8821 49.0019C67.9213 48.895 67.988 48.8035 68.0738 48.7391C68.1597 48.6747 68.2608 48.6403 68.3642 48.6403C68.432 48.6393 68.4993 48.6533 68.5623 48.6815C68.6252 48.7097 68.6826 48.7515 68.731 48.8046C68.7794 48.8576 68.8179 48.9208 68.8444 48.9905C68.8708 49.0603 68.8846 49.1352 68.8851 49.2109V49.2109Z" fill="white"/>
<path d="M68.0623 49.5305C68.1015 49.5755 68.1483 49.6112 68.2001 49.6357C68.2518 49.6602 68.3074 49.6729 68.3636 49.6731C68.4181 49.6741 68.4722 49.663 68.5228 49.6405C68.5735 49.618 68.6196 49.5846 68.6586 49.5421C68.6976 49.4996 68.7286 49.4488 68.75 49.3929C68.7713 49.3369 68.7825 49.2768 68.7829 49.2159C68.7818 49.1061 68.7445 49.0006 68.6781 48.9196C68.4614 49.1084 68.2557 49.3124 68.0623 49.5305V49.5305Z" fill="#455A64"/>
<path d="M70.9259 49.2109C70.9278 49.3264 70.8989 49.4399 70.8429 49.5369C70.7869 49.634 70.7062 49.7103 70.6112 49.756C70.5162 49.8017 70.4112 49.8148 70.3096 49.7936C70.2079 49.7724 70.1142 49.7179 70.0403 49.637C69.9665 49.5561 69.9159 49.4525 69.895 49.3394C69.8741 49.2263 69.8838 49.1088 69.9229 49.0019C69.962 48.895 70.0288 48.8035 70.1146 48.7391C70.2005 48.6747 70.3016 48.6403 70.405 48.6403C70.4728 48.6393 70.5401 48.6533 70.6031 48.6815C70.666 48.7097 70.7233 48.7515 70.7718 48.8046C70.8202 48.8576 70.8587 48.9208 70.8852 48.9905C70.9116 49.0603 70.9254 49.1352 70.9259 49.2109V49.2109Z" fill="white"/>
<path d="M70.1066 49.5305C70.1637 49.5974 70.2373 49.6438 70.318 49.6638C70.3988 49.6838 70.4831 49.6765 70.5601 49.6427C70.6371 49.6089 70.7034 49.5503 70.7504 49.4743C70.7974 49.3982 70.823 49.3083 70.824 49.2159C70.8229 49.1061 70.7856 49.0006 70.7192 48.9196C70.5028 49.1074 70.2981 49.3115 70.1066 49.5305Z" fill="#455A64"/>
<path d="M72.9689 49.2109C72.9715 49.3272 72.943 49.4418 72.887 49.5399C72.831 49.6381 72.7501 49.7154 72.6546 49.7619C72.559 49.8084 72.4533 49.8221 72.3508 49.8012C72.2482 49.7803 72.1536 49.7258 72.079 49.6446C72.0044 49.5633 71.9532 49.4591 71.9319 49.3452C71.9105 49.2313 71.9201 49.1129 71.9594 49.0051C71.9986 48.8973 72.0658 48.805 72.1522 48.74C72.2387 48.675 72.3405 48.6403 72.4447 48.6403C72.5127 48.6393 72.5802 48.6533 72.6433 48.6814C72.7064 48.7096 72.764 48.7514 72.8127 48.8043C72.8613 48.8573 72.9002 48.9205 72.927 48.9903C72.9538 49.06 72.968 49.135 72.9689 49.2109V49.2109Z" fill="white"/>
<path d="M72.1474 49.5305C72.2045 49.5974 72.2781 49.6438 72.3588 49.6638C72.4396 49.6838 72.5239 49.6765 72.6009 49.6427C72.6779 49.6089 72.7442 49.5503 72.7912 49.4743C72.8382 49.3982 72.8638 49.3083 72.8648 49.2159C72.8637 49.1061 72.8264 49.0006 72.76 48.9196C72.5443 49.1084 72.3397 49.3124 72.1474 49.5305V49.5305Z" fill="#455A64"/>
<path d="M75.0104 49.2109C75.013 49.3274 74.9844 49.4421 74.9283 49.5403C74.8721 49.6385 74.791 49.7158 74.6953 49.7623C74.5996 49.8087 74.4937 49.8222 74.3911 49.801C74.2884 49.7798 74.1938 49.7249 74.1193 49.6433C74.0449 49.5617 73.9939 49.4571 73.9729 49.3429C73.952 49.2288 73.9621 49.1102 74.0018 49.0025C74.0416 48.8948 74.1092 48.8027 74.1961 48.7382C74.283 48.6737 74.3852 48.6396 74.4895 48.6403C74.5573 48.6393 74.6247 48.6533 74.6876 48.6815C74.7505 48.7097 74.8079 48.7515 74.8563 48.8046C74.9047 48.8576 74.9432 48.9208 74.9697 48.9905C74.9961 49.0603 75.01 49.1352 75.0104 49.2109V49.2109Z" fill="white"/>
<path d="M74.1882 49.5305C74.2453 49.5974 74.3189 49.6438 74.3996 49.6638C74.4804 49.6838 74.5647 49.6765 74.6417 49.6427C74.7187 49.6089 74.785 49.5503 74.832 49.4743C74.879 49.3982 74.9046 49.3083 74.9056 49.2159C74.9058 49.1058 74.8683 48.9999 74.8008 48.9196C74.5851 49.1084 74.3805 49.3124 74.1882 49.5305V49.5305Z" fill="#455A64"/>
<path d="M77.0518 49.2109C77.0538 49.3264 77.0249 49.4399 76.9688 49.5369C76.9128 49.634 76.8322 49.7103 76.7372 49.756C76.6422 49.8017 76.5372 49.8148 76.4355 49.7936C76.3338 49.7724 76.2401 49.7179 76.1663 49.637C76.0924 49.5561 76.0419 49.4525 76.0209 49.3394C76 49.2263 76.0098 49.1088 76.0489 49.0019C76.088 48.895 76.1547 48.8035 76.2406 48.7391C76.3264 48.6747 76.4275 48.6403 76.531 48.6403C76.5988 48.6393 76.6661 48.6533 76.729 48.6815C76.792 48.7097 76.8493 48.7515 76.8977 48.8046C76.9461 48.8576 76.9847 48.9208 77.0111 48.9905C77.0375 49.0603 77.0514 49.1352 77.0518 49.2109V49.2109Z" fill="white"/>
<path d="M76.229 49.5305C76.2865 49.5969 76.3603 49.6428 76.4411 49.6625C76.5219 49.6822 76.6062 49.6748 76.6832 49.6412C76.7602 49.6075 76.8266 49.5492 76.8741 49.4736C76.9215 49.3979 76.9478 49.3083 76.9497 49.2159C76.9486 49.1061 76.9113 49.0006 76.8449 48.9196C76.6275 49.1074 76.4217 49.3115 76.229 49.5305Z" fill="#455A64"/>
<path d="M79.0919 49.2109C79.0939 49.3264 79.065 49.4399 79.0089 49.5369C78.9529 49.634 78.8723 49.7103 78.7773 49.756C78.6823 49.8017 78.5773 49.8148 78.4756 49.7936C78.3739 49.7724 78.2802 49.7179 78.2064 49.637C78.1325 49.5561 78.0819 49.4525 78.061 49.3394C78.0401 49.2263 78.0499 49.1088 78.089 49.0019C78.1281 48.895 78.1948 48.8035 78.2807 48.7391C78.3665 48.6747 78.4676 48.6403 78.5711 48.6403C78.6389 48.6393 78.7062 48.6533 78.7691 48.6815C78.8321 48.7097 78.8894 48.7515 78.9378 48.8046C78.9862 48.8576 79.0248 48.9208 79.0512 48.9905C79.0777 49.0603 79.0915 49.1352 79.0919 49.2109V49.2109Z" fill="white"/>
<path d="M78.2599 49.5305C78.2991 49.5755 78.3459 49.6112 78.3977 49.6357C78.4494 49.6602 78.505 49.6729 78.5612 49.6731C78.6157 49.6741 78.6698 49.663 78.7204 49.6405C78.7711 49.618 78.8172 49.5846 78.8562 49.5421C78.8952 49.4996 78.9262 49.4488 78.9476 49.3929C78.9689 49.3369 78.9801 49.2768 78.9805 49.2159C78.9794 49.1061 78.9421 49.0006 78.8757 48.9196C78.659 49.1084 78.4533 49.3124 78.2599 49.5305Z" fill="#455A64"/>
<path d="M81.1327 49.2109C81.1347 49.3264 81.1058 49.4399 81.0498 49.5369C80.9937 49.634 80.9131 49.7103 80.8181 49.756C80.7231 49.8017 80.6181 49.8148 80.5164 49.7936C80.4147 49.7724 80.321 49.7179 80.2472 49.637C80.1733 49.5561 80.1228 49.4525 80.1018 49.3394C80.0809 49.2263 80.0907 49.1088 80.1298 49.0019C80.1689 48.895 80.2356 48.8035 80.3215 48.7391C80.4073 48.6747 80.5084 48.6403 80.6119 48.6403C80.6797 48.6393 80.747 48.6533 80.8099 48.6815C80.8729 48.7097 80.9302 48.7515 80.9786 48.8046C81.027 48.8576 81.0656 48.9208 81.092 48.9905C81.1184 49.0603 81.1323 49.1352 81.1327 49.2109V49.2109Z" fill="white"/>
<path d="M80.3142 49.5305C80.3712 49.5974 80.4448 49.6438 80.5256 49.6638C80.6064 49.6838 80.6907 49.6765 80.7677 49.6427C80.8447 49.6089 80.9109 49.5503 80.958 49.4743C81.005 49.3982 81.0306 49.3083 81.0316 49.2159C81.0305 49.1061 80.9932 49.0006 80.9268 48.9196C80.7104 49.1074 80.5057 49.3115 80.3142 49.5305Z" fill="#455A64"/>
<path d="M83.1743 49.2109C83.1769 49.3272 83.1484 49.4418 83.0924 49.5399C83.0364 49.6381 82.9555 49.7154 82.86 49.7619C82.7645 49.8084 82.6587 49.8221 82.5562 49.8012C82.4537 49.7803 82.359 49.7258 82.2844 49.6446C82.2098 49.5633 82.1586 49.4591 82.1373 49.3452C82.116 49.2313 82.1255 49.1129 82.1648 49.0051C82.2041 48.8973 82.2712 48.805 82.3577 48.74C82.4441 48.675 82.5459 48.6403 82.6502 48.6403C82.7181 48.6393 82.7856 48.6533 82.8487 48.6814C82.9119 48.7096 82.9694 48.7514 83.0181 48.8043C83.0667 48.8573 83.1056 48.9205 83.1324 48.9903C83.1592 49.06 83.1734 49.135 83.1743 49.2109V49.2109Z" fill="white"/>
<path d="M82.355 49.5305C82.412 49.5974 82.4856 49.6438 82.5664 49.6638C82.6472 49.6838 82.7315 49.6765 82.8085 49.6427C82.8855 49.6089 82.9517 49.5503 82.9987 49.4743C83.0458 49.3982 83.0714 49.3083 83.0724 49.2159C83.0713 49.1061 83.034 49.0006 82.9676 48.9196C82.7519 49.1084 82.5473 49.3124 82.355 49.5305V49.5305Z" fill="#455A64"/>
<path d="M62.7583 52.8397C62.7609 52.9553 62.7326 53.0692 62.677 53.1667C62.6213 53.2643 62.5409 53.3411 62.446 53.3874C62.3511 53.4337 62.246 53.4473 62.1441 53.4265C62.0422 53.4058 61.9482 53.3516 61.874 53.2708C61.7999 53.1901 61.749 53.0865 61.7278 52.9733C61.7066 52.8601 61.7161 52.7424 61.7551 52.6353C61.7941 52.5282 61.8609 52.4365 61.9468 52.3719C62.0327 52.3073 62.1339 52.2728 62.2375 52.2728C62.305 52.2718 62.372 52.2857 62.4348 52.3137C62.4975 52.3417 62.5547 52.3831 62.6031 52.4358C62.6514 52.4884 62.69 52.5512 62.7167 52.6205C62.7433 52.6898 62.7575 52.7643 62.7583 52.8397V52.8397Z" fill="white"/>
<path d="M61.9399 53.1573C61.9782 53.2025 62.0245 53.2385 62.0757 53.263C62.127 53.2875 62.1822 53.3001 62.238 53.3C62.2926 53.3005 62.3468 53.2889 62.3974 53.266C62.4481 53.2431 62.4942 53.2093 62.5331 53.1665C62.5721 53.1237 62.6031 53.0728 62.6244 53.0166C62.6457 52.9604 62.6569 52.9001 62.6573 52.8391C62.6554 52.7306 62.6181 52.6265 62.5525 52.5465C62.3367 52.7352 62.1321 52.9392 61.9399 53.1573V53.1573Z" fill="#455A64"/>
<path d="M64.8027 52.8397C64.806 52.9564 64.7779 53.0714 64.7222 53.1701C64.6665 53.2688 64.5856 53.3467 64.49 53.3937C64.3944 53.4407 64.2883 53.4547 64.1855 53.4339C64.0827 53.4132 63.9878 53.3585 63.913 53.2771C63.8381 53.1956 63.7868 53.0911 63.7656 52.9769C63.7444 52.8626 63.7542 52.7439 63.7939 52.6359C63.8335 52.528 63.9012 52.4357 63.9881 52.371C64.0751 52.3063 64.1774 52.2721 64.2818 52.2728C64.3494 52.2718 64.4164 52.2857 64.4792 52.3137C64.5419 52.3417 64.5991 52.3831 64.6474 52.4358C64.6958 52.4884 64.7344 52.5512 64.7611 52.6205C64.7877 52.6898 64.8019 52.7643 64.8027 52.8397V52.8397Z" fill="white"/>
<path d="M63.9814 53.1573C64.0386 53.2245 64.1125 53.271 64.1936 53.2908C64.2747 53.3107 64.3592 53.303 64.4364 53.2688C64.5135 53.2346 64.5797 53.1754 64.6265 53.0988C64.6732 53.0222 64.6984 52.9318 64.6988 52.8391C64.6985 52.7302 64.661 52.6256 64.594 52.5465C64.3783 52.7352 64.1736 52.9392 63.9814 53.1573V53.1573Z" fill="#455A64"/>
<path d="M66.8442 52.8397C66.8468 52.9553 66.8185 53.0692 66.7629 53.1667C66.7072 53.2643 66.6268 53.3411 66.5319 53.3874C66.437 53.4337 66.3319 53.4473 66.23 53.4265C66.1281 53.4058 66.0341 53.3516 65.9599 53.2708C65.8858 53.1901 65.8348 53.0865 65.8137 52.9733C65.7925 52.8601 65.802 52.7424 65.841 52.6353C65.88 52.5282 65.9467 52.4365 66.0326 52.3719C66.1186 52.3073 66.2198 52.2728 66.3233 52.2728C66.3909 52.2718 66.4579 52.2857 66.5207 52.3137C66.5834 52.3417 66.6406 52.3831 66.6889 52.4358C66.7373 52.4884 66.7759 52.5512 66.8025 52.6205C66.8292 52.6898 66.8433 52.7643 66.8442 52.8397V52.8397Z" fill="white"/>
<path d="M66.0222 53.1573C66.0799 53.2239 66.1539 53.2699 66.2351 53.2895C66.3162 53.3091 66.4006 53.3013 66.4778 53.2672C66.555 53.2332 66.6213 53.1743 66.6685 53.0981C66.7157 53.0219 66.7416 52.9317 66.7429 52.8391C66.741 52.7306 66.7037 52.6265 66.638 52.5465C66.4206 52.7343 66.2148 52.9384 66.0222 53.1573Z" fill="#455A64"/>
<path d="M68.885 52.8397C68.8876 52.9553 68.8593 53.0692 68.8037 53.1667C68.748 53.2643 68.6676 53.3411 68.5727 53.3874C68.4778 53.4337 68.3727 53.4473 68.2708 53.4265C68.1689 53.4058 68.0749 53.3516 68.0007 53.2708C67.9266 53.1901 67.8756 53.0865 67.8545 52.9733C67.8333 52.8601 67.8428 52.7424 67.8818 52.6353C67.9208 52.5282 67.9875 52.4365 68.0734 52.3719C68.1594 52.3073 68.2606 52.2728 68.3641 52.2728C68.4317 52.2718 68.4987 52.2857 68.5615 52.3137C68.6242 52.3417 68.6814 52.3831 68.7297 52.4358C68.7781 52.4884 68.8167 52.5512 68.8433 52.6205C68.87 52.6898 68.8841 52.7643 68.885 52.8397Z" fill="white"/>
<path d="M68.0623 53.1573C68.1015 53.2023 68.1483 53.2381 68.2001 53.2625C68.2518 53.287 68.3074 53.2998 68.3636 53.3C68.4183 53.3005 68.4724 53.2889 68.5231 53.266C68.5737 53.2431 68.6198 53.2093 68.6588 53.1665C68.6977 53.1237 68.7287 53.0728 68.75 53.0166C68.7713 52.9604 68.7825 52.9001 68.7829 52.8391C68.781 52.7306 68.7438 52.6265 68.6781 52.5465C68.4614 52.7352 68.2557 52.9392 68.0623 53.1573Z" fill="#455A64"/>
<path d="M70.9258 52.8397C70.9284 52.9553 70.9001 53.0692 70.8445 53.1667C70.7888 53.2643 70.7084 53.3411 70.6135 53.3874C70.5186 53.4337 70.4135 53.4473 70.3116 53.4265C70.2097 53.4058 70.1157 53.3516 70.0415 53.2708C69.9674 53.1901 69.9164 53.0865 69.8953 52.9733C69.8741 52.8601 69.8836 52.7424 69.9226 52.6353C69.9616 52.5282 70.0283 52.4365 70.1143 52.3719C70.2002 52.3073 70.3014 52.2728 70.4049 52.2728C70.4725 52.2718 70.5395 52.2857 70.6023 52.3137C70.665 52.3417 70.7222 52.3831 70.7705 52.4358C70.8189 52.4884 70.8575 52.5512 70.8841 52.6205C70.9108 52.6898 70.9249 52.7643 70.9258 52.8397V52.8397Z" fill="white"/>
<path d="M70.1066 53.1573C70.145 53.2025 70.1912 53.2385 70.2425 53.263C70.2938 53.2875 70.349 53.3001 70.4047 53.3C70.4594 53.3005 70.5136 53.2889 70.5642 53.266C70.6148 53.2431 70.6609 53.2093 70.6999 53.1665C70.7388 53.1237 70.7698 53.0728 70.7911 53.0166C70.8124 52.9604 70.8236 52.9001 70.824 52.8391C70.8221 52.7306 70.7849 52.6265 70.7192 52.5465C70.5028 52.7343 70.2981 52.9384 70.1066 53.1573V53.1573Z" fill="#455A64"/>
<path d="M72.9688 52.8397C72.972 52.9562 72.9441 53.0711 72.8885 53.1697C72.8329 53.2683 72.7523 53.3462 72.6568 53.3933C72.5614 53.4404 72.4555 53.4546 72.3528 53.4342C72.2501 53.4137 72.1552 53.3595 72.0802 53.2784C72.0053 53.1973 71.9537 53.0931 71.9321 52.9791C71.9105 52.8651 71.9199 52.7465 71.959 52.6385C71.9982 52.5305 72.0653 52.438 72.1518 52.3728C72.2383 52.3077 72.3403 52.2728 72.4447 52.2728C72.5814 52.2708 72.7132 52.3293 72.8114 52.4356C72.9096 52.5418 72.9662 52.6871 72.9688 52.8397V52.8397Z" fill="white"/>
<path d="M72.1474 53.1573C72.1858 53.2025 72.232 53.2385 72.2833 53.263C72.3346 53.2875 72.3898 53.3001 72.4455 53.3C72.5002 53.3005 72.5544 53.2889 72.605 53.266C72.6556 53.2431 72.7017 53.2093 72.7407 53.1665C72.7796 53.1237 72.8106 53.0728 72.8319 53.0166C72.8532 52.9604 72.8644 52.9001 72.8648 52.8391C72.8629 52.7306 72.8257 52.6265 72.76 52.5465C72.5443 52.7352 72.3397 52.9392 72.1474 53.1573V53.1573Z" fill="#455A64"/>
<path d="M75.0103 52.8397C75.0135 52.9564 74.9855 53.0714 74.9298 53.1701C74.8741 53.2688 74.7932 53.3467 74.6976 53.3937C74.602 53.4407 74.4959 53.4547 74.3931 53.4339C74.2903 53.4132 74.1954 53.3585 74.1206 53.2771C74.0457 53.1956 73.9944 53.0911 73.9732 52.9769C73.952 52.8626 73.9618 52.7439 74.0015 52.6359C74.0411 52.528 74.1088 52.4357 74.1957 52.371C74.2827 52.3063 74.3849 52.2721 74.4894 52.2728C74.557 52.2718 74.624 52.2857 74.6868 52.3137C74.7495 52.3417 74.8067 52.3831 74.855 52.4358C74.9034 52.4884 74.942 52.5512 74.9686 52.6205C74.9953 52.6898 75.0094 52.7643 75.0103 52.8397V52.8397Z" fill="white"/>
<path d="M74.1882 53.1573C74.2455 53.2245 74.3194 53.271 74.4004 53.2908C74.4815 53.3107 74.5661 53.303 74.6432 53.2688C74.7203 53.2346 74.7866 53.1754 74.8333 53.0988C74.8801 53.0222 74.9053 52.9318 74.9056 52.8391C74.9053 52.7302 74.8678 52.6256 74.8008 52.5465C74.5851 52.7352 74.3805 52.9392 74.1882 53.1573Z" fill="#455A64"/>
<path d="M77.0517 52.8397C77.0543 52.9553 77.026 53.0692 76.9704 53.1667C76.9148 53.2643 76.8344 53.3411 76.7394 53.3874C76.6445 53.4337 76.5394 53.4473 76.4375 53.4265C76.3357 53.4058 76.2416 53.3516 76.1675 53.2708C76.0933 53.1901 76.0424 53.0865 76.0212 52.9733C76 52.8601 76.0095 52.7424 76.0485 52.6353C76.0876 52.5282 76.1543 52.4365 76.2402 52.3719C76.3261 52.3073 76.4273 52.2728 76.5309 52.2728C76.5984 52.2718 76.6655 52.2857 76.7282 52.3137C76.7909 52.3417 76.8481 52.3831 76.8965 52.4358C76.9448 52.4884 76.9834 52.5512 77.0101 52.6205C77.0367 52.6898 77.0509 52.7643 77.0517 52.8397Z" fill="white"/>
<path d="M76.229 53.1573C76.2867 53.2239 76.3608 53.2699 76.4419 53.2895C76.523 53.3091 76.6075 53.3013 76.6847 53.2672C76.7618 53.2332 76.8282 53.1743 76.8754 53.0981C76.9226 53.0219 76.9484 52.9317 76.9497 52.8391C76.9478 52.7306 76.9105 52.6265 76.8449 52.5465C76.6275 52.7343 76.4217 52.9384 76.229 53.1573Z" fill="#455A64"/>
<path d="M79.0918 52.8397C79.0944 52.9553 79.0661 53.0692 79.0105 53.1667C78.9549 53.2643 78.8745 53.3411 78.7796 53.3874C78.6846 53.4337 78.5795 53.4473 78.4776 53.4265C78.3758 53.4058 78.2817 53.3516 78.2076 53.2708C78.1334 53.1901 78.0825 53.0865 78.0613 52.9733C78.0401 52.8601 78.0496 52.7424 78.0887 52.6353C78.1277 52.5282 78.1944 52.4365 78.2803 52.3719C78.3662 52.3073 78.4674 52.2728 78.571 52.2728C78.6385 52.2718 78.7056 52.2857 78.7683 52.3137C78.831 52.3417 78.8882 52.3831 78.9366 52.4358C78.9849 52.4884 79.0236 52.5512 79.0502 52.6205C79.0768 52.6898 79.091 52.7643 79.0918 52.8397V52.8397Z" fill="white"/>
<path d="M78.2599 53.1573C78.2991 53.2023 78.3459 53.2381 78.3977 53.2625C78.4494 53.287 78.505 53.2998 78.5612 53.3C78.6159 53.3005 78.67 53.2889 78.7207 53.266C78.7713 53.2431 78.8174 53.2093 78.8564 53.1665C78.8953 53.1237 78.9263 53.0728 78.9476 53.0166C78.9689 52.9604 78.9801 52.9001 78.9805 52.8391C78.9786 52.7306 78.9414 52.6265 78.8757 52.5465C78.659 52.7352 78.4533 52.9392 78.2599 53.1573V53.1573Z" fill="#455A64"/>
<path d="M81.1326 52.8397C81.1352 52.9553 81.1069 53.0692 81.0513 53.1667C80.9957 53.2643 80.9153 53.3411 80.8204 53.3874C80.7254 53.4337 80.6203 53.4473 80.5184 53.4265C80.4166 53.4058 80.3225 53.3516 80.2484 53.2708C80.1742 53.1901 80.1233 53.0865 80.1021 52.9733C80.0809 52.8601 80.0904 52.7424 80.1294 52.6353C80.1685 52.5282 80.2352 52.4365 80.3211 52.3719C80.407 52.3073 80.5082 52.2728 80.6118 52.2728C80.6793 52.2718 80.7464 52.2857 80.8091 52.3137C80.8718 52.3417 80.929 52.3831 80.9774 52.4358C81.0258 52.4884 81.0644 52.5512 81.091 52.6205C81.1176 52.6898 81.1318 52.7643 81.1326 52.8397V52.8397Z" fill="white"/>
<path d="M80.3142 53.1573C80.3526 53.2025 80.3988 53.2385 80.4501 53.263C80.5013 53.2875 80.5565 53.3001 80.6123 53.3C80.6669 53.3005 80.7211 53.2889 80.7718 53.266C80.8224 53.2431 80.8685 53.2093 80.9075 53.1665C80.9464 53.1237 80.9774 53.0728 80.9987 53.0166C81.02 52.9604 81.0312 52.9001 81.0316 52.8391C81.0297 52.7306 80.9924 52.6265 80.9268 52.5465C80.7104 52.7343 80.5057 52.9384 80.3142 53.1573V53.1573Z" fill="#455A64"/>
<path d="M83.1742 52.8397C83.1775 52.9562 83.1495 53.0711 83.0939 53.1697C83.0384 53.2683 82.9577 53.3462 82.8623 53.3933C82.7668 53.4404 82.6609 53.4546 82.5582 53.4342C82.4555 53.4137 82.3606 53.3595 82.2856 53.2784C82.2107 53.1973 82.1591 53.0931 82.1375 52.9791C82.1159 52.8651 82.1253 52.7465 82.1645 52.6385C82.2036 52.5305 82.2707 52.438 82.3572 52.3728C82.4438 52.3077 82.5457 52.2728 82.6501 52.2728C82.7868 52.2708 82.9186 52.3293 83.0168 52.4356C83.115 52.5418 83.1716 52.6871 83.1742 52.8397V52.8397Z" fill="white"/>
<path d="M82.355 53.1573C82.3934 53.2025 82.4396 53.2385 82.4909 53.263C82.5421 53.2875 82.5973 53.3001 82.6531 53.3C82.7077 53.3005 82.7619 53.2889 82.8126 53.266C82.8632 53.2431 82.9093 53.2093 82.9483 53.1665C82.9872 53.1237 83.0182 53.0728 83.0395 53.0166C83.0608 52.9604 83.072 52.9001 83.0724 52.8391C83.0705 52.7306 83.0332 52.6265 82.9676 52.5465C82.7519 52.7352 82.5473 52.9392 82.355 53.1573V53.1573Z" fill="#455A64"/>
<path d="M51.0838 23.4668C48.0456 26.6493 40.2533 29.8318 31.187 36.6073C31.187 36.6073 31.7571 59.5213 51.0838 72.0316V23.4668Z" fill="#92E3A9" stroke="#455A64" stroke-linecap="round" stroke-linejoin="round"/>
<path d="M51.0833 23.4668C54.1243 26.6493 61.9138 29.8318 70.9829 36.6073C70.9829 36.6073 70.4129 59.5213 51.0833 72.0316V23.4668Z" fill="#455A64" stroke="#455A64" stroke-linecap="round" stroke-linejoin="round"/>
<path d="M51.0837 25.4171C47.407 28.2622 41.0541 30.9705 32.6462 37.2528C32.6462 37.2528 33.1735 58.48 51.0837 70.0834C68.9968 58.48 69.5241 37.2528 69.5241 37.2528C61.1162 30.9705 54.7832 28.2622 51.0837 25.4171Z" fill="#455A64" stroke="#455A64" stroke-linecap="round" stroke-linejoin="round"/>
<path d="M69.5236 37.2528C61.1157 30.9737 54.7827 28.2622 51.0833 25.4171V70.0834C68.9964 58.48 69.5236 37.2528 69.5236 37.2528Z" fill="#92E3A9" stroke="#455A64" stroke-linecap="round" stroke-linejoin="round"/>
<path d="M58.07 46.8061H44.3295C44.0311 46.8062 43.7445 46.6756 43.5314 46.4423C43.3182 46.2091 43.1955 45.8918 43.1895 45.5586V38.4807C43.1895 33.6529 46.7835 29.7225 51.2012 29.7225C55.6189 29.7225 59.2158 33.6529 59.2158 38.4807V45.5586C59.2098 45.8929 59.0863 46.2111 58.8719 46.4446C58.6575 46.678 58.3695 46.8079 58.07 46.8061ZM45.4696 44.3238H56.9271V38.4807C56.9271 36.7842 56.3236 35.1571 55.2492 33.9575C54.1749 32.7579 52.7177 32.0839 51.1984 32.0839C49.679 32.0839 48.2219 32.7579 47.1475 33.9575C46.0732 35.1571 45.4696 36.7842 45.4696 38.4807V44.3238Z" fill="white" stroke="#455A64" stroke-linecap="round" stroke-linejoin="round"/>
<path d="M59.8304 43.4029H42.3362V59.5636H59.8304V43.4029Z" fill="#92E3A9" stroke="#455A64" stroke-linecap="round" stroke-linejoin="round"/>
<path d="M52.9044 50.1144C52.8854 49.5644 52.6763 49.044 52.321 48.6624C51.9658 48.2808 51.492 48.0676 50.9991 48.0676C50.5062 48.0676 50.0324 48.2808 49.6771 48.6624C49.3219 49.044 49.1128 49.5644 49.0938 50.1144C49.0953 50.4927 49.1893 50.8633 49.3656 51.1864C49.5419 51.5094 49.7938 51.7726 50.0942 51.9475L49.775 55.6169H52.2232L51.904 51.9475C52.2044 51.7726 52.4563 51.5094 52.6326 51.1864C52.8089 50.8633 52.9029 50.4927 52.9044 50.1144V50.1144Z" fill="#455A64" stroke="#455A64" stroke-linecap="round" stroke-linejoin="round"/>
</g>
</svg>
