<svg width="101" height="101" viewBox="0 0 101 101" fill="none" xmlns="http://www.w3.org/2000/svg">
<circle cx="50.5" cy="50.9375" r="50" fill="#33CC33" fill-opacity="0.3"/>
<mask id="mask0_7_5" style="mask-type:alpha" maskUnits="userSpaceOnUse" x="0" y="0" width="101" height="101">
<circle cx="50.5" cy="50.9375" r="50" fill="#33CC33"/>
</mask>
<g mask="url(#mask0_7_5)">
<rect x="26.046" y="24.01" width="13.9459" height="13.9459" rx="6.97295" transform="rotate(-56.2153 26.046 24.01)" fill="white"/>
<g clip-path="url(#clip0_7_5)">
<rect x="24.2174" y="24.3726" width="16.5823" height="16.5823" rx="8.29114" transform="rotate(-56.2153 24.2174 24.3726)" fill="#EBEBEB"/>
<path d="M40.6588 21.276C39.9402 20.271 38.9756 19.9635 38.0505 20.2024C38.3511 19.5179 38.2845 18.6914 37.7155 17.8965C37.0073 16.9045 35.9348 16.6012 34.6834 17.112L33.8096 15.8926L32.6379 16.697L33.4485 17.8309L32.7831 18.2893L31.9737 17.159L30.8007 17.9658L31.6113 19.0998L30.5451 19.8336L29.7987 20.3342L30.6037 21.4639L31.3465 20.9522L35.2645 26.4315L34.4424 26.9972L35.2481 28.1226L36.0702 27.5569L37.1383 26.8225L38.0831 28.145L39.2548 27.3407L38.3099 26.0181L38.9754 25.5598L39.9202 26.8823L41.0931 26.0755L40.1159 24.7045C41.3114 23.622 41.4756 22.4161 40.6588 21.276ZM32.8332 19.9325L34.421 18.8416C35.3013 18.2348 36.055 18.2462 36.5618 18.9656C37.0687 19.6849 36.8204 20.3688 35.9472 20.9713L34.1466 22.21L32.6204 20.0803L32.8332 19.9325ZM38.601 24.143L36.6815 25.4628L36.5453 25.5554L34.9412 23.3206L37.0064 21.9052C37.964 21.245 38.7283 21.2307 39.2801 22.0047C39.8318 22.7787 39.5517 23.481 38.5884 24.143L38.601 24.143Z" fill="white"/>
</g>
<rect x="12.568" y="65.0399" width="12.7304" height="12.7304" rx="6.36521" transform="rotate(23.7079 12.568 65.0399)" fill="white"/>
<g clip-path="url(#clip1_7_5)">
<rect x="11.8607" y="63.2249" width="15.4852" height="15.4852" rx="7.7426" transform="rotate(23.7079 11.8607 63.2249)" fill="#EBEBEB"/>
<path d="M17.3609 77.7414C18.1502 76.9342 18.2727 76.0171 17.9098 75.2229C18.5737 75.3839 19.3067 75.1918 19.9309 74.5528C20.7103 73.757 20.8117 72.7435 20.152 71.6992L21.1094 70.718L20.1983 69.7925L19.3077 70.7031L18.7889 70.1776L19.6764 69.2687L18.763 68.3423L17.8723 69.2529L17.0416 68.4109L16.4718 67.8195L15.5841 68.7244L16.1633 69.3109L11.8597 73.7122L11.2192 73.063L10.3355 73.9679L10.9759 74.617L11.8075 75.4606L10.7686 76.5222L11.6797 77.4478L12.7186 76.3862L13.2374 76.9117L12.1985 77.9732L13.1119 78.8996L14.1893 77.8011C15.3544 78.7037 16.4657 78.6586 17.3609 77.7414ZM17.3185 70.4855L18.5539 71.7397C19.2406 72.4347 19.3508 73.1146 18.7846 73.6857C18.2184 74.2568 17.5634 74.1428 16.8817 73.4534L15.4792 72.0313L17.1514 70.3176L17.3185 70.4855ZM14.4523 76.3483L12.9579 74.8322L12.8528 74.7246L14.607 72.9239L16.2108 74.5557C16.9579 75.3118 17.0929 75.9972 16.4848 76.6174C15.8766 77.2376 15.1999 77.0978 14.4502 76.337L14.4523 76.3483Z" fill="white"/>
</g>
<rect x="87.0206" y="58.4706" width="12.7304" height="12.7304" rx="6.36521" transform="rotate(23.7079 87.0206 58.4706)" fill="white"/>
<g clip-path="url(#clip2_7_5)">
<rect x="86.3132" y="56.6556" width="15.4852" height="15.4852" rx="7.7426" transform="rotate(23.7079 86.3132 56.6556)" fill="#EBEBEB"/>
<path d="M91.8135 71.1721C92.6028 70.3648 92.7253 69.4478 92.3623 68.6536C93.0262 68.8146 93.7593 68.6225 94.3835 67.9834C95.1629 67.1877 95.2643 66.1742 94.6046 65.1299L95.562 64.1487L94.6509 63.2231L93.7602 64.1337L93.2415 63.6083L94.129 62.6993L93.2155 61.773L92.3249 62.6836L91.4941 61.8416L90.9243 61.2501L90.0366 62.155L90.6158 62.7415L86.3122 67.1428L85.6718 66.4937L84.7881 67.3985L85.4285 68.0477L86.2601 68.8913L85.2212 69.9529L86.1323 70.8785L87.1711 69.8169L87.6899 70.3423L86.651 71.4039L87.5645 72.3303L88.6419 71.2317C89.807 72.1343 90.9182 72.0892 91.8135 71.1721ZM91.771 63.9162L93.0064 65.1704C93.6931 65.8653 93.8033 66.5453 93.2372 67.1164C92.671 67.6874 92.016 67.5734 91.3343 66.8841L89.9318 65.462L91.6039 63.7483L91.771 63.9162ZM88.9048 69.779L87.4105 68.2629L87.3053 68.1552L89.0596 66.3546L90.6633 67.9864C91.4104 68.7424 91.5455 69.4278 90.9373 70.048C90.3292 70.6683 89.6525 70.5285 88.9028 69.7676L88.9048 69.779Z" fill="white"/>
</g>
<path d="M92.197 26.5019C92.197 26.5019 92.197 26.4787 92.197 26.435V26.2431C92.197 26.0658 92.197 25.8215 92.197 25.5046C92.197 24.859 92.197 23.9315 92.1737 22.7596L92.2173 22.8032L78.071 22.8323L78.1437 22.7596V23.725C78.1437 24.0419 78.1437 24.356 78.1437 24.67V26.5106L78.0739 26.4409L88.1552 26.4728L91.1298 26.4932H91.9353H92.1446H92.2202H92.1562H91.9527H91.1647L88.2046 26.5135L78.0739 26.5455H78.0042V26.4757C78.0042 25.8748 78.0042 25.2613 78.0042 24.6351V22.7654L78.0768 22.6927L92.2231 22.7218H92.2667V22.7654C92.2667 23.946 92.2493 24.8852 92.2435 25.5365C92.2435 25.8477 92.2435 26.089 92.2435 26.2635V26.4496C92.1999 26.4845 92.1999 26.5019 92.197 26.5019Z" fill="#33CC33"/>
<path d="M62.9999 11.9034C62.9999 11.9034 62.9999 11.8801 62.9999 11.8365V11.6446C62.9999 11.4672 62.9999 11.223 62.9999 10.906C62.9999 10.2605 62.9999 9.33291 62.9766 8.16108L63.0202 8.2047L48.8739 8.23377L48.9466 8.16108V9.12646C48.9466 9.44341 48.9466 9.75745 48.9466 10.0715V11.9121L48.8769 11.8423L58.9581 11.8743L61.9327 11.8947H62.7382H62.9475H63.0231H62.9592H62.7556H61.9676L59.0075 11.915L48.8769 11.947H48.8071V11.8772C48.8071 11.2763 48.8071 10.6627 48.8071 10.0366V8.1669L48.8798 8.09421L63.026 8.12328H63.0697V8.1669C63.0697 9.34745 63.0522 10.2867 63.0464 10.938C63.0464 11.2491 63.0464 11.4905 63.0464 11.6649V11.851C63.0028 11.8859 63.0028 11.9034 62.9999 11.9034Z" fill="#33CC33"/>
<path d="M62.9999 33.8012C62.9999 33.8012 62.9999 33.7779 62.9999 33.7343V33.5424C62.9999 33.365 62.9999 33.1208 62.9999 32.8038C62.9999 32.1583 62.9999 31.2307 62.9766 30.0589L63.0202 30.1025L48.8739 30.1316L48.9466 30.0589V31.0243C48.9466 31.3412 48.9466 31.6553 48.9466 31.9693V33.8099L48.8769 33.7401L58.9581 33.7721L61.9327 33.7925H62.7382H62.9475H63.0231H62.9592H62.7556H61.9676L59.0075 33.8128L48.8769 33.8448H48.8071V33.775C48.8071 33.1741 48.8071 32.5605 48.8071 31.9344V30.0647L48.8798 29.992L63.026 30.0211H63.0697V30.0647C63.0697 31.2453 63.0522 32.1845 63.0464 32.8358C63.0464 33.1469 63.0464 33.3883 63.0464 33.5628V33.7488C63.0028 33.7837 63.0028 33.8012 62.9999 33.8012Z" fill="#33CC33"/>
<path d="M11.905 33.8012C11.905 33.8012 11.905 33.7779 11.905 33.7343V33.5424C11.905 33.365 11.905 33.1208 11.905 32.8038C11.905 32.1583 11.905 31.2307 11.8817 30.0589L11.9253 30.1025L-2.22096 30.1316L-2.14827 30.0589V31.0243C-2.14827 31.3412 -2.14827 31.6553 -2.14827 31.9693V33.8099L-2.21805 33.7401L7.86317 33.7721L10.8378 33.7925H11.6433H11.8526H11.9282H11.8643H11.6607H10.8727L7.9126 33.8128L-2.21805 33.8448H-2.28784V33.775C-2.28784 33.1741 -2.28784 32.5605 -2.28784 31.9344V30.0647L-2.21515 29.992L11.9311 30.0211H11.9747V30.0647C11.9747 31.2453 11.9573 32.1845 11.9515 32.8358C11.9515 33.1469 11.9515 33.3883 11.9515 33.5628V33.7488C11.9079 33.7837 11.9079 33.8012 11.905 33.8012Z" fill="#33CC33"/>
<path d="M11.905 55.699C11.905 55.699 11.905 55.6757 11.905 55.6321V55.4402C11.905 55.2628 11.905 55.0186 11.905 54.7016C11.905 54.0561 11.905 53.1285 11.8817 51.9567L11.9253 52.0003L-2.22096 52.0294L-2.14827 51.9567V52.9221C-2.14827 53.239 -2.14827 53.5531 -2.14827 53.8671V55.7077L-2.21805 55.6379L7.86317 55.6699L10.8378 55.6903H11.6433H11.8526H11.9282H11.8643H11.6607H10.8727L7.9126 55.7106L-2.21805 55.7426H-2.28784V55.6728C-2.28784 55.0719 -2.28784 54.4584 -2.28784 53.8322V51.9625L-2.21515 51.8898L11.9311 51.9189H11.9747V51.9625C11.9747 53.1431 11.9573 54.0823 11.9515 54.7336C11.9515 55.0448 11.9515 55.2861 11.9515 55.4606V55.6467C11.9079 55.6816 11.9079 55.699 11.905 55.699Z" fill="#33CC33"/>
<path d="M99.4962 55.699C99.4962 55.699 99.4962 55.6757 99.4962 55.6321V55.4402C99.4962 55.2628 99.4962 55.0186 99.4962 54.7016C99.4962 54.0561 99.4962 53.1285 99.4729 51.9567L99.5166 52.0003L85.3703 52.0294L85.443 51.9567V52.9221C85.443 53.239 85.443 53.5531 85.443 53.8671V55.7077L85.3732 55.6379L95.4544 55.6699L98.4291 55.6903H99.2345H99.4439H99.5195H99.4555H99.252H98.464L95.5038 55.7106L85.3732 55.7426H85.3034V55.6728C85.3034 55.0719 85.3034 54.4584 85.3034 53.8322V51.9625L85.3761 51.8898L99.5224 51.9189H99.566V51.9625C99.566 53.1431 99.5486 54.0823 99.5427 54.7336C99.5427 55.0448 99.5427 55.2861 99.5427 55.4606V55.6467C99.4991 55.6816 99.4991 55.699 99.4962 55.699Z" fill="#33CC33"/>
<path d="M104.557 56.2778L62.2159 43.0982C61.6934 42.9354 61.2569 42.5719 61.0022 42.0875C60.7475 41.6032 60.6954 41.0376 60.8573 40.5148L69.0013 14.3599C69.1636 13.8377 69.5266 13.4012 70.0106 13.1465C70.4945 12.8917 71.0598 12.8396 71.5823 13.0014L113.925 26.1834C114.447 26.3467 114.882 26.7101 115.136 27.194C115.39 27.6778 115.441 28.2426 115.279 28.7643L107.138 54.9217C106.974 55.4431 106.611 55.8786 106.127 56.1327C105.643 56.3869 105.079 56.439 104.557 56.2778V56.2778Z" fill="#E0E0E0"/>
<path d="M67.7179 32.912L66.9159 35.4881L66.6534 35.4055L67.3825 33.0724L66.775 32.8828L66.8503 32.6398L67.7179 32.912Z" fill="white"/>
<path d="M69.6366 36.074L69.5613 36.317L67.7604 35.7556L67.8188 35.5685L69.2113 34.8539C69.5905 34.6595 69.6974 34.504 69.7557 34.3266C69.8481 34.0301 69.695 33.7822 69.3037 33.6582C69.1749 33.61 69.0369 33.5911 68.8999 33.6029C68.7628 33.6147 68.6301 33.6568 68.5114 33.7263L68.3753 33.5076C68.5296 33.4192 68.7014 33.3658 68.8786 33.3511C69.0559 33.3364 69.2341 33.3608 69.4009 33.4225C69.921 33.5853 70.1689 33.9523 70.0352 34.3946C69.9599 34.6376 69.814 34.8369 69.3644 35.0678L68.2222 35.6535L69.6366 36.074Z" fill="white"/>
<path d="M72.4762 36.4752L71.961 36.3148L71.752 36.9904L71.4871 36.9078L71.6985 36.2346L70.2403 35.7826L70.3181 35.5833L72.2089 34.305L72.5029 34.3973L70.6729 35.6465L71.7884 35.994L71.9731 35.3986L72.2307 35.4788L72.0436 36.0742L72.5588 36.2346L72.4762 36.4752Z" fill="white"/>
<path d="M76.4148 37.7078L75.902 37.5474L75.6906 38.223L75.4233 38.1404L75.6347 37.4648L74.1765 37.0128L74.2373 36.8232L76.128 35.5424L76.4221 35.6348L74.5921 36.8839L75.7076 37.2315L75.8923 36.6385L76.1499 36.7163L75.9652 37.3117L76.478 37.4721L76.4148 37.7078Z" fill="white"/>
<path d="M78.6842 38.3181C78.5481 38.7555 78.1374 39.001 77.5104 38.8041C77.1691 38.7094 76.8764 38.4888 76.6913 38.1868L76.8858 38.0167C77.0377 38.2813 77.2872 38.4759 77.5808 38.5587C78.0183 38.6948 78.3099 38.5587 78.4144 38.2427C78.5189 37.9268 78.3731 37.6424 77.7218 37.4407L77.175 37.2706L77.7072 36.0214L79.1144 36.4589L79.039 36.7019L77.8652 36.3374L77.5225 37.1272L77.853 37.2293C78.6283 37.4675 78.8252 37.8636 78.6842 38.3181Z" fill="white"/>
<path d="M81.2284 39.1007C81.0777 39.5867 80.6038 39.7714 80.1032 39.6159C79.4227 39.4044 79.1991 38.8139 79.4518 38.0022C79.7216 37.1297 80.3413 36.8235 81.0388 37.03C81.2538 37.0874 81.4494 37.2016 81.6051 37.3606L81.4325 37.5404C81.3094 37.4045 81.1487 37.3081 80.9708 37.2634C80.4167 37.0908 79.9501 37.3363 79.7313 38.0338C79.7143 38.0921 79.6949 38.1674 79.6779 38.2452C79.7959 38.1261 79.9463 38.0441 80.1105 38.0096C80.2746 37.975 80.4453 37.9893 80.6014 38.0508C81.1117 38.2185 81.3742 38.6292 81.2284 39.1007ZM80.9635 39.0253C81.0704 38.6875 80.8882 38.3934 80.4896 38.2695C80.4117 38.2355 80.3277 38.2178 80.2427 38.2175C80.1577 38.2172 80.0736 38.2343 79.9955 38.2678C79.9174 38.3013 79.847 38.3504 79.7886 38.4121C79.7302 38.4739 79.6851 38.5469 79.656 38.6268C79.5685 38.9087 79.7192 39.2489 80.1639 39.3874C80.2396 39.4214 80.3217 39.4389 80.4047 39.4388C80.4877 39.4386 80.5697 39.4208 80.6453 39.3866C80.7209 39.3524 80.7884 39.3024 80.8432 39.2402C80.8981 39.1779 80.9391 39.1046 80.9635 39.0253V39.0253Z" fill="white"/>
<path d="M84.7329 40.2271C84.5992 40.6573 84.1837 40.8906 83.5639 40.6962C83.2219 40.6017 82.9283 40.3811 82.7425 40.0789L82.9369 39.9087C83.09 40.1758 83.3425 40.3714 83.6393 40.4531C84.0646 40.5868 84.3684 40.4531 84.4607 40.142C84.5531 39.831 84.4048 39.5636 83.926 39.413L83.7438 39.3571L83.8045 39.1626L84.7937 38.4919L83.4789 38.0836L83.5518 37.8405L85.2044 38.3558L85.1461 38.5429L84.1351 39.2331C84.677 39.4397 84.8617 39.8164 84.7329 40.2271Z" fill="white"/>
<path d="M87.3315 41.004C87.1808 41.4901 86.7069 41.6748 86.2087 41.5193C85.5258 41.3078 85.3022 40.7173 85.5549 39.908C85.8271 39.0331 86.4444 38.7269 87.1419 38.9359C87.3574 38.9921 87.5533 39.1064 87.7082 39.2664L87.5356 39.4462C87.4123 39.3105 87.2517 39.2141 87.0739 39.1692C86.5198 38.9966 86.0532 39.2421 85.8369 39.9396C85.8144 40.0088 85.7966 40.0794 85.7834 40.151C85.9014 40.0326 86.0514 39.9512 86.215 39.9166C86.3786 39.8821 86.5487 39.896 86.7045 39.9566C87.2027 40.1218 87.4652 40.5326 87.3315 41.004ZM87.069 40.9287C87.1735 40.5909 86.9913 40.2968 86.5951 40.1753C86.5173 40.1409 86.4332 40.1227 86.348 40.1221C86.2629 40.1214 86.1786 40.1382 86.1002 40.1715C86.0218 40.2048 85.9511 40.2538 85.8924 40.3154C85.8338 40.3771 85.7884 40.4502 85.7591 40.5301C85.6716 40.8121 85.8223 41.1547 86.267 41.2933C86.3419 41.325 86.4224 41.3409 86.5037 41.34C86.585 41.3391 86.6652 41.3215 86.7394 41.2882C86.8135 41.2549 86.88 41.2066 86.9346 41.1464C86.9892 41.0862 87.0309 41.0154 87.0569 40.9384L87.069 40.9287Z" fill="white"/>
<path d="M90.2477 39.93L90.1894 40.1172L88.3715 42.1635L88.0872 42.076L89.871 40.071L88.549 39.6579L88.3983 40.1439L88.1382 40.0637L88.3618 39.3346L90.2477 39.93Z" fill="white"/>
<path d="M93.9145 41.0731L93.8561 41.2602L92.0407 43.309L91.7539 43.219L93.5378 41.214L92.2157 40.8033L92.0674 41.2894L91.805 41.2067L92.0286 40.4922L93.9145 41.0731Z" fill="white"/>
<path d="M95.8665 43.7205C95.7255 44.175 95.2516 44.3378 94.6392 44.1483C94.0267 43.9587 93.7351 43.5553 93.8785 43.1008C93.92 42.9528 94.0114 42.8236 94.1371 42.735C94.2629 42.6465 94.4153 42.604 94.5687 42.6148C94.4611 42.5399 94.3808 42.4321 94.34 42.3075C94.2993 42.183 94.3002 42.0485 94.3427 41.9246C94.4715 41.5041 94.9089 41.3559 95.4533 41.5236C95.9977 41.6912 96.2772 42.0679 96.1484 42.4957C96.1103 42.6221 96.0325 42.7328 95.9266 42.8116C95.8207 42.8904 95.6922 42.933 95.5602 42.9331C95.6929 43.0104 95.7954 43.1303 95.851 43.2733C95.9066 43.4163 95.9121 43.574 95.8665 43.7205ZM95.5967 43.6331C95.6939 43.3171 95.4849 43.0328 95.0304 42.8918C94.576 42.7509 94.2455 42.8651 94.1458 43.181C94.0462 43.497 94.2527 43.7813 94.7096 43.9223C95.1665 44.0632 95.4971 43.9514 95.5943 43.6331H95.5967ZM95.0936 42.6828C95.4946 42.8068 95.7887 42.7023 95.8762 42.4228C95.9637 42.1433 95.7692 41.8784 95.3901 41.7569C95.011 41.6353 94.6999 41.7374 94.6124 42.0218C94.5249 42.3061 94.6951 42.5589 95.0936 42.6828V42.6828Z" fill="white"/>
<path d="M98.5472 43.8987C98.275 44.7736 97.6553 45.0798 96.9578 44.8708C96.7428 44.8134 96.5472 44.6993 96.3915 44.5403L96.5641 44.3604C96.6888 44.4944 96.8489 44.5905 97.0259 44.6375C97.58 44.81 98.0466 44.5646 98.2653 43.8671C98.2823 43.8088 98.3018 43.7334 98.3188 43.6556C98.2004 43.7743 98.05 43.8558 97.886 43.8903C97.7219 43.9249 97.5514 43.9109 97.3953 43.8501C96.8849 43.6921 96.6224 43.2789 96.7707 42.8099C96.9189 42.3409 97.3928 42.1391 97.8935 42.2947C98.5764 42.4988 98.7975 43.087 98.5472 43.8987ZM98.3406 43.2765C98.4306 42.9946 98.2775 42.6519 97.8351 42.5134C97.759 42.4799 97.6767 42.4628 97.5935 42.4632C97.5104 42.4637 97.4283 42.4817 97.3525 42.5162C97.2768 42.5506 97.2092 42.6006 97.1542 42.6629C97.0992 42.7253 97.0579 42.7986 97.0331 42.8779C96.9286 43.2133 97.1085 43.5074 97.507 43.6313C97.5847 43.6658 97.6686 43.6839 97.7536 43.6845C97.8386 43.6851 97.9227 43.6683 98.0009 43.635C98.0791 43.6017 98.1496 43.5527 98.208 43.4911C98.2665 43.4294 98.3116 43.3564 98.3406 43.2765V43.2765Z" fill="white"/>
<path d="M101.543 43.4438L100.744 46.015L100.479 45.9324L101.208 43.5969L100.603 43.4098L100.676 43.1667L101.543 43.4438Z" fill="white"/>
<path d="M85.3724 43.3223L85.0249 44.4384L105.603 50.8438L105.95 49.7277L85.3724 43.3223Z" fill="white"/>
<path d="M94.7053 48.6656L94.3579 49.7817L104.911 53.0668L105.259 51.9506L94.7053 48.6656Z" fill="white"/>
<g opacity="0.5">
<path d="M75.9264 26.2245L69.6257 24.2348C68.9933 24.0351 68.3187 24.3859 68.119 25.0183L66.8153 29.1464C66.6156 29.7789 66.9664 30.4535 67.5989 30.6532L73.8996 32.6429C74.532 32.8426 75.2066 32.4918 75.4063 31.8594L76.7099 27.7313C76.9097 27.0988 76.5589 26.4242 75.9264 26.2245Z" fill="#EBEBEB"/>
</g>
<path d="M67.4026 28.4333L67.5314 28.0202L71.9764 29.403C72.0985 29.4412 72.2269 29.4549 72.3543 29.4434C72.4817 29.4319 72.6055 29.3955 72.7188 29.3361C72.8321 29.2768 72.9326 29.1957 73.0146 29.0975C73.0965 28.9993 73.1583 28.8859 73.1965 28.7639C73.2346 28.6418 73.2483 28.5134 73.2368 28.386C73.2253 28.2586 73.1889 28.1348 73.1295 28.0215C73.0702 27.9082 72.9891 27.8077 72.8909 27.7258C72.7927 27.6438 72.6794 27.582 72.5573 27.5439L68.1098 26.1586L68.2386 25.7454L72.6861 27.1283C73.033 27.2475 73.3197 27.4972 73.4854 27.8244C73.6511 28.1516 73.6828 28.5305 73.5737 28.8807C73.4645 29.2309 73.2232 29.5247 72.9009 29.6999C72.5787 29.875 72.2008 29.9176 71.8476 29.8186L67.4026 28.4333Z" fill="#E0E0E0"/>
<path d="M73.4593 28.6115L73.3304 29.0244L76.381 29.9769L76.5099 29.564L73.4593 28.6115Z" fill="#E0E0E0"/>
<path d="M93.729 25.6894L71.522 18.7769L70.929 20.682L93.136 27.5945L93.729 25.6894Z" fill="white"/>
<path d="M45.2825 87.1313H11.3239C10.1481 87.1313 9.19496 88.0845 9.19496 89.2603V118.499C9.19496 119.675 10.1481 120.628 11.3239 120.628H45.2825C46.4583 120.628 47.4114 119.675 47.4114 118.499V89.2603C47.4114 88.0845 46.4583 87.1313 45.2825 87.1313Z" fill="#455A64"/>
<path d="M23.4458 99.5572H9.38408C8.71431 99.5572 8.17136 100.1 8.17136 100.77V107.038C8.17136 107.707 8.71431 108.25 9.38408 108.25H23.4458C24.1156 108.25 24.6585 107.707 24.6585 107.038V100.77C24.6585 100.1 24.1156 99.5572 23.4458 99.5572Z" fill="#455A64"/>
<path d="M23.4459 108.251C23.608 108.241 23.7674 108.204 23.9173 108.141C24.0999 108.059 24.2606 107.935 24.3864 107.779C24.5472 107.565 24.6326 107.303 24.6294 107.036C24.6294 105.82 24.6173 104.044 24.61 101.864C24.61 101.592 24.61 101.312 24.61 101.025C24.6137 100.883 24.6089 100.741 24.5954 100.6C24.5764 100.459 24.5311 100.323 24.4617 100.199C24.3189 99.9415 24.0834 99.7477 23.8031 99.6571C23.6582 99.6138 23.5071 99.5949 23.3559 99.6012H22.8699H18.77H9.37686C9.18127 99.6029 8.98934 99.6544 8.81923 99.751C8.64912 99.8475 8.50646 99.9858 8.40474 100.153C8.30124 100.319 8.24417 100.509 8.23948 100.705C8.23948 100.904 8.23948 101.113 8.23948 101.315C8.23948 102.125 8.23948 102.923 8.23948 103.711V106.025C8.23948 106.399 8.23948 106.783 8.23948 107.14C8.25571 107.315 8.3119 107.485 8.40373 107.635C8.49557 107.786 8.62061 107.913 8.76928 108.008C8.91695 108.099 9.08294 108.156 9.25534 108.175C9.4206 108.192 9.60531 108.175 9.78029 108.175H12.8036H16.3761L21.5478 108.197H22.9549H23.3195H23.4459C23.4459 108.197 23.4021 108.197 23.3195 108.197H22.9549L21.5478 108.209L16.3664 108.29H12.7939H10.8034H9.773C9.59315 108.29 9.42546 108.29 9.2359 108.29C9.04814 108.268 8.86775 108.204 8.70852 108.102C8.54521 108.001 8.40717 107.863 8.30486 107.7C8.20254 107.537 8.13863 107.353 8.11796 107.162C8.10338 106.78 8.11796 106.416 8.11796 106.034C8.11796 105.278 8.11796 104.506 8.11796 103.721V101.324C8.11796 101.12 8.11796 100.918 8.11796 100.709C8.1246 100.493 8.18741 100.282 8.30023 100.097C8.41595 99.9143 8.57603 99.7639 8.76556 99.6598C8.95509 99.5557 9.1679 99.5013 9.38415 99.5016H18.7773H22.8772H23.3632C23.5275 99.4943 23.6919 99.5148 23.8493 99.5623C24.1541 99.6622 24.4095 99.8742 24.5638 100.155C24.6371 100.29 24.6849 100.436 24.7048 100.588C24.7192 100.734 24.724 100.881 24.7193 101.028C24.7193 101.315 24.7193 101.594 24.7193 101.866C24.7193 104.054 24.7023 105.813 24.6975 107.04C24.6986 107.345 24.585 107.64 24.3793 107.865C24.1735 108.09 23.8907 108.229 23.5868 108.256L23.4459 108.251Z" fill="#263238"/>
<path d="M22.3183 105.719C23.2711 104.766 23.2711 103.221 22.3182 102.268C21.3654 101.316 19.8204 101.316 18.8675 102.268C17.9146 103.221 17.9147 104.766 18.8675 105.719C19.8204 106.672 21.3654 106.672 22.3183 105.719Z" fill="#EBEBEB"/>
<path d="M99.9678 100.03C104.579 99.2208 107.661 94.8269 106.852 90.2156C106.044 85.6044 101.65 82.522 97.0384 83.3309C92.4271 84.1399 89.3447 88.5338 90.1537 93.145C90.9626 97.7563 95.3565 100.839 99.9678 100.03Z" fill="#33CC33"/>
<g opacity="0.1">
<path d="M95.4614 83.7707C94.4229 84.1706 93.4734 84.7711 92.6671 85.5381C91.8607 86.305 91.2134 87.2233 90.762 88.2405C90.3106 89.2576 90.0641 90.3537 90.0364 91.4662C90.0088 92.5787 90.2006 93.6857 90.6008 94.724C90.6008 94.724 96.2561 92.8357 96.7325 90.0822C97.2088 87.3287 95.4614 83.7707 95.4614 83.7707Z" fill="white"/>
</g>
<path d="M100.521 96.9041C103.831 95.6226 105.476 91.9002 104.195 88.5898C102.913 85.2794 99.1909 83.6347 95.8805 84.9161C92.5701 86.1975 90.9253 89.92 92.2068 93.2304C93.4882 96.5407 97.2106 98.1855 100.521 96.9041Z" fill="#33CC33"/>
<g opacity="0.2">
<path d="M100.521 96.9027C103.831 95.6213 105.476 91.8989 104.194 88.5885C102.913 85.2781 99.1906 83.6333 95.8802 84.9147C92.5698 86.1962 90.925 89.9186 92.2064 93.229C93.4879 96.5394 97.2103 98.1842 100.521 96.9027Z" fill="black"/>
</g>
<path d="M104.611 89.4696C105.063 90.643 105.158 91.9243 104.882 93.1513C104.607 94.3784 103.973 95.4962 103.062 96.3632C102.151 97.2303 101.003 97.8076 99.7641 98.0222C98.5249 98.2368 97.2498 98.0791 96.1003 97.5689C94.9507 97.0588 93.9783 96.2191 93.306 95.1562C92.6337 94.0933 92.2918 92.8549 92.3235 91.5976C92.3552 90.3403 92.7591 89.1207 93.4841 88.093C94.2091 87.0653 95.2225 86.2757 96.3964 85.8241C97.9691 85.219 99.7178 85.2631 101.258 85.9467C102.798 86.6302 104.004 87.8974 104.611 89.4696V89.4696Z" fill="#33CC33"/>
<g opacity="0.2">
<path d="M104.61 89.4727C105.063 90.6461 105.157 91.9274 104.882 93.1545C104.606 94.3816 103.973 95.4994 103.062 96.3664C102.151 97.2334 101.003 97.8108 99.7636 98.0254C98.5244 98.24 97.2494 98.0823 96.0998 97.5721C94.9503 97.062 93.9778 96.2223 93.3056 95.1594C92.6333 94.0965 92.2914 92.858 92.3231 91.6008C92.3548 90.3435 92.7586 89.1239 93.4836 88.0962C94.2086 87.0685 95.2221 86.2789 96.3959 85.8273C97.9687 85.2222 99.7173 85.2663 101.258 85.9499C102.798 86.6334 104.004 87.9005 104.61 89.4727V89.4727Z" fill="white"/>
</g>
<path d="M98.7143 91.1519L98.1311 89.6354C98.4219 89.5632 98.721 89.5297 99.0205 89.5358C99.1793 89.5539 99.3362 89.5856 99.4896 89.6306V89.5747L99.5139 88.9379V88.7921L99.1348 88.6123L99.0254 88.7192C98.6173 88.6731 98.2041 88.7095 97.8103 88.8261L97.487 87.9901L97.1468 87.8807L97.227 88.0897L96.8722 88.2283L97.1978 89.0789C96.0677 89.6427 95.7688 90.5371 96.0629 91.2929C96.4663 92.3379 97.4651 92.265 98.3789 92.1459L98.9574 93.6503C98.3939 93.8145 97.7953 93.8145 97.2318 93.6503L97.1857 94.5398C97.7082 94.7293 98.515 94.6953 99.2684 94.4571L99.5115 95.0866L99.2198 95.2057L99.5892 95.2907L100.207 95.0477L99.8833 94.2044C101.018 93.6308 101.327 92.7462 101.033 91.9831C100.639 90.9478 99.6281 91.0353 98.7143 91.1519ZM98.0387 91.2321C97.5526 91.271 97.1662 91.2321 97.0253 90.87C96.8843 90.5079 97.0253 90.1798 97.5235 89.8979L98.0387 91.2321ZM99.5771 93.3951L99.0643 92.0633C99.5649 92.0171 99.9635 92.0633 100.104 92.4303C100.228 92.7559 100.095 93.101 99.5771 93.3951Z" fill="#33CC33"/>
<g opacity="0.3">
<path d="M98.7145 91.1592L98.1312 89.6427C98.422 89.5704 98.7211 89.5369 99.0207 89.543C99.1795 89.5611 99.3364 89.5929 99.4897 89.6378V89.5819L99.514 88.9452V88.7994L99.1349 88.6195L99.0256 88.7265C98.6174 88.6804 98.2042 88.7167 97.8104 88.8334L97.4872 87.9974L97.1469 87.888L97.2271 88.097L96.8723 88.2355L97.198 89.0861C96.0679 89.65 95.769 90.5443 96.063 91.3001C96.4664 92.3452 97.4653 92.2723 98.3791 92.1532L98.9575 93.6575C98.3941 93.8217 97.7954 93.8217 97.232 93.6575L97.1858 94.547C97.7083 94.7366 98.5152 94.7026 99.2686 94.4644L99.5116 95.0938L99.22 95.2129L99.5894 95.298L100.207 95.055L99.8835 94.2116C101.018 93.6381 101.327 92.7535 101.033 91.9903C100.639 90.955 99.6283 91.0425 98.7145 91.1592ZM98.0389 91.2394C97.5528 91.2783 97.1664 91.2394 97.0254 90.8773C96.8845 90.5152 97.0254 90.1871 97.5236 89.9052L98.0389 91.2394ZM99.5772 93.4024L99.0644 92.0706C99.5651 92.0244 99.9637 92.0705 100.105 92.4375C100.229 92.7632 100.095 93.1083 99.5772 93.4024Z" fill="black"/>
</g>
<path d="M99.5582 94.1023L99.8839 94.9456L99.2666 95.1887L98.9458 94.3526C98.1899 94.5957 97.3831 94.6248 96.8606 94.4377L96.9067 93.5482C97.4704 93.7112 98.0686 93.7112 98.6322 93.5482L98.0538 92.0438C97.14 92.1605 96.1412 92.2334 95.7402 91.1884C95.4437 90.4204 95.7402 89.5382 96.8727 88.9744L96.5471 88.1238L97.1643 87.8807L97.4851 88.7168C98.0325 88.532 98.6174 88.4877 99.1864 88.588L99.1693 89.4677C98.7116 89.3927 98.2432 89.4134 97.7938 89.5285L98.3795 91.0499C99.2933 90.9308 100.304 90.8433 100.705 91.8907C101.004 92.649 100.698 93.5288 99.5582 94.1023ZM97.7039 91.1203L97.1886 89.7788C96.6856 90.068 96.5641 90.4253 96.7026 90.7509C96.8411 91.0766 97.2178 91.1616 97.7039 91.1203V91.1203ZM99.7721 92.3209C99.6287 91.9515 99.2325 91.9053 98.7319 91.9515L99.2447 93.2833C99.7599 92.9892 99.896 92.6441 99.7721 92.3209V92.3209Z" fill="#33CC33"/>
<path d="M93.1932 97.9816C93.1932 97.9816 93.1713 97.9671 93.1324 97.9355L92.9672 97.7896C92.8822 97.7127 92.8011 97.6316 92.7241 97.5466C92.6318 97.4494 92.5176 97.3449 92.4082 97.2137L92.2332 97.012C92.1725 96.9415 92.1166 96.8613 92.0534 96.7835C91.927 96.628 91.8104 96.4481 91.6815 96.2634C91.4158 95.8525 91.1833 95.421 90.9865 94.9729C90.7966 94.5215 90.6422 94.0559 90.5247 93.5804C90.4786 93.3592 90.4299 93.1502 90.4032 92.9509C90.3886 92.8513 90.3716 92.7565 90.3619 92.6641C90.3522 92.5718 90.3449 92.4843 90.3352 92.3992C90.3157 92.2291 90.3157 92.0736 90.3109 91.9399C90.3047 91.8242 90.3047 91.7081 90.3109 91.5924V91.3737C90.3014 91.3718 90.2929 91.3665 90.2871 91.3588C90.2812 91.3511 90.2785 91.3414 90.2794 91.3318C90.2804 91.3222 90.2848 91.3132 90.292 91.3067C90.2991 91.3002 90.3085 91.2966 90.3182 91.2966C90.3278 91.2966 90.3372 91.3002 90.3443 91.3067C90.3515 91.3132 90.356 91.3222 90.3569 91.3318C90.3578 91.3414 90.3551 91.3511 90.3493 91.3588C90.3434 91.3665 90.335 91.3718 90.3254 91.3737C90.3254 91.4295 90.3254 91.5025 90.3254 91.5924C90.3254 91.6823 90.3254 91.8038 90.3254 91.9375C90.3254 92.0711 90.3376 92.2267 90.3619 92.3944C90.3619 92.4794 90.3813 92.5669 90.3911 92.6593C90.4008 92.7516 90.4202 92.844 90.4348 92.9436C90.464 93.1405 90.515 93.3471 90.5636 93.5658C90.6805 94.0375 90.8349 94.4991 91.0254 94.9462C91.2205 95.3917 91.4496 95.8215 91.7107 96.2318C91.8371 96.4165 91.9537 96.5964 92.0753 96.7519C92.136 96.8297 92.1919 96.9099 92.2527 96.9804L92.4228 97.1845C92.5297 97.3157 92.6391 97.4275 92.7314 97.5223C92.8238 97.6171 92.904 97.7021 92.9745 97.7653L93.1324 97.9184C93.1762 97.9598 93.1956 97.9792 93.1932 97.9816Z" fill="white"/>
<path d="M96.496 91.6173C96.4075 91.602 96.324 91.5653 96.2529 91.5104C96.0737 91.3883 95.9383 91.212 95.8665 91.0073C95.7969 90.8008 95.7969 90.5771 95.8665 90.3706C95.8855 90.28 95.9283 90.1961 95.9905 90.1276C95.9905 90.1276 95.9492 90.2199 95.9103 90.3706C95.8578 90.5691 95.8646 90.7786 95.9297 90.9733C95.9991 91.1659 96.1223 91.3346 96.2845 91.4594C96.4061 91.5712 96.4984 91.6076 96.496 91.6173Z" fill="white"/>
<path d="M96.953 88.7932C96.936 88.7932 96.8801 88.6936 96.829 88.5502C96.778 88.4068 96.7464 88.3072 96.7634 88.2926C96.7804 88.278 96.8339 88.3922 96.8874 88.5356C96.9408 88.679 96.97 88.7884 96.953 88.7932Z" fill="white"/>
<path d="M96.5004 85.2291C96.438 85.2581 96.3729 85.2809 96.306 85.2971C96.2277 85.3177 96.1506 85.3429 96.0751 85.3725C95.9852 85.404 95.8831 85.4356 95.7738 85.4842C95.6644 85.5328 95.5429 85.5766 95.419 85.6374C95.295 85.6981 95.1589 85.7637 95.0204 85.8366C94.7226 86.0017 94.4375 86.1885 94.1674 86.3956C93.8991 86.6045 93.6457 86.8319 93.4091 87.0761C93.3022 87.1927 93.2001 87.2997 93.1126 87.409C93.0251 87.5184 92.9425 87.6181 92.8696 87.7153C92.7967 87.8125 92.7383 87.8975 92.6849 87.9753C92.6314 88.0531 92.5877 88.1211 92.5536 88.1795C92.5199 88.2403 92.4809 88.2981 92.437 88.352C92.4637 88.288 92.4954 88.2263 92.5318 88.1673C92.5691 88.0946 92.6105 88.024 92.6557 87.9559C92.7067 87.8781 92.7626 87.7833 92.8331 87.6885C92.9036 87.5937 92.9789 87.4844 93.0762 87.375C93.1734 87.2657 93.2657 87.1539 93.3702 87.0372C93.6065 86.7871 93.8616 86.5556 94.1333 86.3446C94.4076 86.1372 94.6968 85.9504 94.9985 85.7856C95.1395 85.7151 95.2707 85.6446 95.4019 85.5888C95.5332 85.5329 95.645 85.4842 95.7641 85.4405C95.8831 85.3968 95.9779 85.3676 96.0679 85.3384C96.1578 85.3093 96.238 85.2874 96.3109 85.2728C96.3729 85.2535 96.4363 85.2389 96.5004 85.2291V85.2291Z" fill="white"/>
<path d="M102.352 98.8182C102.314 98.8536 102.271 98.8846 102.226 98.9106C102.108 98.9903 101.985 99.0633 101.859 99.1293C101.028 99.5776 100.105 99.8272 99.1612 99.8584C98.9813 99.8584 98.8355 99.8584 98.7335 99.8584C98.6813 99.858 98.6292 99.8531 98.5779 99.8438C98.6296 99.8383 98.6818 99.8383 98.7335 99.8438C98.8355 99.8438 98.9765 99.8438 99.1588 99.8292C99.6243 99.7988 100.086 99.7231 100.537 99.6032C100.986 99.4799 101.423 99.3121 101.839 99.1026C101.997 99.0224 102.126 98.9519 102.211 98.9033C102.255 98.87 102.302 98.8415 102.352 98.8182V98.8182Z" fill="white"/>
<path d="M90.2613 103.226H108.207V99.6076H90.2613V103.226Z" fill="#33CC33"/>
<path d="M100.474 99.6736C100.43 99.6736 100.396 100.461 100.396 101.428C100.396 102.396 100.43 103.183 100.474 103.183C100.518 103.183 100.552 102.398 100.552 101.428C100.552 100.459 100.518 99.6736 100.474 99.6736Z" fill="#263238"/>
<path d="M98.8381 99.6736C98.7944 99.6736 98.7604 100.461 98.7604 101.428C98.7604 102.396 98.7944 103.183 98.8381 103.183C98.8819 103.183 98.9159 102.398 98.9159 101.428C98.9159 100.459 98.8819 99.6736 98.8381 99.6736Z" fill="#263238"/>
<path d="M97.203 99.6736C97.1592 99.6736 97.1252 100.461 97.1252 101.428C97.1252 102.396 97.1592 103.183 97.203 103.183C97.2467 103.183 97.2807 102.398 97.2807 101.428C97.2807 100.459 97.2467 99.6736 97.203 99.6736Z" fill="#263238"/>
<path d="M95.5677 99.6736C95.524 99.6736 95.49 100.461 95.49 101.428C95.49 102.396 95.524 103.183 95.5677 103.183C95.6115 103.183 95.6455 102.398 95.6455 101.428C95.6455 100.459 95.6115 99.6736 95.5677 99.6736Z" fill="#263238"/>
<path d="M93.9325 99.6736C93.8888 99.6736 93.8548 100.461 93.8548 101.428C93.8548 102.396 93.8888 103.183 93.9325 103.183C93.9763 103.183 94.0103 102.398 94.0103 101.428C94.0103 100.459 93.9763 99.6736 93.9325 99.6736Z" fill="#263238"/>
<path d="M92.2966 99.6736C92.2529 99.6736 92.2188 100.461 92.2188 101.428C92.2188 102.396 92.2529 103.183 92.2966 103.183C92.3404 103.183 92.3744 102.398 92.3744 101.428C92.3744 100.459 92.3404 99.6736 92.2966 99.6736Z" fill="#263238"/>
<path d="M90.6614 99.6736C90.6177 99.6736 90.5836 100.461 90.5836 101.428C90.5836 102.396 90.6177 103.183 90.6614 103.183C90.7052 103.183 90.7392 102.398 90.7392 101.428C90.7392 100.459 90.7027 99.6736 90.6614 99.6736Z" fill="#263238"/>
<g opacity="0.3">
<path d="M107.918 99.6104C102.154 100.382 96.313 100.382 90.5489 99.6104H107.918Z" fill="black"/>
</g>
<path d="M90.2472 99.6203C90.2472 99.664 94.2572 99.698 99.2028 99.698C104.149 99.698 108.161 99.664 108.161 99.6203C108.161 99.5765 104.151 99.5425 99.2028 99.5425C94.2548 99.5425 90.2472 99.5765 90.2472 99.6203Z" fill="#263238"/>
<path d="M114.108 69.527C114.159 70.9863 113.776 72.428 113.007 73.6697C112.239 74.9114 111.12 75.8974 109.791 76.5031C108.463 77.1088 106.984 77.3068 105.543 77.0723C104.102 76.8378 102.762 76.1811 101.694 75.1854C100.626 74.1898 99.8774 72.8997 99.5425 71.4785C99.2075 70.0572 99.3016 68.5685 99.8126 67.2007C100.324 65.8329 101.229 64.6473 102.414 63.7939C103.599 62.9405 105.01 62.4576 106.469 62.4062C108.426 62.338 110.33 63.0498 111.763 64.3851C113.195 65.7204 114.039 67.5699 114.108 69.527V69.527Z" fill="#33CC33"/>
<g opacity="0.1">
<path d="M106.471 62.4215C104.514 62.4905 102.665 63.3341 101.33 64.7665C99.9951 66.199 99.2839 68.1031 99.3528 70.0599C99.3528 70.0599 104.544 70.111 105.718 67.9772C106.892 65.8434 106.471 62.4215 106.471 62.4215Z" fill="white"/>
</g>
<path d="M100.567 73.4683C100.567 73.4683 100.552 73.4513 100.53 73.4124L100.435 73.2471C100.394 73.1767 100.345 73.0867 100.294 72.9798C100.243 72.8729 100.183 72.7538 100.129 72.6153C100.102 72.5448 100.073 72.4743 100.042 72.399C100.01 72.3236 99.9881 72.2434 99.959 72.1559C99.8982 71.9907 99.852 71.8108 99.801 71.6213C99.5896 70.7932 99.5254 69.9344 99.6114 69.084C99.6333 68.8896 99.6528 68.7025 99.6892 68.5324C99.7038 68.4449 99.716 68.3622 99.7354 68.2893C99.7548 68.2164 99.7718 68.1338 99.7913 68.0609C99.8205 67.9175 99.8666 67.7887 99.8982 67.6769C99.9298 67.5651 99.9663 67.4679 99.9979 67.3901C100.029 67.3123 100.049 67.2589 100.066 67.2127C100.073 67.1912 100.083 67.1707 100.095 67.1519C100.092 67.1744 100.086 67.1964 100.078 67.2176C100.061 67.2637 100.042 67.3245 100.017 67.3974C99.993 67.4703 99.959 67.5724 99.9298 67.6842C99.9007 67.796 99.8569 67.9272 99.8277 68.0706C99.8115 68.1435 99.7945 68.2188 99.7767 68.2966C99.7597 68.3768 99.75 68.4594 99.733 68.5396C99.7014 68.7098 99.6844 68.8945 99.6601 69.0889C99.6253 69.5109 99.6212 69.9349 99.6479 70.3575C99.6836 70.7792 99.751 71.1976 99.8496 71.6091C99.9007 71.7962 99.9444 71.9761 100.003 72.1414C100.029 72.224 100.054 72.3042 100.083 72.3844L100.166 72.6007C100.217 72.7392 100.275 72.8583 100.324 72.9652C100.372 73.0722 100.416 73.1645 100.455 73.2374L100.54 73.4075C100.551 73.4265 100.56 73.4469 100.567 73.4683V73.4683Z" fill="white"/>
<path d="M82.8834 120.563L49.965 120.405C48.0633 120.396 46.2431 119.632 44.9045 118.281C43.566 116.93 42.8188 115.103 42.8272 113.201L43.1747 30.6781C43.1789 29.7351 43.3688 28.8022 43.7338 27.9327C44.0988 27.0633 44.6316 26.2743 45.3018 25.6109C45.9719 24.9475 46.7663 24.4227 47.6394 24.0666C48.5126 23.7105 49.4473 23.53 50.3903 23.5354L83.299 23.6788C85.2002 23.6878 87.0201 24.4514 88.3586 25.8017C89.697 27.152 90.4445 28.9785 90.4368 30.8798L90.0892 113.413C90.0867 114.356 89.8982 115.289 89.5344 116.159C89.1707 117.029 88.639 117.818 87.9696 118.483C87.3003 119.147 86.5065 119.672 85.6337 120.029C84.7609 120.386 83.8263 120.568 82.8834 120.563V120.563Z" fill="#263238"/>
<path d="M83.2526 26.5333L76.8803 26.5041L58.2375 26.4166H55.9943L50.4046 26.3923C49.7451 26.3891 49.0913 26.5159 48.4808 26.7654C47.8702 27.015 47.3148 27.3824 46.8463 27.8466C46.3777 28.3109 46.0053 28.8629 45.7501 29.4711C45.495 30.0793 45.3622 30.7319 45.3593 31.3915L45.0191 111.951C45.0162 112.61 45.1432 113.264 45.3929 113.874C45.6426 114.484 46.01 115.04 46.4742 115.508C46.9384 115.976 47.4903 116.348 48.0984 116.603C48.7065 116.858 49.3589 116.991 50.0182 116.994L82.8735 117.145C83.533 117.147 84.1866 117.019 84.7968 116.769C85.407 116.518 85.9618 116.15 86.4297 115.685C86.8975 115.22 87.2692 114.668 87.5235 114.059C87.7777 113.45 87.9096 112.798 87.9115 112.138L88.2517 31.5786C88.2549 30.919 88.1281 30.2653 87.8786 29.6547C87.6291 29.0442 87.2617 28.4888 86.7974 28.0202C86.3332 27.5517 85.7812 27.1792 85.1729 26.9241C84.5647 26.6689 83.9122 26.5362 83.2526 26.5333V26.5333Z" fill="#FAFAFA"/>
<path fill-rule="evenodd" clip-rule="evenodd" d="M53.7846 84.564C51.5673 84.564 49.77 82.7667 49.77 80.5494C49.77 78.3321 51.5673 76.5349 53.7846 76.5349C56.0019 76.5349 57.7992 78.3321 57.7992 80.5494C57.7992 82.7667 56.0019 84.564 53.7846 84.564ZM55.5884 80.0526C55.6672 79.5267 55.2665 79.2439 54.719 79.0552L54.8966 78.3426L54.4631 78.2348L54.2899 78.9285C54.176 78.8999 54.0591 78.8734 53.9424 78.8467L54.1168 78.1485L53.6832 78.0403L53.5056 78.7526C53.4112 78.731 53.3184 78.71 53.2286 78.6873L53.2291 78.6851L52.6309 78.5359L52.5155 78.999C52.5155 78.999 52.8374 79.0727 52.8306 79.0773C53.0063 79.1212 53.0379 79.2373 53.0326 79.3297L52.8304 80.1414C52.8424 80.1444 52.858 80.1489 52.8755 80.1558L52.8296 80.1444L52.5461 81.2816C52.5245 81.3347 52.4701 81.4147 52.3471 81.3845C52.3516 81.3906 52.032 81.3059 52.032 81.3059L51.8167 81.8023L52.3812 81.9429C52.4861 81.9693 52.589 81.9968 52.6901 82.0228L52.5107 82.7434L52.944 82.8513L53.1217 82.1387C53.2401 82.1705 53.355 82.2001 53.4674 82.2282L53.2903 82.9379L53.7239 83.0457L53.9033 82.3266C54.643 82.4667 55.199 82.4102 55.4331 81.7412C55.6218 81.2028 55.4238 80.8919 55.0346 80.6894C55.3182 80.6241 55.5314 80.4377 55.5884 80.0526ZM54.5973 81.4422C54.4636 81.9809 53.5565 81.6896 53.2624 81.6165L53.5008 80.6619C53.7949 80.7353 54.7376 80.8807 54.5973 81.4422ZM54.7315 80.0448C54.6093 80.5349 53.8546 80.2857 53.61 80.2247L53.8257 79.3591C54.0704 79.42 54.859 79.5338 54.7315 80.0448Z" fill="#33CC33"/>
<path d="M83.4959 33.8571C83.4959 33.9384 83.4717 34.0179 83.4265 34.0855C83.3812 34.1531 83.317 34.2057 83.2418 34.2367C83.1666 34.2678 83.0839 34.2757 83.0041 34.2597C82.9244 34.2437 82.8512 34.2043 82.7939 34.1466C82.7365 34.0889 82.6976 34.0155 82.682 33.9357C82.6665 33.8559 82.6749 33.7732 82.7064 33.6982C82.7379 33.6232 82.7909 33.5592 82.8587 33.5144C82.9266 33.4695 83.0063 33.4459 83.0876 33.4463C83.1961 33.447 83.2999 33.4905 83.3764 33.5675C83.4529 33.6445 83.4959 33.7486 83.4959 33.8571V33.8571Z" fill="#263238"/>
<path d="M83.4909 35.3422C83.4904 35.4233 83.4659 35.5024 83.4205 35.5697C83.3751 35.6369 83.3107 35.6892 83.2356 35.7199C83.1606 35.7506 83.0781 35.7584 82.9985 35.7423C82.919 35.7261 82.8461 35.6868 82.7889 35.6293C82.7317 35.5718 82.6928 35.4986 82.6772 35.419C82.6615 35.3394 82.6698 35.2569 82.7009 35.182C82.7321 35.1071 82.7847 35.0431 82.8522 34.9981C82.9197 34.953 82.999 34.929 83.0802 34.929C83.1893 34.9296 83.2938 34.9735 83.3707 35.0509C83.4477 35.1283 83.4909 35.233 83.4909 35.3422Z" fill="#263238"/>
<path d="M83.4858 36.811C83.4862 36.8929 83.4624 36.9731 83.4171 37.0414C83.3719 37.1097 83.3074 37.1631 83.2318 37.1946C83.1562 37.2262 83.073 37.2346 82.9926 37.2187C82.9122 37.2029 82.8384 37.1635 82.7805 37.1055C82.7225 37.0476 82.6831 36.9738 82.6673 36.8934C82.6514 36.813 82.6598 36.7298 82.6914 36.6542C82.7229 36.5786 82.7763 36.5141 82.8446 36.4689C82.9129 36.4237 82.9931 36.3998 83.075 36.4003C83.1838 36.4009 83.2879 36.4444 83.3647 36.5213C83.4416 36.5981 83.4851 36.7022 83.4858 36.811V36.811Z" fill="#263238"/>
<path d="M84.9417 47.8966H52.0111C51.434 47.8966 50.9661 48.3645 50.9661 48.9416V69.0694C50.9661 69.6465 51.434 70.1144 52.0111 70.1144H84.9417C85.5188 70.1144 85.9867 69.6465 85.9867 69.0694V48.9416C85.9867 48.3645 85.5188 47.8966 84.9417 47.8966Z" fill="#EBEBEB"/>
<path d="M83.9794 46.4539H51.0488C50.4717 46.4539 50.0038 46.9217 50.0038 47.4989V67.6266C50.0038 68.2038 50.4717 68.6717 51.0488 68.6717H83.9794C84.5565 68.6717 85.0244 68.2038 85.0244 67.6266V47.4989C85.0244 46.9217 84.5565 46.4539 83.9794 46.4539Z" fill="#E0E0E0"/>
<path d="M82.8688 45.2563H49.9382C49.3611 45.2563 48.8932 45.7242 48.8932 46.3013V66.4291C48.8932 67.0062 49.3611 67.4741 49.9382 67.4741H82.8688C83.446 67.4741 83.9138 67.0062 83.9138 66.4291V46.3013C83.9138 45.7242 83.446 45.2563 82.8688 45.2563Z" fill="#33CC33"/>
<path d="M54.6598 50.3355C54.6598 50.6198 54.4338 50.7851 54.0012 50.7851H53.153V49.1398H53.955C54.3657 49.1398 54.5772 49.3123 54.5772 49.5675C54.5787 49.6424 54.5589 49.7161 54.5202 49.7802C54.4815 49.8443 54.4254 49.8961 54.3584 49.9296C54.4474 49.9528 54.5258 50.0057 54.5806 50.0795C54.6354 50.1533 54.6633 50.2436 54.6598 50.3355V50.3355ZM53.5297 49.4265V49.8154H53.9088C54.0935 49.8154 54.1956 49.7498 54.1956 49.621C54.1956 49.4922 54.0935 49.4265 53.9088 49.4265H53.5297ZM54.2782 50.2966C54.2782 50.1581 54.1713 50.0924 53.9745 50.0924H53.5297V50.4983H53.9745C54.1713 50.4983 54.2782 50.4375 54.2782 50.2966Z" fill="white"/>
<path d="M56.0307 50.4327H55.2676L55.1218 50.7851H54.7305L55.4596 49.1398H55.8363L56.5654 50.7851H56.1668L56.0307 50.4327ZM55.9116 50.1435L55.6492 49.514L55.3891 50.1435H55.9116Z" fill="white"/>
<path d="M58.2549 49.1398V50.7851H57.9413L57.1223 49.7862V50.7851H56.7456V49.1398H57.0616L57.8782 50.1386V49.1398H58.2549Z" fill="white"/>
<path d="M59.2413 50.1322L59.0201 50.3752V50.7908H58.6531V49.1455H59.0323V49.9134L59.7614 49.1455H60.1842L59.5037 49.8746L60.2328 50.7859H59.7881L59.2413 50.1322Z" fill="white"/>
<path d="M54.3522 57.17H54.0508V57.5662H53.8953V57.17H53.0447V57.0582L53.8442 56.057H54.0168L53.2464 57.0291H53.9001V56.6815H54.0508V57.0291H54.3522V57.17Z" fill="white"/>
<path d="M55.4596 57.1336C55.4596 57.3766 55.2773 57.5808 54.9128 57.5808C54.7132 57.5876 54.5185 57.518 54.3684 57.3863L54.4461 57.2624C54.5725 57.38 54.7402 57.4429 54.9128 57.4374C55.1558 57.4374 55.3016 57.3207 55.3016 57.1336C55.3016 56.9464 55.1728 56.8347 54.8933 56.8347H54.7864V56.7204L55.2044 56.1955H54.4316V56.057H55.4037V56.1688L54.9784 56.7059C55.2992 56.735 55.4596 56.893 55.4596 57.1336Z" fill="white"/>
<path d="M56.6804 57.1239C56.6804 57.379 56.5029 57.5808 56.1335 57.5808C55.9347 57.5872 55.741 57.5177 55.5916 57.3863L55.6694 57.2624C55.7309 57.3206 55.8035 57.366 55.8827 57.3961C55.962 57.4261 56.0464 57.4401 56.1311 57.4374C56.3887 57.4374 56.5248 57.3134 56.5248 57.1287C56.5248 56.944 56.4033 56.8152 56.0193 56.8152H55.6985L55.7763 56.057H56.6026V56.1955H55.9124L55.8589 56.6815H56.0533C56.5078 56.6767 56.6804 56.8565 56.6804 57.1239Z" fill="white"/>
<path d="M58.0125 57.1122C58.0117 57.1774 57.9975 57.2417 57.9707 57.3011C57.9438 57.3605 57.905 57.4137 57.8566 57.4573C57.8082 57.5009 57.7512 57.534 57.6894 57.5545C57.6275 57.575 57.5621 57.5825 57.4972 57.5764C57.0962 57.5764 56.8775 57.2969 56.8775 56.8206C56.8775 56.3078 57.157 56.0405 57.5677 56.0405C57.6921 56.0352 57.8155 56.0637 57.925 56.1231L57.8618 56.2471C57.7735 56.1957 57.6721 56.1712 57.5701 56.1766C57.2445 56.1766 57.0355 56.3856 57.0355 56.7963C57.0355 56.8303 57.0355 56.8716 57.0355 56.9178C57.0794 56.8349 57.1463 56.7664 57.2283 56.7207C57.3102 56.675 57.4036 56.654 57.4972 56.6602C57.5615 56.6519 57.6269 56.6574 57.6889 56.6763C57.7509 56.6953 57.8081 56.7272 57.8569 56.7699C57.9056 56.8127 57.9447 56.8653 57.9715 56.9243C57.9983 56.9834 58.0123 57.0474 58.0125 57.1122V57.1122ZM57.8593 57.1122C57.8593 56.913 57.7111 56.7866 57.4802 56.7866C57.4329 56.7812 57.385 56.7856 57.3394 56.7994C57.2938 56.8132 57.2515 56.8361 57.2151 56.8668C57.1787 56.8976 57.1489 56.9354 57.1277 56.978C57.1064 57.0206 57.094 57.0671 57.0914 57.1147C57.0914 57.2824 57.2299 57.4403 57.4899 57.4403C57.5359 57.4458 57.5825 57.4415 57.6267 57.4278C57.6709 57.4141 57.7117 57.3913 57.7465 57.3609C57.7813 57.3304 57.8094 57.2929 57.8288 57.251C57.8482 57.209 57.8586 57.1634 57.8593 57.1171V57.1122Z" fill="white"/>
<path d="M61.2711 57.5659L60.9114 57.0919L60.5493 57.5659H60.3767L60.8263 56.985L60.3986 56.4333H60.5712L60.9114 56.8757L61.2516 56.4333H61.4218L60.994 56.9777L61.4461 57.5586L61.2711 57.5659Z" fill="white"/>
<path d="M62.4225 57.5659L62.0555 57.0919L61.6934 57.5659H61.5208L61.9704 56.985L61.5427 56.4333H61.7152L62.0555 56.8757L62.3957 56.4333H62.5634L62.1454 56.9777L62.5974 57.5586L62.4225 57.5659Z" fill="white"/>
<path d="M63.5749 57.5659L63.2152 57.0919L62.8531 57.5659H62.6806L63.1277 56.985L62.7 56.4333H62.8726L63.2152 56.8757L63.5555 56.4333H63.7232L63.2954 56.9777L63.7499 57.5586L63.5749 57.5659Z" fill="white"/>
<path d="M64.7284 57.5659L64.3687 57.0919L63.9993 57.5659H63.8268L64.2764 56.985L63.8487 56.4333H64.0212L64.3614 56.8757L64.7017 56.4333H64.8718L64.4465 56.9777L64.8985 57.5586L64.7284 57.5659Z" fill="white"/>
<path d="M68.7001 57.556L68.3404 57.0821L67.9783 57.556H67.8057L68.2529 56.9679L67.8276 56.4162H68.0001L68.3404 56.8585L68.6806 56.4162H68.8605L68.4206 56.9679L68.8751 57.5487L68.7001 57.556Z" fill="white"/>
<path d="M69.8499 57.5659L69.4902 57.0919L69.1281 57.5659H68.9555L69.4051 56.985L68.9774 56.4333H69.1499L69.4902 56.8757L69.8304 56.4333H70.0005L69.5728 56.9777L70.0248 57.5586L69.8499 57.5659Z" fill="white"/>
<path d="M71.0018 57.556L70.6421 57.0821L70.28 57.556H70.1074L70.5619 56.9679L70.1342 56.4162H70.3067L70.6469 56.8585L70.9872 56.4162H71.1549L70.7247 56.9679L71.1768 57.5487L71.0018 57.556Z" fill="white"/>
<path d="M72.1537 57.5659L71.794 57.0919L71.4319 57.5659H71.2593L71.7065 56.985L71.2909 56.4333H71.4635L71.8062 56.8757L72.1464 56.4333H72.3141L71.8742 56.9777L72.3287 57.5586L72.1537 57.5659Z" fill="white"/>
<path d="M75.724 56.057V57.5662H75.5685V56.1955H75.2112V56.057H75.724Z" fill="white"/>
<path d="M77.0801 57.1336C77.0801 57.3766 76.8978 57.5808 76.5333 57.5808C76.3337 57.5876 76.139 57.518 75.9889 57.3863L76.0667 57.2624C76.1291 57.3209 76.2024 57.3664 76.2825 57.3965C76.3626 57.4265 76.4478 57.4404 76.5333 57.4374C76.7763 57.4374 76.9221 57.3207 76.9221 57.1336C76.9221 56.9464 76.7933 56.8347 76.5138 56.8347H76.4069V56.7204L76.8249 56.1955H76.0521V56.057H77.0242V56.1688L76.5989 56.7059C76.9197 56.735 77.0801 56.893 77.0801 57.1336Z" fill="white"/>
<path d="M78.5812 57.17H78.2774V57.5662H78.1243V57.17H77.2713V57.0582L78.0708 56.057H78.2434L77.473 57.0291H78.1267V56.6815H78.2774V57.0291H78.5812V57.17Z" fill="white"/>
<path d="M79.745 57.4245V57.5606H78.6853V57.4585L79.3124 56.8437C79.4825 56.676 79.5165 56.5739 79.5165 56.4718C79.5165 56.2968 79.3926 56.1899 79.1617 56.1899C79.085 56.1848 79.0081 56.1972 78.9369 56.2263C78.8658 56.2554 78.8022 56.3003 78.751 56.3576L78.6392 56.2628C78.707 56.1898 78.7901 56.1326 78.8824 56.0952C78.9748 56.0579 79.0743 56.0412 79.1738 56.0465C79.48 56.0465 79.6745 56.2021 79.6745 56.4548C79.6715 56.5465 79.6482 56.6364 79.6062 56.718C79.5641 56.7995 79.5044 56.8707 79.4314 56.9263L78.9187 57.4318L79.745 57.4245Z" fill="white"/>
<path d="M62.3985 62.843H52.4902C52.2768 62.843 52.1038 63.016 52.1038 63.2294V63.3801C52.1038 63.5935 52.2768 63.7665 52.4902 63.7665H62.3985C62.6119 63.7665 62.7849 63.5935 62.7849 63.3801V63.2294C62.7849 63.016 62.6119 62.843 62.3985 62.843Z" fill="white"/>
<path d="M80.0546 62.843H74.8926C74.6792 62.843 74.5062 63.016 74.5062 63.2294V63.3801C74.5062 63.5935 74.6792 63.7665 74.8926 63.7665H80.0546C80.268 63.7665 80.441 63.5935 80.441 63.3801V63.2294C80.441 63.016 80.268 62.843 80.0546 62.843Z" fill="white"/>
<g opacity="0.2">
<path d="M82.7539 45.2563H50.0542C49.7465 45.2563 49.4514 45.3784 49.2336 45.5957C49.0158 45.813 48.8931 46.1079 48.8925 46.4156V52.2823C50.9582 53.7235 53.7968 53.9835 56.3146 53.4513C59.282 52.8316 61.9699 51.3126 64.7332 50.0683C67.4964 48.824 70.5367 47.8276 73.5236 48.3404C76.3452 48.8264 78.7487 50.5787 81.3005 51.8789C82.1374 52.3113 83.0129 52.6645 83.9155 52.9336V46.4156C83.9149 46.1079 83.7922 45.813 83.5744 45.5957C83.3566 45.3784 83.0615 45.2563 82.7539 45.2563V45.2563Z" fill="white"/>
</g>
<path d="M79.2598 77.7267H62.6487C62.1427 77.7267 61.7325 78.1369 61.7325 78.6429V79.005C61.7325 79.511 62.1427 79.9212 62.6487 79.9212H79.2598C79.7659 79.9212 80.1761 79.511 80.1761 79.005V78.6429C80.1761 78.1369 79.7659 77.7267 79.2598 77.7267Z" fill="#E0E0E0"/>
<path d="M70.1389 82.0378H62.6487C62.1427 82.0378 61.7325 82.448 61.7325 82.954V83.3161C61.7325 83.8222 62.1427 84.2324 62.6487 84.2324H70.1389C70.6449 84.2324 71.0551 83.8222 71.0551 83.3161V82.954C71.0551 82.448 70.6449 82.0378 70.1389 82.0378Z" fill="#E0E0E0"/>
<path d="M87.8396 72.7032C87.8396 72.7372 78.2424 72.7664 66.4068 72.7664C54.5713 72.7664 44.9691 72.7372 44.9691 72.7032C44.9691 72.6692 54.5664 72.64 66.4068 72.64C78.2472 72.64 87.8396 72.6692 87.8396 72.7032Z" fill="#E0E0E0"/>
<path d="M76.672 88.8638H56.5928C54.4171 88.8638 52.6533 90.6275 52.6533 92.8033V94.3514C52.6533 96.5271 54.4171 98.2909 56.5928 98.2909H76.672C78.8477 98.2909 80.6115 96.5271 80.6115 94.3514V92.8033C80.6115 90.6275 78.8477 88.8638 76.672 88.8638Z" fill="#33CC33"/>
<path d="M51.9517 36.4118C52.1828 35.4362 51.5793 34.4579 50.6037 34.2267C49.6281 33.9955 48.6498 34.599 48.4186 35.5747C48.1875 36.5503 48.791 37.5286 49.7666 37.7598C50.7422 37.9909 51.7205 37.3874 51.9517 36.4118Z" fill="#33CC33"/>
<path d="M72.5361 35.0659H60.2728C59.905 35.0659 59.6069 35.364 59.6069 35.7318V35.9918C59.6069 36.3596 59.905 36.6577 60.2728 36.6577H72.5361C72.9038 36.6577 73.202 36.3596 73.202 35.9918V35.7318C73.202 35.364 72.9038 35.0659 72.5361 35.0659Z" fill="#E0E0E0"/>
<path d="M77.935 48.33H76.2241C75.8013 48.33 75.4586 48.6728 75.4586 49.0955V50.8065C75.4586 51.2293 75.8013 51.572 76.2241 51.572H77.935C78.3578 51.572 78.7006 51.2293 78.7006 50.8065V49.0955C78.7006 48.6728 78.3578 48.33 77.935 48.33Z" fill="white"/>
<path d="M18.0311 44.7768L16.4247 44.5823C15.1428 45.4388 13.5869 45.7848 12.0628 45.5524C10.5388 45.3199 9.15676 44.5258 8.18849 43.3261C7.22023 42.1264 6.73573 40.6079 6.83022 39.0691C6.92472 37.5303 7.59138 36.0825 8.69916 35.0103C9.80695 33.938 11.2757 33.319 12.8168 33.2747C14.3578 33.2305 15.8597 33.7643 17.0272 34.7712C18.1947 35.7781 18.9433 37.1852 19.1259 38.7161C19.3085 40.2469 18.912 41.7907 18.0141 43.044V43.044L18.0311 44.7768Z" fill="white"/>
<path d="M18.0315 44.7787C18.0315 44.7787 18.0315 44.7374 18.0315 44.6596C18.0315 44.5819 18.0315 44.4701 18.0315 44.3243C18.0315 44.0278 18.0169 43.5952 18.0072 43.0435L18.0436 43.0605C18.0416 43.0626 18.0391 43.0643 18.0364 43.0655C18.0337 43.0667 18.0308 43.0673 18.0278 43.0673C18.0249 43.0673 18.0219 43.0667 18.0192 43.0655C18.0165 43.0643 18.0141 43.0626 18.012 43.0605C18.0092 43.0562 18.0077 43.0511 18.0077 43.0459C18.0077 43.0407 18.0092 43.0357 18.012 43.0313C18.5913 42.218 18.9627 41.2751 19.0935 40.2851C19.1785 39.6384 19.1613 38.9823 19.0425 38.3409C18.9036 37.6125 18.6344 36.9151 18.2477 36.2824C17.8147 35.5854 17.2491 34.9802 16.583 34.501C15.8652 33.9783 15.04 33.6221 14.1673 33.4584C13.2387 33.2859 12.283 33.3266 11.3724 33.5775C10.4157 33.8448 9.54043 34.3459 8.82548 35.0357C8.45506 35.3807 8.12856 35.77 7.85336 36.1949C7.72941 36.4112 7.61033 36.6251 7.49367 36.8462L7.34785 37.1865L7.27738 37.3542L7.22148 37.5291C6.92763 38.4366 6.84452 39.3991 6.97845 40.3434C7.10563 41.2316 7.43125 42.0797 7.93113 42.8248C8.80247 44.1528 10.1543 45.0917 11.703 45.4446L12.2133 45.5321C12.381 45.5589 12.5487 45.5613 12.6994 45.5783C13.0137 45.5988 13.3291 45.5923 13.6423 45.5589C14.6325 45.4643 15.5849 45.1307 16.4177 44.5867H16.4323L17.6159 44.7423L17.927 44.786L18.0363 44.803H17.9342L17.628 44.7714L16.4275 44.6402H16.442C15.6088 45.2035 14.6499 45.5532 13.6496 45.6585C13.3326 45.6949 13.013 45.703 12.6945 45.6828C12.5293 45.6682 12.3616 45.6658 12.1914 45.6415L11.6738 45.554C10.9341 45.3897 10.2307 45.0915 9.59831 44.6742C8.89524 44.1999 8.29377 43.5901 7.82905 42.8807C7.31934 42.1245 6.98703 41.263 6.85693 40.3604C6.71796 39.3993 6.8011 38.4191 7.09996 37.4951L7.15586 37.3177L7.22877 37.1452C7.27981 37.0309 7.32841 36.9021 7.37702 36.8001C7.48638 36.5716 7.62005 36.3553 7.74156 36.1342C8.01711 35.7029 8.34349 35.3064 8.71368 34.953C9.4416 34.2546 10.3319 33.7485 11.3044 33.4803C12.2401 33.2168 13.2239 33.1727 14.1794 33.3515C15.0672 33.5189 15.906 33.8835 16.634 34.4184C17.3068 34.9065 17.8767 35.5226 18.3109 36.2314C18.7023 36.8745 18.9732 37.5836 19.1105 38.3239C19.2266 38.9747 19.2405 39.6397 19.1518 40.2948C19.0124 41.2935 18.6293 42.2425 18.0363 43.0581L18.0023 43.0289C18.0043 43.0268 18.0068 43.0251 18.0095 43.0239C18.0122 43.0228 18.0151 43.0222 18.0181 43.0222C18.021 43.0222 18.024 43.0228 18.0267 43.0239C18.0294 43.0251 18.0318 43.0268 18.0339 43.0289C18.035 43.0312 18.0355 43.0337 18.0355 43.0362C18.0355 43.0387 18.035 43.0412 18.0339 43.0435V44.3388C18.0339 44.4798 18.0339 44.5819 18.0339 44.6694C18.0339 44.7569 18.0315 44.7787 18.0315 44.7787Z" fill="#263238"/>
<path d="M10.2836 39.8265L11.054 39.0002L12.6434 40.3199L15.5719 37.3039L16.3399 38.0767L12.5827 41.8656L10.2836 39.8265Z" fill="#33CC33"/>
<path d="M23.8771 36.9117C24.056 35.7534 24.6644 34.705 25.5813 33.975C26.4981 33.245 27.6563 32.8869 28.8251 32.9721L29.0682 32.9891C31.654 33.3294 32.8084 35.7184 32.3977 38.2945L31.496 47.4373L31.4523 49.3256L25.2915 49.8846L25.4252 45.894C25.4252 45.894 22.956 45.3254 23.1066 42.827C23.1698 41.6191 23.532 39.1451 23.8771 36.9117Z" fill="#FFBF9D"/>
<path d="M25.4024 45.8923C26.5632 45.9757 27.7235 45.7226 28.7441 45.1633C28.7441 45.1633 27.8765 46.9665 25.4024 46.5607V45.8923Z" fill="#FF9A6C"/>
<path d="M31.8182 40.6884C31.8277 40.5971 31.8556 40.5087 31.9004 40.4286C31.9451 40.3484 32.0057 40.2782 32.0785 40.2223C32.1513 40.1663 32.2347 40.1258 32.3237 40.1031C32.4126 40.0805 32.5053 40.0762 32.5959 40.0906C33.0601 40.1684 33.5681 40.4697 33.4563 41.4297C33.2788 43.1309 31.6044 42.6011 31.6068 42.5525C31.6092 42.5039 31.7356 41.403 31.8182 40.6884Z" fill="#FFBF9D"/>
<path d="M32.0472 41.9569C32.0472 41.9569 32.0739 41.9812 32.1225 42.0103C32.19 42.0474 32.2693 42.057 32.3437 42.0371C32.4613 41.9796 32.5613 41.8915 32.6332 41.782C32.705 41.6725 32.7461 41.5457 32.752 41.4149C32.7705 41.2696 32.7572 41.122 32.7131 40.9823C32.7015 40.9289 32.6774 40.879 32.6427 40.8368C32.6081 40.7945 32.5639 40.7611 32.5138 40.7393C32.4804 40.7271 32.4439 40.7268 32.4103 40.7383C32.3767 40.7498 32.348 40.7724 32.3291 40.8025C32.3024 40.8486 32.3097 40.8827 32.2999 40.8851C32.2902 40.8875 32.2659 40.8535 32.2999 40.7855C32.3125 40.7437 32.3403 40.7082 32.3777 40.6858C32.4028 40.6702 32.4308 40.6598 32.4601 40.6552C32.4893 40.6506 32.5191 40.6519 32.5478 40.6591C32.6118 40.6801 32.6697 40.7163 32.7167 40.7645C32.7636 40.8128 32.7983 40.8716 32.8176 40.9361C32.8746 41.0914 32.8921 41.2584 32.8686 41.4222C32.8224 41.7624 32.6256 42.0662 32.3607 42.11C32.3135 42.1191 32.2649 42.1173 32.2185 42.1047C32.1722 42.092 32.1294 42.0689 32.0934 42.0371C32.0448 42.0006 32.0399 41.9617 32.0472 41.9569Z" fill="#FF9A6C"/>
<path d="M33.1825 38.9582C33.0415 39.4442 33.0925 40.2584 32.6575 40.1466C31.7899 39.9279 31.9989 41.7044 31.5833 41.5294C31.1677 41.3544 30.8105 40.8538 30.7838 39.7602C30.7522 38.3749 31.3087 37.3736 30.7643 35.7842C30.5899 35.4675 30.3368 35.2012 30.0295 35.0109C29.7221 34.8206 29.3708 34.7128 29.0096 34.6978C28.6456 34.6899 28.2855 34.775 27.9636 34.9451C27.6416 35.1152 27.3684 35.3647 27.1699 35.67C27.0921 35.1839 26.8564 34.4548 26.4262 34.2118C26.2106 34.0937 25.9651 34.0415 25.7201 34.0618C25.4751 34.0821 25.2415 34.174 25.0482 34.326C24.8636 34.488 24.7436 34.7112 24.7106 34.9546C24.6775 35.198 24.7336 35.4452 24.8684 35.6505C24.7688 35.6807 24.6622 35.678 24.5642 35.643C24.4662 35.608 24.382 35.5425 24.324 35.4561C24.3149 35.5691 24.3294 35.6828 24.3667 35.79C24.4039 35.8971 24.463 35.9953 24.5403 36.0783C24.3612 36.0333 24.2047 35.9244 24.1004 35.772C24.1442 35.9738 24.1855 36.173 24.2292 36.3723C23.5001 36.3918 22.7856 35.6846 22.5815 35.0575C22.2753 34.1024 22.511 33.14 23.0457 32.2919C23.307 31.8631 23.6718 31.5069 24.1066 31.256C24.5414 31.005 25.0324 30.8673 25.5343 30.8555C26.5356 30.8555 27.374 31.3416 27.7605 32.2627C28.4118 31.8034 29.729 31.643 30.4532 31.9735C30.8155 32.1428 31.1284 32.4022 31.362 32.7268C31.5955 33.0514 31.742 33.4305 31.7875 33.8278C32.0206 33.7461 32.2713 33.7279 32.5138 33.7748C32.7564 33.8218 32.9821 33.9323 33.1679 34.0951L33.2602 34.1753C33.5149 34.4183 33.704 34.7217 33.8098 35.0574C33.9156 35.3932 33.9348 35.7502 33.8654 36.0953C33.8119 36.3748 33.7147 36.6615 33.6588 36.8851C33.4911 37.5583 33.1825 38.9582 33.1825 38.9582Z" fill="#263238"/>
<path d="M24.2099 35.4229C24.2099 35.4229 24.188 35.4229 24.1515 35.3768C24.0987 35.3298 24.0507 35.2777 24.0082 35.2212C23.8478 35.0089 23.7487 34.7568 23.7214 34.4921C23.6972 34.2965 23.715 34.098 23.7737 33.9098C23.8324 33.7216 23.9305 33.5481 24.0616 33.4009C24.223 33.2203 24.4259 33.0816 24.6529 32.9969C24.8798 32.9122 25.124 32.8841 25.3643 32.9149C25.6118 32.9528 25.8476 33.0459 26.0545 33.1871C26.2496 33.3117 26.4242 33.4658 26.5721 33.644C26.9873 34.154 27.2032 34.7973 27.1797 35.4545C27.1797 35.5469 27.1797 35.6174 27.1578 35.666C27.1561 35.6908 27.1512 35.7153 27.1432 35.7389C27.167 35.3866 27.1333 35.0329 27.0436 34.6914C26.9403 34.324 26.7615 33.9821 26.5187 33.6877C26.2324 33.319 25.8207 33.0682 25.3618 32.9829C25.1328 32.9548 24.9003 32.9823 24.6841 33.0631C24.4679 33.1439 24.2744 33.2757 24.1199 33.4471C23.9939 33.5871 23.8986 33.7521 23.8404 33.9313C23.7823 34.1105 23.7624 34.2999 23.7821 34.4873C23.8047 34.743 23.8935 34.9884 24.0397 35.1993C24.1418 35.3452 24.2147 35.4181 24.2099 35.4229Z" fill="#455A64"/>
<path d="M23.8741 36.1858C23.8538 36.1604 23.8367 36.1326 23.823 36.1032C23.7914 36.0473 23.7453 35.9646 23.6894 35.8601C23.5261 35.5558 23.3919 35.2369 23.2884 34.9075C23.22 34.6777 23.1824 34.4399 23.1766 34.2002C23.1677 33.923 23.2182 33.647 23.3248 33.3909C23.4476 33.1061 23.6512 32.8636 23.9105 32.6934C24.1876 32.5132 24.5066 32.4077 24.8365 32.3872C25.1677 32.3695 25.4989 32.4216 25.8086 32.5403C26.0929 32.6508 26.3592 32.8031 26.5984 32.9924C27.0167 33.3015 27.3202 33.7409 27.4612 34.2415C27.5502 34.5805 27.5324 34.9387 27.4101 35.2671C27.3772 35.3526 27.3348 35.4341 27.2838 35.5102C27.2676 35.539 27.2471 35.5652 27.223 35.5879C27.2869 35.4806 27.3406 35.3675 27.3834 35.2501C27.4913 34.9264 27.5006 34.5779 27.4101 34.2488C27.2654 33.7612 26.9649 33.3344 26.5547 33.0337C26.075 32.6431 25.4719 32.4363 24.8535 32.4504C24.5358 32.4698 24.2285 32.5712 23.9616 32.7445C23.7145 32.906 23.5195 33.1356 23.4002 33.4055C23.2966 33.6531 23.2461 33.9197 23.2519 34.1881C23.2543 34.4224 23.2878 34.6553 23.3515 34.8807C23.4485 35.2088 23.5746 35.5277 23.7282 35.8334L23.8498 36.0764C23.8623 36.1118 23.8705 36.1485 23.8741 36.1858V36.1858Z" fill="#455A64"/>
<path d="M32.5805 37.8525C32.5805 37.8525 32.7385 37.7237 32.9475 37.4782C33.2168 37.157 33.4037 36.7749 33.4919 36.3651C33.5749 35.9543 33.5549 35.5293 33.4335 35.1281C33.3412 34.8195 33.2367 34.642 33.2488 34.642C33.2811 34.6768 33.3081 34.7161 33.329 34.7587C33.3908 34.8724 33.4428 34.9911 33.4846 35.1135C33.6247 35.5216 33.6524 35.9599 33.5647 36.3824C33.4771 36.8049 33.2773 37.196 32.9864 37.5147C32.8992 37.6108 32.8041 37.6994 32.702 37.7796C32.6655 37.8099 32.6245 37.8345 32.5805 37.8525V37.8525Z" fill="#455A64"/>
<path d="M31.0266 37.8091C31.0266 37.8091 31.1116 37.7703 31.2477 37.6779C31.436 37.5482 31.5849 37.3691 31.6779 37.1602L31.7484 36.9974L31.7338 37.1748C31.7119 37.4179 31.6876 37.6925 31.6609 37.9914L31.605 37.9574C31.849 37.7907 32.0575 37.5773 32.2185 37.3295C32.3796 37.0817 32.4899 36.8045 32.5431 36.5138C32.5897 36.2485 32.5897 35.9771 32.5431 35.7118C32.4897 35.4682 32.4081 35.2317 32.3 35.007C32.3 35.007 32.3122 35.0192 32.3316 35.0483C32.3595 35.0905 32.3846 35.1343 32.407 35.1796C32.492 35.3448 32.5549 35.5205 32.5941 35.7021C32.6844 36.1386 32.6425 36.5922 32.4737 37.0048C32.3048 37.4173 32.0167 37.7702 31.6463 38.0181L31.5831 38.0595V37.9841C31.6147 37.6852 31.6439 37.4081 31.6706 37.17L31.7265 37.1846C31.6244 37.4 31.4624 37.5814 31.2599 37.7071C31.2044 37.7395 31.1468 37.7679 31.0873 37.7921C31.0682 37.8013 31.0477 37.807 31.0266 37.8091V37.8091Z" fill="#455A64"/>
<path d="M30.5529 34.22C30.4546 34.0339 30.3208 33.8688 30.1592 33.734C29.9799 33.5914 29.7691 33.4939 29.5443 33.4496C29.2699 33.3974 28.9863 33.4227 28.7253 33.5225C28.4621 33.621 28.2263 33.781 28.0375 33.9892C27.8831 34.1596 27.7575 34.3542 27.6657 34.5651C27.5879 34.7632 27.5262 34.9672 27.481 35.1751C27.4759 35.1173 27.48 35.0591 27.4932 35.0026C27.5175 34.8454 27.559 34.6914 27.6171 34.5433C27.7044 34.323 27.8285 34.1192 27.9841 33.9406C28.1792 33.7229 28.4245 33.556 28.6986 33.4545C28.973 33.3504 29.2712 33.326 29.5589 33.384C29.7929 33.4334 30.0109 33.5403 30.1932 33.6951C30.3152 33.7993 30.4165 33.9254 30.4921 34.0669C30.5114 34.1056 30.5284 34.1454 30.5432 34.186C30.5529 34.203 30.5553 34.2176 30.5529 34.22Z" fill="#455A64"/>
<path d="M30.1542 32.9143C30.0047 32.8372 29.8475 32.7761 29.6852 32.732C29.2874 32.647 28.8724 32.7055 28.5138 32.8973C28.1606 33.0997 27.873 33.3991 27.685 33.7601C27.5368 34.0371 27.4882 34.2291 27.476 34.2242C27.4766 34.1779 27.4848 34.1319 27.5003 34.0882C27.5351 33.9669 27.5806 33.8489 27.6364 33.7358C27.8181 33.3558 28.1115 33.0404 28.4773 32.8317C28.849 32.6306 29.2829 32.5768 29.6924 32.681C29.8149 32.7133 29.9319 32.7632 30.04 32.8293C30.0825 32.8511 30.1211 32.8799 30.1542 32.9143V32.9143Z" fill="#455A64"/>
<path d="M20.693 73.8812C20.2115 75.8074 20.0182 77.7943 20.1195 79.7771C20.1851 81.036 24.2267 117.374 24.2267 117.374L29.3643 116.912L28.4773 82.9365L28.6911 83.1285C28.6911 83.1285 31.7533 97.4235 31.9575 99.6837C32.1397 101.713 34.5822 118.03 34.5822 118.03L39.5692 117.787L38.4391 97.1586L36.9274 78.4453L36.3223 72.9917L20.693 73.8812Z" fill="#263238"/>
<path d="M29.4664 80.0131C29.3905 80.0651 29.3089 80.1083 29.2233 80.1419C28.9968 80.2511 28.7564 80.3288 28.5088 80.3728C28.3343 80.403 28.1559 80.403 27.9814 80.3728C27.7777 80.3332 27.5891 80.2372 27.4371 80.0958C27.2815 79.9286 27.1711 79.7245 27.1163 79.5028C27.0555 79.2792 27.0215 79.0459 26.9802 78.8101C26.8198 77.8648 26.7153 77.002 26.6569 76.3798C26.6278 76.0688 26.6108 75.8136 26.601 75.6386C26.5901 75.5474 26.5901 75.4552 26.601 75.364C26.6263 75.452 26.6426 75.5424 26.6496 75.6337C26.6739 75.833 26.7055 76.0809 26.742 76.3628C26.8222 76.9874 26.9388 77.8453 27.0992 78.7931C27.1794 79.2598 27.2329 79.7337 27.5173 80.0083C27.6485 80.1239 27.8038 80.209 27.9719 80.2574C28.14 80.3057 28.3168 80.3161 28.4894 80.2878C28.7321 80.2508 28.9701 80.1872 29.199 80.0982C29.2841 80.0585 29.374 80.0299 29.4664 80.0131V80.0131Z" fill="#455A64"/>
<path d="M27.8451 75.5463C27.8451 75.5463 27.884 75.5171 27.9642 75.5122C28.0796 75.5138 28.1914 75.5531 28.2825 75.624C28.3525 75.6761 28.4096 75.7435 28.4496 75.8209C28.4896 75.8984 28.5115 75.984 28.5134 76.0712C28.5025 76.1787 28.4611 76.2809 28.3942 76.3658C28.3272 76.4506 28.2375 76.5147 28.1355 76.5504C28.0335 76.5861 27.9234 76.592 27.8182 76.5674C27.713 76.5428 27.6169 76.4887 27.5413 76.4115C27.4896 76.3429 27.454 76.2637 27.4372 76.1795C27.4204 76.0954 27.4227 76.0085 27.4441 75.9254C27.4683 75.8122 27.532 75.7114 27.6239 75.641C27.6895 75.5924 27.7333 75.5876 27.7357 75.5924C27.6296 75.683 27.5562 75.806 27.5267 75.9424C27.5125 76.0128 27.514 76.0855 27.5312 76.1553C27.5485 76.2251 27.581 76.2901 27.6264 76.3458C27.6856 76.4082 27.7624 76.4511 27.8466 76.4689C27.9308 76.4867 28.0184 76.4785 28.0978 76.4455C28.1796 76.421 28.2524 76.3728 28.3069 76.3071C28.3613 76.2414 28.3952 76.161 28.4041 76.0761C28.4036 76.0041 28.3877 75.933 28.3575 75.8676C28.3274 75.8022 28.2836 75.744 28.2291 75.6969C28.1209 75.6063 27.9861 75.5534 27.8451 75.5463V75.5463Z" fill="#455A64"/>
<path d="M36.858 78.1204C36.794 78.1384 36.7276 78.1466 36.6611 78.1447C36.4824 78.1579 36.3028 78.1579 36.124 78.1447C34.932 78.0484 33.8095 77.5447 32.9452 76.7181C32.815 76.5942 32.694 76.461 32.5831 76.3196C32.5053 76.2199 32.4664 76.1616 32.4737 76.1567C32.481 76.1519 32.6682 76.3584 33.0035 76.6549C33.8803 77.4299 34.972 77.9198 36.1338 78.0597C36.5761 78.0985 36.8556 78.0912 36.858 78.1204Z" fill="#455A64"/>
<path d="M23.0041 75.5408C22.9229 75.746 22.8151 75.9397 22.6833 76.1168C22.3937 76.5618 22.0509 76.9698 21.6626 77.3319C21.2754 77.6927 20.8452 78.0045 20.3818 78.2603C20.1953 78.3755 19.9942 78.4654 19.784 78.5276C19.9625 78.4044 20.1475 78.2909 20.3381 78.1874C20.7805 77.9123 21.1962 77.5967 21.58 77.2444C21.9604 76.8882 22.3062 76.4968 22.6129 76.0754C22.7326 75.8897 22.8633 75.7111 23.0041 75.5408V75.5408Z" fill="#455A64"/>
<path d="M17.9031 55.0173C17.14 57.2459 17.2251 57.0539 15.7961 63.7129C15.5336 64.9426 15.9978 66.8723 17.106 67.4556C18.2142 68.0388 20.1828 67.3972 20.8414 66.3279L21.901 56.2786L17.9031 55.0173Z" fill="#FFBF9D"/>
<path d="M36.3239 67.0856L36.2923 61.79L36.3142 61.2699L41.6876 60.0159C41.6876 60.0159 40.6329 56.5406 39.6656 52.8052C39.1066 50.6471 37.2474 49.5632 36.7978 49.3299L36.6982 49.2837L31.5265 47.0964C30.4815 48.2095 28.9601 49.1038 27.4947 48.6761C26.6602 48.4036 25.9213 47.8975 25.3657 47.2179L21.8831 48.4161C20.8764 48.7615 20.0231 49.4497 19.4722 50.3603C18.7431 51.6605 16.4125 57.5783 16.3639 57.6998L20.6801 58.0862C20.6801 58.0862 19.9145 72.0896 20.194 74.5904C20.194 74.5904 21.2439 75.3195 23.8881 75.441C29.2542 75.684 37.2377 75.3122 37.2377 75.3122C37.1113 74.5053 36.9801 73.1565 36.9072 72.4736L36.3239 67.0856Z" fill="#1D1D1D"/>
<path d="M20.8369 52.8902C20.8588 52.8902 20.7446 56.2294 20.5817 60.3464C20.4189 64.4633 20.2682 67.8025 20.2536 67.8025C20.2391 67.8025 20.346 64.4633 20.4967 60.3439C20.6473 56.2246 20.815 52.8878 20.8369 52.8902Z" fill="#263238"/>
<path d="M35.734 53.8197C35.6976 53.8197 35.8045 56.7847 35.977 60.4374C36.1496 64.0902 36.3197 67.0503 36.3586 67.0479C36.3975 67.0454 36.2881 64.0853 36.1156 60.4301C35.943 56.775 35.7729 53.8197 35.734 53.8197Z" fill="#263238"/>
<path d="M41.716 62.5424C41.541 61.2277 41.3952 60.066 41.3952 60.066L37.0984 61.0648L37.2831 61.7575L33.9609 58.3818L33.4335 58.428L31.7615 60.1656C31.7615 60.1656 33.2197 63.2448 34.0678 64.4429C35.1712 66.0032 36.904 68.38 39.2784 68.1807C41.473 67.996 42.0295 64.8998 41.716 62.5424Z" fill="#FFBF9D"/>
<path d="M39.3871 63.3273C39.1264 62.9847 38.8072 62.6909 38.4441 62.4597C38.1076 62.1904 37.728 61.9801 37.3213 61.8375C37.3019 61.874 37.8074 62.1608 38.3615 62.5666C38.9156 62.9725 39.3603 63.3565 39.3871 63.3273Z" fill="#FF9A6C"/>
<path d="M28.1589 53.9744L29.6365 53.221L31.5516 53.8285L32.4994 54.7034L33.9576 58.3781L35.1266 59.8581L33.0632 62.5314L31.7582 60.1498C31.7582 60.1498 30.6524 59.6637 30.2076 58.9686C29.7629 58.2736 29.566 57.8896 29.566 57.8896C29.566 57.8896 28.9269 57.5834 28.8078 57.2869C28.7377 57.1214 28.6997 56.944 28.696 56.7643L29.0192 56.2904C28.9987 56.0845 29.0322 55.8768 29.1164 55.6877C29.1776 55.5997 29.2616 55.5299 29.3595 55.486C29.3595 55.486 29.2647 55.0874 29.4129 54.944C29.6931 54.7793 29.9895 54.6441 30.2976 54.5406L29.6535 54.1736C29.6535 54.1736 28.2391 54.6281 28.1589 53.9744Z" fill="#FFBF9D"/>
<path d="M30.3514 55.3083C30.3514 55.3278 30.1253 55.3327 29.8653 55.391C29.6053 55.4493 29.3792 55.5319 29.3792 55.5149C29.5252 55.4174 29.6914 55.3543 29.8653 55.3302C30.0237 55.2868 30.1897 55.2793 30.3514 55.3083V55.3083Z" fill="#FF9A6C"/>
<path d="M29.9084 56.1295C29.7669 56.156 29.6241 56.1747 29.4806 56.1854C29.3412 56.2181 29.2 56.2424 29.0578 56.2583C29.1828 56.1809 29.3244 56.1343 29.4709 56.1222C29.6154 56.0913 29.765 56.0938 29.9084 56.1295V56.1295Z" fill="#FF9A6C"/>
<path d="M29.2851 57.4241C29.2681 57.4241 29.2559 57.339 29.2584 57.2345C29.2608 57.13 29.2754 57.0474 29.2924 57.0474C29.3094 57.0474 29.3216 57.1324 29.3216 57.2369C29.3216 57.3414 29.3021 57.4241 29.2851 57.4241Z" fill="#FF9A6C"/>
<path d="M29.5666 57.826C29.5473 57.7038 29.5008 57.5876 29.4305 57.4858C29.3472 57.3945 29.2464 57.3209 29.134 57.2695C29.134 57.2695 29.1802 57.2573 29.2507 57.2695C29.3468 57.2982 29.4317 57.3559 29.4937 57.4347C29.5528 57.5105 29.589 57.6016 29.5982 57.6972C29.5909 57.7823 29.5739 57.826 29.5666 57.826Z" fill="#FF9A6C"/>
<path d="M30.721 56.6516C30.6521 56.5544 30.5645 56.4717 30.4634 56.4086C30.3532 56.3579 30.2345 56.3282 30.1134 56.3211C30.1134 56.3211 30.1523 56.2944 30.2252 56.2895C30.3195 56.285 30.4132 56.3069 30.4957 56.3529C30.5782 56.3988 30.6461 56.467 30.6919 56.5496C30.7259 56.6055 30.7283 56.6492 30.721 56.6516Z" fill="#FF9A6C"/>
<path d="M31.3939 55.8217C31.3769 55.8217 31.3186 55.6758 31.1509 55.5786C31.0494 55.5252 30.9405 55.4875 30.8277 55.4668C30.8277 55.4668 30.8666 55.445 30.9346 55.445C31.0211 55.4508 31.1047 55.4784 31.1776 55.5252C31.2532 55.5718 31.3146 55.6382 31.3551 55.7172C31.3988 55.7779 31.4012 55.8192 31.3939 55.8217Z" fill="#FF9A6C"/>
<path d="M31.8457 55.4278C31.8457 55.4278 31.8457 55.3768 31.8287 55.3014C31.8165 55.2039 31.7797 55.1111 31.7217 55.0317C31.6622 54.9526 31.5836 54.8899 31.4933 54.8494C31.4228 54.8178 31.3742 54.8081 31.3766 54.7984C31.3791 54.7887 31.4301 54.7838 31.5079 54.7984C31.6138 54.8296 31.7068 54.8945 31.7728 54.9831C31.8374 55.0721 31.8723 55.1793 31.8724 55.2893C31.8724 55.3816 31.853 55.4302 31.8457 55.4278Z" fill="#FF9A6C"/>
<path d="M31.2186 54.4666C31.2186 54.4885 30.91 54.4933 30.5381 54.5492C30.1663 54.6051 29.8844 54.7388 29.8746 54.7218C30.071 54.5916 30.2947 54.5085 30.5284 54.4788C30.6891 54.4533 30.8517 54.4411 31.0145 54.4423C31.0834 54.4383 31.1525 54.4465 31.2186 54.4666V54.4666Z" fill="#FF9A6C"/>
<g opacity="0.3">
<path d="M27.0135 62.7646C26.9934 62.3358 26.8682 61.9186 26.6489 61.5495C26.2163 60.9395 25.3682 60.8204 24.6245 60.8471C23.8808 60.8739 23.1031 61.0294 22.4032 60.7742L20.3083 66.9909C21.0939 66.7936 21.7714 66.2975 22.1966 65.6081C22.4105 65.2606 22.566 64.8571 22.8893 64.6092C23.3364 64.2666 23.9537 64.3152 24.5176 64.3103C25.1056 64.3035 25.6901 64.2177 26.2552 64.0551C26.5022 64.0063 26.7266 63.8783 26.8944 63.6906C27.0864 63.433 27.0572 63.083 27.0135 62.7646Z" fill="black"/>
</g>
<path d="M21.6212 55.486L22.2725 62.4051C22.2743 62.5623 22.3141 62.7167 22.3886 62.8551C22.4631 62.9935 22.57 63.1118 22.7003 63.1998L26.8974 63.1123C27.1488 62.7747 27.2634 62.3545 27.2182 61.936L26.7516 55.3135C26.7249 54.9149 26.5766 54.6281 26.3968 54.6233L21.976 54.5212C21.75 54.5163 21.575 54.9927 21.6212 55.486Z" fill="#263238"/>
<path d="M21.0113 56.8796C20.9294 56.7713 20.8863 56.6386 20.889 56.5028C20.8916 56.3671 20.9398 56.2361 21.0259 56.1311C21.116 56.0269 21.2282 55.944 21.3543 55.8885C21.4804 55.8331 21.6173 55.8063 21.755 55.8103C22.027 55.8179 22.2948 55.8798 22.5424 55.9926C22.8468 56.1206 23.1382 56.2777 23.4125 56.4616C23.5181 56.5151 23.6114 56.59 23.6863 56.6817C23.7612 56.7734 23.8161 56.8797 23.8475 56.9939C23.8815 57.2369 23.6215 57.4799 23.4198 57.3657C23.5627 57.4304 23.6883 57.5279 23.7863 57.6504C23.8843 57.7729 23.9519 57.9169 23.9836 58.0705C24.02 58.3646 23.8572 58.5201 23.5704 58.5979C23.6782 58.6431 23.7639 58.7287 23.8093 58.8363C23.8547 58.944 23.8562 59.0651 23.8135 59.1738C23.7457 59.2763 23.6433 59.3509 23.525 59.3839C23.4067 59.417 23.2805 59.4062 23.1694 59.3537C22.9494 59.24 22.7613 59.0728 22.6226 58.8676C22.7607 59.2019 22.7871 59.5719 22.698 59.9224C22.0709 59.6793 21.4536 58.9964 21.6408 58.3354C21.4871 58.209 21.3799 58.0351 21.3359 57.8411C21.2919 57.6471 21.3136 57.4439 21.3977 57.2636C21.2539 57.1966 21.1309 57.0918 21.0419 56.9604C20.9529 56.8291 20.9011 56.676 20.8922 56.5175" fill="#FFBF9D"/>
<path d="M20.9433 56.2775L20.8923 59.2352L20.1243 60.3896L16.6077 63.5368C16.6077 63.5368 17.1277 67.8117 18.7172 67.3451C20.3066 66.8785 20.6881 66.5747 21.6335 64.8516C22.1342 63.9257 22.4452 62.4213 22.7344 61.5634C22.9046 61.0579 22.7563 59.4296 22.7563 59.4296L20.9433 56.2775Z" fill="#FFBF9D"/>
<path d="M23.5706 58.5992C23.4752 58.5342 23.3851 58.4619 23.3008 58.3829C23.0957 58.2039 22.8533 58.0728 22.5912 57.9989C22.4472 57.9664 22.2977 57.9664 22.1537 57.9989C22.0358 58.025 21.9253 58.0773 21.8305 58.152C21.7462 58.2252 21.674 58.3114 21.6166 58.4072C21.6166 58.4072 21.6166 58.3732 21.6434 58.3173C21.6806 58.2393 21.7335 58.1698 21.7989 58.1132C21.8967 58.0279 22.0133 57.9671 22.1392 57.9358C22.2926 57.8994 22.4524 57.8994 22.6058 57.9358C22.8797 58.0112 23.1303 58.1541 23.3349 58.3513C23.4236 58.4237 23.5028 58.507 23.5706 58.5992V58.5992Z" fill="#FF9A6C"/>
<path d="M23.5273 57.3958C23.4124 57.3609 23.3022 57.3119 23.1992 57.2499C23.102 57.2013 22.9854 57.1406 22.8517 57.0871C22.7045 57.0334 22.5534 56.9911 22.3996 56.9607C22.2478 56.9288 22.0917 56.923 21.9379 56.9437C21.8147 56.965 21.6977 57.0132 21.5952 57.0847C21.4974 57.154 21.4147 57.2424 21.3522 57.3447C21.3556 57.3123 21.3655 57.2809 21.3814 57.2524C21.4226 57.1721 21.4806 57.1017 21.5515 57.0458C21.6579 56.9626 21.783 56.9067 21.916 56.883C22.0765 56.8513 22.2416 56.8513 22.4021 56.883C22.5599 56.9139 22.7145 56.9594 22.8638 57.0191C22.9841 57.0707 23.101 57.13 23.2138 57.1965C23.3227 57.2558 23.4274 57.3223 23.5273 57.3958Z" fill="#FF9A6C"/>
<path d="M16.9876 65.2321C16.9009 64.8716 16.886 64.4975 16.9438 64.1312C17.0138 63.7358 17.1545 63.3562 17.3594 63.0108C17.6162 62.5916 17.9285 62.209 18.2878 61.8735C18.6669 61.5065 19.0558 61.1881 19.4033 60.9013C19.7139 60.6372 20.0107 60.3573 20.2928 60.0629C20.4809 59.8556 20.6524 59.6338 20.8056 59.3994C20.8639 59.3168 20.9128 59.228 20.9514 59.1345C20.8848 59.211 20.8239 59.2922 20.7691 59.3776C20.6035 59.5938 20.4241 59.7992 20.232 59.9924C19.989 60.2354 19.6852 60.5125 19.3328 60.8066C18.9804 61.1006 18.6037 61.419 18.2076 61.7787C17.8402 62.1218 17.5235 62.5154 17.2671 62.9477C17.0561 63.3068 16.9151 63.7026 16.8515 64.1142C16.8112 64.3891 16.8211 64.6691 16.8806 64.9405C16.8965 65.014 16.9176 65.0863 16.9438 65.1568C16.973 65.2054 16.9827 65.2321 16.9876 65.2321Z" fill="#FF9A6C"/>
</g>
<defs>
<clipPath id="clip0_7_5">
<rect x="24.2174" y="24.3726" width="16.5823" height="16.5823" rx="8.29114" transform="rotate(-56.2153 24.2174 24.3726)" fill="white"/>
</clipPath>
<clipPath id="clip1_7_5">
<rect x="11.8607" y="63.2249" width="15.4852" height="15.4852" rx="7.7426" transform="rotate(23.7079 11.8607 63.2249)" fill="white"/>
</clipPath>
<clipPath id="clip2_7_5">
<rect x="86.3132" y="56.6556" width="15.4852" height="15.4852" rx="7.7426" transform="rotate(23.7079 86.3132 56.6556)" fill="white"/>
</clipPath>
</defs>
</svg>
