<svg width="101" height="100" viewBox="0 0 101 100" fill="none" xmlns="http://www.w3.org/2000/svg">
<circle cx="50.5" cy="50" r="50" fill="#009BE1" fill-opacity="0.3"/>
<mask id="mask0_6_745" style="mask-type:alpha" maskUnits="userSpaceOnUse" x="0" y="0" width="101" height="100">
<circle cx="50.5" cy="50" r="50" fill="#009BE1"/>
</mask>
<g mask="url(#mask0_6_745)">
<path d="M74.1495 59.7637C64.4641 70.7876 54.3967 83.5883 51.9011 97.4163C51.9011 97.6233 52.2746 97.6946 52.334 97.4877C53.4359 93.7168 54.8542 90.0162 56.5783 86.4138C62.9446 84.9368 69.2007 83.731 72.5451 78.4152C75.9405 72.9567 75.5246 65.8358 74.871 59.8636C74.8625 59.5639 74.3447 59.5496 74.1495 59.7637Z" fill="#F5F5F5"/>
<path d="M56.7053 86.3084C61.0599 78.1029 66.6454 69.8974 73.7503 63.1118C73.7503 63.0619 73.8691 63.1118 73.8266 63.176C69.1749 67.9852 65.6437 73.2224 62.1974 78.5453C65.4061 75.8054 68.9203 73.358 71.9592 70.454C72.0186 70.3969 72.112 70.4539 72.0526 70.5396C69.0391 73.5792 65.7371 76.8828 61.8154 79.1375C60.7543 80.7715 59.6933 82.4126 58.6153 84.0537C58.8784 83.9253 59.15 83.8183 59.4641 83.7041C59.515 83.7041 59.5575 83.7469 59.4641 83.7612C59.167 83.8896 58.8699 84.0252 58.5558 84.1393C58.0465 84.9099 57.5457 85.6877 57.0194 86.4654C56.943 86.6367 56.6205 86.4868 56.7053 86.3084Z" fill="#263238"/>
<path d="M59.9487 83.4436C62.5553 82.2098 65.0417 80.8046 67.3846 79.2409C67.444 79.1981 67.5374 79.2409 67.478 79.3194C65.2072 80.9828 62.7148 82.4195 60.0505 83.6006C60.0258 83.6119 59.9966 83.6145 59.9696 83.6078C59.9425 83.6012 59.9197 83.5857 59.9062 83.5649C59.8927 83.5441 59.8896 83.5196 59.8975 83.4968C59.9055 83.4741 59.9239 83.455 59.9487 83.4436V83.4436Z" fill="#263238"/>
<path d="M50.781 95.361C50.781 95.5251 51.1375 95.5251 51.1375 95.361C51.1885 90.8087 51.1375 86.2279 51.2224 81.6542C52.6145 79.2996 55.594 78.001 57.6652 76.1101C59.1544 74.7315 60.4503 73.2137 61.5275 71.5864C64.0217 67.7001 65.5467 63.427 66.0094 59.0284C66.5781 54.155 64.3796 38.0793 61.9349 38.6359C60.6701 38.9284 56.5702 46.8914 55.4836 49.5243C53.7229 53.8529 52.433 58.3069 51.6299 62.8315C49.652 73.57 49.8133 84.5725 50.781 95.361Z" fill="#F5F5F5"/>
<path d="M50.7469 75.7129C51.061 69.969 52.6059 64.1181 54.0574 58.5527C55.6108 52.5376 57.4528 46.8651 61.1199 41.4994C61.1265 41.4896 61.1355 41.481 61.1461 41.474C61.1568 41.4671 61.169 41.462 61.182 41.459C61.195 41.456 61.2086 41.4552 61.2219 41.4567C61.2353 41.4581 61.2482 41.4617 61.2599 41.4673C61.2716 41.4729 61.2819 41.4805 61.2901 41.4894C61.2984 41.4984 61.3045 41.5086 61.308 41.5195C61.3116 41.5305 61.3125 41.5419 61.3108 41.5531C61.3091 41.5644 61.3048 41.5752 61.2981 41.5851C58.8443 45.7621 56.9429 50.1527 55.6278 54.6782C55.874 54.3571 56.1711 54.0503 56.4766 53.7435C56.5785 53.6222 56.8077 53.7435 56.7143 53.8577C56.3844 54.3453 55.9977 54.8042 55.5599 55.2276C55.5519 55.2308 55.5432 55.2324 55.5344 55.2324C55.5256 55.2324 55.5169 55.2308 55.509 55.2276C54.2442 59.5088 53.3359 63.9326 52.555 68.3279L52.7247 68.1567C52.7326 68.1472 52.7446 68.1408 52.7582 68.1388C52.7717 68.1368 52.7856 68.1394 52.7969 68.146C52.8081 68.1526 52.8158 68.1627 52.8182 68.1741C52.8206 68.1855 52.8175 68.1972 52.8096 68.2066C52.7077 68.3565 52.5974 68.4992 52.4955 68.6419C52.1051 70.8752 51.7401 73.0943 51.3751 75.2991C56.0947 71.9098 60.1267 67.9141 62.4101 62.9836H62.4525C60.2286 68.0925 56.7143 72.6305 51.3071 75.7343C51.2053 76.3265 51.1119 76.9188 51.0101 77.511C51.0101 77.6394 50.7554 77.6037 50.7554 77.511C50.7554 76.9901 50.7554 76.4621 50.8148 75.9341C50.7852 75.9318 50.7571 75.9219 50.7344 75.9057C50.7118 75.8895 50.6956 75.8678 50.6882 75.8436C50.6807 75.8194 50.6824 75.7938 50.6929 75.7704C50.7034 75.747 50.7223 75.7269 50.7469 75.7129V75.7129Z" fill="#263238"/>
<path d="M52.971 67.3648C56.5787 62.8411 59.9486 58.4457 62.5885 53.4439C62.5885 53.3869 62.7328 53.4439 62.7074 53.4867C60.4749 58.4814 57.3596 63.4761 53.1493 67.4861C53.0644 67.5646 52.8947 67.4576 52.971 67.3648Z" fill="#263238"/>
<path d="M57.7923 52.3186C59.2948 50.0996 60.8651 47.9305 62.2742 45.6686C62.3167 45.6044 62.4185 45.6686 62.3846 45.7186C61.2328 48.0851 59.7724 50.3369 58.03 52.4328C57.8941 52.547 57.6734 52.4471 57.7923 52.3186Z" fill="#263238"/>
<path d="M57.1813 53.2888V53.3251C57.1813 53.3251 57.1484 53.2888 57.1813 53.2888Z" fill="#263238"/>
<path d="M47.1145 82.1872C47.0431 85.2044 46.6195 88.2085 45.8497 91.1562C45.9092 91.4844 45.9601 91.8055 46.0195 92.1408C47.1225 88.886 47.7635 85.5329 47.9294 82.1515C47.9606 82.1046 47.977 82.0518 47.977 81.9981C47.977 81.9444 47.9606 81.8916 47.9294 81.8447V81.8447C48.083 77.3032 47.6819 72.7604 46.7325 68.2877C45.0348 59.9181 41.3848 51.8767 34.4412 45.612C34.3844 45.5705 34.3171 45.5405 34.2443 45.5243C34.1716 45.5081 34.0955 45.5061 34.0217 45.5185C33.9479 45.5309 33.8785 45.5574 33.8188 45.5958C33.7591 45.6343 33.7107 45.6837 33.6772 45.7404C30.876 51.734 31.8522 58.8764 34.2375 64.8557C35.5382 68.0904 37.3941 71.148 39.7465 73.9317C42.1487 76.7287 45.1791 79.1119 47.1145 82.1872Z" fill="#F5F5F5"/>
<path d="M35.2804 48.4046C41.859 57.3807 46.4428 68.0265 47.003 78.6295C47.003 78.815 46.638 78.8649 46.604 78.6723C46.4428 77.7233 46.273 76.7743 46.0947 75.8182C43.3784 73.6277 40.5772 71.3158 38.6333 68.5759C38.6333 68.526 38.6758 68.4689 38.7267 68.5117C40.9841 70.8427 43.4048 73.0586 45.9759 75.1475C45.509 72.8071 44.9488 70.4953 44.2782 68.2263L43.7604 67.7125C43.6416 67.5984 43.8368 67.4343 43.9556 67.5484L44.1084 67.6911C43.1752 64.5899 42.0244 61.5378 40.6621 58.5509C38.9644 56.8741 37.1139 55.4185 35.8916 53.3993C35.8882 53.3901 35.8885 53.3803 35.8926 53.3713C35.8966 53.3623 35.9042 53.3547 35.914 53.3498C35.9238 53.3448 35.9352 53.3428 35.9466 53.344C35.9579 53.3452 35.9684 53.3496 35.9764 53.3565C36.9611 54.5124 37.9118 55.6754 39.0238 56.7528C39.4652 57.1809 39.9575 57.5805 40.4159 57.9944C38.8961 54.7435 37.0945 51.5908 35.0257 48.5616C35.0135 48.5475 35.0046 48.5316 34.9997 48.5146C34.9948 48.4977 34.9938 48.4801 34.997 48.4629C35.0002 48.4457 35.0073 48.4291 35.0181 48.4142C35.0288 48.3993 35.043 48.3864 35.0597 48.376C35.0764 48.3657 35.0954 48.3583 35.1155 48.3542C35.1357 48.35 35.1566 48.3492 35.1771 48.3519C35.1976 48.3545 35.2172 48.3606 35.235 48.3696C35.2527 48.3786 35.2681 48.3905 35.2804 48.4046V48.4046Z" fill="#263238"/>
<path d="M36.6137 59.4784C38.7359 61.883 41.1636 64.1805 43.1414 66.6636C43.2008 66.735 43.0735 66.8135 43.0056 66.7564C40.4815 64.5901 38.2861 62.1695 36.4694 59.5498C36.41 59.4713 36.5713 59.4071 36.6137 59.4784Z" fill="#263238"/>
<path d="M43.4391 67.2189L43.5325 67.2974C43.5919 67.3474 43.5325 67.433 43.4307 67.383L43.3373 67.3045C43.2779 67.2475 43.3627 67.169 43.4391 67.2189Z" fill="#263238"/>
<path d="M24.9673 65.6868C25.7456 70.7017 28.1475 75.4406 31.9108 79.3865C33.4647 80.9316 35.3842 82.1878 37.5472 83.0754C39.9664 84.0672 42.513 85.2302 45.0595 86.065C46.2616 88.6331 47.1545 91.296 47.7249 94.0137C47.8013 93.7782 47.8862 93.5356 47.9626 93.3002C46.3498 81.6055 37.3435 71.609 25.8331 65.1945C25.7402 65.1402 25.63 65.1108 25.5168 65.1102C25.4037 65.1096 25.293 65.1377 25.1993 65.191C25.1056 65.2443 25.0333 65.3202 24.9919 65.4087C24.9504 65.4972 24.9419 65.5941 24.9673 65.6868V65.6868Z" fill="#F5F5F5"/>
<path d="M28.9312 69.1198C28.8548 69.0556 28.9312 68.9343 29.05 68.9914C35.3784 72.9432 40.4225 78.1695 43.7182 84.1894C43.8031 84.3464 43.5484 84.4891 43.438 84.3321C42.9033 83.5401 42.3515 82.7766 41.7998 82.0203C39.1683 81.6065 36.7067 80.051 34.7289 78.574C34.6779 78.5383 34.7289 78.4741 34.8137 78.5098C35.8153 79.2809 36.9308 79.9403 38.1327 80.472C39.2108 80.9286 40.3567 81.1855 41.4772 81.5851C40.4982 80.2864 39.4824 79.0354 38.4298 77.8319C35.5902 76.9239 32.9269 75.6663 30.527 74.1002C30.4506 74.0502 30.527 73.9504 30.6034 73.9932C32.9787 75.2021 35.4298 76.3026 37.946 77.2896C36.341 75.5096 34.609 73.813 32.7595 72.2094C31.8682 71.8169 30.96 71.4173 30.0941 70.9892C30.0806 70.9805 30.071 70.9682 30.0668 70.9543C30.0626 70.9404 30.064 70.9258 30.0708 70.9126C30.0776 70.8995 30.0895 70.8887 30.1045 70.8819C30.1195 70.8751 30.1367 70.8727 30.1535 70.8751C30.8719 71.0912 31.5584 71.3761 32.1993 71.7241C31.1637 70.8394 30.0941 69.9689 28.9312 69.1198Z" fill="#263238"/>
<path d="M29.1941 73.1581C29.353 73.2313 29.5012 73.3199 29.6355 73.4221C29.6779 73.4221 29.6355 73.5006 29.5846 73.4792C29.4201 73.4195 29.2636 73.3453 29.1177 73.258C29.0413 73.2152 29.1092 73.1081 29.1941 73.1581Z" fill="#263238"/>
<path d="M64.3375 86.1298H35.9774V91.4027H64.3375V86.1298Z" fill="#455A64"/>
<path d="M11.905 54.7615C11.905 54.7615 11.905 54.7382 11.905 54.6946V54.5027C11.905 54.3253 11.905 54.0811 11.905 53.7641C11.905 53.1186 11.905 52.191 11.8817 51.0192L11.9253 51.0628L-2.22096 51.0919L-2.14827 51.0192V51.9846C-2.14827 52.3015 -2.14827 52.6156 -2.14827 52.9296V54.7702L-2.21805 54.7004L7.86317 54.7324L10.8378 54.7528H11.6433H11.8526H11.9282H11.8643H11.6607H10.8727L7.9126 54.7731L-2.21805 54.8051H-2.28784V54.7353C-2.28784 54.1344 -2.28784 53.5209 -2.28784 52.8947V51.025L-2.21515 50.9523L11.9311 50.9814H11.9747V51.025C11.9747 52.2056 11.9573 53.1448 11.9515 53.7961C11.9515 54.1073 11.9515 54.3486 11.9515 54.5231V54.7092C11.9079 54.7441 11.9079 54.7615 11.905 54.7615Z" fill="#009BE1"/>
<path d="M19.2042 76.6593C19.2042 76.6593 19.2042 76.636 19.2042 76.5924V76.4005C19.2042 76.2231 19.2042 75.9789 19.2042 75.6619C19.2042 75.0164 19.2042 74.0888 19.181 72.917L19.2246 72.9606L5.07831 72.9897L5.151 72.917V73.8824C5.151 74.1993 5.151 74.5134 5.151 74.8274V76.668L5.08122 76.5982L15.1624 76.6302L18.1371 76.6506H18.9425H19.1519H19.2275H19.1635H18.96H18.172L15.2119 76.6709L5.08122 76.7029H5.01143V76.6331C5.01143 76.0322 5.01143 75.4187 5.01143 74.7925V72.9228L5.08412 72.8501L19.2304 72.8792H19.274V72.9228C19.274 74.1034 19.2566 75.0426 19.2508 75.6939C19.2508 76.0051 19.2508 76.2464 19.2508 76.4209V76.607C19.2071 76.6418 19.2071 76.6593 19.2042 76.6593Z" fill="#009BE1"/>
<path d="M99.4962 62.0608C99.4962 62.0608 99.4962 62.0375 99.4962 61.9939V61.802C99.4962 61.6246 99.4962 61.3804 99.4962 61.0634C99.4962 60.4179 99.4962 59.4903 99.4729 58.3185L99.5166 58.3621L85.3703 58.3912L85.443 58.3185V59.2839C85.443 59.6008 85.443 59.9148 85.443 60.2289V62.0695L85.3732 61.9997L95.4544 62.0317L98.4291 62.052H99.2345H99.4439H99.5195H99.4555H99.252H98.464L95.5038 62.0724L85.3732 62.1044H85.3034V62.0346C85.3034 61.4337 85.3034 60.8201 85.3034 60.194V58.3243L85.3761 58.2516L99.5224 58.2807H99.566V58.3243C99.566 59.5048 99.5486 60.4441 99.5427 61.0954C99.5427 61.4065 99.5427 61.6479 99.5427 61.8223V62.0084C99.4991 62.0433 99.4991 62.0608 99.4962 62.0608Z" fill="#009BE1"/>
<path d="M33.8028 25.5644C33.8028 25.5644 33.8028 25.5412 33.8028 25.4975V25.3056C33.8028 25.1283 33.8028 24.884 33.8028 24.5671C33.8028 23.9215 33.8028 22.994 33.7795 21.8221L33.8231 21.8657L19.6769 21.8948L19.7495 21.8221V22.7875C19.7495 23.1044 19.7495 23.4185 19.7495 23.7325V25.5731L19.6798 25.5034L29.761 25.5353L32.7356 25.5557H33.5411H33.7504H33.826H33.7621H33.5585H32.7705L29.8104 25.576L19.6798 25.608H19.61V25.5382C19.61 24.9373 19.61 24.3238 19.61 23.6976V21.8279L19.6827 21.7552L33.8289 21.7843H33.8726V21.8279C33.8726 23.0085 33.8551 23.9477 33.8493 24.599C33.8493 24.9102 33.8493 25.1515 33.8493 25.326V25.5121C33.8057 25.547 33.8057 25.5644 33.8028 25.5644Z" fill="#009BE1"/>
<path d="M55.7006 2.93667C55.7006 2.93667 55.7006 2.91341 55.7006 2.8698V2.67788C55.7006 2.50051 55.7006 2.25625 55.7006 1.93931C55.7006 1.29378 55.7006 0.366205 55.6773 -0.805625L55.7209 -0.76201L41.5747 -0.73293L41.6474 -0.805625V0.159756C41.6474 0.476702 41.6474 0.790741 41.6474 1.10478V2.94539L41.5776 2.87561L51.6588 2.9076L54.6334 2.92795H55.4389H55.6483H55.7238H55.6599H55.4563H54.6683L51.7082 2.9483L41.5776 2.98029H41.5078V2.9105C41.5078 2.30956 41.5078 1.69603 41.5078 1.06989V-0.799803L41.5805 -0.872498L55.7268 -0.843427H55.7704V-0.799803C55.7704 0.380749 55.7529 1.31996 55.7471 1.9713C55.7471 2.28243 55.7471 2.52377 55.7471 2.69824V2.88433C55.7035 2.91922 55.7035 2.93667 55.7006 2.93667Z" fill="#009BE1"/>
<path d="M84.8977 25.5644C84.8977 25.5644 84.8977 25.5412 84.8977 25.4975V25.3056C84.8977 25.1283 84.8977 24.884 84.8977 24.5671C84.8977 23.9215 84.8977 22.994 84.8744 21.8221L84.918 21.8657L70.7717 21.8948L70.8444 21.8221V22.7875C70.8444 23.1044 70.8444 23.4185 70.8444 23.7325V25.5731L70.7747 25.5034L80.8559 25.5353L83.8305 25.5557H84.636H84.8453H84.9209H84.857H84.6534H83.8654L80.9053 25.576L70.7747 25.608H70.7049V25.5382C70.7049 24.9373 70.7049 24.3238 70.7049 23.6976V21.8279L70.7776 21.7552L84.9238 21.7843H84.9675V21.8279C84.9675 23.0085 84.95 23.9477 84.9442 24.599C84.9442 24.9102 84.9442 25.1515 84.9442 25.326V25.5121C84.9006 25.547 84.9006 25.5644 84.8977 25.5644Z" fill="#009BE1"/>
<path d="M83.2605 52.5688C90.3744 52.5688 96.1414 46.8018 96.1414 39.6879C96.1414 32.5739 90.3744 26.807 83.2605 26.807C76.1466 26.807 70.3796 32.5739 70.3796 39.6879C70.3796 46.8018 76.1466 52.5688 83.2605 52.5688Z" fill="#F5F5F5"/>
<g clip-path="url(#clip0_6_745)">
<path d="M83.1871 49.3711C88.618 49.3711 93.0207 44.9684 93.0207 39.5375C93.0207 34.1065 88.618 29.7039 83.1871 29.7039C77.7561 29.7039 73.3535 34.1065 73.3535 39.5375C73.3535 44.9684 77.7561 49.3711 83.1871 49.3711Z" fill="#26A17B"/>
<path fill-rule="evenodd" clip-rule="evenodd" d="M84.3683 40.3875V40.3862C84.3007 40.3911 83.9522 40.412 83.1748 40.412C82.554 40.412 82.117 40.3936 81.9634 40.3862V40.3881C79.5738 40.283 77.7903 39.8669 77.7903 39.3691C77.7903 38.8718 79.5738 38.4558 81.9634 38.3488V39.9738C82.1195 39.9849 82.5669 40.0113 83.1852 40.0113C83.927 40.0113 84.2989 39.9806 84.3683 39.9744V38.3501C86.753 38.4564 88.5322 38.8725 88.5322 39.3691C88.5322 39.8669 86.753 40.2817 84.3683 40.3875M84.3683 38.181V36.7269H87.6958V34.5094H78.6359V36.7269H81.9634V38.1804C79.2591 38.3046 77.2254 38.8405 77.2254 39.4821C77.2254 40.1238 79.2591 40.6591 81.9634 40.7839V45.4438H84.3683V40.7826C87.0683 40.6585 89.0971 40.1232 89.0971 39.4821C89.0971 38.8411 87.0683 38.3058 84.3683 38.181" fill="white"/>
</g>
<path d="M96.1407 39.6868C96.1407 39.6868 96.1407 39.616 96.1407 39.4779C96.1407 39.3397 96.1407 39.1344 96.1116 38.8654C96.0607 38.0819 95.9391 37.3046 95.7482 36.5429C95.4392 35.3384 94.9594 34.1842 94.3234 33.1156C93.4743 31.7022 92.3642 30.4633 91.0523 29.4646C89.4606 28.2542 87.608 27.4327 85.6423 27.0658C83.9769 26.7586 82.2677 26.779 80.6102 27.1258C80.0282 27.2515 79.4551 27.4154 78.8947 27.6165C75.8675 28.7192 73.3643 30.9176 71.88 33.777C71.5616 34.3725 71.2941 34.9938 71.0804 35.6343C70.2056 38.2646 70.2056 41.1073 71.0804 43.7376C71.1821 44.061 71.3093 44.3736 71.4329 44.6862C71.5565 44.9988 71.7055 45.3004 71.8636 45.5948C72.1678 46.1829 72.5178 46.7462 72.9104 47.2795C74.4142 49.329 76.4916 50.8872 78.8801 51.7572C79.4408 51.9575 80.0139 52.1214 80.5957 52.2479C81.1637 52.3675 81.7393 52.4477 82.3184 52.4878C83.4253 52.5719 84.5385 52.5108 85.6295 52.3061C86.6492 52.1193 87.6418 51.8068 88.5844 51.3756C89.4553 50.9806 90.2789 50.4886 91.0396 49.9091C92.3513 48.9094 93.4613 47.6699 94.3107 46.2563C94.6583 45.6759 94.9579 45.0682 95.2066 44.439C95.4188 43.913 95.5955 43.3732 95.7354 42.8235C95.9263 42.0618 96.048 41.2845 96.0989 40.501C96.1225 40.232 96.1189 40.0267 96.128 39.8886C96.1371 39.7505 96.128 39.6796 96.128 39.6796C96.128 39.6796 96.128 39.9631 96.1098 40.501C96.0642 41.2874 95.9462 42.0679 95.7572 42.8326C95.6197 43.3847 95.4448 43.9269 95.2339 44.4554C94.9868 45.0846 94.6884 45.6924 94.3416 46.2727C93.4946 47.6952 92.3844 48.9435 91.0705 49.9509C90.3115 50.5404 89.4878 51.0416 88.6153 51.4447C87.6686 51.8814 86.6711 52.1983 85.6459 52.3878C84.5475 52.5928 83.4271 52.6539 82.313 52.5696C81.7309 52.5294 81.1522 52.4493 80.5811 52.3297C79.9943 52.2036 79.4163 52.0391 78.8511 51.8372C76.4453 50.963 74.3527 49.3953 72.8377 47.3322C72.4417 46.7954 72.0892 46.2278 71.7837 45.6348C71.6237 45.3386 71.4874 45.0297 71.3493 44.7262C71.2112 44.4227 71.0949 44.0974 70.9859 43.7703C70.1024 41.1209 70.1024 38.2564 70.9859 35.607C71.1971 34.9629 71.4615 34.3374 71.7764 33.7371C72.083 33.1449 72.436 32.5779 72.8322 32.0415C74.3476 29.9796 76.4393 28.4121 78.8438 27.5365C79.4094 27.336 79.9872 27.1721 80.5738 27.0458C82.2421 26.7004 83.9617 26.6825 85.6368 26.9931C87.6134 27.3655 89.4754 28.195 91.0741 29.4156C92.3875 30.4228 93.4975 31.6704 94.3452 33.0919C94.6959 33.6714 94.9986 34.2786 95.2502 34.9074C95.4605 35.4401 95.6341 35.9866 95.77 36.5429C95.959 37.3076 96.077 38.0881 96.1225 38.8745C96.148 39.4033 96.1407 39.6868 96.1407 39.6868Z" fill="#263238"/>
<path d="M76.4009 50.5924C76.4227 50.6051 74.2293 54.2923 71.4943 58.8265C68.7593 63.3606 66.5331 67.0279 66.5113 67.0133C66.4895 66.9988 68.6829 63.3133 71.4179 58.7774C74.1529 54.2415 76.3791 50.5778 76.4009 50.5924Z" fill="#141414"/>
<path d="M18.1312 52.9759C25.2451 52.9759 31.0121 47.2089 31.0121 40.095C31.0121 32.981 25.2451 27.2141 18.1312 27.2141C11.0173 27.2141 5.25032 32.981 5.25032 40.095C5.25032 47.2089 11.0173 52.9759 18.1312 52.9759Z" fill="#F5F5F5"/>
<path d="M18.0652 49.9021C23.4961 49.9021 27.8988 45.4994 27.8988 40.0685C27.8988 34.6375 23.4961 30.2349 18.0652 30.2349C12.6342 30.2349 8.23157 34.6375 8.23157 40.0685C8.23157 45.4994 12.6342 49.9021 18.0652 49.9021Z" fill="#F3BA2F"/>
<path d="M15.6786 39.0952L18.0657 36.7081L20.454 39.0965L21.843 37.7075L18.0657 33.9301L14.2896 37.7062L15.6786 39.0952ZM11.9197 40.0761L13.3087 38.6871L14.6977 40.0761L13.3087 41.4651L11.9197 40.0761ZM15.6786 41.057L18.0657 43.4441L20.454 41.0558L21.843 42.4442L18.0657 46.2221L14.2896 42.446L14.2877 42.4442L15.6786 41.057ZM21.4337 40.0761L22.8227 38.6871L24.2117 40.0761L22.8227 41.4651L21.4337 40.0761ZM19.4744 40.0749H19.4756V40.0761L18.0657 41.486L16.6576 40.0786L16.6552 40.0761L16.6576 40.0743L16.9041 39.8272L17.024 39.7074L18.0657 38.6662L19.475 40.0755L19.4744 40.0749Z" fill="white"/>
<path d="M30.9901 40.0977C30.9901 40.0977 30.9901 40.0268 30.9901 39.8887C30.9901 39.7506 30.9901 39.5452 30.961 39.2762C30.9101 38.4927 30.7884 37.7154 30.5975 36.9538C30.2886 35.7492 29.8088 34.595 29.1728 33.5264C28.3237 32.1131 27.2136 30.8741 25.9017 29.8754C24.3104 28.6654 22.4584 27.844 20.4934 27.4766C18.8275 27.1693 17.1177 27.1897 15.4596 27.5366C14.8776 27.6623 14.3045 27.8262 13.7441 28.0273C10.7149 29.1288 8.20953 31.3274 6.72389 34.1879C6.41049 34.7838 6.14787 35.4051 5.93882 36.0451C5.06409 38.6754 5.06409 41.5181 5.93882 44.1484C6.04059 44.4719 6.1678 44.7844 6.29138 45.097C6.41495 45.4096 6.56579 45.7112 6.72389 46.0056C7.02681 46.5941 7.37624 47.1574 7.76883 47.6903C9.27128 49.7373 11.3459 51.2941 13.7313 52.1644C14.2926 52.3649 14.8662 52.5288 15.4487 52.6551C17.1062 53.0022 18.8156 53.022 20.4807 52.7132C21.5028 52.5285 22.4978 52.2172 23.4429 51.7864C24.3138 51.3914 25.1374 50.8995 25.898 50.3199C27.2097 49.3202 28.3197 48.0807 29.1691 46.6671C29.5167 46.0867 29.8163 45.479 30.0651 44.8499C30.2773 44.3238 30.454 43.784 30.5939 43.2343C30.7857 42.4728 30.9074 41.6954 30.9574 40.9118C30.9828 40.6428 30.9773 40.4375 30.9864 40.2994C30.9955 40.1613 30.9864 40.0904 30.9864 40.0904C30.9864 40.0904 30.9864 40.3739 30.9683 40.9118C30.8921 42.2686 30.5963 43.6041 30.0923 44.8662C29.8453 45.4954 29.5468 46.1033 29.2 46.6835C28.353 48.1061 27.2429 49.3543 25.9289 50.3617C24.3312 51.5826 22.4696 52.4123 20.4934 52.7841C19.3951 52.9891 18.2747 53.0502 17.1605 52.9658C16.5784 52.9257 15.9998 52.8456 15.4287 52.726C14.8424 52.5999 14.2651 52.4354 13.7004 52.2335C11.2939 51.3598 9.2006 49.792 7.68523 47.7284C7.28986 47.1912 6.93743 46.6237 6.63121 46.0311C6.47129 45.7349 6.33499 45.4259 6.19688 45.1224C6.05877 44.819 5.94246 44.4937 5.83342 44.1666C4.9514 41.517 4.9514 38.6529 5.83342 36.0033C6.0443 35.3596 6.30873 34.7347 6.62394 34.1352C6.93011 33.5422 7.28318 32.9746 7.67978 32.4378C9.1995 30.378 11.2951 28.8142 13.7023 27.9437C14.2672 27.7432 14.8445 27.5793 15.4305 27.453C17.0994 27.1075 18.8195 27.0896 20.4953 27.4003C22.4711 27.7732 24.3324 28.6028 25.9307 29.8227C27.2441 30.83 28.3542 32.0775 29.2019 33.4991C29.5483 34.0796 29.8467 34.6873 30.0941 35.3164C30.5981 36.5785 30.8939 37.914 30.9701 39.2708C30.9973 39.8069 30.9901 40.0977 30.9901 40.0977Z" fill="#263238"/>
<path d="M34.7588 65.6124C34.737 65.627 32.5181 62.3777 29.8031 58.356C27.0881 54.3344 24.8964 51.0596 24.9237 51.0451C24.9509 51.0306 27.1644 54.278 29.8812 58.3015C32.5981 62.325 34.7806 65.5979 34.7588 65.6124Z" fill="#141414"/>
<path d="M49.8201 32.2155C56.934 32.2155 62.701 26.4485 62.701 19.3346C62.701 12.2207 56.934 6.45369 49.8201 6.45369C42.7062 6.45369 36.9392 12.2207 36.9392 19.3346C36.9392 26.4485 42.7062 32.2155 49.8201 32.2155Z" fill="#F5F5F5"/>
<g clip-path="url(#clip1_6_745)">
<path d="M49.6441 29.3684C55.075 29.3684 59.4777 24.8924 59.4777 19.3709C59.4777 13.8494 55.075 9.3734 49.6441 9.3734C44.2131 9.3734 39.8105 13.8494 39.8105 19.3709C39.8105 24.8924 44.2131 29.3684 49.6441 29.3684Z" fill="#F7931A"/>
<path d="M54.0624 18.1337C54.2554 16.824 53.2739 16.1198 51.9328 15.65L52.368 13.8754L51.306 13.6067L50.8819 15.3344C50.6028 15.2632 50.3164 15.1969 50.0307 15.1307L50.4578 13.3918L49.3958 13.1225L48.9606 14.8964C48.7295 14.8427 48.5021 14.7902 48.2821 14.7339L48.2833 14.7283L46.8181 14.3565L46.5354 15.51C46.5354 15.51 47.324 15.6937 47.3074 15.7049C47.7376 15.8143 47.815 16.1036 47.8021 16.3335L47.3067 18.3549C47.3362 18.3624 47.3744 18.3737 47.4174 18.3905L47.3049 18.3624L46.6104 21.1942C46.5575 21.3267 46.4242 21.526 46.123 21.4504C46.1341 21.466 45.3511 21.2548 45.3511 21.2548L44.8238 22.4907L46.2066 22.8413C46.4635 22.9069 46.7155 22.9756 46.9632 23.04L46.5237 24.8345L47.5852 25.1032L48.0203 23.3287C48.3104 23.408 48.5919 23.4818 48.8672 23.5517L48.4333 25.3188L49.4953 25.5875L49.9348 23.7967C51.7466 24.1453 53.1086 24.0047 53.682 22.3389C54.1442 20.998 53.6593 20.2238 52.706 19.7196C53.4005 19.5571 53.9229 19.0928 54.0624 18.1337V18.1337ZM51.6348 21.5941C51.3072 22.9356 49.0854 22.2102 48.3651 22.0284L48.949 19.6508C49.6693 19.8339 51.9783 20.1957 51.6348 21.5941ZM51.9636 18.1143C51.6643 19.3347 49.8155 18.7142 49.2163 18.5624L49.7449 16.4066C50.3441 16.5585 52.2758 16.8415 51.9636 18.1143Z" fill="white"/>
</g>
<path d="M62.7011 19.3373C62.7011 19.3373 62.7011 19.2664 62.7011 19.1283C62.7011 18.9902 62.7011 18.7848 62.672 18.5159C62.6211 17.7323 62.4994 16.955 62.3085 16.1934C61.9996 14.9888 61.5198 13.8346 60.8838 12.766C60.0347 11.3527 58.9246 10.1137 57.6127 9.11507C56.0214 7.90505 54.1694 7.08361 52.2044 6.71626C50.5385 6.40897 48.8287 6.42934 47.1706 6.77623C46.5886 6.90193 46.0155 7.06584 45.4551 7.26689C42.4258 8.36844 39.9205 10.567 38.4349 13.4275C38.1215 14.0234 37.8589 14.6447 37.6498 15.2847C36.7751 17.915 36.7751 20.7577 37.6498 23.388C37.7516 23.7115 37.8788 24.0241 38.0024 24.3366C38.126 24.6492 38.2768 24.9509 38.4349 25.2453C38.7378 25.8337 39.0872 26.3971 39.4798 26.9299C40.9823 28.977 43.0569 30.5337 45.4423 31.404C46.0036 31.6045 46.5772 31.7684 47.1597 31.8947C48.8172 32.2419 50.5266 32.2616 52.1917 31.9529C53.2138 31.7682 54.2088 31.4568 55.1539 31.026C56.0248 30.631 56.8484 30.1391 57.609 29.5595C58.9207 28.5599 60.0307 27.3203 60.8801 25.9068C61.2277 25.3264 61.5273 24.7186 61.7761 24.0895C61.9883 23.5634 62.165 23.0237 62.3049 22.4739C62.4967 21.7125 62.6184 20.9351 62.6684 20.1514C62.6938 19.8825 62.6883 19.6771 62.6974 19.539C62.7065 19.4009 62.6974 19.33 62.6974 19.33C62.6974 19.33 62.6974 19.6135 62.6793 20.1514C62.6031 21.5083 62.3073 22.8437 61.8033 24.1058C61.5563 24.7351 61.2578 25.3429 60.911 25.9231C60.064 27.3457 58.9539 28.594 57.6399 29.6013C56.0422 30.8223 54.1806 31.6519 52.2044 32.0237C51.1061 32.2287 49.9857 32.2898 48.8715 32.2055C48.2894 32.1653 47.7108 32.0852 47.1397 31.9656C46.5534 31.8395 45.9761 31.675 45.4114 31.4731C43.0049 30.5994 40.9116 29.0316 39.3962 26.9681C39.0009 26.4308 38.6484 25.8633 38.3422 25.2707C38.1823 24.9745 38.046 24.6656 37.9079 24.3621C37.7698 24.0586 37.6535 23.7333 37.5444 23.4062C36.6624 20.7566 36.6624 17.8925 37.5444 15.2429C37.7553 14.5992 38.0197 13.9743 38.3349 13.3748C38.6411 12.7818 38.9942 12.2142 39.3908 11.6774C40.9105 9.61761 43.0061 8.05385 45.4133 7.1833C45.9782 6.9828 46.5555 6.8189 47.1415 6.69263C48.8104 6.34711 50.5305 6.32921 52.2063 6.63993C54.1821 7.01285 56.0434 7.84239 57.6417 9.06237C58.9551 10.0696 60.0652 11.3172 60.9129 12.7387C61.2593 13.3192 61.5577 13.927 61.8051 14.556C62.3091 15.8181 62.6049 17.1536 62.6811 18.5104C62.7083 19.0465 62.7011 19.3373 62.7011 19.3373Z" fill="#263238"/>
<path d="M50.2854 49.5533C50.2592 49.5528 50.2952 45.6183 50.3654 40.7665C50.4357 35.9147 50.5086 31.9749 50.5393 31.9785C50.5699 31.9822 50.5305 35.912 50.4607 40.7664C50.3909 45.6207 50.3116 49.5538 50.2854 49.5533Z" fill="#141414"/>
<path d="M57.8396 45.0482C58.578 45.7012 59.1476 46.523 59.5 47.4436C59.8523 48.3642 59.9769 49.3564 59.8631 50.3355C59.7415 51.2823 59.4264 52.3524 60.0098 53.1092C60.5932 53.8659 61.7884 53.8943 62.3434 54.6627C62.9918 55.5661 62.3434 56.8296 62.5434 57.9264C62.6509 58.4386 62.9372 58.8958 63.3511 59.2161C63.7649 59.5365 64.2792 59.6991 64.802 59.6749C63.5317 60.6088 62.0289 61.1751 60.4582 61.3118L59.3431 59.7249C59.7681 60.2833 59.6064 61.1284 59.143 61.6535C58.6797 62.1785 57.9896 62.4436 57.3095 62.6236C55.683 63.0384 53.9827 63.072 52.3411 62.7219C50.6994 62.3718 49.1608 61.6473 47.8451 60.605" fill="#263238"/>
<path d="M39.5677 52.5722C39.8411 51.8554 40.2744 51.2003 40.4711 50.4586C40.8945 48.8651 40.1978 47.0149 41.0512 45.603C41.6579 44.6029 42.8664 44.1512 44.0032 43.8612C45.14 43.5711 46.3585 43.3361 47.2336 42.556C47.8753 41.9826 48.2653 41.1692 48.9004 40.5941C49.8122 39.774 51.1123 39.544 52.3375 39.529C53.5976 39.514 54.8894 39.6957 55.9929 40.3074C57.0964 40.9192 57.9815 42.0043 58.1215 43.2561C58.1898 43.8662 58.0848 44.4962 58.2465 45.0896C58.4248 45.7397 58.9049 46.2564 59.1866 46.8782C59.4695 47.5375 59.5248 48.2723 59.3437 48.9665C59.1626 49.6607 58.7554 50.2749 58.1865 50.712L49.0188 61.4265C47.1736 62.0216 42.8264 60.9798 41.4929 59.573C40.1594 58.1661 38.8776 54.384 39.5677 52.5722Z" fill="#263238"/>
<path d="M58.0295 49.285C57.7978 46.7397 56.0209 43.6577 53.4873 43.9961L45.6097 46.223C45.239 46.2737 44.9006 46.4612 44.661 46.7487C44.4214 47.0361 44.2978 47.4027 44.3146 47.7765L45.6947 66.8853L45.6397 66.8987C45.6397 66.8987 47.585 72.2476 52.7872 70.4657C53.819 70.1124 54.2641 68.9656 54.4407 67.7871L54.4541 64.7634C54.4291 63.2183 54.4107 62.5848 54.4124 62.5965C54.4141 62.6082 57.6561 61.9648 58.2128 57.696C58.4962 55.5757 58.2928 52.112 58.0295 49.285Z" fill="#FFBE9D"/>
<path d="M54.4183 62.5922C52.4175 62.6777 50.4321 62.2068 48.6827 61.2321C48.6827 61.2321 50.1979 64.1758 54.44 63.659L54.4183 62.5922Z" fill="#EB996E"/>
<path d="M43.8724 46.7411C44.2924 46.1577 45.0109 45.8827 45.6926 45.6577C48.6383 44.6833 51.6896 44.0634 54.782 43.8108C55.132 44.4592 54.737 45.2993 54.1386 45.7293C53.5402 46.1594 52.7884 46.3044 52.0867 46.5294C51.3849 46.7545 50.6565 47.1162 50.3381 47.7829C50.0048 48.4913 50.2148 49.3598 49.9131 50.0832C49.393 51.33 47.6028 51.6517 47.0911 52.9018C46.7044 53.8453 47.2111 54.9021 47.2995 55.9138C47.3463 56.4302 47.2825 56.9507 47.1123 57.4404C46.9421 57.9302 46.6694 58.378 46.3124 58.7541C45.9554 59.1302 45.5224 59.4258 45.0421 59.6212C44.5619 59.8167 44.0455 59.9075 43.5274 59.8876C43.4951 56.2372 43.4629 52.5868 43.4307 48.9364C43.4157 48.1746 43.4273 47.3529 43.8724 46.7411Z" fill="#263238"/>
<path d="M36.0888 55.5827C36.6889 55.096 37.4306 54.6859 37.6973 53.9592C38.0824 52.9024 37.2823 51.5989 37.8857 50.6471C38.4357 49.7804 39.9259 49.8987 40.441 49.0103C40.8444 48.3169 40.4526 47.6668 40.6227 47.0484C40.7927 46.43 41.7061 45.9266 42.3395 46.0316L46.9567 53.4791C47.3001 55.9194 47.7018 57.2279 47.1134 58.6164C46.7917 59.3781 46.3833 60.1165 46.2316 60.93C46.0799 61.7434 46.2433 62.6802 46.89 63.1969C43.9064 63.2852 41.1961 61.5934 38.6958 59.9632L36.0505 58.238C35.7591 58.0792 35.5121 57.85 35.3321 57.5712C34.9653 56.8962 35.4887 56.0694 36.0888 55.5827Z" fill="#263238"/>
<path d="M38.6569 59.2261C38.7585 59.2639 38.8642 59.2896 38.9719 59.3027C39.2802 59.3495 39.5943 59.3427 39.9003 59.2827C40.3895 59.1912 40.8463 58.9734 41.2255 58.651C41.728 58.2144 42.0594 57.6137 42.1606 56.9558C42.2229 56.5751 42.2087 56.1858 42.1189 55.8107C42.0031 55.4129 41.8349 55.0324 41.6189 54.6789C41.392 54.317 41.219 53.9239 41.1055 53.5121C41.0155 53.0937 41.0388 52.602 41.3255 52.2586C41.6122 51.9152 42.1206 51.8452 42.5956 51.6802C42.8528 51.6025 43.0813 51.4506 43.2524 51.2435C43.4106 51.0178 43.4955 50.749 43.4957 50.4734C43.5157 49.9283 43.3074 49.4199 43.2324 48.9082C43.1856 48.6562 43.197 48.3968 43.2657 48.1498C43.3432 47.9069 43.506 47.7002 43.7241 47.5681C44.1675 47.2814 44.7242 47.2597 45.2476 47.2347C45.7888 47.2411 46.323 47.1116 46.8011 46.858C47.2612 46.6039 47.6428 46.2286 47.9046 45.7729C48.1295 45.3313 48.2836 44.8571 48.3613 44.3677C48.4348 43.9161 48.5544 43.4732 48.718 43.0459C48.8922 42.6557 49.1486 42.3077 49.4698 42.0258C50.0016 41.5583 50.6683 41.2718 51.3735 41.2077C52.0787 41.1436 52.7861 41.3052 53.3935 41.6691C53.8128 41.9109 54.1859 42.2253 54.4953 42.5975C54.754 42.9208 54.9749 43.2726 55.1537 43.646C55.1478 43.6191 55.1395 43.5929 55.1287 43.5676C55.1087 43.5176 55.0837 43.4393 55.0371 43.3443C54.905 43.0627 54.7405 42.7976 54.547 42.5542C54.2407 42.1667 53.8662 41.8385 53.4419 41.5857C52.8779 41.241 52.2276 41.0636 51.5667 41.074C50.7614 41.0977 49.9882 41.3952 49.3747 41.9174C49.0357 42.2118 48.764 42.5756 48.578 42.9842C48.4071 43.4201 48.282 43.8726 48.2046 44.3344C48.1281 44.8069 47.9785 45.2647 47.7612 45.6912C47.512 46.1188 47.1513 46.4708 46.7178 46.7096C46.2625 46.9497 45.7539 47.0707 45.2393 47.0613C44.7159 47.083 44.1275 47.098 43.6308 47.4164C43.3805 47.5686 43.1926 47.805 43.1007 48.0831C43.0248 48.3544 43.0116 48.6394 43.0624 48.9166C43.1457 49.4583 43.3457 49.9517 43.3257 50.4517C43.3265 50.6899 43.2544 50.9225 43.119 51.1185C42.9671 51.3 42.7655 51.4333 42.539 51.5019C42.3123 51.5852 42.0706 51.6369 41.8356 51.7235C41.5918 51.8007 41.3735 51.9424 41.2038 52.1336C40.8704 52.5386 40.8604 53.077 40.9555 53.5204C41.0739 53.9485 41.2547 54.3568 41.4922 54.7322C41.7067 55.0729 41.8748 55.4406 41.9922 55.8257C42.0811 56.1832 42.0987 56.5548 42.0439 56.9191C41.9525 57.5524 41.6416 58.1335 41.1655 58.561C40.802 58.8796 40.363 59.1 39.8903 59.2011C39.4847 59.2895 39.0657 59.298 38.6569 59.2261V59.2261Z" fill="#455A64"/>
<path d="M34.9445 53.912C34.8914 53.9828 34.8539 54.0641 34.8345 54.1504C34.774 54.4011 34.8066 54.6653 34.9262 54.8938C35.01 55.0607 35.1337 55.2044 35.2862 55.3122C35.4724 55.436 35.6895 55.5052 35.9129 55.5122C36.1851 55.5204 36.4543 55.4535 36.691 55.3188C36.9276 55.1841 37.1227 54.9869 37.2547 54.7488C37.4106 54.4764 37.4986 54.1706 37.5114 53.857C37.5167 53.5191 37.4602 53.183 37.3448 52.8653C37.1397 52.2102 36.743 51.5618 36.7697 50.81C36.7651 50.6253 36.7977 50.4416 36.8655 50.2698C36.9334 50.098 37.0352 49.9416 37.1647 49.8099C37.4431 49.5549 37.8548 49.5099 38.2615 49.5249C38.6682 49.5399 39.1116 49.6049 39.555 49.4549C39.7784 49.3762 39.9715 49.2293 40.1067 49.0348C40.2355 48.8404 40.3202 48.6203 40.3551 48.3897C40.4334 47.9297 40.3468 47.4846 40.3134 47.0563C40.2681 46.6451 40.3119 46.2289 40.4418 45.8361C40.6911 45.0867 41.2177 44.4611 41.9136 44.0876C42.5804 43.7309 43.3238 43.7259 43.9972 43.7175C44.6706 43.7092 45.3307 43.7042 45.8941 43.5142C46.3991 43.351 46.8662 43.088 47.2676 42.7408C47.5708 42.4819 47.8322 42.1777 48.0426 41.839C48.2305 41.5572 48.366 41.2438 48.4427 40.9139C48.3176 41.2232 48.1648 41.5206 47.986 41.8023C47.7694 42.1276 47.506 42.4192 47.2042 42.6674C46.8081 42.9973 46.3503 43.2449 45.8574 43.3958C45.3123 43.5742 44.6773 43.5775 43.9972 43.5742C43.3171 43.5709 42.5487 43.5742 41.8403 43.9459C41.1048 44.335 40.5464 44.9912 40.2801 45.7794C40.1425 46.1947 40.0948 46.6345 40.1401 47.0696C40.1767 47.5013 40.2568 47.9347 40.1851 48.3531C40.1134 48.7715 39.885 49.1582 39.4967 49.2848C39.1083 49.4115 38.6849 49.3549 38.2665 49.3465C37.8481 49.3382 37.3814 49.3765 37.0531 49.6799C36.9069 49.8277 36.7923 50.0036 36.716 50.197C36.6398 50.3904 36.6036 50.5972 36.6097 50.805C36.6082 51.1891 36.6824 51.5697 36.828 51.9251C36.9547 52.2685 37.1014 52.5919 37.2081 52.9086C37.3206 53.2097 37.3771 53.5289 37.3748 53.8504C37.3647 54.1422 37.2865 54.4276 37.1464 54.6838C37.0265 54.9058 36.8482 55.0908 36.6308 55.2189C36.4135 55.347 36.1652 55.4132 35.9129 55.4105C35.7068 55.4098 35.5049 55.3521 35.3295 55.2439C35.1563 55.1265 35.0204 54.9618 34.938 54.7695C34.8555 54.5771 34.83 54.3651 34.8645 54.1587C34.9028 53.9937 34.9528 53.917 34.9445 53.912Z" fill="#263238"/>
<path d="M66.1815 57.224C66.2548 57.4808 66.2377 57.755 66.1332 58.0008C66.0766 58.1424 65.989 58.2695 65.8768 58.3728C65.7645 58.476 65.6306 58.5528 65.4848 58.5975C65.2906 58.6448 65.0871 58.6369 64.8971 58.5748C64.7072 58.5126 64.5384 58.3987 64.4097 58.2458C64.262 58.0673 64.1822 57.8424 64.1846 57.6107C64.1871 57.3546 64.238 57.1012 64.3347 56.864C64.5163 56.3639 64.8664 55.8372 64.8481 55.1788C64.8425 54.8442 64.7667 54.5145 64.6258 54.211C64.4848 53.9075 64.2817 53.637 64.0296 53.4169C63.7654 53.1838 63.4594 53.0028 63.1279 52.8835C62.7876 52.7703 62.434 52.7019 62.0761 52.6802C61.7314 52.6585 61.3894 52.6055 61.0543 52.5218C60.7405 52.4404 60.4658 52.2501 60.2792 51.9851C60.1152 51.7161 60.0297 51.4066 60.0325 51.0916C60.0307 50.783 60.0717 50.4756 60.1542 50.1782C60.3059 49.5915 60.5109 49.0214 60.5059 48.453C60.5026 47.928 60.3424 47.4161 60.0458 46.9828C59.7932 46.6385 59.4783 46.3445 59.1174 46.1161C58.8541 45.9443 58.6039 45.7532 58.369 45.5443C58.1744 45.3607 58.019 45.1396 57.9123 44.8943C57.9123 44.8943 57.9123 44.9126 57.9223 44.9476C57.9356 44.9986 57.9534 45.0482 57.9756 45.096C58.057 45.2835 58.1742 45.4533 58.3206 45.596C58.5503 45.8177 58.7978 46.0201 59.0607 46.2011C59.4053 46.4293 59.7048 46.7192 59.9442 47.0562C60.2176 47.4725 60.3631 47.9599 60.3625 48.458C60.3625 48.9931 60.1592 49.5448 59.9992 50.1432C59.9107 50.4544 59.8664 50.7765 59.8675 51.1C59.8627 51.4467 59.9563 51.7877 60.1375 52.0834C60.3449 52.3828 60.6522 52.5985 61.0043 52.6918C61.35 52.7803 61.7033 52.8361 62.0594 52.8585C62.403 52.8791 62.7426 52.9441 63.0695 53.0519C63.3807 53.1649 63.6684 53.3344 63.9179 53.5519C64.1533 53.7562 64.3437 54.0072 64.4768 54.289C64.61 54.5708 64.683 54.8772 64.6914 55.1888C64.713 55.7922 64.3897 56.3022 64.2013 56.8223C64.1015 57.0772 64.0506 57.3486 64.0513 57.6224C64.0538 57.8836 64.1482 58.1356 64.318 58.3341C64.4633 58.5003 64.6524 58.6223 64.8638 58.686C65.0752 58.7496 65.3002 58.7525 65.5131 58.6942C65.7671 58.605 65.9811 58.4285 66.117 58.1962C66.2528 57.9638 66.3017 57.6907 66.2549 57.4257C66.2419 57.3548 66.2171 57.2867 66.1815 57.224Z" fill="#263238"/>
<path d="M42.9061 45.1107C42.621 46.0541 41.786 46.7109 41.2392 47.531C40.4675 48.6877 40.2891 50.1379 40.2724 51.5314C40.3125 50.8763 40.0508 50.2446 39.9224 49.6012C39.694 48.4585 39.8932 47.2717 40.4823 46.2662C41.0714 45.2607 42.0093 44.5067 43.1178 44.1472" fill="#263238"/>
<path d="M44.7274 65.7077C45.2875 65.551 41.9638 66.8211 41.8938 66.8428L44.8608 71.6767L56.3621 74.1253L60.6959 67.0912L51.9449 64.4825L44.7274 65.7077Z" fill="#FFBE9D"/>
<path d="M61.3218 82.0405L68.3342 79.0269C68.3342 79.0269 65.6673 69.7708 64.9672 68.789C64.2671 67.8073 57.0296 65.5603 57.0296 65.5603C57.0296 65.5603 54.5293 69.7275 50.2505 70.0142C45.9717 70.3009 44.3515 69.8475 43.5097 66.1337C43.5097 66.1337 36.3422 67.7873 35.7855 68.419C35.2288 69.0507 31.4517 79.4469 31.4517 79.4469C31.4517 79.4469 38.8842 81.5505 39.1659 81.6905C39.4476 81.8305 39.936 92.8401 39.936 92.8401C39.936 92.8401 36.6173 101.419 36.4823 102.963L63.7137 102.893L60.9034 86.6694L61.3218 82.0405Z" fill="#455A64"/>
<path d="M37.073 73.7093C37.1177 73.8177 37.1551 73.9291 37.1847 74.0427C37.2513 74.2744 37.343 74.5811 37.4514 74.9528C37.6731 75.7229 37.9731 76.7863 38.2981 77.9664C38.4648 78.5548 38.6115 79.1166 38.7515 79.6333C38.8182 79.8883 38.8899 80.1334 38.9465 80.3617C39.0032 80.5901 39.0482 80.8068 39.0865 81.0035C39.1632 81.3968 39.2149 81.7169 39.2532 81.9386C39.2777 82.0521 39.2927 82.1675 39.2982 82.2836C39.286 82.2559 39.277 82.2268 39.2716 82.1969C39.2566 82.1286 39.2366 82.0452 39.2132 81.9452C39.1649 81.7102 39.0982 81.3968 39.0182 81.0185C38.9749 80.8218 38.9265 80.6084 38.8665 80.3817C38.8065 80.155 38.7348 79.9133 38.6632 79.66C38.5215 79.1482 38.3648 78.5865 38.2014 77.9931C37.8764 76.8146 37.588 75.7462 37.3847 74.9711L37.148 74.0527C37.1133 73.9405 37.0882 73.8257 37.073 73.7093V73.7093Z" fill="#263238"/>
<path d="M53.7158 88.1595C53.6921 88.1885 53.6653 88.2148 53.6358 88.2379L53.3924 88.4446C53.1824 88.6246 52.8691 88.8763 52.4757 89.1763C50.4196 90.742 48.1807 92.0518 45.8083 93.0768C45.3532 93.2735 44.9748 93.4218 44.7198 93.5185L44.4214 93.6268C44.3866 93.6414 44.3503 93.6521 44.3131 93.6585C44.3446 93.6384 44.3781 93.6217 44.4131 93.6085C44.4898 93.5735 44.5798 93.5318 44.7065 93.4818C44.9615 93.3751 45.3282 93.2151 45.7799 93.0118C48.1309 91.9533 50.3631 90.6487 52.439 89.1197C52.8374 88.8263 53.1574 88.5846 53.3741 88.4146L53.6291 88.2212C53.655 88.1966 53.6841 88.1759 53.7158 88.1595Z" fill="#263238"/>
<g opacity="0.2">
<path d="M59.2247 84.4718C57.8995 82.8966 56.0477 81.8499 54.1441 81.0664C52.2122 80.2713 50.092 79.7096 48.0417 80.1113C46.1499 80.483 44.5163 81.6298 42.9578 82.7633C42.4478 83.1333 41.9294 83.515 41.551 84.0201C41.141 84.5652 40.9176 85.2252 40.7176 85.8753C40.1842 87.5622 40.2342 89.5241 39.8642 91.2543L39.8792 91.5626C40.2359 91.671 40.3959 91.5043 40.7242 91.3276C42.6778 90.2658 43.4696 87.4938 45.6265 86.9554C46.0231 86.8772 46.4237 86.8216 46.8266 86.7888C47.8679 86.6509 48.8634 86.2744 49.7353 85.6886C50.087 85.4519 50.447 85.1752 50.8704 85.1452C51.2938 85.1152 51.7305 85.3636 52.1205 85.5853C53.2554 86.2246 54.4805 86.6882 55.7543 86.9604C55.9267 86.9831 56.0919 87.0441 56.2377 87.1388C56.3973 87.2904 56.5096 87.4849 56.5611 87.6989C57.0378 89.0707 57.6428 90.4158 58.5513 91.546C59.4597 92.6761 60.7015 93.5829 62.1217 93.8796C61.8367 90.5542 61.3633 87.0221 59.2247 84.4718Z" fill="black"/>
</g>
<g opacity="0.2">
<path d="M45.9656 94.5938C47.4658 95.1172 49.9761 94.4271 51.3679 93.657C52.7597 92.8869 53.9682 91.2067 54.3149 89.6565C51.9696 91.175 48.5292 93.4586 45.9656 94.5938Z" fill="black"/>
</g>
<g opacity="0.2">
<path d="M38.1936 77.724C37.8686 76.7122 37.6269 75.6321 37.3035 74.6203H37.2668C37.0351 75.8584 37.0385 77.129 37.2768 78.3658C37.54 79.6095 38.2005 80.7339 39.1587 81.5695C38.9244 80.2673 38.602 78.9825 38.1936 77.724V77.724Z" fill="black"/>
</g>
<path d="M36.9383 70.962C36.7362 70.5978 36.5805 70.2098 36.4749 69.8069C36.2732 69.1485 36.1916 68.5934 36.2182 68.5884C36.2449 68.5834 36.3732 69.1235 36.5733 69.7769C36.7733 70.4303 36.9666 70.952 36.9383 70.962Z" fill="#263238"/>
<path d="M63.2065 70.8808C63.2349 70.8808 62.8898 73.2811 62.4365 76.2297C61.9831 79.1784 61.5947 81.5637 61.5664 81.5637C61.538 81.5637 61.8831 79.1651 62.3364 76.2147C62.7898 73.2644 63.1782 70.8775 63.2065 70.8808Z" fill="#263238"/>
<path d="M56.2265 66.3984C52.9428 64.4832 46.8538 65.4517 46.8538 65.4517C45.5303 63.8082 43.7634 63.8965 42.9667 64.0415C42.8503 64.0637 42.7453 64.1257 42.6698 64.217C42.5944 64.3083 42.5531 64.4231 42.5533 64.5416L42.595 67.0419C40.0947 68.0686 39.5129 71.279 39.5129 71.279L38.3895 71.594C38.1918 71.6496 38.0181 71.769 37.8953 71.9336C37.7726 72.0982 37.7078 72.2988 37.7111 72.5041L37.7527 74.9228C37.7559 75.1324 37.8299 75.3349 37.9628 75.4971C38.0957 75.6593 38.2795 75.7718 38.4845 75.8162L39.593 76.0545C40.9064 78.1014 42.1966 79.2066 43.9268 79.7866L43.9701 81.9402L47.5139 81.8819L48.3356 80.3817L52.3361 80.2767L52.9911 81.9019L56.6732 81.7235L56.7116 79.1916C59.2385 77.1297 59.9253 75.8095 59.9819 73.0509C60.0386 70.2922 59.4035 68.2537 56.2265 66.3984Z" fill="#009BE1"/>
<path d="M41.5938 70.603C41.4673 70.6594 41.367 70.7619 41.3134 70.8896C41.2597 71.0173 41.2566 71.1607 41.3049 71.2905C41.3531 71.4204 41.4489 71.527 41.5729 71.5888C41.6969 71.6505 41.8398 71.6627 41.9725 71.6229C42.1051 71.5831 42.2177 71.4943 42.2872 71.3745C42.3568 71.2547 42.3781 71.1129 42.3469 70.9779C42.3156 70.843 42.2342 70.725 42.1191 70.6479C42.004 70.5708 41.8639 70.5405 41.7272 70.563" fill="black"/>
<path d="M43.5773 67.2025C43.5507 67.0571 43.5334 66.9101 43.5256 66.7624C43.4499 66.0571 43.2619 65.3683 42.9689 64.7222C42.9005 64.5913 42.8409 64.456 42.7905 64.3172C42.885 64.431 42.9645 64.5565 43.0272 64.6905C43.1907 65.0095 43.3203 65.3447 43.4139 65.6907C43.5081 66.0372 43.5668 66.3924 43.5889 66.7508C43.6065 66.9011 43.6026 67.0532 43.5773 67.2025Z" fill="#263238"/>
<g opacity="0.3">
<path d="M47.9488 66.7087L48.1788 67.1321C49.6771 66.8555 51.211 66.8301 52.7177 67.0571L52.2776 66.5754C50.8403 66.3293 49.3682 66.3746 47.9488 66.7087V66.7087Z" fill="black"/>
</g>
<path d="M38.7138 73.6934C38.7138 73.9451 38.6255 74.1501 38.5088 74.1518C38.3921 74.1534 38.2921 73.9518 38.2871 73.7001C38.2821 73.4484 38.3754 73.2433 38.4921 73.2417C38.6088 73.24 38.7088 73.4417 38.7138 73.6934Z" fill="black"/>
<path d="M38.2377 75.464C38.3036 75.4821 38.3712 75.4932 38.4394 75.4973C38.5302 75.5027 38.6211 75.4885 38.7059 75.4557C38.7908 75.4229 38.8676 75.3723 38.9311 75.3073C39.0189 75.2158 39.0935 75.1126 39.1528 75.0006C39.2139 74.8674 39.2592 74.7276 39.2878 74.5839C39.3712 74.2571 39.4127 73.921 39.4112 73.5837C39.4119 73.246 39.3676 72.9097 39.2795 72.5836C39.2059 72.3198 39.0419 72.0903 38.8161 71.9352C38.6613 71.8346 38.4788 71.7851 38.2944 71.7935C38.1644 71.8019 38.096 71.8352 38.0927 71.8269C38.0894 71.8185 38.1077 71.8152 38.141 71.8002C38.1889 71.7794 38.2393 71.7654 38.2911 71.7585C38.4854 71.7372 38.6812 71.7812 38.8478 71.8836C39.094 72.0389 39.2749 72.2791 39.3562 72.5586C39.4512 72.892 39.4989 73.2371 39.4979 73.5837C39.5 73.9304 39.4558 74.2757 39.3662 74.6105C39.3334 74.7593 39.283 74.9037 39.2162 75.0406C39.1519 75.1577 39.0704 75.2644 38.9745 75.3573C38.8961 75.44 38.7953 75.4979 38.6844 75.524C38.6032 75.5436 38.5192 75.5493 38.4361 75.5406C38.3838 75.5362 38.3325 75.5233 38.2844 75.5023C38.2511 75.479 38.2361 75.4673 38.2377 75.464Z" fill="#263238"/>
<path d="M55.6962 79.5772C55.6597 79.5903 55.6224 79.6008 55.5845 79.6089L55.2611 79.6839C54.9795 79.7489 54.5677 79.8289 54.0593 79.9156C53.551 80.0023 52.9392 80.0823 52.2608 80.1606C51.5824 80.239 50.8306 80.2806 50.0422 80.3006C49.2538 80.3206 48.5004 80.3006 47.8186 80.269C47.1369 80.2373 46.5218 80.1773 46.0084 80.1156C45.495 80.0539 45.0817 79.9939 44.7983 79.9489L44.4649 79.8906C44.43 79.8845 44.3954 79.8761 44.3616 79.8656C44.4007 79.8642 44.4398 79.867 44.4783 79.8739L44.8116 79.9172C45.0967 79.9589 45.5117 80.0089 46.0234 80.0623C46.5352 80.1156 47.1486 80.1639 47.8303 80.1973C48.512 80.2306 49.2605 80.2406 50.0472 80.2223C50.834 80.204 51.5824 80.1506 52.2608 80.0889C52.9392 80.0273 53.5476 79.9439 54.0577 79.8639C54.5677 79.7839 54.9794 79.7139 55.2628 79.6589L55.5962 79.6005C55.6286 79.5894 55.6621 79.5815 55.6962 79.5772Z" fill="#263238"/>
<path d="M46.8136 65.4349C46.8133 65.4952 46.8049 65.5552 46.7886 65.6133C46.7533 65.7726 46.7048 65.9287 46.6436 66.08C46.4402 66.5843 46.1117 67.0286 45.6892 67.371C45.2666 67.7133 44.7639 67.9425 44.2283 68.0369C44.0676 68.0655 43.9048 68.0805 43.7416 68.0819C43.6818 68.0851 43.6218 68.0807 43.5632 68.0685C43.5632 68.0519 43.8182 68.0602 44.2166 67.9769C44.7362 67.8683 45.2223 67.6373 45.6346 67.303C46.0468 66.9688 46.3733 66.5409 46.5869 66.055C46.7536 65.6916 46.7969 65.4316 46.8136 65.4349Z" fill="#263238"/>
<path d="M42.4183 67.3566C42.4266 67.37 42.2216 67.51 41.9182 67.7683C41.1264 68.4466 40.5032 69.2997 40.098 70.2603C39.943 70.627 39.873 70.8654 39.858 70.8604C39.8628 70.8036 39.8745 70.7476 39.893 70.6937C39.9213 70.5837 39.9713 70.4286 40.0413 70.2403C40.4206 69.2552 41.0531 68.3876 41.8749 67.725C41.9983 67.6248 42.1274 67.5319 42.2616 67.4466C42.3098 67.4102 42.3625 67.3799 42.4183 67.3566Z" fill="white"/>
<path d="M38.438 71.6573C38.5793 71.5923 38.7292 71.5479 38.8831 71.5256C39.0298 71.474 39.1829 71.4431 39.3381 71.434C39.2092 71.5251 39.0608 71.585 38.9048 71.609C38.7548 71.66 38.5953 71.6766 38.438 71.6573Z" fill="white"/>
<path d="M37.9055 74.7222C37.8629 74.6002 37.8377 74.4728 37.8305 74.3438C37.7538 73.7266 37.7538 73.1024 37.8305 72.4852C37.8397 72.3565 37.8649 72.2294 37.9055 72.1069C37.9321 72.1069 37.8588 72.6919 37.8588 73.4154C37.8588 74.1388 37.9305 74.7188 37.9055 74.7222Z" fill="white"/>
<path d="M42.706 64.4141C42.7326 64.4141 42.6743 64.9875 42.6876 65.6909C42.7009 66.3943 42.7743 66.9611 42.7493 66.9661C42.7066 66.8474 42.6802 66.7235 42.6709 66.5977C42.6286 66.2978 42.6052 65.9955 42.6009 65.6926C42.5947 65.3892 42.6081 65.0858 42.6409 64.7842C42.6467 64.6585 42.6686 64.5342 42.706 64.4141Z" fill="white"/>
<path d="M45.7897 64.7218C44.9233 64.2787 43.9479 64.0935 42.9794 64.1884C43.1161 64.1426 43.2587 64.1173 43.4028 64.1134C44.0985 64.0564 44.7966 64.1889 45.423 64.4967C45.5553 64.554 45.6788 64.6297 45.7897 64.7218V64.7218Z" fill="white"/>
<path d="M52.7292 67.2943C52.7292 67.3077 52.4742 67.2627 52.0625 67.211C50.9941 67.0743 49.9123 67.0799 48.8455 67.2277C48.4371 67.2827 48.1787 67.331 48.1787 67.3177C48.2315 67.2926 48.2877 67.2752 48.3454 67.266C48.4571 67.236 48.6221 67.2027 48.8271 67.166C49.3615 67.0761 49.9021 67.0293 50.444 67.026C50.9854 67.0237 51.5262 67.0655 52.0608 67.151C52.2658 67.1843 52.4309 67.216 52.5442 67.2443C52.6077 67.2535 52.6698 67.2702 52.7292 67.2943V67.2943Z" fill="white"/>
<path d="M53.7636 65.8003C53.6786 65.7936 53.5943 65.7791 53.5119 65.757C53.3452 65.7236 53.1169 65.677 52.8285 65.6269C52.0743 65.4962 51.3117 65.4188 50.5466 65.3953C49.7816 65.3759 49.0163 65.411 48.2563 65.5003C47.9646 65.5336 47.7279 65.5669 47.5662 65.5919C47.4822 65.609 47.3969 65.619 47.3112 65.6219C47.3918 65.593 47.475 65.5718 47.5596 65.5586C47.7263 65.5236 47.9563 65.4819 48.248 65.4386C49.0104 65.3317 49.7803 65.2882 50.5499 65.3086C51.3187 65.3306 52.0842 65.417 52.8385 65.5669C53.1285 65.6253 53.3602 65.6803 53.5203 65.7253C53.6033 65.7437 53.6846 65.7688 53.7636 65.8003V65.8003Z" fill="white"/>
<path d="M44.3132 79.044C44.257 79.0454 44.2008 79.0387 44.1465 79.024C43.9985 78.9962 43.8521 78.96 43.7082 78.9156C42.7493 78.6256 41.8885 78.0778 41.2195 77.3321C41.1192 77.2202 41.0252 77.1027 40.9378 76.9804C40.902 76.9381 40.8723 76.8909 40.8495 76.8404C40.8612 76.8304 41.0029 77.0187 41.2646 77.2904C41.9482 78.0039 42.793 78.543 43.7282 78.8623C44.0865 78.979 44.3166 79.029 44.3132 79.044Z" fill="white"/>
<path d="M58.7385 76.2982C58.6981 76.3806 58.6507 76.4592 58.5968 76.5333C58.5403 76.625 58.4779 76.7129 58.4101 76.7966C58.3318 76.895 58.2434 77.0133 58.1401 77.13C58.0273 77.2613 57.9077 77.3865 57.7817 77.5051C57.65 77.6384 57.495 77.7651 57.335 77.9001C56.621 78.4718 55.7963 78.8895 54.913 79.1269C54.7214 79.1791 54.5273 79.2214 54.3313 79.2536C54.1609 79.2854 53.989 79.3082 53.8162 79.3219C53.6596 79.3419 53.5145 79.3386 53.3895 79.3436C53.2818 79.3506 53.1738 79.3506 53.0662 79.3436C52.9745 79.3436 52.883 79.3352 52.7928 79.3186C52.8841 79.308 52.9761 79.3052 53.0678 79.3103C53.1545 79.3103 53.2628 79.3103 53.3879 79.3003C53.5129 79.2903 53.6546 79.2903 53.8096 79.2653C53.9802 79.2485 54.1499 79.2229 54.318 79.1886C54.4997 79.1586 54.6913 79.1052 54.8914 79.0552C55.3241 78.9299 55.7448 78.7658 56.1482 78.5652C56.5484 78.3593 56.929 78.1172 57.285 77.8418C57.4517 77.7101 57.6 77.5884 57.7317 77.4584C57.8634 77.3284 57.9884 77.21 58.0951 77.095C58.2017 76.98 58.2917 76.8683 58.3718 76.7733C58.4424 76.6935 58.5081 76.6094 58.5684 76.5216C58.6186 76.4424 58.6755 76.3677 58.7385 76.2982Z" fill="white"/>
<path d="M32.9651 79.8795C32.9651 79.8795 31.6132 87.7037 31.4382 89.0338C31.2632 90.364 31.6232 93.3943 32.7084 94.3044C33.7935 95.2145 34.7086 95.4446 35.477 95.3045C36.2454 95.1645 38.6624 92.6376 39.5725 91.6275C40.4826 90.6173 45.0548 82.3897 45.0548 82.3897L40.8343 80.5179L38.3657 83.5182L38.9224 81.6213L32.9651 79.8795Z" fill="#FFBE9D"/>
<path d="M38.4436 83.415C38.3957 83.5001 38.3399 83.5804 38.2769 83.6551C38.1553 83.8218 37.9952 84.0334 37.8035 84.2901C37.6119 84.5468 37.3568 84.8719 37.0735 85.2119C36.77 85.5856 36.442 85.9386 36.0917 86.2687C35.7277 86.5875 35.331 86.8669 34.9082 87.1021C34.5282 87.3288 34.1881 87.5338 33.9198 87.7305C33.6313 87.9439 33.3649 88.1857 33.1247 88.4523C33.1247 88.4523 33.1347 88.4273 33.163 88.3873C33.2037 88.3293 33.2477 88.2736 33.2947 88.2206C33.468 88.0186 33.6631 87.8364 33.8764 87.6772C34.1929 87.4423 34.5211 87.2236 34.8599 87.0221C35.2759 86.7843 35.6668 86.505 36.0267 86.1887C36.3739 85.8618 36.7007 85.5139 37.0051 85.1469C37.2918 84.8135 37.5402 84.5002 37.7502 84.2401L38.2503 83.6251C38.3079 83.5491 38.3726 83.4787 38.4436 83.415V83.415Z" fill="#EB996E"/>
<path d="M41.7845 79.4328C41.7845 79.4328 43.0996 78.326 43.5147 78.6477C43.9297 78.9694 43.9547 79.2661 43.7814 79.4895C43.608 79.7128 42.6146 80.9763 42.6146 80.9763L43.3497 81.6714L44.6581 81.2447L45.2199 81.1097C45.2199 81.1097 46.5667 81.1413 46.28 82.0464C46.28 82.0464 47.6718 81.6031 47.9235 81.5814C48.3086 81.5497 49.277 81.453 49.1387 81.9548C49.0863 82.1112 48.9991 82.2538 48.8836 82.3716C48.7681 82.4894 48.6273 82.5794 48.4719 82.6348C48.4719 82.6348 49.0903 82.8332 48.7186 83.3783C48.5119 83.697 48.1998 83.933 47.8368 84.045L45.6433 84.9234C45.3765 85.0293 45.0806 85.0352 44.8098 84.9401L44.1031 84.6917L42.7413 85.2868C42.7413 85.2868 39.991 84.4934 39.5959 82.0914L39.9526 81.348L40.1876 80.908C40.1876 80.908 39.8626 78.8577 39.8543 78.5744C39.8543 78.3794 39.4609 77.4926 39.2242 76.9759C39.2006 76.9244 39.1914 76.8675 39.1976 76.8112C39.2038 76.7549 39.2251 76.7013 39.2593 76.6562C39.2935 76.611 39.3393 76.576 39.3918 76.5548C39.4443 76.5336 39.5016 76.5271 39.5576 76.5358C39.9273 76.6111 40.2685 76.7883 40.5427 77.0475C41.4878 77.8476 41.6045 78.6677 41.6045 78.6677L41.8045 79.4728" fill="#FFBE9D"/>
<path d="M40.8613 80.3613C40.8613 80.3613 40.953 80.2863 41.1097 80.1446C41.2664 80.0029 41.4781 79.7779 41.7498 79.5062C41.8986 79.3598 42.0549 79.2213 42.2182 79.0911C42.4016 78.9323 42.6043 78.7974 42.8216 78.6894C42.9431 78.63 43.075 78.5949 43.2099 78.5861C43.281 78.5822 43.3523 78.5884 43.4216 78.6044C43.4585 78.6106 43.4944 78.6218 43.5283 78.6377C43.5606 78.6547 43.5918 78.6736 43.6217 78.6944C43.6865 78.7365 43.743 78.7902 43.7883 78.8528C43.807 78.8877 43.82 78.9254 43.8267 78.9644L43.8567 79.0645C43.8857 79.1399 43.8926 79.222 43.8767 79.3012C43.8565 79.3726 43.832 79.4427 43.8033 79.5112C43.6809 79.7719 43.5251 80.0156 43.34 80.2363C43.1735 80.4439 42.9942 80.641 42.8032 80.8263C42.4856 81.1545 42.1097 81.4207 41.6948 81.6114C41.5531 81.6739 41.3997 81.705 41.2449 81.7027C41.0902 81.7004 40.9377 81.6647 40.798 81.5981C40.7229 81.5612 40.6556 81.5102 40.5996 81.4481C40.5782 81.4282 40.5606 81.4044 40.548 81.3781C40.6934 81.5207 40.8803 81.6136 41.0818 81.6436C41.2833 81.6735 41.4891 81.6389 41.6698 81.5447C42.0656 81.3452 42.4232 81.0778 42.7266 80.7546C42.9123 80.57 43.0871 80.3747 43.2499 80.1696C43.4295 79.9557 43.5802 79.7192 43.6983 79.4662C43.7266 79.4013 43.75 79.3345 43.7683 79.2661C43.779 79.2045 43.7726 79.1411 43.75 79.0828L43.72 78.9811C43.7152 78.9509 43.7056 78.9217 43.6917 78.8944C43.6557 78.8421 43.6098 78.7974 43.5567 78.7628C43.5314 78.7439 43.5046 78.7272 43.4766 78.7128C43.4492 78.6997 43.42 78.6907 43.39 78.6861C43.3295 78.6714 43.2671 78.6658 43.2049 78.6694C43.0813 78.677 42.9602 78.7081 42.8482 78.7611C42.6364 78.8639 42.4382 78.9927 42.2582 79.1445C42.0832 79.2845 41.9248 79.4145 41.7864 79.5462C41.5114 79.8095 41.2864 80.0296 41.1197 80.1629C41.0364 80.2313 40.968 80.2796 40.9213 80.3113C40.8747 80.3429 40.8613 80.3613 40.8613 80.3613Z" fill="#EB996E"/>
<path d="M41.8111 79.4813C41.4494 79.5458 41.0793 79.5458 40.7176 79.4813C41.0795 79.4191 41.4492 79.4191 41.8111 79.4813Z" fill="#EB996E"/>
<path d="M42.4795 82.0737C42.5104 82.054 42.5433 82.0378 42.5778 82.0253L42.8645 81.9036L43.9263 81.4753C44.1697 81.3717 44.4184 81.281 44.6714 81.2036C44.9667 81.1093 45.2794 81.0825 45.5865 81.1252C45.7539 81.1504 45.9151 81.207 46.0615 81.2919C46.1443 81.3336 46.2165 81.3935 46.2728 81.4671C46.3291 81.5407 46.368 81.6262 46.3866 81.717C46.3913 81.8134 46.3722 81.9094 46.3309 81.9966C46.2896 82.0839 46.2274 82.1596 46.1499 82.217C45.997 82.3259 45.8283 82.4107 45.6498 82.4687L43.7129 83.2255C43.4322 83.3442 43.1423 83.4401 42.8462 83.5122C42.5829 83.5729 42.3093 83.5729 42.0461 83.5122C41.9356 83.4872 41.8315 83.4396 41.7403 83.3725C41.6491 83.3054 41.5727 83.2202 41.516 83.1221C41.4375 82.9738 41.3905 82.811 41.3777 82.6437C41.3672 82.5402 41.3645 82.436 41.3693 82.332C41.3694 82.2957 41.3728 82.2594 41.3793 82.2237C41.3893 82.2237 41.3793 82.3737 41.4143 82.6404C41.4329 82.8005 41.4833 82.9552 41.5627 83.0955C41.6176 83.1851 41.6903 83.2626 41.7763 83.3231C41.8623 83.3835 41.9598 83.4258 42.0627 83.4472C42.3165 83.4982 42.5785 83.4919 42.8295 83.4288C43.1207 83.3543 43.4055 83.2568 43.6813 83.1371L45.6148 82.3737C45.7833 82.3182 45.9428 82.2385 46.0882 82.137C46.1532 82.0891 46.2057 82.0262 46.2411 81.9536C46.2765 81.8811 46.2938 81.801 46.2916 81.7203C46.2747 81.6436 46.2408 81.5717 46.1923 81.5099C46.1438 81.4482 46.082 81.3981 46.0115 81.3636C45.8764 81.28 45.7264 81.2234 45.5698 81.1969C45.2757 81.1545 44.9758 81.1772 44.6914 81.2636C44.4197 81.3386 44.1747 81.4386 43.948 81.5236L42.8762 81.9237L42.5828 82.0287C42.5507 82.0485 42.5159 82.0637 42.4795 82.0737V82.0737Z" fill="#EB996E"/>
<path d="M46.31 82.0539C46.3394 82.0356 46.3707 82.0205 46.4034 82.0089L46.6784 81.8989C47.0157 81.7634 47.3636 81.6558 47.7185 81.5772C47.9654 81.5238 48.2177 81.4997 48.4703 81.5055C48.6131 81.5077 48.7554 81.5233 48.8953 81.5522C48.9749 81.5707 49.0467 81.6139 49.1003 81.6755C49.1539 81.7421 49.1827 81.8251 49.182 81.9106C49.1804 81.9947 49.1603 82.0774 49.1232 82.1529C49.086 82.2283 49.0327 82.2947 48.967 82.3473C48.8396 82.4523 48.7029 82.5455 48.5586 82.6256C48.2635 82.7992 47.956 82.9508 47.6385 83.079C47.024 83.318 46.3968 83.5233 45.76 83.6941L44.9265 83.9325C44.687 84.0069 44.4439 84.0692 44.1981 84.1191C43.9905 84.1606 43.7762 84.1543 43.5714 84.1008C43.4171 84.0554 43.2774 83.9704 43.1663 83.8541C43.0969 83.7811 43.0461 83.6925 43.018 83.5957C43.0074 83.5623 43.0024 83.5274 43.003 83.4924C43.0368 83.6179 43.1022 83.7327 43.193 83.8258C43.3028 83.9323 43.4384 84.0087 43.5864 84.0475C43.7839 84.092 43.9889 84.092 44.1865 84.0475C44.4081 84.0058 44.6465 83.9274 44.9049 83.8508L45.73 83.6057C46.31 83.4391 46.9518 83.249 47.5952 82.9857C47.9088 82.8592 48.2129 82.7105 48.5053 82.5406C48.6445 82.4634 48.7767 82.3742 48.9003 82.2739C48.9566 82.2303 49.0027 82.1749 49.0352 82.1115C49.0678 82.0481 49.086 81.9784 49.0887 81.9072C49.0907 81.8416 49.0693 81.7775 49.0284 81.7262C48.9875 81.6749 48.9297 81.6398 48.8653 81.6272C48.7326 81.5993 48.5975 81.5837 48.4619 81.5805C48.2145 81.5719 47.9668 81.5909 47.7235 81.6372C47.3706 81.7105 47.023 81.808 46.6834 81.9289L46.4034 82.0222C46.3736 82.0364 46.3423 82.0471 46.31 82.0539V82.0539Z" fill="#EB996E"/>
<path d="M56.2243 83.26C56.2243 83.26 61.0365 95.4064 63.7535 95.7247C66.6488 96.0581 69.4575 93.4978 68.9307 89.0673C68.7291 87.3688 67.5439 79.3662 67.5439 79.3662L61.5182 81.9582L63.1184 85.2769L60.7448 81.5698L56.2243 83.26Z" fill="#FFBE9D"/>
<path d="M67.1267 91.4724C67.1167 91.4724 67.1267 91.3174 67.1084 91.039C67.094 90.6439 67.0313 90.2521 66.9217 89.8722C66.7614 89.3118 66.4438 88.8092 66.0066 88.4237C65.7666 88.207 65.4565 88.0337 65.1898 87.7837C64.9099 87.535 64.647 87.2677 64.4031 86.9836C63.5648 85.9794 62.801 84.9153 62.1178 83.7999C61.8511 83.3748 61.6394 83.0298 61.4944 82.7898L61.3277 82.5114C61.3064 82.4804 61.289 82.4468 61.2761 82.4114C61.3016 82.4392 61.3245 82.4693 61.3444 82.5014L61.5261 82.7681L62.1762 83.7599C62.8743 84.8605 63.6426 85.9151 64.4764 86.9169C64.7188 87.1966 64.9782 87.461 65.2532 87.7086C65.5132 87.9553 65.8166 88.1254 66.0683 88.3537C66.5141 88.7542 66.8342 89.2753 66.99 89.8539C67.0946 90.2385 67.1468 90.6355 67.1451 91.034C67.1451 91.174 67.1451 91.2841 67.1367 91.3574C67.1375 91.396 67.1342 91.4345 67.1267 91.4724V91.4724Z" fill="#EB996E"/>
<path d="M58.947 76.9312C59.2053 77.3596 59.7887 78.6797 59.7887 78.6797C59.7887 78.6797 61.3539 80.9233 61.2789 82.4035C61.2639 82.6919 60.3604 83.2786 60.3604 83.2786C60.3604 83.2786 57.5035 85.4222 56.8167 85.5655C56.13 85.7089 55.1032 85.0505 54.9832 85.0221C54.8632 84.9938 51.011 82.5352 50.9927 82.1885C50.9738 82.0359 51.004 81.8812 51.0789 81.7469C51.1539 81.6127 51.2696 81.5058 51.4094 81.4417L55.7833 81.1934L57.8635 79.5648L57.7702 78.3564" fill="#FFBE9D"/>
<path d="M58.7265 81.231C58.6539 81.2966 58.5752 81.3552 58.4915 81.406L57.8247 81.8544C57.5414 82.041 57.218 82.2611 56.8246 82.5061C56.7124 82.5506 56.5914 82.5683 56.4712 82.5578C56.3546 82.5578 56.2362 82.5578 56.1162 82.5711C55.8745 82.5844 55.6261 82.6044 55.3694 82.6261C54.8871 82.6747 54.4024 82.6964 53.9176 82.6911C53.7002 82.6918 53.4852 82.6451 53.2875 82.5544C53.1979 82.5131 53.1207 82.4487 53.0639 82.3679C53.0071 82.2871 52.9727 82.1928 52.9642 82.0944C52.9594 81.9339 53.0126 81.777 53.1142 81.6527C53.1908 81.5632 53.2843 81.4895 53.3892 81.436C53.4537 81.402 53.5213 81.3741 53.5909 81.3526C53.6148 81.3432 53.6402 81.3381 53.6659 81.3376C53.6659 81.346 53.5676 81.3743 53.4076 81.4676C53.3111 81.5245 53.2258 81.5985 53.1559 81.686C53.0679 81.8015 53.0236 81.9444 53.0308 82.0894C53.0414 82.1748 53.0738 82.256 53.1249 82.3252C53.176 82.3944 53.2441 82.4492 53.3225 82.4844C53.5109 82.5656 53.7142 82.606 53.9193 82.6028C54.4008 82.6038 54.8821 82.5799 55.3611 82.5311C55.6178 82.5094 55.8612 82.4894 56.1112 82.4778C56.2329 82.4778 56.3529 82.4678 56.4696 82.4661C56.5767 82.4776 56.685 82.4645 56.7863 82.4278L57.7864 81.7977L58.4631 81.3743C58.5472 81.32 58.6352 81.272 58.7265 81.231V81.231Z" fill="#EB996E"/>
<path d="M58.8738 83.3351C58.8464 83.3476 58.8171 83.3555 58.7871 83.3584L58.5371 83.4117L57.6136 83.5784L56.2401 83.8234L55.4284 83.9668C55.2867 83.9885 55.1467 84.0201 54.995 84.0351C54.8358 84.0548 54.6745 84.0226 54.535 83.9435C54.3966 83.8634 54.2833 83.7768 54.1616 83.6851C54.0399 83.5934 53.9215 83.5184 53.8015 83.4467C53.5706 83.3029 53.328 83.1786 53.0765 83.075C52.8364 82.975 52.5931 82.9167 52.3747 82.8233C52.1717 82.7362 51.9851 82.615 51.823 82.465C51.673 82.3299 51.5463 82.2049 51.4379 82.0866C51.3386 81.9867 51.2793 81.8538 51.2712 81.7132C51.2692 81.6687 51.2761 81.6242 51.2916 81.5824C51.3071 81.5406 51.3307 81.5023 51.3613 81.4698C51.3823 81.4473 51.4096 81.4316 51.4396 81.4248C51.4396 81.4248 51.4129 81.4398 51.3763 81.4832C51.3257 81.5487 51.3014 81.6307 51.3079 81.7132C51.3079 81.9382 51.5863 82.1516 51.873 82.4133C52.0324 82.554 52.2144 82.6667 52.4114 82.7467C52.6231 82.835 52.8681 82.89 53.1148 82.99C53.3726 83.0929 53.6209 83.2184 53.8565 83.3651C53.9799 83.4401 54.1016 83.5201 54.2233 83.6051C54.3449 83.6901 54.4633 83.7851 54.5883 83.8584C54.8367 84.0118 55.14 83.9101 55.4217 83.8718L56.2335 83.7351L57.6103 83.5084L58.5387 83.3651L58.7938 83.3301C58.8205 83.3281 58.8475 83.3298 58.8738 83.3351Z" fill="#EB996E"/>
<path d="M57.6794 84.7038C57.5531 84.7592 57.4204 84.7989 57.2844 84.8221C56.9611 84.8964 56.6339 84.952 56.3043 84.9888C55.9752 85.0283 55.6439 85.0461 55.3125 85.0422C55.1705 85.0547 55.0289 85.015 54.9141 84.9305C55.0444 84.9627 55.1783 84.9778 55.3125 84.9755C55.5625 84.9638 55.9126 84.9372 56.2943 84.8938C56.676 84.8505 57.021 84.7988 57.2711 84.7588C57.405 84.7267 57.5418 84.7083 57.6794 84.7038V84.7038Z" fill="#EB996E"/>
<path d="M60.6005 82.8163C60.6005 82.8163 60.6005 82.8397 60.5905 82.883C60.5755 82.9449 60.5531 83.0048 60.5238 83.0614C60.4084 83.2685 60.2398 83.4411 60.0354 83.5614C59.8971 83.6465 59.7495 83.7153 59.5954 83.7665C59.5154 83.7948 59.4437 83.8298 59.4287 83.9015C59.4137 83.9731 59.402 84.0832 59.367 84.1765C59.3002 84.3807 59.1715 84.559 58.9986 84.6866C58.8101 84.8094 58.5986 84.8927 58.3769 84.9316C58.166 84.9678 57.9601 85.0287 57.7635 85.1133C57.5885 85.2099 57.4118 85.325 57.2468 85.4216C57.1634 85.4716 57.0801 85.5217 56.9967 85.5667C56.9112 85.6064 56.8191 85.6302 56.725 85.6367C56.5609 85.6483 56.396 85.6302 56.2383 85.5833C56.0144 85.5181 55.7968 85.4327 55.5882 85.3283C55.5095 85.2956 55.4342 85.2554 55.3632 85.2083C55.4459 85.2275 55.5264 85.2554 55.6032 85.2916C55.8153 85.3805 56.033 85.4551 56.255 85.515C56.4057 85.5535 56.5617 85.5665 56.7167 85.5533C56.8005 85.5453 56.8823 85.5227 56.9584 85.4866C57.0334 85.4483 57.1151 85.3933 57.1968 85.3433C57.3634 85.2416 57.5301 85.1316 57.7202 85.0233C57.9236 84.9347 58.1368 84.8704 58.3552 84.8316C58.5635 84.7959 58.7624 84.7188 58.9403 84.6049C59.095 84.4899 59.2113 84.3306 59.2737 84.1482C59.307 84.0598 59.307 83.9815 59.3403 83.8715C59.3609 83.8249 59.3924 83.7839 59.4322 83.752C59.4719 83.7201 59.5187 83.6982 59.5687 83.6881C59.7189 83.641 59.8637 83.5778 60.0004 83.4998C60.1993 83.3894 60.3677 83.2313 60.4905 83.0397C60.5705 82.903 60.5905 82.813 60.6005 82.8163Z" fill="#EB996E"/>
<path d="M58.3824 79.1324C58.4007 79.1541 57.834 79.6325 57.1173 80.2059C56.4005 80.7793 55.8055 81.2226 55.7838 81.206C56.1844 80.8234 56.6075 80.465 57.0506 80.1325C57.474 79.7726 57.9187 79.4387 58.3824 79.1324V79.1324Z" fill="#EB996E"/>
</g>
<defs>
<clipPath id="clip0_6_745">
<rect width="19.6672" height="19.6672" fill="white" transform="translate(73.3535 29.7039)"/>
</clipPath>
<clipPath id="clip1_6_745">
<rect width="19.6672" height="19.995" fill="white" transform="translate(39.8105 9.3734)"/>
</clipPath>
</defs>
</svg>
