<svg width="101" height="101" viewBox="0 0 101 101" fill="none" xmlns="http://www.w3.org/2000/svg">
<circle cx="50.5" cy="50.9375" r="50" fill="#61C7FF" fill-opacity="0.3"/>
<mask id="mask0_10_439" style="mask-type:alpha" maskUnits="userSpaceOnUse" x="0" y="0" width="101" height="101">
<circle cx="50.5" cy="50.9375" r="50" fill="#33CC33"/>
</mask>
<g mask="url(#mask0_10_439)">
<path d="M0.939259 33.6816C0.937106 33.6575 0.937106 33.6331 0.939259 33.6089C0.939259 33.5566 0.939259 33.4926 0.939259 33.4112C0.939259 33.228 0.939259 32.978 0.939259 32.661C0.939259 32.0039 0.921812 31.0792 0.910181 29.9393L0.962521 29.9917L-7.53688 30.012C-7.60085 30.076 -7.44965 29.9219 -7.46418 29.9393V30.9076C-7.46418 31.2304 -7.46418 31.5473 -7.46418 31.8614C-7.46418 32.4865 -7.46418 33.0943 -7.46418 33.6758L-7.53106 33.606L-1.45092 33.6409L0.319905 33.6584H0.796779H0.968336C0.917049 33.6625 0.865511 33.6625 0.814225 33.6584H0.351891L-1.39277 33.6758L-7.51943 33.7107H-7.58922V33.6409C-7.58922 33.0594 -7.58922 32.4517 -7.58922 31.8265V29.9045L-7.51652 29.8318L0.982876 29.8521H1.03522V29.9045C1.03522 31.0676 1.01486 31.9951 1.00614 32.6581C1.00614 32.9692 1.00614 33.2164 1.00614 33.3967C1.00614 33.577 0.942166 33.6845 0.939259 33.6816Z" fill="#E0E0E0"/>
<path d="M6.72814 82.6945H-7.41814V86.4368H6.72814V82.6945Z" fill="#EBEBEB"/>
<path d="M0.747886 90.3814C0.745815 90.3582 0.745815 90.3348 0.747886 90.3116V90.1197C0.747886 89.9452 0.747886 89.698 0.747886 89.384C0.747886 88.7385 0.747888 87.8109 0.724626 86.6391L0.768243 86.6827L-13.378 86.7118C-13.346 86.6798 -13.4507 86.7816 -13.3082 86.6391V90.3756L-13.378 90.3058L-3.29681 90.3378L-0.322169 90.3581H0.483281H0.69264H0.768243H0.701363H0.500727H-0.287277L-3.24738 90.3785L-13.378 90.4104H-13.4507V86.6449L-13.378 86.5722L0.768243 86.6013H0.811858V86.6449C0.811858 87.8255 0.794413 88.7647 0.788597 89.416C0.788597 89.7271 0.788597 89.9685 0.788597 90.1429C0.788597 90.2185 0.788597 90.2796 0.788597 90.3261C0.776356 90.3455 0.76275 90.364 0.747886 90.3814V90.3814Z" fill="#E0E0E0"/>
<path d="M110.943 80.1416C110.942 80.1193 110.942 80.097 110.943 80.0747V79.8828C110.943 79.7054 110.943 79.4611 110.943 79.1471C110.943 78.4987 110.929 77.5711 110.917 76.3993L110.961 76.4429L96.8144 76.472L96.8871 76.3993V78.298C96.8871 78.9232 96.8871 79.5367 96.8871 80.1387L96.8174 80.0689L106.899 80.1009L109.876 80.1212H110.679H110.891H110.964C110.964 80.1212 110.943 80.1212 110.9 80.1212H110.696H109.908L106.948 80.1416L96.8174 80.1735H96.7476V80.1009C96.7476 79.4989 96.7476 78.8854 96.7476 78.2602V76.4022C96.8929 76.2597 96.7883 76.3644 96.8203 76.3295L110.967 76.3586H111.01V76.4022C111.01 77.5856 110.993 78.5219 110.987 79.1762C110.987 79.4844 110.987 79.7287 110.987 79.9031C110.987 79.9787 110.987 80.0369 110.987 80.0863C110.987 80.1357 110.946 80.1445 110.943 80.1416Z" fill="#E0E0E0"/>
<path d="M54.9705 65.9231C54.9705 65.9231 54.9705 65.8998 54.9705 65.8562V65.6643C54.9705 65.4869 54.9705 65.2427 54.9705 64.9257C54.9705 64.2802 54.9705 63.3526 54.9473 62.1808L54.9909 62.2244L40.8446 62.2535L40.9173 62.1808V63.1462C40.9173 63.4631 40.9173 63.7772 40.9173 64.0912V65.9318L40.8475 65.862L50.9287 65.894L53.9034 65.9144H54.7088H54.9182H54.9938H54.9298H54.7263H53.9383L50.9782 65.9347L40.8475 65.9667H40.7777V65.8969C40.7777 65.296 40.7777 64.6824 40.7777 64.0563V62.1866L40.8504 62.1139L54.9967 62.143H55.0403V62.1866C55.0403 63.3672 55.0229 64.3064 55.017 64.9577C55.017 65.2688 55.017 65.5102 55.017 65.6847V65.8708C54.9734 65.9056 54.9734 65.9231 54.9705 65.9231Z" fill="#61C7FF"/>
<path d="M76.8683 22.1275C76.8683 22.1275 76.8683 22.1042 76.8683 22.0606V21.8687C76.8683 21.6913 76.8683 21.447 76.8683 21.1301C76.8683 20.4846 76.8683 19.557 76.8451 18.3852L76.8887 18.4288L62.7424 18.4579L62.8151 18.3852V19.3506C62.8151 19.6675 62.8151 19.9815 62.8151 20.2956V22.1362L62.7453 22.0664L72.8265 22.0984L75.8012 22.1187H76.6066H76.816H76.8916H76.8276H76.6241H75.8361L72.876 22.1391L62.7453 22.1711H62.6755V22.1013C62.6755 21.5004 62.6755 20.8868 62.6755 20.2607V18.391L62.7482 18.3183L76.8945 18.3474H76.9381V18.391C76.9381 19.5715 76.9207 20.5108 76.9149 21.1621C76.9149 21.4732 76.9149 21.7146 76.9149 21.889V22.0751C76.8713 22.11 76.8713 22.1275 76.8683 22.1275Z" fill="#61C7FF"/>
<path d="M76.8683 73.2224C76.8683 73.2224 76.8683 73.1991 76.8683 73.1555V72.9636C76.8683 72.7862 76.8683 72.542 76.8683 72.225C76.8683 71.5795 76.8683 70.6519 76.8451 69.4801L76.8887 69.5237L62.7424 69.5528L62.8151 69.4801V70.4455C62.8151 70.7624 62.8151 71.0764 62.8151 71.3905V73.2311L62.7453 73.1613L72.8265 73.1933L75.8012 73.2137H76.6066H76.816H76.8916H76.8276H76.6241H75.8361L72.876 73.234L62.7453 73.266H62.6755V73.1962C62.6755 72.5953 62.6755 71.9817 62.6755 71.3556V69.4859L62.7482 69.4132L76.8945 69.4423H76.9381V69.4859C76.9381 70.6665 76.9207 71.6057 76.9149 72.257C76.9149 72.5681 76.9149 72.8095 76.9149 72.9839V73.17C76.8713 73.2049 76.8713 73.2224 76.8683 73.2224Z" fill="#61C7FF"/>
<path d="M33.0727 73.2224C33.0727 73.2224 33.0727 73.1991 33.0727 73.1555V72.9636C33.0727 72.7862 33.0727 72.542 33.0727 72.225C33.0727 71.5795 33.0727 70.6519 33.0495 69.4801L33.0931 69.5237L18.9468 69.5528L19.0195 69.4801V70.4455C19.0195 70.7624 19.0195 71.0764 19.0195 71.3905V73.2311L18.9497 73.1613L29.0309 73.1933L32.0056 73.2137H32.811H33.0204H33.096H33.032H32.8285H32.0405L29.0804 73.234L18.9497 73.266H18.8799V73.1962C18.8799 72.5953 18.8799 71.9817 18.8799 71.3556V69.4859L18.9526 69.4132L33.0989 69.4423H33.1425V69.4859C33.1425 70.6665 33.1251 71.6057 33.1192 72.257C33.1192 72.5681 33.1192 72.8095 33.1192 72.9839V73.17C33.0756 73.2049 33.0756 73.2224 33.0727 73.2224Z" fill="#61C7FF"/>
<path d="M56.8893 62.1745C56.8871 62.1503 56.8871 62.126 56.8893 62.1018C56.8893 62.0495 56.8893 61.9826 56.8893 61.9041C56.8893 61.7209 56.8893 61.4708 56.8893 61.1539C56.8893 60.4967 56.8718 59.5721 56.8602 58.4322L56.9125 58.4846L48.4131 58.5049C48.3463 58.5689 48.5004 58.4148 48.4829 58.4322V60.3543C48.4829 60.9794 48.4829 61.5872 48.4829 62.1687L48.416 62.0989L54.4962 62.1309L56.267 62.1513H56.7439H56.9154C56.8642 62.1554 56.8126 62.1554 56.7613 62.1513H56.2961L54.5514 62.1687L48.4248 62.2007H48.355V62.1309C48.355 61.5494 48.355 60.9416 48.355 60.3165V58.3944L48.4277 58.3217L56.9271 58.3421H56.9794V58.3944C56.9794 59.5575 56.9562 60.4851 56.9503 61.1481C56.9503 61.4592 56.9503 61.7064 56.9503 61.8867C56.9503 62.0669 56.8922 62.1774 56.8893 62.1745Z" fill="#E0E0E0"/>
<path d="M33.4186 94.7325V104.389H47.5416H63.1156V94.7325H33.4186Z" fill="#F5F5F5"/>
<path d="M32.1711 92.0295V94.7279H64.1537V92.0295H47.5416H32.1711Z" fill="#E0E0E0"/>
<path d="M48.1646 104.385H63.1163V94.7279H64.1544V92.0295H47.5424V94.4779L48.1646 104.385Z" fill="#E0E0E0"/>
<path d="M43.5927 96.2893H37.5707V97.7432H43.5927V96.2893Z" fill="#E0E0E0"/>
<path d="M44.532 99.5683H36.7973V102.639H44.532V99.5683Z" fill="white"/>
<path d="M37.9863 82.3922V92.0489H52.1093H67.6833V82.3922H37.9863Z" fill="#F5F5F5"/>
<path d="M36.741 79.6892V82.3876H68.7235V79.6892H52.1086H36.741Z" fill="#E0E0E0"/>
<path d="M52.7317 92.0443H67.6834V82.3876H68.7244V79.6892H52.1094V82.1375L52.7317 92.0443Z" fill="#E0E0E0"/>
<path d="M48.1647 83.949H42.1428V85.4029H48.1647V83.949Z" fill="#E0E0E0"/>
<path d="M49.1004 87.2223H41.3658V90.2929H49.1004V87.2223Z" fill="white"/>
<path d="M34.3951 82.4595C33.7681 81.8542 32.9988 81.4166 32.1582 81.1869C31.3176 80.9572 30.4326 80.9428 29.585 81.1451C28.7373 81.3474 27.9542 81.7599 27.3079 82.3445C26.6616 82.929 26.1729 83.6669 25.8868 84.4901L26.5011 86.871C26.7346 86.0613 27.2372 85.277 28.0114 84.9419C28.7855 84.6069 29.7526 84.7922 30.5776 85.0942C31.4025 85.3963 32.2122 85.7948 33.0904 85.8557C33.9687 85.9166 34.9561 85.4953 35.2175 84.6551C35.4536 83.8708 34.9789 83.0255 34.3951 82.4595Z" fill="#61C7FF"/>
<g opacity="0.3">
<path d="M34.3954 82.4609C33.7685 81.8556 32.9992 81.418 32.1585 81.1882C31.3179 80.9585 30.4329 80.9442 29.5853 81.1465C28.7376 81.3488 27.9546 81.7612 27.3083 82.3458C26.662 82.9304 26.1732 83.6683 25.8872 84.4915L26.5014 86.8724C26.735 86.0627 27.2375 85.2784 28.0117 84.9433C28.7859 84.6082 29.753 84.7935 30.5779 85.0956C31.4028 85.3977 32.2125 85.7962 33.0908 85.8571C33.969 85.918 34.9564 85.4966 35.2178 84.6565C35.4539 83.8722 34.9792 83.0269 34.3954 82.4609Z" fill="black"/>
</g>
<path d="M19.5486 90.4096C18.2617 89.1886 18.3252 87.0616 18.9673 85.4092C19.6095 83.7568 20.9979 82.4851 22.5717 81.65C24.0983 80.8488 25.7865 80.4036 27.5097 80.3478C29.2329 80.292 30.9464 80.6269 32.5217 81.3276C31.7524 81.3626 31.0034 81.5851 30.3398 81.9757C29.6762 82.3664 29.1182 82.9133 28.7143 83.5689C28.0086 84.7391 27.8538 86.1605 27.27 87.3941C26.6137 88.7872 25.4488 89.8761 24.0147 90.4369C22.5805 90.9977 20.9859 90.9879 19.5588 90.4096" fill="#61C7FF"/>
<path d="M18.9289 83.0636C17.5049 81.3833 17.3171 78.6851 17.5252 76.4946C17.7334 74.304 18.2436 72.0958 17.8983 69.9205C17.6927 68.631 17.1927 67.4025 17.0252 66.1131C16.8577 64.8236 17.0937 63.3565 18.0963 62.5214C19.2487 61.562 21.0636 61.7879 22.2616 62.6889C23.4597 63.59 24.1552 65.0064 24.6628 66.4177C25.7771 69.5169 26.1858 72.9537 25.272 76.1189C24.3582 79.2841 22.2058 82.1143 19.0533 83.0687" fill="#61C7FF"/>
<path d="M18.2467 96.8503C18.2412 96.7861 18.2412 96.7216 18.2467 96.6574C18.2467 96.5305 18.2467 96.3427 18.2467 96.1015C18.2645 95.6193 18.3102 94.9212 18.4193 94.0709C18.546 93.0683 18.7282 92.0734 18.9651 91.091C19.2618 89.8853 19.7194 88.7251 20.3256 87.6415C20.9351 86.5587 21.6825 85.5596 22.5491 84.6692C23.2534 83.9411 24.0347 83.2918 24.8792 82.7325C25.2346 82.4787 25.5772 82.2984 25.8742 82.1258C26.1712 81.9532 26.4428 81.8365 26.6611 81.7324L27.1687 81.5167C27.2281 81.4898 27.2891 81.4669 27.3515 81.4481C27.2969 81.4831 27.2391 81.5128 27.1789 81.537L26.6712 81.773C26.458 81.8847 26.1991 82.0268 25.9098 82.1842C25.6204 82.3416 25.2777 82.5523 24.9274 82.801C23.0759 84.0668 21.539 85.7401 20.4347 87.6923C19.125 89.9767 18.7671 92.3906 18.5056 94.076C18.3889 94.9289 18.3305 95.6243 18.2975 96.1066C18.2975 96.3376 18.2721 96.5229 18.2645 96.6599C18.2644 96.7238 18.2585 96.7875 18.2467 96.8503Z" fill="#263238"/>
<path d="M5.96644 76.4185C3.33172 78.0074 3.33934 79.4644 3.77846 80.8173C4.21758 82.1702 5.83699 83.1322 7.17719 82.622C7.93867 82.3326 8.48186 81.6727 8.95398 81.0127C9.4261 80.3528 9.86268 79.6421 10.5201 79.1674C10.9715 78.831 11.5303 78.6712 12.0913 78.7181L5.96644 76.4185Z" fill="#61C7FF"/>
<path d="M12.0909 78.7394L12.789 78.9932C12.5808 78.8523 12.341 78.7651 12.0909 78.7394Z" fill="#61C7FF"/>
<path d="M13.6502 79.4638L11.0688 78.4942L12.1069 78.616C12.3811 78.645 12.6432 78.7438 12.8684 78.9028L13.6502 79.4638Z" fill="black"/>
<g opacity="0.3">
<path d="M5.96629 76.4245C3.33157 78.0135 3.33918 79.4704 3.7783 80.8233C4.21742 82.1762 5.83684 83.1382 7.17704 82.628C7.93852 82.3387 8.48171 81.6787 8.95383 81.0188C9.42594 80.3588 9.86253 79.6481 10.5199 79.1734C10.9713 78.837 11.5301 78.6772 12.0911 78.7242L5.96629 76.4245Z" fill="black"/>
</g>
<path d="M3.99656 78.1786C4.68443 77.2268 6.38506 76.9526 7.45875 77.4171C8.53244 77.8816 9.32184 78.8335 10.0249 79.7726C10.728 80.7118 11.4159 81.7043 12.3906 82.3591C13.3653 83.014 14.7309 83.2501 15.6903 82.5901C16.0001 82.3589 16.2595 82.0671 16.4528 81.7323C16.6461 81.3976 16.7693 81.0271 16.8148 80.6433C16.8974 79.8786 16.845 79.1054 16.66 78.3588C16.4264 77.2547 16.0482 76.1023 15.1649 75.3992C14.1775 74.6174 12.812 74.5794 11.5555 74.6225C10.1112 74.6682 8.64666 74.7773 7.29376 75.2774C5.94087 75.7774 4.55751 76.8562 3.99402 78.1812" fill="#61C7FF"/>
<path d="M16.0591 94.7464C16.056 94.727 16.056 94.7073 16.0591 94.688C16.0591 94.6423 16.0591 94.5865 16.0591 94.5179C16.0591 94.3606 16.0591 94.1423 16.0363 93.8656C16.0211 93.2869 15.9957 92.4696 15.9678 91.4619C15.9398 90.4542 15.8942 89.2383 15.8205 87.9083C15.7469 86.5782 15.6479 85.0959 15.4449 83.5628C15.3579 82.8163 15.2119 82.0779 15.0083 81.3545C14.7979 80.6877 14.5277 80.0412 14.2011 79.4229C13.9087 78.862 13.569 78.327 13.1858 77.8238C12.8489 77.3881 12.4771 76.9806 12.0741 76.6054C11.4873 76.0625 10.8236 75.6092 10.1044 75.2601C9.97492 75.2017 9.86323 75.1433 9.7617 75.1027L9.50787 75.0037L9.3505 74.9403C9.32027 74.9364 9.29147 74.9251 9.26674 74.9073L9.32258 74.9225L9.48503 74.9758L9.73886 75.0647C9.84293 75.1027 9.95715 75.1586 10.0866 75.2144C10.8196 75.5498 11.4968 75.9958 12.0944 76.5369C12.505 76.9133 12.8844 77.3225 13.229 77.7603C13.6201 78.2648 13.9666 78.8024 14.2646 79.367C14.5992 79.9896 14.8746 80.6423 15.087 81.3164C15.2961 82.0441 15.4446 82.7878 15.5312 83.5399C15.7342 85.0807 15.8307 86.5554 15.8992 87.8981C15.9678 89.2409 16.0008 90.4364 16.0211 91.4517C16.0414 92.467 16.049 93.2894 16.0515 93.8554C16.0515 94.1321 16.0515 94.3504 16.0515 94.5103C16.0515 94.5789 16.0515 94.6347 16.0515 94.6804C16.0555 94.7022 16.058 94.7242 16.0591 94.7464Z" fill="#263238"/>
<path d="M17.0058 95.9298C16.8805 95.5604 16.7838 95.182 16.7164 94.7977C16.5347 93.7486 16.4945 92.6797 16.5971 91.6198C16.7613 90.0501 17.1019 88.5038 17.6125 87.0103C18.1531 85.3148 18.8816 83.5025 19.5136 81.5556C19.8256 80.6099 20.0799 79.6461 20.2751 78.6696C20.4428 77.7586 20.5614 76.8393 20.6305 75.9156C20.7501 74.3491 20.7781 72.7769 20.7142 71.2071C20.6685 69.8669 20.5975 68.7805 20.5543 68.0317C20.5315 67.6637 20.5137 67.3743 20.5035 67.1687C20.5035 67.0748 20.5035 67.0012 20.5035 66.9428C20.5002 66.9175 20.5002 66.8919 20.5035 66.8667C20.5063 66.892 20.5063 66.9175 20.5035 66.9428C20.5035 66.9987 20.5035 67.0748 20.5264 67.1662C20.5442 67.3718 20.5695 67.6738 20.6 68.0292C20.6584 68.778 20.7421 69.8618 20.798 71.2046C20.874 72.778 20.8545 74.3546 20.7396 75.9257C20.6676 76.854 20.5447 77.7776 20.3715 78.6924C20.1766 79.6732 19.9223 80.6412 19.6101 81.5911C18.9831 83.5456 18.2445 85.3554 17.7013 87.0433C17.1976 88.53 16.8572 90.0671 16.686 91.6274C16.5777 92.6809 16.6059 93.7439 16.7697 94.7901C16.8357 95.1582 16.8941 95.445 16.9449 95.6354C16.9677 95.7268 16.9855 95.7978 16.9982 95.8537C17.004 95.8786 17.0065 95.9042 17.0058 95.9298V95.9298Z" fill="#263238"/>
<path d="M23.5345 97.1274H11.168L10.8863 94.7465H23.5345V97.1274Z" fill="#455A64"/>
<path d="M12.4951 96.8507L14.0409 103.991H20.7622L22.209 96.8507H12.4951Z" fill="#455A64"/>
<path d="M23.5333 97.1293C23.5333 97.1623 20.8148 97.1801 17.4618 97.1699C14.1087 97.1598 11.3902 97.1268 11.3902 97.0938C11.3902 97.0608 14.1087 97.043 17.4618 97.0531C20.8148 97.0633 23.5333 97.0963 23.5333 97.1293Z" fill="#455A64"/>
<path d="M21.4128 100.643C21.0762 100.392 20.7106 100.182 20.3239 100.018C19.9007 99.8559 19.4521 99.77 18.9989 99.7644C18.4432 99.765 17.892 99.8656 17.3719 100.061C16.8084 100.252 16.2804 100.475 15.7677 100.597C15.3129 100.695 14.8441 100.709 14.3844 100.638C14.0739 100.593 13.7729 100.498 13.4934 100.356C13.4184 100.316 13.3463 100.271 13.2777 100.221C13.232 100.186 13.2091 100.165 13.2117 100.163C13.2142 100.16 13.3183 100.224 13.5137 100.315C13.7932 100.443 14.09 100.528 14.3945 100.569C14.845 100.626 15.302 100.603 15.7449 100.503C16.2525 100.381 16.7602 100.155 17.3338 99.9624C17.8669 99.7626 18.4322 99.6628 19.0015 99.6679C19.4668 99.683 19.9254 99.7837 20.3544 99.9649C20.6435 100.084 20.915 100.242 21.1615 100.435C21.2286 100.486 21.293 100.541 21.3544 100.599C21.395 100.617 21.4154 100.64 21.4128 100.643Z" fill="#263238"/>
<path d="M21.3173 101.124C20.9929 100.881 20.6421 100.675 20.2716 100.51C19.8678 100.348 19.4375 100.262 19.0024 100.256C18.4645 100.258 17.931 100.355 17.4262 100.54C16.883 100.721 16.3703 100.934 15.8829 101.063C15.4514 101.189 15.0015 101.239 14.5529 101.213C14.2488 101.196 13.9515 101.117 13.6797 100.979C13.6065 100.942 13.5369 100.898 13.4716 100.847C13.4259 100.814 13.403 100.794 13.4056 100.792C13.4081 100.789 13.5096 100.85 13.7 100.939C13.9717 101.055 14.2626 101.12 14.5579 101.129C14.9967 101.144 15.4348 101.086 15.855 100.959C16.3322 100.825 16.8398 100.611 17.378 100.426C17.895 100.237 18.4418 100.143 18.9923 100.147C19.4429 100.16 19.8866 100.26 20.2995 100.441C20.5714 100.565 20.8272 100.722 21.061 100.908C21.1258 100.959 21.1877 101.013 21.2463 101.071C21.3021 101.099 21.3199 101.122 21.3173 101.124Z" fill="white"/>
<path d="M21.533 100.174C21.1866 99.9134 20.812 99.692 20.4162 99.5145C19.9852 99.33 19.526 99.2202 19.0582 99.1896C18.4842 99.1766 17.9133 99.2767 17.3779 99.4841C16.8355 99.6972 16.2813 99.8786 15.7178 100.027C15.2449 100.107 14.7618 100.107 14.2888 100.027C13.9695 99.9769 13.6597 99.8784 13.3699 99.7353C13.2918 99.6959 13.2171 99.6501 13.1466 99.5983C13.0984 99.5602 13.073 99.5399 13.0755 99.5374C13.078 99.5348 13.1847 99.6008 13.3903 99.6947C13.6813 99.8196 13.9878 99.9049 14.3015 99.9486C14.7652 100.016 15.2366 100.007 15.6975 99.9232C16.2539 99.7684 16.802 99.5854 17.3398 99.3749C17.8895 99.1619 18.4767 99.0627 19.0658 99.083C19.5445 99.1196 20.0128 99.2408 20.4492 99.4409C20.7436 99.5763 21.0206 99.7467 21.2741 99.9486C21.3429 100.002 21.409 100.059 21.4721 100.119C21.5152 100.149 21.5381 100.172 21.533 100.174Z" fill="white"/>
<path d="M23.6425 97.1315C23.6425 97.1645 20.8504 97.1899 17.4314 97.1899C14.0124 97.1899 11.2177 97.1645 11.2177 97.1315C11.2177 97.0985 14.0098 97.0731 17.4314 97.0731C20.853 97.0731 23.6425 97.0985 23.6425 97.1315Z" fill="#263238"/>
<path d="M61.8504 -2.10385H-7.23102V58.5353H61.8504V-2.10385Z" fill="#FAFAFA"/>
<path d="M61.8494 58.5247C61.8494 58.0551 61.8265 34.3807 61.7935 -2.11198L61.8494 -2.05614L-7.22446 -2.04599L-7.15846 -2.11198C-7.15846 19.9227 -7.15846 40.673 -7.15846 58.5247L-7.21684 58.4663L61.8646 58.5247L-7.21684 58.583H-7.27522V58.5247C-7.27522 40.673 -7.27522 19.9227 -7.27522 -2.11198V-2.17798H-7.20161H61.8722H61.9281V-2.12214C61.8722 34.3832 61.8494 58.0551 61.8494 58.5247Z" fill="#263238"/>
<path d="M30.877 58.4118C30.877 58.4118 30.877 58.4423 30.8618 58.5006C30.8399 58.5832 30.8093 58.6632 30.7704 58.7392C30.63 59.024 30.4227 59.2705 30.1663 59.4576C29.7918 59.7368 29.3572 59.9246 28.8972 60.0058C28.3368 60.0973 27.7693 60.1381 27.2016 60.1277C26.6335 60.1499 26.0646 60.115 25.5035 60.0236C25.0419 59.9473 24.6016 59.7743 24.2115 59.516C23.9521 59.3398 23.7173 59.1298 23.5135 58.8915C23.4329 58.8095 23.3645 58.7164 23.3104 58.6149C23.4001 58.6898 23.4848 58.7704 23.5643 58.856C23.7784 59.0768 24.0168 59.2726 24.275 59.4398C24.6622 59.6799 25.0939 59.8396 25.5441 59.9094C26.0985 59.9918 26.6593 60.0224 27.2194 60.0008C27.779 60.0106 28.3385 59.974 28.8921 59.8916C29.3403 59.818 29.7663 59.6445 30.1384 59.384C30.3892 59.2088 30.5989 58.9809 30.7526 58.7164C30.8313 58.526 30.8643 58.4067 30.877 58.4118Z" fill="#263238"/>
<path d="M54.4076 8.37744H-0.213318V33.6281H54.4076V8.37744Z" fill="#FAFAFA"/>
<path d="M54.4136 33.6226C54.4136 33.6226 54.4136 33.4677 54.4136 33.1708V31.8585C54.4136 30.7061 54.4136 29.0106 54.3984 26.8276C54.3984 22.4669 54.3806 16.1669 54.3679 8.37191L54.4238 8.42775L-0.192109 8.44806L-0.113424 8.37191C-0.113424 17.2558 -0.113424 25.7946 -0.113424 33.6226L-0.187034 33.549L39.0292 33.5845L50.3575 33.6048H53.3831H54.1674H54.4339H54.1801H53.4186H50.4082L39.0952 33.6251L-0.169266 33.6607H-0.286026V33.587C-0.286026 25.759 -0.286026 17.2178 -0.286026 8.33638V8.25769H-0.204802L54.4136 8.31607H54.4694V8.37191C54.4568 16.1745 54.4466 22.4923 54.4415 26.8632C54.4415 29.0385 54.4415 30.7315 54.4263 31.8813C54.4263 32.4524 54.4263 32.8966 54.4263 33.1835C54.4263 33.4703 54.4136 33.6226 54.4136 33.6226Z" fill="#263238"/>
<path d="M3.62982 25.8273V26.6243H3.54859V25.8983H3.36076V25.8273H3.62982Z" fill="#263238"/>
<path d="M3.82053 26.222C3.82053 25.9682 3.95505 25.8159 4.13781 25.8159C4.32056 25.8159 4.45763 25.9682 4.45763 26.222C4.45763 26.4758 4.3231 26.6256 4.13781 26.6256C3.95252 26.6256 3.82053 26.4758 3.82053 26.222ZM4.37387 26.222C4.37387 26.0088 4.27741 25.8895 4.13781 25.8895C3.9982 25.8895 3.90429 26.0088 3.90429 26.222C3.90429 26.4352 4.00074 26.552 4.13781 26.552C4.27488 26.552 4.37387 26.4327 4.37387 26.222V26.222Z" fill="#263238"/>
<path d="M3.95272 21.5863V21.6599H3.3943V21.6015L3.72682 21.2766C3.81565 21.1878 3.83342 21.1345 3.83342 21.0786C3.83342 21.0228 3.76743 20.9314 3.64559 20.9314C3.60515 20.9279 3.56444 20.9341 3.5269 20.9496C3.48936 20.965 3.45608 20.9893 3.42984 21.0203L3.37146 20.9695C3.40694 20.9307 3.45065 20.9002 3.4994 20.8805C3.54815 20.8607 3.6007 20.8521 3.65321 20.8553C3.81565 20.8553 3.90703 20.9365 3.90703 21.071C3.90605 21.1206 3.89363 21.1694 3.87074 21.2134C3.84785 21.2574 3.8151 21.2956 3.77504 21.3249L3.50599 21.5787L3.95272 21.5863Z" fill="#263238"/>
<path d="M4.0522 21.2608C4.0522 21.0069 4.18673 20.8546 4.37202 20.8546C4.55732 20.8546 4.68931 21.0069 4.68931 21.2608C4.68931 21.5146 4.55478 21.6643 4.37202 21.6643C4.18927 21.6643 4.0522 21.5146 4.0522 21.2608ZM4.60554 21.2608C4.60554 21.0475 4.50909 20.9308 4.37202 20.9308C4.23496 20.9308 4.13596 21.0475 4.13596 21.2608C4.13596 21.474 4.23242 21.5907 4.37202 21.5907C4.51163 21.5907 4.60554 21.474 4.60554 21.2608V21.2608Z" fill="#263238"/>
<path d="M3.93695 16.4848C3.93695 16.6168 3.83796 16.7208 3.64759 16.7208C3.54209 16.7248 3.43921 16.6874 3.36076 16.6168L3.39884 16.5533C3.468 16.6162 3.55929 16.6491 3.65266 16.6447C3.78465 16.6447 3.85572 16.5838 3.85572 16.4848C3.85572 16.3858 3.78973 16.3249 3.64251 16.3249H3.58413V16.264L3.80496 15.9873H3.39376V15.9162H3.90141V15.9771L3.67551 16.2589C3.85065 16.2563 3.93695 16.3452 3.93695 16.4848Z" fill="#263238"/>
<path d="M4.0522 16.2995C4.0522 16.0457 4.18673 15.8934 4.37202 15.8934C4.55732 15.8934 4.68931 16.0457 4.68931 16.2995C4.68931 16.5534 4.55478 16.7056 4.37202 16.7056C4.18927 16.7056 4.0522 16.5534 4.0522 16.2995ZM4.60554 16.2995C4.60554 16.0863 4.50909 15.9695 4.37202 15.9695C4.23496 15.9695 4.13596 16.0863 4.13596 16.2995C4.13596 16.5127 4.23242 16.6295 4.37202 16.6295C4.51163 16.6295 4.60554 16.5127 4.60554 16.2995V16.2995Z" fill="#263238"/>
<path d="M7.14796 28.828C7.14796 28.5742 7.28249 28.4219 7.46779 28.4219C7.65308 28.4219 7.78507 28.5742 7.78507 28.828C7.78507 29.0819 7.65054 29.2342 7.46779 29.2342C7.28503 29.2342 7.14796 29.0819 7.14796 28.828ZM7.70131 28.828C7.70131 28.6148 7.60485 28.4981 7.46779 28.4981C7.33072 28.4981 7.23173 28.6148 7.23173 28.828C7.23173 29.0413 7.32818 29.158 7.46779 29.158C7.60739 29.158 7.70892 29.0413 7.70892 28.828H7.70131Z" fill="#263238"/>
<path d="M13.0395 28.4333V29.2303H12.9583V28.5069H12.7857V28.4333H13.0395Z" fill="#263238"/>
<path d="M19.2709 29.151V29.2247H18.7099V29.1688L19.0424 28.8439C19.1313 28.7551 19.1491 28.7018 19.1491 28.6485C19.1491 28.5546 19.0831 28.4987 18.9638 28.4987C18.923 28.4958 18.8821 28.5023 18.8443 28.5177C18.8064 28.5331 18.7726 28.557 18.7455 28.5876L18.6871 28.5368C18.7226 28.4979 18.7663 28.4675 18.815 28.4478C18.8638 28.428 18.9163 28.4194 18.9688 28.4226C19.1313 28.4226 19.2227 28.5063 19.2227 28.6383C19.2218 28.6877 19.2097 28.7362 19.1872 28.7802C19.1648 28.8242 19.1327 28.8624 19.0932 28.8921L18.8216 29.1587L19.2709 29.151Z" fill="#263238"/>
<path d="M25.1497 29.0019C25.1497 29.1339 25.0533 29.2379 24.8604 29.2379C24.7549 29.2419 24.652 29.2045 24.5735 29.1339L24.6142 29.0704C24.6482 29.1019 24.6882 29.1262 24.7318 29.1419C24.7754 29.1576 24.8217 29.1644 24.868 29.1618C25 29.1618 25.0736 29.1009 25.0736 29.0019C25.0736 28.9029 25.0051 28.8445 24.8578 28.8445H24.7995V28.7836L25.0203 28.5069H24.6142V28.4333H25.1218V28.4917L24.8959 28.776C25.0634 28.7836 25.1497 28.875 25.1497 29.0019Z" fill="#263238"/>
<path d="M31.1953 29.0222H31.0354V29.2303H30.9542V29.0222H30.5049V28.9613L30.9263 28.4333H31.0176L30.609 28.941H30.9567V28.7557H31.0354V28.941H31.1953V29.0222Z" fill="#263238"/>
<path d="M36.9543 28.9968C36.9543 29.1313 36.8604 29.2379 36.665 29.2379C36.5603 29.2412 36.4585 29.2039 36.3807 29.1339L36.4188 29.0704C36.4528 29.1019 36.4928 29.1262 36.5364 29.1419C36.58 29.1576 36.6263 29.1644 36.6726 29.1618C36.8071 29.1618 36.8782 29.0958 36.8782 28.9994C36.8782 28.9029 36.8147 28.8344 36.6244 28.8344H36.4543L36.4974 28.4333H36.934V28.5069H36.5685L36.5406 28.7608H36.6447C36.863 28.7608 36.9543 28.8547 36.9543 28.9968Z" fill="#263238"/>
<path d="M42.909 28.992C42.909 29.0269 42.9019 29.0614 42.8881 29.0934C42.8742 29.1255 42.8539 29.1543 42.8284 29.1781C42.803 29.2019 42.7728 29.2202 42.74 29.2319C42.7071 29.2435 42.6722 29.2483 42.6374 29.2458C42.4242 29.2458 42.3099 29.0986 42.3099 28.8473C42.3099 28.5961 42.4572 28.4336 42.6754 28.4336C42.7408 28.431 42.8056 28.4459 42.8633 28.4768L42.8303 28.5427C42.7829 28.5171 42.7293 28.5048 42.6754 28.5072C42.5028 28.5072 42.3937 28.6164 42.3937 28.8321C42.3925 28.8541 42.3925 28.8761 42.3937 28.8981C42.4171 28.8522 42.4539 28.8145 42.4992 28.79C42.5446 28.7655 42.5963 28.7554 42.6475 28.761C42.7124 28.7588 42.7756 28.7815 42.8242 28.8245C42.8728 28.8675 42.9032 28.9274 42.909 28.992V28.992ZM42.8277 28.992C42.8277 28.8879 42.7516 28.8194 42.6272 28.8194C42.6021 28.8166 42.5766 28.819 42.5524 28.8264C42.5282 28.8338 42.5058 28.8461 42.4865 28.8625C42.4673 28.8789 42.4516 28.8991 42.4404 28.9218C42.4292 28.9445 42.4229 28.9693 42.4216 28.9946C42.4216 29.0834 42.4952 29.1646 42.6323 29.1646C42.6566 29.1679 42.6813 29.1659 42.7048 29.1589C42.7282 29.1518 42.7499 29.1398 42.7684 29.1237C42.7869 29.1077 42.8018 29.0878 42.812 29.0655C42.8222 29.0433 42.8276 29.0191 42.8277 28.9946V28.992Z" fill="#263238"/>
<path d="M48.7699 28.4333V28.4917L48.4349 29.2303H48.346L48.6735 28.5069H48.2648V28.6668H48.1836V28.446L48.7699 28.4333Z" fill="#263238"/>
<path d="M48.8106 26.2595C48.8106 26.3027 39.584 26.3357 28.2024 26.3357C16.8208 26.3357 7.59419 26.3027 7.59419 26.2595C7.59419 26.2164 16.8183 26.1808 28.2024 26.1808C39.5865 26.1808 48.8106 26.2164 48.8106 26.2595Z" fill="#263238"/>
<path d="M48.8106 21.2755C48.8106 21.3186 39.584 21.3516 28.2024 21.3516C16.8208 21.3516 7.59419 21.3186 7.59419 21.2755C7.59419 21.2323 16.8183 21.1968 28.2024 21.1968C39.5865 21.1968 48.8106 21.2323 48.8106 21.2755Z" fill="#263238"/>
<path d="M48.8106 16.2914C48.8106 16.3346 39.584 16.3676 28.2024 16.3676C16.8208 16.3676 7.59419 16.3346 7.59419 16.2914C7.59419 16.2483 16.8183 16.2128 28.2024 16.2128C39.5865 16.2128 48.8106 16.2483 48.8106 16.2914Z" fill="#263238"/>
<path d="M7.59432 26.1837C7.59432 26.2339 7.57944 26.283 7.55155 26.3247C7.52366 26.3665 7.48401 26.399 7.43763 26.4182C7.39125 26.4374 7.34022 26.4425 7.29098 26.4327C7.24174 26.4229 7.19651 26.3987 7.16101 26.3632C7.12552 26.3277 7.10134 26.2825 7.09155 26.2332C7.08175 26.184 7.08678 26.133 7.10599 26.0866C7.1252 26.0402 7.15774 26.0006 7.19948 25.9727C7.24122 25.9448 7.2903 25.9299 7.3405 25.9299C7.40782 25.9299 7.47238 25.9566 7.51998 26.0042C7.56758 26.0518 7.59432 26.1164 7.59432 26.1837Z" fill="#61C7FF"/>
<path d="M13.5193 26.1837C13.5193 26.2339 13.5044 26.283 13.4765 26.3247C13.4486 26.3665 13.409 26.399 13.3626 26.4182C13.3162 26.4374 13.2652 26.4425 13.2159 26.4327C13.1667 26.4229 13.1215 26.3987 13.086 26.3632C13.0505 26.3277 13.0263 26.2825 13.0165 26.2332C13.0067 26.184 13.0117 26.133 13.031 26.0866C13.0502 26.0402 13.0827 26.0006 13.1244 25.9727C13.1662 25.9448 13.2153 25.9299 13.2655 25.9299C13.3328 25.9299 13.3973 25.9566 13.4449 26.0042C13.4925 26.0518 13.5193 26.1164 13.5193 26.1837Z" fill="#61C7FF"/>
<path d="M19.4471 26.1837C19.4471 26.2339 19.4322 26.283 19.4043 26.3247C19.3764 26.3665 19.3368 26.399 19.2904 26.4182C19.244 26.4374 19.193 26.4425 19.1437 26.4327C19.0945 26.4229 19.0493 26.3987 19.0138 26.3632C18.9783 26.3277 18.9541 26.2825 18.9443 26.2332C18.9345 26.184 18.9395 26.133 18.9587 26.0866C18.978 26.0402 19.0105 26.0006 19.0522 25.9727C19.094 25.9448 19.143 25.9299 19.1933 25.9299C19.2606 25.9299 19.3251 25.9566 19.3727 26.0042C19.4203 26.0518 19.4471 26.1164 19.4471 26.1837Z" fill="#61C7FF"/>
<path d="M25.372 26.1837C25.372 26.2339 25.3571 26.283 25.3293 26.3247C25.3014 26.3665 25.2617 26.399 25.2153 26.4182C25.169 26.4374 25.1179 26.4425 25.0687 26.4327C25.0195 26.4229 24.9742 26.3987 24.9387 26.3632C24.9032 26.3277 24.8791 26.2825 24.8693 26.2332C24.8595 26.184 24.8645 26.133 24.8837 26.0866C24.9029 26.0402 24.9354 26.0006 24.9772 25.9727C25.0189 25.9448 25.068 25.9299 25.1182 25.9299C25.1855 25.9299 25.2501 25.9566 25.2977 26.0042C25.3453 26.0518 25.372 26.1164 25.372 26.1837Z" fill="#61C7FF"/>
<path d="M31.2991 26.184C31.2991 26.2337 31.2844 26.2822 31.2571 26.3237C31.2297 26.3651 31.1908 26.3976 31.1451 26.4171C31.0995 26.4366 31.0491 26.4423 31.0003 26.4335C30.9514 26.4247 30.9062 26.4018 30.8702 26.3675C30.8343 26.3333 30.8092 26.2893 30.798 26.2409C30.7868 26.1925 30.7901 26.1419 30.8073 26.0954C30.8246 26.0488 30.8552 26.0084 30.8952 25.979C30.9353 25.9497 30.983 25.9327 31.0326 25.9302C31.067 25.9285 31.1014 25.9338 31.1336 25.9458C31.1659 25.9578 31.1954 25.9762 31.2204 25.9999C31.2453 26.0237 31.2651 26.0522 31.2787 26.0839C31.2922 26.1155 31.2992 26.1496 31.2991 26.184Z" fill="#61C7FF"/>
<path d="M43.1512 26.1837C43.1512 26.2339 43.1363 26.283 43.1084 26.3247C43.0805 26.3665 43.0409 26.399 42.9945 26.4182C42.9481 26.4374 42.8971 26.4425 42.8478 26.4327C42.7986 26.4229 42.7534 26.3987 42.7179 26.3632C42.6824 26.3277 42.6582 26.2825 42.6484 26.2332C42.6386 26.184 42.6436 26.133 42.6628 26.0866C42.6821 26.0402 42.7146 26.0006 42.7563 25.9727C42.7981 25.9448 42.8472 25.9299 42.8974 25.9299C42.9647 25.9299 43.0292 25.9566 43.0768 26.0042C43.1244 26.0518 43.1512 26.1164 43.1512 26.1837Z" fill="#61C7FF"/>
<path d="M37.2241 26.1837C37.2241 26.2339 37.2092 26.283 37.1813 26.3247C37.1534 26.3665 37.1138 26.399 37.0674 26.4182C37.021 26.4374 36.97 26.4425 36.9207 26.4327C36.8715 26.4229 36.8263 26.3987 36.7908 26.3632C36.7553 26.3277 36.7311 26.2825 36.7213 26.2332C36.7115 26.184 36.7165 26.133 36.7358 26.0866C36.755 26.0402 36.7875 26.0006 36.8292 25.9727C36.871 25.9448 36.9201 25.9299 36.9703 25.9299C37.0376 25.9299 37.1021 25.9566 37.1497 26.0042C37.1973 26.0518 37.2241 26.1164 37.2241 26.1837Z" fill="#61C7FF"/>
<path d="M49.0825 26.184C49.0825 26.2337 49.0679 26.2822 49.0405 26.3237C49.0131 26.3651 48.9742 26.3976 48.9286 26.4171C48.8829 26.4366 48.8325 26.4423 48.7837 26.4335C48.7348 26.4247 48.6896 26.4018 48.6537 26.3675C48.6177 26.3333 48.5926 26.2893 48.5814 26.2409C48.5702 26.1925 48.5735 26.1419 48.5908 26.0954C48.608 26.0488 48.6386 26.0084 48.6786 25.979C48.7187 25.9497 48.7664 25.9327 48.816 25.9302C48.8504 25.9285 48.8848 25.9338 48.9171 25.9458C48.9493 25.9578 48.9788 25.9762 49.0038 25.9999C49.0287 26.0237 49.0485 26.0522 49.0621 26.0839C49.0756 26.1155 49.0826 26.1496 49.0825 26.184Z" fill="#61C7FF"/>
<path d="M10.2964 26.2533C10.2964 26.2762 10.2919 26.2988 10.283 26.32C10.2742 26.3411 10.2612 26.3602 10.2449 26.3763C10.2287 26.3923 10.2093 26.405 10.1881 26.4135C10.1669 26.422 10.1441 26.4262 10.1213 26.4259C10.0985 26.4263 10.0759 26.422 10.0548 26.4135C10.0337 26.4049 10.0145 26.3922 9.99845 26.3761C9.98235 26.36 9.96965 26.3409 9.9611 26.3198C9.95255 26.2987 9.94832 26.2761 9.94866 26.2533C9.94832 26.2304 9.95254 26.2077 9.96106 26.1865C9.96958 26.1652 9.98224 26.1459 9.9983 26.1296C10.0144 26.1133 10.0335 26.1004 10.0546 26.0915C10.0757 26.0827 10.0984 26.0782 10.1213 26.0782C10.1677 26.0782 10.2123 26.0966 10.2451 26.1295C10.2779 26.1623 10.2964 26.2069 10.2964 26.2533V26.2533Z" fill="#E0E0E0"/>
<path d="M16.242 26.2533C16.2423 26.2761 16.2381 26.2987 16.2296 26.3198C16.221 26.3409 16.2083 26.36 16.1922 26.3761C16.1761 26.3922 16.1569 26.4049 16.1359 26.4135C16.1148 26.422 16.0922 26.4263 16.0694 26.4259C16.0465 26.4262 16.0238 26.422 16.0026 26.4135C15.9813 26.405 15.962 26.3923 15.9457 26.3763C15.9294 26.3602 15.9165 26.3411 15.9076 26.32C15.8988 26.2988 15.8943 26.2762 15.8943 26.2533C15.8943 26.2069 15.9127 26.1623 15.9456 26.1295C15.9784 26.0966 16.0229 26.0782 16.0694 26.0782C16.0923 26.0782 16.1149 26.0827 16.136 26.0915C16.1572 26.1004 16.1763 26.1133 16.1924 26.1296C16.2084 26.1459 16.2211 26.1652 16.2296 26.1865C16.2381 26.2077 16.2423 26.2304 16.242 26.2533V26.2533Z" fill="#E0E0E0"/>
<path d="M22.0168 26.4348C22.1121 26.4348 22.1894 26.3575 22.1894 26.2622C22.1894 26.1668 22.1121 26.0896 22.0168 26.0896C21.9214 26.0896 21.8442 26.1668 21.8442 26.2622C21.8442 26.3575 21.9214 26.4348 22.0168 26.4348Z" fill="#E0E0E0"/>
<path d="M28.1395 26.2515C28.1344 26.294 28.1138 26.3332 28.0818 26.3616C28.0498 26.39 28.0084 26.4056 27.9656 26.4056C27.9228 26.4056 27.8815 26.39 27.8495 26.3616C27.8174 26.3332 27.7969 26.294 27.7918 26.2515C27.7888 26.2269 27.7911 26.202 27.7984 26.1783C27.8058 26.1547 27.8181 26.1329 27.8346 26.1143C27.851 26.0958 27.8712 26.0809 27.8938 26.0708C27.9164 26.0606 27.9409 26.0554 27.9656 26.0554C27.9904 26.0554 28.0149 26.0606 28.0375 26.0708C28.0601 26.0809 28.0803 26.0958 28.0967 26.1143C28.1131 26.1329 28.1255 26.1547 28.1328 26.1783C28.1402 26.202 28.1425 26.2269 28.1395 26.2515V26.2515Z" fill="#E0E0E0"/>
<path d="M34.0896 26.2533C34.0896 26.2762 34.0851 26.2988 34.0762 26.32C34.0674 26.3411 34.0544 26.3602 34.0382 26.3763C34.0219 26.3923 34.0025 26.405 33.9813 26.4135C33.9601 26.422 33.9373 26.4262 33.9145 26.4259C33.8917 26.4263 33.8691 26.422 33.848 26.4135C33.8269 26.4049 33.8077 26.3922 33.7916 26.3761C33.7756 26.36 33.7628 26.3409 33.7543 26.3198C33.7457 26.2987 33.7415 26.2761 33.7419 26.2533C33.7415 26.2304 33.7457 26.2077 33.7543 26.1865C33.7628 26.1652 33.7754 26.1459 33.7915 26.1296C33.8076 26.1133 33.8267 26.1004 33.8478 26.0915C33.8689 26.0827 33.8916 26.0782 33.9145 26.0782C33.9609 26.0782 34.0055 26.0966 34.0383 26.1295C34.0711 26.1623 34.0896 26.2069 34.0896 26.2533V26.2533Z" fill="#E0E0E0"/>
<path d="M40.0358 26.2515C40.0306 26.294 40.0101 26.3332 39.9781 26.3616C39.946 26.39 39.9047 26.4056 39.8619 26.4056C39.8191 26.4056 39.7778 26.39 39.7457 26.3616C39.7137 26.3332 39.6932 26.294 39.688 26.2515C39.685 26.2269 39.6873 26.202 39.6947 26.1783C39.7021 26.1547 39.7144 26.1329 39.7308 26.1143C39.7473 26.0958 39.7674 26.0809 39.79 26.0708C39.8126 26.0606 39.8371 26.0554 39.8619 26.0554C39.8867 26.0554 39.9112 26.0606 39.9338 26.0708C39.9564 26.0809 39.9765 26.0958 39.993 26.1143C40.0094 26.1329 40.0217 26.1547 40.0291 26.1783C40.0365 26.202 40.0387 26.2269 40.0358 26.2515V26.2515Z" fill="#E0E0E0"/>
<path d="M45.81 26.4348C45.9053 26.4348 45.9826 26.3575 45.9826 26.2622C45.9826 26.1668 45.9053 26.0896 45.81 26.0896C45.7146 26.0896 45.6374 26.1668 45.6374 26.2622C45.6374 26.3575 45.7146 26.4348 45.81 26.4348Z" fill="#E0E0E0"/>
<path d="M13.9049 24.0535C13.9049 24.182 13.8668 24.3076 13.7954 24.4145C13.724 24.5213 13.6225 24.6046 13.5038 24.6538C13.385 24.703 13.2544 24.7159 13.1283 24.6908C13.0023 24.6657 12.8865 24.6038 12.7956 24.5129C12.7048 24.4221 12.6429 24.3063 12.6178 24.1802C12.5927 24.0542 12.6056 23.9235 12.6548 23.8048C12.704 23.6861 12.7872 23.5846 12.8941 23.5132C13.001 23.4418 13.1266 23.4037 13.2551 23.4037C13.4275 23.4037 13.5927 23.4721 13.7146 23.594C13.8364 23.7159 13.9049 23.8811 13.9049 24.0535Z" fill="#61C7FF"/>
<path d="M19.0757 21.0026C19.0757 21.1311 19.0376 21.2568 18.9662 21.3636C18.8948 21.4705 18.7933 21.5538 18.6746 21.6029C18.5558 21.6521 18.4252 21.665 18.2991 21.6399C18.1731 21.6148 18.0573 21.553 17.9664 21.4621C17.8756 21.3712 17.8137 21.2554 17.7886 21.1294C17.7635 21.0033 17.7764 20.8727 17.8256 20.7539C17.8748 20.6352 17.958 20.5337 18.0649 20.4623C18.1718 20.3909 18.2974 20.3528 18.4259 20.3528C18.5112 20.3528 18.5957 20.3696 18.6746 20.4023C18.7534 20.4349 18.825 20.4828 18.8854 20.5431C18.9457 20.6035 18.9936 20.6751 19.0262 20.7539C19.0589 20.8328 19.0757 20.9173 19.0757 21.0026V21.0026Z" fill="#61C7FF"/>
<path d="M25.4918 21.2763C25.4918 21.4048 25.4537 21.5305 25.3823 21.6373C25.3109 21.7442 25.2094 21.8275 25.0907 21.8767C24.9719 21.9258 24.8413 21.9387 24.7152 21.9136C24.5892 21.8886 24.4734 21.8267 24.3825 21.7358C24.2916 21.6449 24.2298 21.5291 24.2047 21.4031C24.1796 21.277 24.1925 21.1464 24.2417 21.0277C24.2908 20.9089 24.3741 20.8074 24.481 20.736C24.5878 20.6646 24.7135 20.6265 24.842 20.6265C25.0143 20.6265 25.1796 20.695 25.3015 20.8168C25.4233 20.9387 25.4918 21.104 25.4918 21.2763Z" fill="#61C7FF"/>
<path d="M31.7567 15.722C31.7567 15.8507 31.7186 15.9764 31.6471 16.0833C31.5755 16.1902 31.4739 16.2735 31.355 16.3226C31.2361 16.3717 31.1054 16.3844 30.9792 16.3592C30.8531 16.3339 30.7373 16.2717 30.6466 16.1806C30.5558 16.0895 30.4941 15.9735 30.4693 15.8472C30.4445 15.721 30.4578 15.5903 30.5073 15.4716C30.5569 15.3529 30.6406 15.2516 30.7478 15.1805C30.855 15.1094 30.9809 15.0717 31.1095 15.0722C31.1947 15.0722 31.2791 15.0891 31.3578 15.1218C31.4365 15.1544 31.5079 15.2023 31.5681 15.2627C31.6282 15.3231 31.6758 15.3947 31.7082 15.4736C31.7406 15.5524 31.7571 15.6368 31.7567 15.722V15.722Z" fill="#61C7FF"/>
<path d="M37.6097 19.2551C37.6102 19.3837 37.5725 19.5096 37.5014 19.6168C37.4303 19.724 37.329 19.8076 37.2103 19.8572C37.0917 19.9068 36.9609 19.92 36.8347 19.8952C36.7085 19.8704 36.5925 19.8088 36.5013 19.718C36.4102 19.6272 36.3481 19.5114 36.3228 19.3853C36.2975 19.2592 36.3102 19.1284 36.3593 19.0095C36.4084 18.8907 36.4917 18.789 36.5986 18.7175C36.7056 18.646 36.8313 18.6078 36.9599 18.6078C37.1318 18.6078 37.2967 18.6759 37.4185 18.7972C37.5403 18.9186 37.609 19.0832 37.6097 19.2551V19.2551Z" fill="#61C7FF"/>
<path d="M43.5332 20.1903C43.5337 20.319 43.496 20.445 43.4248 20.5523C43.3536 20.6595 43.2521 20.7432 43.1333 20.7927C43.0144 20.8422 42.8836 20.8553 42.7573 20.8303C42.631 20.8053 42.515 20.7433 42.424 20.6523C42.3329 20.5613 42.271 20.4453 42.246 20.319C42.221 20.1927 42.2341 20.0618 42.2836 19.943C42.3331 19.8242 42.4168 19.7227 42.524 19.6515C42.6313 19.5803 42.7572 19.5425 42.886 19.543C43.0576 19.543 43.2223 19.6112 43.3437 19.7326C43.465 19.854 43.5332 20.0186 43.5332 20.1903V20.1903Z" fill="#61C7FF"/>
<path d="M49.0819 24.0524C49.0312 24.0557 48.9803 24.0557 48.9296 24.0524C48.7805 24.0422 48.6321 24.0227 48.4854 23.994C47.9173 23.8859 47.3867 23.6332 46.9447 23.2604C46.629 22.985 46.3703 22.6504 46.1832 22.2756C45.9603 21.8404 45.6942 21.4288 45.3887 21.047C45.0525 20.6013 44.5831 20.2741 44.0485 20.113C43.7555 20.0455 43.4498 20.0568 43.1627 20.146C42.8602 20.2442 42.5806 20.4021 42.3403 20.6105C41.8326 21.0318 41.4646 21.6258 40.9747 22.1766C40.7295 22.4667 40.4259 22.7019 40.0838 22.867C39.7157 23.0298 39.3034 23.0638 38.9136 22.9634C38.7154 22.8986 38.5334 22.7922 38.3797 22.6512C38.226 22.5102 38.1043 22.338 38.0227 22.1461C37.8526 21.7668 37.724 21.3702 37.6394 20.9633C37.5594 20.553 37.4412 20.151 37.2866 19.7627C37.213 19.5743 37.0803 19.4148 36.9084 19.3083C36.7218 19.2192 36.5157 19.179 36.3094 19.1916C35.8698 19.2392 35.4339 19.3164 35.0047 19.4226C34.779 19.4685 34.5496 19.494 34.3194 19.4987C34.0785 19.51 33.8384 19.4638 33.6188 19.3642C33.3974 19.2596 33.2068 19.0996 33.0654 18.8997C32.9299 18.7017 32.8159 18.4898 32.7253 18.2676C32.5375 17.8311 32.4131 17.3691 32.2431 16.9274C32.1613 16.7076 32.0557 16.4974 31.9283 16.3005C31.8047 16.1109 31.6282 15.9618 31.4207 15.8715C31.3673 15.8563 31.314 15.836 31.2607 15.8233L31.0881 15.8081C30.9786 15.801 30.8692 15.8229 30.7709 15.8715C30.5701 15.9953 30.4062 16.1706 30.2962 16.3792C30.0599 16.8092 29.8758 17.2659 29.7479 17.7397C29.6058 18.2194 29.4941 18.7068 29.3723 19.2017C29.1819 20.019 29.0144 20.8338 28.8037 21.6308C28.6971 22.0294 28.5829 22.4253 28.4382 22.8086C28.3084 23.2029 28.0994 23.5666 27.8239 23.8772C27.668 24.0335 27.4583 24.1243 27.2376 24.131C27.0253 24.1241 26.8186 24.061 26.6386 23.9483C26.3009 23.7271 26.0145 23.4363 25.7984 23.0954C25.3836 22.4478 25.043 21.7556 24.7831 21.0318C24.4988 20.349 24.179 19.6713 23.6485 19.2068C23.3915 18.9819 23.084 18.8222 22.7522 18.7413C22.4204 18.6605 22.0739 18.6608 21.7422 18.7423C21.4216 18.8281 21.116 18.9625 20.8361 19.1408C20.5578 19.3114 20.293 19.5032 20.0441 19.7145C19.5656 20.1168 19.1238 20.5611 18.7242 21.042C18.1212 21.641 17.4664 22.1855 16.7672 22.669C16.1449 23.1097 15.4716 23.4736 14.762 23.7528C14.1418 24.0113 13.4704 24.1234 12.7999 24.0803C12.2408 24.0165 11.6917 23.8835 11.1653 23.6843C10.4341 23.4162 9.72461 23.092 9.0433 22.7147C8.80724 22.5852 8.62956 22.4837 8.5128 22.4101C8.39604 22.3365 8.33766 22.2959 8.33766 22.2959L8.52296 22.3949L9.05853 22.6817C9.74545 23.0444 10.4571 23.3582 11.1881 23.6208C11.7109 23.8106 12.2546 23.9367 12.8075 23.9965C13.4644 24.0326 14.1207 23.9179 14.7265 23.6615C15.4267 23.3798 16.0905 23.015 16.7038 22.5751C17.395 22.0943 18.0414 21.5523 18.6354 20.9557V20.9557C19.039 20.4664 19.4849 20.0137 19.968 19.6028C20.2216 19.3869 20.4915 19.1909 20.7752 19.0164C21.066 18.8304 21.3836 18.69 21.7169 18.6002C22.0698 18.5125 22.4386 18.5113 22.7921 18.5966C23.1456 18.6819 23.4733 18.8512 23.7475 19.09C24.3084 19.5799 24.6359 20.278 24.9227 20.9658C25.1844 21.6784 25.525 22.3595 25.938 22.9964C26.1437 23.3179 26.4143 23.5928 26.7325 23.8036C26.8905 23.9021 27.0718 23.9572 27.2579 23.9635C27.4392 23.9553 27.6103 23.8771 27.7351 23.7452C27.9932 23.4484 28.1899 23.1033 28.3138 22.7299C28.4534 22.3543 28.5676 21.9684 28.6717 21.5674C28.8798 20.7754 29.0499 19.9607 29.2377 19.1408C29.3545 18.6332 29.4738 18.1534 29.6159 17.6712C29.7467 17.1832 29.9377 16.7134 30.1845 16.2726C30.3101 16.0433 30.4951 15.8522 30.7201 15.7192C30.842 15.6585 30.9776 15.6305 31.1135 15.638L31.3064 15.6583C31.3699 15.6735 31.4308 15.6964 31.4943 15.7141C31.7332 15.8134 31.9366 15.9823 32.0781 16.199C32.2126 16.4058 32.3233 16.6272 32.408 16.8589C32.5806 17.3107 32.705 17.7701 32.8878 18.194C33.0705 18.6179 33.299 19.0418 33.7076 19.2093C34.1163 19.3769 34.5732 19.3337 35.0047 19.2576C35.4407 19.1517 35.8834 19.0753 36.3297 19.0291C36.5609 19.0154 36.7917 19.0618 36.9998 19.1637C37.1985 19.2851 37.3525 19.4677 37.4389 19.684C37.5965 20.0813 37.7164 20.4927 37.7968 20.9125C37.8788 21.3096 38.003 21.6968 38.1674 22.0674C38.2399 22.245 38.3497 22.4049 38.4894 22.5362C38.6291 22.6676 38.7954 22.7674 38.9771 22.8289C39.338 22.9205 39.719 22.8901 40.0609 22.7426C40.3872 22.5842 40.6768 22.3594 40.9112 22.0827C41.3935 21.5522 41.7717 20.9481 42.2946 20.514C42.5474 20.2976 42.8408 20.1336 43.1576 20.0317C43.4628 19.9404 43.7866 19.9308 44.0967 20.0038C44.6506 20.1731 45.1354 20.5157 45.4801 20.981C45.7873 21.3683 46.0527 21.7869 46.272 22.2299C46.4514 22.5983 46.7005 22.9285 47.0056 23.202C47.4375 23.574 47.956 23.8315 48.5133 23.9508C48.6575 23.9829 48.8032 24.0074 48.9499 24.0244L49.0819 24.0524Z" fill="#61C7FF"/>
<path d="M13.9682 12.8813C13.9682 12.9245 11.666 12.9575 8.82825 12.9575C5.99047 12.9575 3.6908 12.9245 3.6908 12.8813C3.6908 12.8382 5.99047 12.8026 8.82825 12.8026C11.666 12.8026 13.9682 12.8382 13.9682 12.8813Z" fill="#263238"/>
<path d="M9.1001 37.9566C7.72162 37.9566 6.37412 38.3655 5.22809 39.1315C4.08207 39.8976 3.18903 40.9864 2.66197 42.2601C2.13491 43.5339 1.99753 44.9353 2.2672 46.2872C2.53686 47.639 3.20147 48.8805 4.17691 49.8545C5.15235 50.8285 6.3948 51.4913 7.74704 51.759C9.09928 52.0267 10.5005 51.8873 11.7735 51.3584C13.0465 50.8295 14.134 49.9348 14.8983 48.7877C15.6627 47.6406 16.0697 46.2925 16.0676 44.914C16.065 43.0678 15.3297 41.2982 14.0233 39.9937C12.7169 38.6893 10.9463 37.9566 9.1001 37.9566V37.9566ZM9.20417 49.0996C8.35787 49.0991 7.53072 48.8477 6.82729 48.3771C6.12386 47.9066 5.57574 47.238 5.25223 46.456C4.92871 45.674 4.84432 44.8136 5.00973 43.9836C5.17515 43.1536 5.58293 42.3913 6.18153 41.7931C6.78014 41.1948 7.54268 40.7875 8.37275 40.6226C9.20283 40.4577 10.0632 40.5426 10.845 40.8665C11.6268 41.1905 12.295 41.739 12.7652 42.4428C13.2353 43.1465 13.4862 43.9738 13.4862 44.8201C13.4862 45.3823 13.3755 45.939 13.1602 46.4583C12.945 46.9777 12.6295 47.4496 12.2319 47.847C11.8342 48.2445 11.3622 48.5596 10.8427 48.7745C10.3231 48.9895 9.76638 49.0999 9.20417 49.0996V49.0996Z" fill="#263238"/>
<path d="M9.20659 37.9566V40.538C10.3416 40.538 11.4301 40.9889 12.2327 41.7914C13.0352 42.594 13.4861 43.6825 13.4861 44.8175C13.4866 45.2578 13.418 45.6955 13.283 46.1146L15.8086 46.7999C16.0968 45.7734 16.1453 44.6945 15.9505 43.6463C15.7557 42.5981 15.3228 41.6086 14.6852 40.7541C14.0475 39.8997 13.2222 39.2031 12.2727 38.718C11.3233 38.233 10.2752 37.9725 9.20913 37.9566H9.20659Z" fill="#61C7FF"/>
<path d="M4.91612 44.8135C4.91618 43.9864 5.15596 43.177 5.60643 42.4832C6.05691 41.7895 6.69878 41.2412 7.45438 40.9046L6.38323 38.4983C5.12234 39.0303 4.04601 39.9218 3.28856 41.0616C2.53111 42.2013 2.12609 43.5389 2.12402 44.9075C2.12402 45.0065 2.12402 45.1029 2.12402 45.1994H4.91612C4.93135 45.0801 4.91612 44.9481 4.91612 44.8135Z" fill="#455A64"/>
<path d="M9.20374 49.0994C8.89995 49.0996 8.59701 49.0673 8.30012 49.003C8.19098 49.6223 7.98791 50.8254 7.828 51.7747C9.53887 52.0921 11.3065 51.7578 12.7834 50.8376C14.2602 49.9174 15.3393 48.4779 15.8083 46.8023L13.2827 46.1169C13.0071 46.9824 12.4633 47.7378 11.7301 48.274C10.9968 48.8101 10.1121 49.0992 9.20374 49.0994Z" fill="#61C7FF"/>
<g opacity="0.3">
<path d="M9.20269 49.1068C8.8989 49.107 8.59596 49.0747 8.29907 49.0103C8.18992 49.6297 7.98686 50.8328 7.82695 51.7821C9.53781 52.0994 11.3055 51.7651 12.7823 50.8449C14.2591 49.9248 15.3382 48.4853 15.8073 46.8096L13.2817 46.1243C13.006 46.9898 12.4622 47.7452 11.729 48.2813C10.9958 48.8175 10.111 49.1065 9.20269 49.1068Z" fill="black"/>
</g>
<path d="M8.28109 45.1621H8.02727V45.4946H7.66937V45.1621H6.81651V44.9083L7.56276 43.8929H7.94604L7.25563 44.8473H7.67952V44.5504H8.02727V44.8473H8.28109V45.1621Z" fill="#263238"/>
<path d="M8.38899 44.7046C8.38899 44.1842 8.67836 43.8873 9.06671 43.8873C9.45507 43.8873 9.74697 44.1842 9.74697 44.7046C9.74697 45.2249 9.45761 45.5244 9.06671 45.5244C8.67582 45.5244 8.38899 45.2275 8.38899 44.7046ZM9.37638 44.7046C9.37638 44.3467 9.24947 44.1969 9.06671 44.1969C8.88396 44.1969 8.75958 44.3467 8.75958 44.7046C8.75958 45.0625 8.8865 45.2122 9.06671 45.2122C9.24693 45.2122 9.37638 45.065 9.37638 44.7046Z" fill="#263238"/>
<path d="M9.89684 44.3289C9.90517 44.2535 9.93512 44.1821 9.98309 44.1233C10.0311 44.0645 10.095 44.0208 10.1672 43.9976C10.2394 43.9743 10.3168 43.9724 10.3901 43.9921C10.4634 44.0118 10.5294 44.0523 10.5802 44.1087C10.631 44.165 10.6644 44.2349 10.6764 44.3098C10.6884 44.3847 10.6785 44.4615 10.6478 44.5309C10.6172 44.6003 10.5671 44.6594 10.5037 44.701C10.4403 44.7426 10.3661 44.765 10.2903 44.7655C10.2348 44.7658 10.1798 44.7544 10.129 44.732C10.0783 44.7096 10.0328 44.6767 9.99564 44.6354C9.95848 44.5942 9.93046 44.5456 9.91344 44.4927C9.89641 44.4399 9.89076 44.3841 9.89684 44.3289ZM10.4553 44.3289C10.4553 44.1588 10.3893 44.0751 10.2903 44.0751C10.1913 44.0751 10.1253 44.1588 10.1253 44.3289C10.1253 44.4989 10.1938 44.5827 10.2903 44.5827C10.3867 44.5827 10.4553 44.4989 10.4553 44.3289ZM11.2345 43.9101H11.5163L10.435 45.4939H10.1659L11.2345 43.9101ZM10.9807 45.0751C10.9886 44.9988 11.0184 44.9264 11.0666 44.8668C11.1149 44.8071 11.1794 44.7628 11.2524 44.7391C11.3253 44.7154 11.4036 44.7135 11.4777 44.7334C11.5517 44.7534 11.6184 44.7945 11.6696 44.8516C11.7207 44.9088 11.7542 44.9796 11.7659 45.0554C11.7776 45.1312 11.767 45.2088 11.7355 45.2787C11.7039 45.3486 11.6527 45.4078 11.5881 45.4492C11.5235 45.4906 11.4483 45.5123 11.3716 45.5117C11.3156 45.5128 11.2601 45.5019 11.2087 45.4798C11.1573 45.4577 11.1113 45.4249 11.0735 45.3836C11.0358 45.3423 11.0074 45.2934 10.99 45.2402C10.9727 45.187 10.9669 45.1307 10.9731 45.0751H10.9807ZM11.5366 45.0751C11.5366 44.9076 11.4731 44.8213 11.3716 44.8213C11.27 44.8213 11.2066 44.9051 11.2066 45.0751C11.2066 45.2452 11.2751 45.329 11.3716 45.329C11.468 45.329 11.529 45.2427 11.529 45.0751H11.5366Z" fill="#263238"/>
<path d="M14.8646 53.6476C14.8646 53.6831 12.2832 53.7136 9.10022 53.7136C5.91723 53.7136 3.33582 53.6831 3.33582 53.6476C3.33582 53.6121 5.91723 53.5816 9.10022 53.5816C12.2832 53.5816 14.8646 53.6095 14.8646 53.6476Z" fill="#263238"/>
<path d="M12.2977 54.7026C12.2977 54.7381 10.8661 54.7686 9.09946 54.7686C7.33283 54.7686 5.90125 54.7381 5.90125 54.7026C5.90125 54.667 7.33283 54.6366 9.09946 54.6366C10.8661 54.6366 12.2977 54.6645 12.2977 54.7026Z" fill="#263238"/>
<path d="M28.0632 37.8083C26.6852 37.8083 25.3381 38.217 24.1923 38.9826C23.0465 39.7482 22.1534 40.8363 21.6261 42.1095C21.0987 43.3826 20.9607 44.7836 21.2296 46.1352C21.4984 47.4867 22.162 48.7282 23.1365 49.7027C24.1109 50.6771 25.3524 51.3407 26.7039 51.6095C28.0555 51.8784 29.4565 51.7404 30.7296 51.213C32.0028 50.6857 33.0909 49.7926 33.8565 48.6468C34.6221 47.501 35.0308 46.1539 35.0308 44.7759C35.0308 42.928 34.2967 41.1557 32.99 39.8491C31.6834 38.5424 29.9112 37.8083 28.0632 37.8083V37.8083ZM28.1673 48.9513C27.3214 48.9508 26.4947 48.6996 25.7915 48.2295C25.0883 47.7594 24.5402 47.0915 24.2163 46.3101C23.8925 45.5286 23.8076 44.6688 23.9721 43.8391C24.1367 43.0094 24.5435 42.2471 25.1411 41.6484C25.7387 41.0498 26.5003 40.6416 27.3297 40.4756C28.1591 40.3095 29.0191 40.3929 29.8011 40.7154C30.5831 41.0378 31.252 41.5847 31.7234 42.2871C32.1947 42.9895 32.4474 43.8158 32.4494 44.6616C32.4497 45.2241 32.3392 45.781 32.1241 46.3007C31.909 46.8204 31.5936 47.2926 31.1959 47.6903C30.7982 48.0879 30.3261 48.4033 29.8064 48.6184C29.2867 48.8335 28.7297 48.944 28.1673 48.9437V48.9513Z" fill="#263238"/>
<path d="M28.1704 37.8102V40.3917C29.3041 40.3917 30.3915 40.8415 31.1938 41.6424C31.9962 42.4433 32.4479 43.5299 32.45 44.6636C32.4504 45.1039 32.3819 45.5415 32.2469 45.9606L34.7852 46.6459C35.0733 45.6195 35.1218 44.5405 34.9271 43.4923C34.7323 42.4441 34.2994 41.4546 33.6617 40.6002C33.0241 39.7457 32.1987 39.0491 31.2493 38.5641C30.2998 38.0791 29.2517 37.8185 28.1857 37.8026L28.1704 37.8102Z" fill="#61C7FF"/>
<path d="M23.8878 44.6596C23.8879 43.8324 24.1276 43.023 24.5781 42.3292C25.0286 41.6355 25.6705 41.0872 26.4261 40.7506L25.3549 38.3444C24.0924 38.877 23.015 39.77 22.2574 40.9118C21.4999 42.0536 21.0958 43.3934 21.0957 44.7636C21.0957 44.8626 21.0957 44.9591 21.0957 45.0555H23.8878C23.8954 44.9286 23.8878 44.7966 23.8878 44.6596Z" fill="#263238"/>
<path d="M28.1676 48.934C27.8638 48.9343 27.5609 48.9019 27.264 48.8376C27.1548 49.4569 26.9518 50.6601 26.7918 51.6094C28.5027 51.9267 30.2704 51.5924 31.7472 50.6722C33.224 49.752 34.3031 48.3125 34.7721 46.6369L32.2339 45.9516C31.9589 46.815 31.417 47.5689 30.6863 48.1049C29.9556 48.6408 29.0738 48.9311 28.1676 48.934Z" fill="#61C7FF"/>
<g opacity="0.3">
<path d="M28.1679 48.9437C27.8642 48.9439 27.5612 48.9116 27.2643 48.8472C27.1552 49.4666 26.9521 50.6697 26.7922 51.619C28.5031 51.9363 30.2708 51.602 31.7476 50.6818C33.2244 49.7617 34.3035 48.3222 34.7725 46.6465L32.2342 45.9612C31.9592 46.8246 31.4174 47.5786 30.6867 48.1145C29.956 48.6504 29.0741 48.9408 28.1679 48.9437Z" fill="black"/>
</g>
<path d="M26.9768 45.0353V45.3323H25.7812V45.0962L26.3904 44.5175C26.53 44.3855 26.5554 44.3043 26.5554 44.2281C26.5554 44.1012 26.4691 44.0302 26.3016 44.0302C26.2383 44.0277 26.1754 44.0408 26.1183 44.0682C26.0613 44.0956 26.0118 44.1366 25.9742 44.1875L25.7076 44.0175C25.7801 43.9202 25.8755 43.8424 25.9853 43.791C26.0952 43.7396 26.216 43.7162 26.3371 43.723C26.6899 43.723 26.926 43.9032 26.926 44.1901C26.925 44.2897 26.9002 44.3877 26.8539 44.476C26.8076 44.5643 26.7409 44.6402 26.6595 44.6977L26.2965 45.0429L26.9768 45.0353Z" fill="#263238"/>
<path d="M27.124 44.5392C27.124 44.0189 27.4134 43.7219 27.8017 43.7219C28.1901 43.7219 28.482 44.0189 28.482 44.5392C28.482 45.0595 28.1926 45.3591 27.8017 45.3591C27.4108 45.3591 27.124 45.0621 27.124 44.5392ZM28.1114 44.5392C28.1114 44.1813 27.9845 44.0315 27.8017 44.0315C27.619 44.0315 27.4946 44.1813 27.4946 44.5392C27.4946 44.8971 27.6215 45.0469 27.8017 45.0469C27.982 45.0469 28.1114 44.9047 28.1114 44.5392Z" fill="#263238"/>
<path d="M28.6312 44.1692C28.6395 44.0938 28.6694 44.0224 28.7174 43.9636C28.7654 43.9048 28.8293 43.8612 28.9015 43.8379C28.9737 43.8146 29.0512 43.8127 29.1244 43.8324C29.1977 43.8522 29.2637 43.8926 29.3145 43.949C29.3653 44.0054 29.3987 44.0752 29.4107 44.1501C29.4227 44.225 29.4128 44.3018 29.3822 44.3712C29.3515 44.4406 29.3015 44.4997 29.238 44.5413C29.1746 44.5829 29.1005 44.6053 29.0246 44.6058C28.9691 44.6061 28.9141 44.5947 28.8634 44.5723C28.8126 44.5499 28.7671 44.517 28.7299 44.4757C28.6928 44.4345 28.6648 44.3859 28.6478 44.3331C28.6307 44.2802 28.6251 44.2244 28.6312 44.1692V44.1692ZM29.1896 44.1692C29.1896 44.0017 29.1236 43.9154 29.0246 43.9154C28.9256 43.9154 28.8596 43.9991 28.8596 44.1692C28.8596 44.3393 28.9281 44.423 29.0246 44.423C29.121 44.423 29.1896 44.3393 29.1896 44.1692ZM29.9688 43.7504H30.2379L29.1566 45.3343H28.8875L29.9688 43.7504ZM29.715 44.9155C29.7233 44.8399 29.7534 44.7684 29.8014 44.7096C29.8495 44.6508 29.9136 44.6071 29.986 44.584C30.0583 44.5608 30.1359 44.559 30.2092 44.5789C30.2825 44.5988 30.3485 44.6396 30.3992 44.6962C30.4499 44.7528 30.4831 44.8229 30.4948 44.8979C30.5065 44.973 30.4962 45.0498 30.4652 45.1192C30.4342 45.1886 30.3838 45.2475 30.32 45.2888C30.2562 45.3301 30.1819 45.3521 30.1059 45.352C30.0492 45.3532 29.993 45.3422 29.941 45.3197C29.889 45.2971 29.8425 45.2636 29.8047 45.2214C29.7668 45.1792 29.7385 45.1294 29.7218 45.0753C29.705 45.0211 29.7001 44.964 29.7074 44.9078L29.715 44.9155ZM30.2709 44.9155C30.2709 44.7479 30.2074 44.6616 30.1059 44.6616C30.0044 44.6616 29.9409 44.7454 29.9409 44.9155C29.9409 45.0855 30.0094 45.1693 30.1059 45.1693C30.2023 45.1693 30.2633 45.083 30.2633 44.9078L30.2709 44.9155Z" fill="#263238"/>
<path d="M33.8278 53.9042C33.8278 53.9423 31.2463 53.9702 28.0634 53.9702C24.8804 53.9702 22.299 53.9423 22.299 53.9042C22.299 53.8661 24.8778 53.8382 28.0634 53.8382C31.2489 53.8382 33.8278 53.8687 33.8278 53.9042Z" fill="#263238"/>
<path d="M31.2608 54.9535C31.2608 54.9915 29.8292 55.022 28.0626 55.022C26.296 55.022 24.8644 54.9915 24.8644 54.9535C24.8644 54.9154 26.296 54.8875 28.0626 54.8875C29.8292 54.8875 31.2608 54.9179 31.2608 54.9535Z" fill="#263238"/>
<path d="M45.1335 37.5403C43.7554 37.5398 42.408 37.948 41.2619 38.7133C40.1157 39.4786 39.2223 40.5666 38.6946 41.8397C38.1668 43.1128 38.0285 44.5139 38.297 45.8656C38.5656 47.2173 39.229 48.4591 40.2033 49.4338C41.1776 50.4084 42.4191 51.0723 43.7708 51.3413C45.1224 51.6104 46.5235 51.4725 47.7968 50.9453C49.0701 50.418 50.1584 49.5249 50.9241 48.3791C51.6898 47.2332 52.0985 45.886 52.0985 44.5079C52.0985 42.6604 51.3648 40.8886 50.0587 39.582C48.7526 38.2754 46.981 37.541 45.1335 37.5403V37.5403ZM45.2376 48.6808C44.3907 48.6808 43.5628 48.4294 42.8587 47.9586C42.1547 47.4878 41.6062 46.8187 41.2826 46.036C40.9591 45.2533 40.8751 44.3922 41.0413 43.5617C41.2074 42.7312 41.6163 41.9687 42.216 41.3707C42.8158 40.7727 43.5795 40.3661 44.4105 40.2024C45.2415 40.0387 46.1024 40.1253 46.8841 40.4511C47.6659 40.777 48.3334 41.3275 48.8021 42.0329C49.2708 42.7384 49.5196 43.567 49.5171 44.4139C49.5138 45.5467 49.0614 46.632 48.2592 47.4318C47.457 48.2316 46.3704 48.6808 45.2376 48.6808Z" fill="#263238"/>
<path d="M45.2403 37.5403C45.2403 38.2815 45.2403 39.2816 45.2403 40.1192C45.9142 40.1192 46.5785 40.2783 47.1793 40.5835C47.7801 40.8887 48.3004 41.3313 48.6979 41.8755C49.0953 42.4196 49.3588 43.0499 49.4668 43.715C49.5748 44.3802 49.5242 45.0614 49.3193 45.7034L51.8449 46.3887C52.131 45.3625 52.178 44.2843 51.9823 43.2371C51.7867 42.1898 51.3536 41.2013 50.7163 40.3476C50.079 39.4939 49.2545 38.7976 48.3061 38.3123C47.3577 37.8269 46.3106 37.5654 45.2454 37.5479L45.2403 37.5403Z" fill="#61C7FF"/>
<path d="M40.9605 44.4087C40.9612 43.5816 41.2013 42.7725 41.6517 42.0789C42.1021 41.3853 42.7436 40.8368 43.4988 40.4997L42.4277 38.0935C41.167 38.6257 40.0908 39.5172 39.3334 40.657C38.576 41.7967 38.1708 43.1341 38.1684 44.5026C38.1684 44.599 38.1684 44.6955 38.1684 44.7945H40.9605C40.9605 44.6625 40.9605 44.5305 40.9605 44.4087Z" fill="#263238"/>
<path d="M45.2375 48.6717C44.9328 48.672 44.6291 48.6396 44.3313 48.5753C44.2247 49.1971 44.0216 50.4003 43.8617 51.3471C45.5726 51.6644 47.3403 51.3301 48.8171 50.4099C50.2939 49.4897 51.373 48.0502 51.842 46.3746L49.3165 45.6893C49.0411 46.555 48.4975 47.3106 47.7641 47.8468C47.0308 48.383 46.1459 48.6719 45.2375 48.6717Z" fill="#263238"/>
<path d="M43.4732 43.4881V45.0719H43.1077V43.7825H42.7904V43.4881H43.4732Z" fill="#263238"/>
<path d="M43.7527 44.2851C43.7527 43.7622 44.0421 43.4653 44.4304 43.4653C44.8188 43.4653 45.1081 43.7622 45.1081 44.2851C45.1081 44.808 44.8213 45.1025 44.4304 45.1025C44.0395 45.1025 43.7527 44.808 43.7527 44.2851ZM44.7401 44.2851C44.7401 43.9247 44.6132 43.7775 44.4304 43.7775C44.2477 43.7775 44.1233 43.9272 44.1233 44.2851C44.1233 44.643 44.2502 44.7928 44.4304 44.7928C44.6106 44.7928 44.7375 44.643 44.7375 44.2851H44.7401Z" fill="#263238"/>
<path d="M45.2577 43.9012C45.266 43.8258 45.2959 43.7544 45.3439 43.6956C45.3919 43.6368 45.4558 43.5931 45.528 43.5699C45.6002 43.5466 45.6776 43.5447 45.7509 43.5644C45.8242 43.5841 45.8902 43.6246 45.941 43.681C45.9918 43.7373 46.0252 43.8072 46.0372 43.8821C46.0492 43.957 46.0393 44.0338 46.0086 44.1032C45.978 44.1726 45.928 44.2317 45.8645 44.2733C45.8011 44.3149 45.727 44.3373 45.6511 44.3378C45.5956 44.3381 45.5406 44.3267 45.4899 44.3043C45.4391 44.2818 45.3936 44.2489 45.3564 44.2077C45.3193 44.1665 45.2913 44.1178 45.2742 44.065C45.2572 44.0122 45.2516 43.9563 45.2577 43.9012V43.9012ZM45.8161 43.9012C45.8161 43.7311 45.7501 43.6473 45.6511 43.6473C45.5521 43.6473 45.4861 43.7311 45.4861 43.9012C45.4861 44.0712 45.5546 44.155 45.6511 44.155C45.7475 44.155 45.8161 44.0814 45.8161 43.9012ZM46.5928 43.4824H46.8644L45.7831 45.0764H45.514L46.5928 43.4824ZM46.339 44.6474C46.3473 44.5719 46.3773 44.5004 46.4254 44.4416C46.4735 44.3828 46.5376 44.3391 46.6099 44.3159C46.6823 44.2927 46.7598 44.291 46.8331 44.3109C46.9065 44.3308 46.9724 44.3715 47.0231 44.4281C47.0738 44.4847 47.107 44.5548 47.1187 44.6299C47.1305 44.705 47.1202 44.7818 47.0892 44.8512C47.0582 44.9205 47.0077 44.9794 46.944 45.0208C46.8802 45.0621 46.8058 45.084 46.7299 45.084C46.6755 45.0845 46.6217 45.0737 46.5718 45.0524C46.5218 45.0311 46.4768 44.9996 46.4396 44.96C46.4024 44.9204 46.3738 44.8736 46.3556 44.8224C46.3374 44.7712 46.33 44.7168 46.3339 44.6627L46.339 44.6474ZM46.8948 44.6474C46.8948 44.4799 46.8288 44.3936 46.7299 44.3936C46.6309 44.3936 46.5649 44.4748 46.5649 44.6474C46.5649 44.82 46.6334 44.9013 46.7299 44.9013C46.8263 44.9013 46.8898 44.8251 46.8898 44.6627L46.8948 44.6474Z" fill="#263238"/>
<path d="M50.898 53.3282C50.898 53.3663 48.3166 53.3942 45.1336 53.3942C41.9507 53.3942 39.3667 53.3663 39.3667 53.3282C39.3667 53.2902 41.9481 53.2623 45.1336 53.2623C48.3192 53.2623 50.898 53.2902 50.898 53.3282Z" fill="#263238"/>
<path d="M48.321 54.3832C48.321 54.4213 46.8894 54.4492 45.1253 54.4492C43.3612 54.4492 41.9271 54.4213 41.9271 54.3832C41.9271 54.3452 43.3587 54.3172 45.1253 54.3172C46.892 54.3172 48.321 54.3477 48.321 54.3832Z" fill="#263238"/>
<path d="M88.3922 51.2311C88.3922 51.419 90.3518 58.0438 90.3518 58.0438C90.3518 58.0438 93.5246 64.3743 92.4991 68.2934C91.9331 70.4534 89.3822 83.9672 89.3822 83.9672C89.3822 83.9672 88.4125 94.27 87.8592 98.7119C87.3059 103.154 87.0977 105.537 87.0977 105.537L82.2369 105.342L81.0947 85.4723L80.7343 69.8696L74.2744 89.5133C74.2744 89.5133 72.8961 95.5823 72.1448 98.1434C71.3935 100.704 69.6954 106.157 69.6954 106.157L64.4488 105.38C64.4488 105.38 65.0148 95.8285 65.5148 93.5136C66.0149 91.1987 67.6724 82.8859 67.6724 82.8859L69.142 74.8066L70.7157 61.6558L72.0839 56.5996L73.7845 50.8809L88.3922 51.2311Z" fill="#263238"/>
<path d="M62.3368 43.1942C62.3368 43.1942 62.149 42.5291 61.72 42.2982C61.291 42.0672 59.3823 42.1433 58.9787 42.1433C58.5751 42.1433 57.2857 41.6585 56.6942 42.1433C56.677 42.1963 56.6713 42.2524 56.6774 42.3078C56.6835 42.3632 56.7013 42.4166 56.7296 42.4646C56.7579 42.5126 56.7961 42.5541 56.8417 42.5862C56.8872 42.6183 56.939 42.6404 56.9938 42.651C57.6918 42.7906 58.9838 43.0622 58.9254 43.1586C58.867 43.2551 56.6587 43.0089 56.2018 43.1586L52.9224 43.0799C52.9224 43.0799 52.3462 43.613 52.8792 43.8237V44.2577C53.048 44.3812 53.2408 44.4676 53.4453 44.5115C53.8742 44.641 53.4173 44.8973 53.9808 45.0192C54.3613 45.0989 54.7497 45.1339 55.1383 45.1233L55.1916 45.3771C55.3689 45.4657 55.5591 45.5256 55.7551 45.5548C56.212 45.6588 61.3164 45.5548 61.3164 45.5548L63.9232 46.3822L64.2989 43.8135L62.3368 43.1942Z" fill="#FFBE9D"/>
<path d="M61.2852 43.0659C61.2852 43.1141 60.6634 43.1725 60.0161 43.5406C59.7414 43.698 59.5 43.9075 59.3054 44.1574C59.2351 44.2713 59.1588 44.3814 59.0769 44.4873C59.0919 44.3489 59.1446 44.2172 59.2292 44.1066C59.4101 43.8244 59.6566 43.5902 59.9476 43.4238C60.2366 43.2601 60.5518 43.1476 60.8791 43.0913C61.0116 43.0568 61.1495 43.0482 61.2852 43.0659Z" fill="#EB996E"/>
<path d="M57.3722 44.8463C56.9947 44.915 56.6107 44.9406 56.2274 44.9225C55.9657 44.9005 55.7021 44.9185 55.4457 44.9758C55.3486 45.0207 55.2621 45.0856 55.1918 45.1661C55.1715 45.1661 55.1918 45.0012 55.4 44.892C55.663 44.8007 55.9424 44.7661 56.2198 44.7905C56.6048 44.7645 56.9915 44.7832 57.3722 44.8463V44.8463Z" fill="#EB996E"/>
<path d="M57.2072 44.127C57.0364 44.185 56.859 44.2217 56.6792 44.2362C56.2461 44.3032 55.8069 44.3228 55.3695 44.2945C54.9466 44.2336 54.5159 44.2534 54.1003 44.3529C53.9784 44.3825 53.8652 44.4408 53.7704 44.523C53.7095 44.5839 53.7171 44.6397 53.7044 44.6397C53.6917 44.6397 53.6688 44.5788 53.7298 44.49C53.8196 44.3841 53.9375 44.3058 54.0699 44.2641C54.2579 44.1938 54.4557 44.1536 54.6562 44.1448C54.8975 44.1371 55.139 44.143 55.3796 44.1625C55.8093 44.1892 56.2404 44.1824 56.6691 44.1422C56.8472 44.1157 57.0278 44.1106 57.2072 44.127V44.127Z" fill="#EB996E"/>
<path d="M56.7499 43.569C56.5617 43.6052 56.3702 43.6205 56.1788 43.6147C55.8259 43.6147 55.3386 43.6325 54.8005 43.6325C54.5314 43.6325 54.2751 43.6097 54.039 43.6122C53.836 43.6066 53.633 43.6193 53.4324 43.6503C53.2987 43.6622 53.169 43.702 53.0516 43.767C52.9755 43.8178 52.9552 43.8711 52.945 43.866C52.9348 43.8609 52.945 43.8 53.0212 43.7264C53.1359 43.6375 53.2712 43.5791 53.4146 43.5564C53.6198 43.5124 53.8291 43.4903 54.039 43.4904C54.2751 43.4904 54.5314 43.5056 54.8005 43.4904C55.336 43.4904 55.8158 43.4904 56.1737 43.5107C56.3674 43.5065 56.5609 43.5261 56.7499 43.569V43.569Z" fill="#EB996E"/>
<path d="M80.8083 33.0208L78.3081 36.0845L78.8741 37.3486L81.8211 37.5669L84.8416 37.0694L86.5245 36.4653L87.6058 33.6884L87.2707 31.4979L86.093 31.5461L80.8083 33.0208Z" fill="#FFBE9D"/>
<path d="M78.4691 35.8318C78.4691 35.8318 78.2686 36.8268 80.0733 36.8852C81.878 36.9436 86.5256 35.8318 86.5256 35.8318L90.3127 42.51L86.2946 51.234L73.7835 50.8888V48.7084C73.7835 48.7084 72.6946 47.9622 72.5778 45.6625C72.4967 44.3364 72.6921 43.0079 73.1515 41.7612L78.4691 35.8318Z" fill="white"/>
<path d="M79.9093 32.3791C79.9093 32.3791 76.4572 32.9705 76.0257 33.1863C75.5942 33.402 73.8682 35.3438 73.3301 36.6916C72.792 38.0394 72.3148 41.329 72.3148 41.329C72.3148 41.329 70.967 43.2708 70.967 43.5932V44.4562C70.967 44.4562 69.9517 46.0198 69.9517 46.1822V46.3447L63.2989 42.5702L60.7834 47.0985C60.7834 47.0985 66.6215 51.279 69.4136 52.9797C69.7616 53.1911 70.1765 53.2638 70.5758 53.1834C70.975 53.103 71.3294 52.8753 71.5685 52.5456V52.5456L69.3704 66.2523L70.7461 66.468L73.8149 50.9034V48.723C73.8149 48.723 71.599 46.4386 73.4672 43.3343C74.117 42.258 76.0054 39.3441 77.0207 37.8897C78.036 36.4353 80.6149 33.298 80.6149 33.298L80.6276 31.6176L79.9093 32.3791Z" fill="#61C7FF"/>
<path d="M86.9978 30.9789L88.7035 31.2632L89.498 32.2303C89.498 32.2303 94.3029 33.4436 94.8715 34.1822C95.44 34.9209 91.9322 44.3353 91.9322 44.3353L90.1224 51.9932C90.1224 51.9932 92.8992 59.5776 93.1201 63.3215L80.2409 67.1569C80.2409 67.1569 79.8424 54.2117 80.2409 51.879C80.6394 49.5464 82.2284 43.5865 83.3071 41.0863C84.3859 38.5861 87.1145 33.1923 87.1145 33.0222C87.1145 32.8522 86.9978 30.9789 86.9978 30.9789Z" fill="#61C7FF"/>
<g opacity="0.3">
<path d="M90.3161 52.7916C90.2142 52.6285 90.0644 52.5009 89.8872 52.4261C88.618 51.7611 87.123 51.6824 85.7752 51.19C84.4933 50.7229 83.2369 49.8701 81.8942 50.096C81.3687 50.1848 81.1073 50.1823 80.5819 50.2787L80.4854 50.7102C81.3027 51.1392 82.7089 50.7331 83.478 51.2433C83.7275 51.444 83.9648 51.6592 84.1887 51.888C84.4993 52.1296 84.8407 52.3285 85.204 52.4794C85.9266 52.8178 86.6559 53.1377 87.392 53.4389C88.0901 53.7282 88.8465 54.0074 89.5826 53.8348C89.8256 53.7885 90.0468 53.6637 90.2121 53.4795C90.2936 53.3869 90.3468 53.2729 90.3653 53.1509C90.3838 53.0289 90.3667 52.9042 90.3161 52.7916V52.7916Z" fill="black"/>
</g>
<path d="M93.1381 33.3657C92.9452 33.4419 90.8257 37.4498 90.3333 39.4576C89.8409 41.4653 92.204 47.58 92.204 47.58L84.9344 47.0952L84.2288 50.6818C84.2288 50.6818 90.9247 53.0931 93.1381 53.6363C95.3514 54.1795 97.5699 54.5222 98.2146 53.6363C98.6031 53.0915 98.8713 52.4703 99.0015 51.8139L98.0166 44.2828L97.0825 39.5083C97.0825 39.5083 96.9835 37.3914 96.4911 36.1604C95.9987 34.9293 93.8767 33.0688 93.1381 33.3657Z" fill="#61C7FF"/>
<path d="M74.2397 51.2262C74.2259 51.1714 74.2182 51.1152 74.2168 51.0587C74.2168 50.9343 74.1965 50.7744 74.1813 50.5764C74.1534 50.1424 74.1153 49.5408 74.0696 48.7997C74.0556 48.609 74.0128 48.4216 73.9427 48.2438C73.8495 48.0562 73.739 47.8778 73.6127 47.7107C73.3347 47.314 73.1834 46.8423 73.1787 46.3578C73.1759 45.2651 73.4446 44.1889 73.9605 43.2256C74.4707 42.2746 75.0386 41.3557 75.6611 40.4741C76.2043 39.6441 76.6764 38.8827 77.1003 38.2633C77.4297 37.7691 77.7864 37.2937 78.1689 36.8393C78.306 36.6794 78.4227 36.5576 78.4938 36.4789C78.5308 36.4364 78.5716 36.3973 78.6156 36.3622C78.5851 36.4094 78.5512 36.4544 78.5141 36.4967L78.207 36.8698C77.9531 37.1998 77.5876 37.6871 77.1764 38.3141C76.7652 38.941 76.3033 39.705 75.7626 40.5401C75.1492 41.4224 74.5873 42.3394 74.0798 43.2865C73.569 44.2291 73.2987 45.2832 73.2929 46.3553C73.294 46.8172 73.4337 47.2682 73.6939 47.6498C73.8227 47.8243 73.9349 48.0104 74.029 48.2057C74.1003 48.3946 74.1431 48.5931 74.1559 48.7946C74.194 49.5561 74.2118 50.1525 74.2244 50.5714C74.2244 50.7693 74.2244 50.9293 74.2371 51.0536C74.2437 51.1109 74.2445 51.1688 74.2397 51.2262V51.2262Z" fill="#263238"/>
<path d="M79.8909 36.8755C79.8785 36.9275 79.8597 36.9778 79.8351 37.0252C79.7744 37.1665 79.7048 37.3039 79.6269 37.4364C79.331 37.9169 78.9847 38.3645 78.5939 38.7716C78.0107 39.3621 77.4784 40.0006 77.0024 40.6803C76.457 41.5351 76.0301 42.4598 75.7332 43.4293C75.574 43.9297 75.441 44.438 75.3347 44.9523C75.2144 45.424 75.1589 45.9098 75.1697 46.3965C75.19 46.8585 75.3956 47.2595 75.5149 47.6657C75.6154 48.0462 75.654 48.4404 75.6292 48.8333C75.6139 49.544 75.6292 50.1176 75.652 50.5161C75.6622 50.7006 75.6698 50.8529 75.6749 50.973C75.6788 51.0263 75.6788 51.0797 75.6749 51.1329C75.6587 51.0819 75.6493 51.029 75.6469 50.9756C75.6342 50.8715 75.6165 50.7217 75.5987 50.5187C75.5657 50.1227 75.5302 49.5465 75.5327 48.8333C75.5523 48.45 75.5104 48.0661 75.4083 47.6961C75.2319 47.2823 75.1107 46.8471 75.0479 46.4016C75.0309 45.9034 75.0839 45.4053 75.2053 44.9218C75.3028 44.4065 75.4265 43.8965 75.5759 43.3938C75.8785 42.4116 76.3177 41.4768 76.8805 40.6169C77.3641 39.9343 77.9078 39.2964 78.505 38.7107C78.899 38.3133 79.2527 37.878 79.5609 37.4111C79.7818 37.0735 79.8655 36.8704 79.8909 36.8755Z" fill="#263238"/>
<path d="M81.9929 36.6131C81.9848 36.6657 81.9695 36.717 81.9473 36.7654C81.8952 36.9079 81.8358 37.0477 81.7696 37.1842C81.5222 37.6843 81.2327 38.1623 80.904 38.6132C80.5004 39.1919 79.9826 39.8519 79.4978 40.6438C78.9641 41.4955 78.5306 42.406 78.2059 43.3572C77.8968 44.3138 77.7258 45.3095 77.6982 46.3143C77.6576 47.2408 77.6982 48.0911 77.6982 48.7841C77.6982 49.477 77.6982 50.0532 77.6754 50.4517C77.6754 50.6497 77.65 50.802 77.6398 50.906C77.6389 50.9584 77.6312 51.0105 77.617 51.0609C77.6125 51.0085 77.6125 50.9559 77.617 50.9035C77.617 50.7867 77.617 50.637 77.617 50.4517C77.617 50.0583 77.617 49.4897 77.5967 48.7841C77.5764 48.0784 77.5408 47.2433 77.5738 46.3092C77.598 45.2925 77.769 44.2845 78.0815 43.3166C78.4044 42.3549 78.8415 41.4354 79.3836 40.5778C79.8786 39.7834 80.3989 39.1259 80.8177 38.5472C81.1515 38.1054 81.4511 37.6387 81.7137 37.1512C81.8051 36.976 81.8686 36.839 81.9117 36.7451C81.9351 36.6989 81.9623 36.6548 81.9929 36.6131V36.6131Z" fill="#263238"/>
<path d="M83.7995 36.3679C83.799 36.4201 83.7922 36.4721 83.7792 36.5227C83.755 36.6715 83.7228 36.819 83.6828 36.9644C83.5428 37.4996 83.3595 38.0225 83.1345 38.5279C82.8578 39.1727 82.472 39.9138 82.0481 40.7337C81.5753 41.6134 81.173 42.5292 80.845 43.4725C80.2706 45.1968 79.8459 46.9675 79.5758 48.7648C79.4768 49.4577 79.4413 50.0187 79.4083 50.4096C79.3985 50.5623 79.3561 50.7112 79.2839 50.8461C79.2587 50.8933 79.2231 50.9341 79.1799 50.9654C79.1799 50.9654 79.2154 50.9248 79.2611 50.8335C79.3205 50.698 79.3532 50.5523 79.3575 50.4045C79.3728 50.0161 79.3956 49.4476 79.4819 48.7546C79.7238 46.9426 80.1377 45.1578 80.7181 43.4243C81.0463 42.4733 81.4547 41.552 81.939 40.6702C82.3679 39.8504 82.7614 39.1194 83.0456 38.4823C83.2776 37.9833 83.4736 37.4684 83.632 36.9415C83.7462 36.576 83.7868 36.3653 83.7995 36.3679Z" fill="#263238"/>
<path d="M70.9796 51.0069C70.9593 51.0069 71.005 50.7277 71.0278 50.2784C71.0616 49.6952 71.0275 49.11 70.9263 48.5346C70.8487 47.9569 70.659 47.3999 70.3679 46.8949C70.23 46.702 70.064 46.5309 69.8755 46.3873C69.9412 46.4024 70.0027 46.4318 70.0557 46.4736C70.2076 46.5751 70.34 46.7033 70.4466 46.8518C70.7688 47.3575 70.9767 47.9275 71.0557 48.5219C71.1606 49.1082 71.1828 49.7063 71.1217 50.2987C71.1084 50.5403 71.0605 50.7788 70.9796 51.0069Z" fill="#263238"/>
<path d="M72.7002 47.2719C72.6598 47.2287 72.6256 47.18 72.5987 47.1272C72.5155 46.9795 72.445 46.8249 72.388 46.6653C72.193 46.0694 72.1494 45.4343 72.2611 44.8174C72.4464 43.9136 72.7538 43.0392 73.1749 42.2182C73.614 41.2816 74.0557 40.2333 74.6166 39.1723C74.8924 38.6554 75.2117 38.1629 75.571 37.7001C75.9178 37.2824 76.2863 36.8834 76.6751 36.5046C77.4366 35.7888 77.8884 34.9816 78.3428 34.3369C78.7971 33.6922 79.1906 33.1998 79.4749 32.8672C79.617 32.6997 79.7287 32.5728 79.8099 32.489C79.8461 32.4426 79.8879 32.4009 79.9343 32.3647C79.9036 32.414 79.8688 32.4607 79.8302 32.5043L79.5155 32.9002C79.2439 33.2429 78.8581 33.7429 78.4215 34.3902C77.9849 35.0375 77.5153 35.8649 76.7615 36.5883C76.3781 36.9669 76.0147 37.3651 75.6725 37.7813C75.3186 38.2385 75.0044 38.725 74.7334 39.2358C74.175 40.2866 73.7308 41.3349 73.2866 42.269C72.8636 43.0786 72.5495 43.9406 72.3525 44.8326C72.236 45.4365 72.2647 46.0594 72.4362 46.65C72.5089 46.8635 72.5971 47.0713 72.7002 47.2719V47.2719Z" fill="#263238"/>
<path d="M71.2258 54.4881C71.2238 54.3916 71.234 54.2952 71.2562 54.2012C71.2867 54.0185 71.3349 53.7545 71.3984 53.4398C71.538 52.762 71.7207 51.8813 71.9238 50.9015C72.1063 50.0597 72.2243 49.2052 72.2766 48.3455C72.3071 47.6881 72.2766 47.2794 72.2995 47.2769C72.3232 47.3707 72.3368 47.4669 72.3401 47.5637C72.3528 47.6551 72.3578 47.7693 72.3629 47.9013C72.368 48.0333 72.3629 48.183 72.3629 48.348C72.3399 49.2144 72.2371 50.0768 72.0558 50.9243C71.8603 51.9168 71.6395 52.8027 71.4923 53.4474C71.4212 53.7494 71.3603 54.0033 71.3095 54.2089C71.2922 54.3048 71.2641 54.3985 71.2258 54.4881V54.4881Z" fill="#263238"/>
<path d="M89.3471 32.3305C89.3522 32.393 89.3522 32.4558 89.3471 32.5183C89.3471 32.6427 89.3268 32.8229 89.2989 33.0564C89.225 33.716 89.1148 34.371 88.9689 35.0185C88.7522 35.9796 88.4611 36.9225 88.0983 37.8385C87.8927 38.3462 87.6541 38.8893 87.3825 39.4275C87.3159 39.5692 87.2405 39.7065 87.1566 39.8387C87.0469 39.9724 86.8929 40.0625 86.7225 40.0925L85.8037 40.3235L85.5067 40.3971L85.5295 40.2803L86.6083 41.0722L86.6616 41.1103L86.621 41.1636L83.3086 45.4787L82.3212 46.7478L82.0496 47.0829C82.0209 47.1237 81.9877 47.1612 81.9506 47.1945C81.9739 47.1499 82.0011 47.1075 82.0318 47.0676L82.2856 46.7199L83.2426 45.4305L86.5195 41.09L86.5322 41.1814L85.4534 40.392L85.3392 40.3082L85.4762 40.2752L85.7732 40.1991L86.6921 39.9681C86.8329 39.9495 86.962 39.88 87.055 39.7727C87.1357 39.6487 87.207 39.5189 87.2683 39.3843C87.5424 38.8487 87.7759 38.3208 87.9866 37.808C88.3537 36.901 88.6524 35.9677 88.8801 35.0159C89.0755 34.2037 89.1847 33.5336 89.2506 33.0716C89.2811 32.8483 89.3065 32.6706 89.3243 32.5361C89.3225 32.4668 89.3302 32.3976 89.3471 32.3305V32.3305Z" fill="#263238"/>
<path d="M93.4771 33.4658C93.2888 33.4732 93.1021 33.5039 92.9213 33.5572C92.4383 33.7395 92.0216 34.0632 91.7257 34.4862C91.5114 34.7703 91.3268 35.0756 91.1749 35.3974C90.9931 35.7643 90.837 36.1435 90.7079 36.5321C90.4095 37.4229 90.2503 38.3543 90.2358 39.2937C90.2129 40.2912 90.4896 41.2177 90.6597 42.0705C90.8297 42.9234 91.0201 43.6849 91.1673 44.3245C91.3145 44.9642 91.4643 45.4769 91.5709 45.8272C91.6293 46.0023 91.6699 46.1394 91.7054 46.2282C91.7247 46.2742 91.74 46.3218 91.7511 46.3704C91.7218 46.3296 91.6979 46.2853 91.6801 46.2384C91.6369 46.1521 91.5887 46.0176 91.5227 45.8424C91.3983 45.4947 91.246 44.9845 91.0759 44.3474C90.9059 43.7103 90.7231 42.9462 90.5302 42.0985C90.4388 41.672 90.3398 41.2253 90.2409 40.7608C90.1369 40.278 90.0876 39.785 90.0936 39.2911C90.109 38.3405 90.2743 37.3982 90.5835 36.4991C90.7145 36.1056 90.8757 35.7229 91.0658 35.3543C91.2245 35.0283 91.4177 34.7203 91.642 34.4354C91.9524 34.0039 92.3913 33.6814 92.8959 33.5141C93.0335 33.4737 93.1764 33.454 93.3198 33.4557C93.3724 33.4513 93.4255 33.4548 93.4771 33.4658Z" fill="#263238"/>
<path d="M90.5054 52.862C90.4637 52.8555 90.4228 52.8444 90.3835 52.829L90.0333 52.7199L88.7311 52.2833L84.2054 50.7604L84.1546 50.7426V50.6893C84.3805 49.5953 84.6293 48.4048 84.8882 47.1357V47.085V47.0316H84.9669C87.7894 47.0875 90.3404 47.2855 92.1756 47.5038C93.0919 47.6078 93.833 47.7094 94.3432 47.7855L94.9321 47.8769C95.0005 47.8866 95.0683 47.9002 95.1352 47.9175C95.0655 47.9193 94.9957 47.9142 94.927 47.9023L94.3585 47.8414C93.8508 47.7804 93.102 47.6941 92.1857 47.6002C90.348 47.4124 87.8047 47.2246 84.9847 47.1687L85.0506 47.1179V47.1662L84.3095 50.7197L84.2689 50.6487L88.7768 52.2275L90.0688 52.692L90.4089 52.8214C90.4424 52.8316 90.4747 52.8452 90.5054 52.862Z" fill="#263238"/>
<path d="M94.9638 47.206C94.9638 47.244 94.3115 47.2847 93.5145 47.3989C92.7175 47.5131 92.0778 47.6527 92.0677 47.6146C92.5254 47.4329 93.0065 47.3167 93.4967 47.2694C93.9801 47.1777 94.4743 47.1563 94.9638 47.206V47.206Z" fill="#263238"/>
<path d="M82.5138 60.1865C82.4953 60.1316 82.48 60.0757 82.4681 60.019C82.4245 59.8733 82.3355 59.7452 82.2143 59.6535C82.1244 59.5885 82.0199 59.5469 81.9101 59.5323C81.8002 59.5177 81.6884 59.5305 81.5848 59.5697C81.4589 59.6168 81.3504 59.7012 81.2738 59.8117C81.1972 59.9221 81.1562 60.0534 81.1562 60.1878C81.1562 60.3222 81.1972 60.4534 81.2738 60.5638C81.3504 60.6743 81.4589 60.7587 81.5848 60.8058C81.6886 60.8443 81.8002 60.8568 81.9099 60.8422C82.0197 60.8276 82.1241 60.7864 82.2143 60.7221C82.3355 60.6303 82.4245 60.5023 82.4681 60.3566C82.4803 60.2991 82.4955 60.2423 82.5138 60.1865C82.5138 60.1865 82.5366 60.2525 82.5138 60.3693C82.4838 60.5375 82.3936 60.6891 82.2599 60.7957C82.1588 60.877 82.0385 60.9311 81.9106 60.9529C81.7827 60.9746 81.6513 60.9633 81.5289 60.9201C81.3775 60.8665 81.2464 60.7673 81.1536 60.6362C81.0609 60.5051 81.0111 60.3484 81.0111 60.1878C81.0111 60.0271 81.0609 59.8705 81.1536 59.7393C81.2464 59.6082 81.3775 59.509 81.5289 59.4555C81.6513 59.4122 81.7827 59.4009 81.9106 59.4227C82.0385 59.4444 82.1588 59.4985 82.2599 59.5798C82.3941 59.6859 82.4845 59.8378 82.5138 60.0063C82.5366 60.123 82.5214 60.189 82.5138 60.1865Z" fill="#263238"/>
<path d="M82.373 53.5735C82.373 53.5735 82.3578 53.51 82.3248 53.4034C82.2797 53.2591 82.1911 53.1322 82.0709 53.0404C81.9808 52.9751 81.8759 52.9332 81.7655 52.9186C81.6552 52.9039 81.5429 52.917 81.4389 52.9567C81.3128 53.0032 81.2039 53.0872 81.1271 53.1975C81.0502 53.3078 81.009 53.439 81.009 53.5735C81.009 53.7079 81.0502 53.8391 81.1271 53.9494C81.2039 54.0597 81.3128 54.1437 81.4389 54.1902C81.5429 54.2299 81.6552 54.243 81.7655 54.2283C81.8759 54.2137 81.9808 54.1718 82.0709 54.1065C82.1911 54.0147 82.2797 53.8878 82.3248 53.7435C82.3578 53.6369 82.3603 53.5735 82.373 53.5735C82.389 53.6333 82.389 53.6963 82.373 53.7562C82.3409 53.9237 82.2511 54.0746 82.1192 54.1826C82.0183 54.2635 81.8985 54.3174 81.771 54.3391C81.6436 54.3609 81.5127 54.3498 81.3907 54.307C81.2384 54.254 81.1063 54.1549 81.0129 54.0235C80.9195 53.892 80.8693 53.7347 80.8693 53.5735C80.8693 53.4122 80.9195 53.2549 81.0129 53.1235C81.1063 52.992 81.2384 52.8929 81.3907 52.8399C81.5127 52.7971 81.6436 52.786 81.771 52.8078C81.8985 52.8295 82.0183 52.8834 82.1192 52.9643C82.2511 53.0723 82.3409 53.2232 82.373 53.3907C82.389 53.4506 82.389 53.5136 82.373 53.5735V53.5735Z" fill="#263238"/>
<g opacity="0.3">
<path d="M69.9333 46.3376C70.2128 46.4201 70.4716 46.5609 70.6925 46.7508C70.9135 46.9407 71.0916 47.1754 71.2152 47.4393C71.4714 47.9868 71.6287 48.5755 71.6797 49.178C71.7607 49.534 71.7159 49.9072 71.5528 50.2339C71.4614 50.3811 71.2329 50.4877 71.1289 50.3532C71.1017 50.3113 71.0851 50.2633 71.0806 50.2136C70.9537 49.5029 70.9207 48.7769 70.7634 48.0713C70.606 47.3656 70.4613 46.8021 69.908 46.3402" fill="black"/>
</g>
<g opacity="0.3">
<path d="M81.9926 47.0898C83.8481 46.3131 85.2314 44.6099 86.3229 42.9219C86.5589 42.5564 86.7899 42.1884 87.0209 41.8203C87.1642 41.6254 87.2591 41.3992 87.2976 41.1604C87.3126 41.0404 87.2843 40.919 87.2177 40.818C87.1512 40.717 87.0508 40.6431 86.9346 40.6096C87.0827 40.6504 87.2401 40.6423 87.3832 40.5865C87.5264 40.5307 87.6477 40.4302 87.7291 40.2999C87.8871 40.036 87.985 39.7404 88.0159 39.4344C88.1454 38.6983 88.323 37.6195 88.4525 36.8961C88.2494 37.424 87.8078 38.3048 87.6047 38.8328C87.46 39.2059 87.323 39.64 87.0209 39.9014C86.5361 40.3202 86.0487 40.1755 85.4802 40.3481C85.8482 40.4497 86.2823 40.8786 86.5589 41.1375C85.1477 43.1377 81.9901 47.0999 81.9901 47.0999" fill="black"/>
</g>
<path d="M80.442 16.4146C79.9343 16.5162 79.3835 16.44 78.8784 16.5822C78.1474 16.7903 77.6093 17.4325 77.325 18.1406C77.0822 18.8619 76.9512 19.616 76.9366 20.3769L76.7945 22.4075C76.7785 22.845 76.7172 23.2796 76.6117 23.7045C76.4772 24.1741 76.1041 25.4255 76.0889 26.0347C75.9913 27.7082 76.536 29.356 77.6118 30.6416C78.0814 31.1721 79.0586 31.4031 79.7516 31.5452L81.1933 30.2761C81.2441 30.2304 80.1146 29.007 80.1425 28.9359C80.1716 28.8258 80.1608 28.7089 80.112 28.6059C78.7711 24.6352 79.0166 20.2999 80.7974 16.506" fill="#E0E0E0"/>
<path d="M80.5927 33.6592C80.5547 31.0067 80.5927 30.0117 80.5927 30.0269C80.5927 30.0422 78.3083 29.6437 77.8489 26.6688C77.6179 25.1915 77.6966 22.7675 77.826 20.7851C77.9428 19.0083 79.1307 16.8153 80.9075 17.0082L86.4536 18.422C86.714 18.4505 86.9543 18.5754 87.1272 18.7723C87.3001 18.9691 87.393 19.2236 87.3877 19.4855V19.4855L86.7633 33.6084" fill="#FFBE9D"/>
<path d="M80.5927 30.0307C82.0477 30.0637 83.4842 29.6995 84.7478 28.9774C84.7478 28.9774 83.5675 31.0663 80.5927 30.7821V30.0307Z" fill="#EB996E"/>
<path d="M80.0723 16.8069C80.1179 16.6348 80.2267 16.4862 80.3769 16.3906C80.8379 16.0572 81.3615 15.8201 81.9163 15.6936C82.471 15.5671 83.0456 15.5538 83.6056 15.6545C84.726 15.8623 85.7848 16.3214 86.7023 16.9973C87.5145 17.5608 88.2811 18.2486 88.6923 19.1472C88.9512 19.7969 89.1137 20.481 89.1746 21.1778C89.4081 22.8911 89.8675 24.6095 89.8523 26.3381C89.8523 27.0107 89.9665 28.1453 89.8523 28.9754C89.7304 29.8637 88.87 30.945 87.9943 31.143L86.0271 31.3385C86.0271 31.3385 87.0932 27.6631 87.0094 26.3381C86.9383 25.1781 86.9485 23.9039 86.8165 22.749C86.8122 22.6604 86.7889 22.5738 86.748 22.4952C86.6791 22.4024 86.586 22.3304 86.4789 22.287L85.2479 21.6601C84.8506 21.4654 84.4643 21.2493 84.0904 21.0128C83.6803 20.7301 83.2886 20.4215 82.9177 20.0889L81.3212 18.7258C80.9713 18.4529 80.6612 18.1325 80.3998 17.774C80.2734 17.5947 80.1856 17.3911 80.1419 17.1762C80.0983 16.9612 80.0996 16.7396 80.1459 16.5252" fill="#E0E0E0"/>
<path d="M86.6766 23.5588C86.6818 23.4122 86.724 23.2694 86.7994 23.1436C86.8747 23.0179 86.9807 22.9132 87.1074 22.8395C87.2342 22.7657 87.3775 22.7253 87.5241 22.7219C87.6707 22.7185 87.8157 22.7523 87.9457 22.8201C88.2477 22.9953 88.4762 23.3456 88.4533 24.0157C88.3797 25.8077 86.5953 25.3635 86.5953 25.3127C86.5953 25.2619 86.641 24.2999 86.6766 23.5588Z" fill="#FFBE9D"/>
<path d="M87.1662 24.6503C87.1662 24.6503 87.1967 24.6731 87.25 24.6985C87.3221 24.7332 87.4049 24.7387 87.481 24.7137C87.6004 24.646 87.6993 24.5473 87.7672 24.428C87.8351 24.3087 87.8695 24.1733 87.8668 24.036C87.8786 23.8821 87.8551 23.7276 87.7982 23.5842C87.7848 23.5268 87.7574 23.4735 87.7184 23.4292C87.6795 23.385 87.6301 23.351 87.5749 23.3304C87.5393 23.3191 87.5009 23.3208 87.4665 23.3352C87.4321 23.3496 87.4039 23.3758 87.387 23.4091C87.3591 23.4573 87.3693 23.4928 87.3617 23.4954C87.354 23.4979 87.3236 23.4649 87.3414 23.3913C87.3521 23.3473 87.3782 23.3086 87.415 23.2821C87.4662 23.2472 87.529 23.2335 87.5901 23.2441C87.6628 23.2617 87.7298 23.2975 87.7848 23.3481C87.8399 23.3987 87.8812 23.4625 87.9049 23.5334C87.9751 23.6929 88.0047 23.8673 87.9912 24.0411C87.9658 24.4015 87.7678 24.7315 87.5063 24.8026C87.4576 24.8144 87.4068 24.8153 87.3577 24.8052C87.3085 24.7951 87.2622 24.7743 87.2221 24.7442C87.1688 24.6934 87.1611 24.6528 87.1662 24.6503Z" fill="#EB996E"/>
<path d="M87.2116 30.9786C87.1685 30.9786 87.1812 30.6943 87.2624 30.2171C87.3436 29.7399 87.5035 29.0343 87.7066 28.1865C87.9604 27.2059 88.1545 26.2107 88.2878 25.2066C88.3562 24.6237 88.3757 24.0362 88.3462 23.4501C88.3246 22.8365 88.2037 22.2305 87.9883 21.6555C87.8799 21.384 87.7253 21.1333 87.5315 20.9144C87.3321 20.7006 87.105 20.5145 86.8563 20.361C86.3588 20.051 85.8347 19.786 85.2902 19.5691C84.2393 19.1376 83.2367 18.8076 82.427 18.4421C81.6173 18.0766 80.9878 17.6019 80.7187 17.1476C80.4497 16.6932 80.4649 16.3861 80.5081 16.3861C80.5512 16.3861 80.6223 16.6399 80.9269 16.9953C81.3932 17.4677 81.9698 17.8166 82.6047 18.0106C83.4118 18.3203 84.4119 18.5893 85.5161 19.0056C86.1037 19.2209 86.669 19.493 87.204 19.8178C87.5011 19.9942 87.7734 20.2093 88.0137 20.4575C88.2596 20.7323 88.4562 21.0474 88.595 21.389C88.8388 22.0338 88.9718 22.7152 88.9884 23.4044C89.0127 24.029 88.9778 24.6545 88.8843 25.2726C88.7232 26.2993 88.4787 27.3112 88.1533 28.2982C87.8995 29.1358 87.6634 29.8059 87.5086 30.2679C87.3538 30.7298 87.2522 30.9888 87.2116 30.9786Z" fill="#FAFAFA"/>
<path d="M88.8232 30.7105C88.8307 30.6457 88.8452 30.5819 88.8664 30.5201C88.8968 30.3983 88.9501 30.2206 89.0034 29.9871C89.1631 29.3306 89.2717 28.6628 89.3283 27.9895C89.4101 26.9913 89.3855 25.9873 89.2547 24.9943C89.1837 24.4334 89.0821 23.847 88.9451 23.248C88.8257 22.6278 88.6384 22.0226 88.3866 21.4433C88.1012 20.8811 87.6884 20.3935 87.181 20.0193C86.7076 19.6694 86.1968 19.3731 85.658 19.136C84.6275 18.6741 83.6502 18.3517 82.8862 17.9507C82.2691 17.657 81.7081 17.2575 81.2287 16.7704C81.1541 16.6902 81.0846 16.6054 81.0206 16.5165C80.9693 16.4576 80.9226 16.3948 80.881 16.3287C80.8414 16.2774 80.8074 16.2221 80.7794 16.1637C80.7921 16.1637 80.9292 16.3845 81.2668 16.7221C81.7552 17.1935 82.3199 17.5789 82.937 17.8618C83.6985 18.2502 84.6757 18.5598 85.7291 19.0218C86.2781 19.259 86.7984 19.5579 87.2799 19.9127C87.8043 20.297 88.2304 20.7997 88.5237 21.3798C88.7813 21.9684 88.972 22.5839 89.0923 23.215C89.2242 23.7955 89.3251 24.3827 89.3943 24.974C89.5216 25.9752 89.5378 26.9873 89.4426 27.992C89.3779 28.6692 89.2539 29.3393 89.072 29.9947C89.0136 30.2282 88.9501 30.4034 88.9121 30.5227C88.8889 30.5882 88.8592 30.6511 88.8232 30.7105V30.7105Z" fill="#FAFAFA"/>
<path d="M79.9119 31.2958C79.8544 31.2996 79.7967 31.2996 79.7393 31.2958C79.5739 31.3003 79.4084 31.2918 79.2443 31.2704C78.9757 31.2401 78.7248 31.1213 78.5311 30.9328C78.3166 30.6571 78.1415 30.353 78.0107 30.0292C77.5858 29.2331 77.2837 28.3773 77.1147 27.4909C77.0342 26.9631 76.9884 26.4306 76.9776 25.8969C76.9573 25.3461 76.9497 24.7724 76.9776 24.1861C77.0309 21.8407 77.4345 19.7162 78.0767 18.3049C78.2295 17.9894 78.4356 17.7026 78.6859 17.4571C78.876 17.272 79.0989 17.1239 79.3433 17.0205C79.4967 16.9541 79.6593 16.9113 79.8256 16.8936C79.8814 16.8936 79.9246 16.8936 79.955 16.8936C79.9855 16.8936 79.9982 16.8936 79.9982 16.8936C79.7791 16.9185 79.5651 16.9767 79.3636 17.0662C79.1273 17.1745 78.9117 17.3231 78.7265 17.5054C78.4874 17.7487 78.2917 18.0311 78.1478 18.3404C77.5386 19.7365 77.1477 21.8534 77.0969 24.1785C77.0817 24.7623 77.0969 25.3334 77.0969 25.8842C77.1069 26.4117 77.1493 26.9381 77.2239 27.4604C77.3859 28.3398 77.6758 29.1906 78.0843 29.986C78.2078 30.304 78.3725 30.6044 78.5742 30.8795C78.7544 31.0613 78.9886 31.1797 79.2418 31.2171C79.6707 31.2983 79.9119 31.278 79.9119 31.2958Z" fill="#FAFAFA"/>
<path d="M87.4229 25.7825C87.6177 25.7825 87.7757 25.6245 87.7757 25.4296C87.7757 25.2348 87.6177 25.0768 87.4229 25.0768C87.228 25.0768 87.0701 25.2348 87.0701 25.4296C87.0701 25.6245 87.228 25.7825 87.4229 25.7825Z" fill="#263238"/>
<path d="M82.3105 47.4609L78.1782 45.5775L75.3227 45.8643L73.9749 47.4609C73.9749 47.4609 73.9748 47.933 74.2642 47.8594C74.4916 47.78 74.7012 47.6567 74.881 47.4964L74.9165 48.6945C74.9165 48.6945 75.3506 49.2021 75.6425 48.6945L75.9319 49.6006C75.9319 49.6006 76.2568 49.9991 76.5106 49.6006L76.9472 50.6515C77.052 50.6285 77.151 50.5845 77.2382 50.5221C77.3255 50.4597 77.3992 50.3802 77.4548 50.2885C77.5411 50.1213 77.5662 49.9291 77.5259 49.7453C77.5259 49.7453 78.9397 49.9991 79.521 50.1794C80.1022 50.3596 82.9629 50.2885 82.9629 50.2885L84.232 50.6515L84.8158 47.6741L82.3105 47.4609Z" fill="#FFBE9D"/>
<path d="M77.5665 46.0114C77.3985 45.9835 77.227 45.9835 77.0589 46.0114C76.904 46.0418 76.7213 46.1002 76.5132 46.1637C76.305 46.2271 76.0816 46.2931 75.8532 46.3794C75.6375 46.4587 75.4294 46.5573 75.2313 46.6739C75.1515 46.7152 75.0913 46.7863 75.0638 46.8719C75.0384 46.9556 75.0207 47.047 75.0029 47.1257C74.9344 47.443 74.9166 47.6333 74.8988 47.6333C74.8644 47.4577 74.8688 47.2766 74.9115 47.1028C74.9215 47.0122 74.9376 46.9223 74.9597 46.8338C74.9746 46.7776 75.0004 46.7249 75.0357 46.6788C75.071 46.6326 75.1151 46.5938 75.1653 46.5647C75.3664 46.4368 75.5809 46.3312 75.805 46.25C76.041 46.1586 76.272 46.0951 76.4802 46.0368C76.6658 45.9826 76.8549 45.9411 77.0462 45.9124C77.1351 45.893 77.2271 45.8917 77.3165 45.9087C77.4059 45.9257 77.491 45.9607 77.5665 46.0114V46.0114Z" fill="#EB996E"/>
<path d="M77.8052 46.8435C77.6651 46.9396 77.5072 47.0069 77.3407 47.0414C77.0438 47.1354 76.6173 47.2039 76.1731 47.3333C76.0714 47.3552 75.9748 47.3966 75.8888 47.4552C75.8304 47.5335 75.7818 47.6188 75.7442 47.709C75.6603 47.8653 75.615 48.0393 75.6122 48.2167C75.6122 48.3613 75.6528 48.4857 75.6629 48.572C75.6731 48.6583 75.6629 48.7091 75.6629 48.7091C75.6629 48.7091 75.6401 48.6634 75.6147 48.5822C75.5733 48.4649 75.5419 48.3443 75.5208 48.2217C75.5119 48.0314 75.5512 47.842 75.635 47.6709C75.6748 47.5634 75.7304 47.4625 75.8 47.3714C75.8995 47.2946 76.0148 47.2408 76.1376 47.214C76.597 47.0795 77.0209 47.0288 77.3204 46.9602C77.4794 46.9109 77.6413 46.8719 77.8052 46.8435Z" fill="#EB996E"/>
<path d="M76.5468 49.6645C76.5341 49.6645 76.4351 49.5706 76.331 49.3548C76.2703 49.2223 76.2534 49.0738 76.2828 48.9309C76.3079 48.842 76.3546 48.7606 76.4188 48.6942C76.4831 48.6277 76.5628 48.5783 76.6509 48.5502C76.8146 48.4976 76.987 48.4769 77.1585 48.4893L77.5596 48.502C77.6506 48.5032 77.7414 48.5116 77.8312 48.5274C77.9022 48.5451 77.9251 48.5908 77.9149 48.5934C77.9048 48.5959 77.8819 48.5781 77.8235 48.5781C77.7652 48.5781 77.6712 48.5908 77.5697 48.5959L77.1687 48.6111C77.0131 48.6072 76.8579 48.6286 76.7092 48.6746C76.6407 48.6951 76.5781 48.7319 76.5268 48.7819C76.4756 48.8318 76.4371 48.8934 76.4148 48.9614C76.3843 49.0806 76.3905 49.2062 76.4326 49.3218C76.4909 49.53 76.5671 49.6543 76.5468 49.6645Z" fill="#EB996E"/>
</g>
</svg>
