<svg width="101" height="100" viewBox="0 0 101 100" fill="none" xmlns="http://www.w3.org/2000/svg">
<circle cx="50.5" cy="50" r="50" fill="#002C8A" fill-opacity="0.2"/>
<mask id="mask0_6_2" style="mask-type:alpha" maskUnits="userSpaceOnUse" x="0" y="0" width="101" height="100">
<circle cx="50.5" cy="50" r="50" fill="#D9D9D9"/>
</mask>
<g mask="url(#mask0_6_2)">
<path d="M80.0244 28.9007L72.6455 18.7606C72.2384 18.2012 71.4892 18.1046 70.972 18.545L65.3295 23.3501C64.8123 23.7905 64.7231 24.601 65.1302 25.1605L72.5091 35.3005C72.9162 35.86 73.6655 35.9565 74.1826 35.5161L79.8252 30.711C80.3423 30.2707 80.4315 29.4601 80.0244 28.9007Z" fill="#EBEBEB"/>
<path d="M76.0455 33.9225L67.1923 21.7565L65.7865 22.9536L74.6397 35.1196L76.0455 33.9225Z" fill="#E0E0E0"/>
<path d="M74.3975 30.4131L75.8965 32.473L76.395 32.0486L74.8959 29.9886L74.3975 30.4131Z" fill="#FAFAFA"/>
<path d="M73.2391 28.8306L74.121 30.0425L74.6194 29.618L73.7375 28.4061L73.2391 28.8306Z" fill="#FAFAFA"/>
<path d="M71.7614 26.8025L72.6433 28.0144L73.1417 27.5899L72.2598 26.378L71.7614 26.8025Z" fill="#FAFAFA"/>
<path d="M3.84097 58.78L10.3574 47.9705C10.7169 47.3741 10.5615 46.5753 10.0102 46.1864L3.99514 41.943C3.44385 41.5541 2.70548 41.7223 2.34596 42.3186L-4.17048 53.1281C-4.53001 53.7245 -4.37454 54.5233 -3.82325 54.9122L2.19179 59.1556C2.74309 59.5445 3.48145 59.3764 3.84097 58.78Z" fill="#EBEBEB"/>
<path d="M-1.82599 56.3245L5.9924 43.3553L4.4938 42.2981L-3.32459 55.2673L-1.82599 56.3245Z" fill="#E0E0E0"/>
<path d="M0.709127 53.5173L-0.614685 55.7132L-0.0833397 56.0881L1.24047 53.8921L0.709127 53.5173Z" fill="#FAFAFA"/>
<path d="M1.72861 51.833L0.949799 53.1248L1.48114 53.4997L2.25996 52.2078L1.72861 51.833Z" fill="#FAFAFA"/>
<path d="M3.02477 49.6786L2.24596 50.9705L2.7773 51.3453L3.55611 50.0534L3.02477 49.6786Z" fill="#FAFAFA"/>
<path d="M93.8153 86.649L87.0824 97.3021C86.711 97.8899 86.8503 98.6921 87.3936 99.0939L93.3217 103.478C93.865 103.88 94.6066 103.729 94.978 103.142L101.711 92.4885C102.082 91.9008 101.943 91.0985 101.4 90.6967L95.4717 86.3123C94.9284 85.9105 94.1868 86.0612 93.8153 86.649Z" fill="#EBEBEB"/>
<path d="M99.4418 89.2621L91.3637 102.044L92.8406 103.136L100.919 90.3545L99.4418 89.2621Z" fill="#E0E0E0"/>
<path d="M96.8391 91.9923L98.2065 89.8278L97.6828 89.4406L96.3154 91.6051L96.8391 91.9923Z" fill="#FAFAFA"/>
<path d="M95.7782 93.6263L96.5829 92.3531L96.0592 91.9658L95.2545 93.239L95.7782 93.6263Z" fill="#FAFAFA"/>
<path d="M94.4426 95.7648L95.2473 94.4916L94.7236 94.1043L93.9189 95.3775L94.4426 95.7648Z" fill="#FAFAFA"/>
<path d="M46.6805 93.8667L60.6439 90.9196C61.415 90.7568 61.9182 89.9486 61.7678 89.1143L60.1284 80.025C59.978 79.1908 59.2309 78.6465 58.4597 78.8092L44.4963 81.7563C43.7251 81.9191 43.2219 82.7273 43.3724 83.5616L45.0117 92.6509C45.1622 93.4851 45.9093 94.0294 46.6805 93.8667Z" fill="#EBEBEB"/>
<path d="M43.914 86.5777L60.67 83.0412L60.2614 80.7754L43.5053 84.3119L43.914 86.5777Z" fill="#E0E0E0"/>
<path d="M48.2411 86.601L45.4031 87.2L45.5482 88.0043L48.3862 87.4053L48.2411 86.601Z" fill="#FAFAFA"/>
<path d="M50.4243 86.1455L48.756 86.4976L48.901 87.3019L50.5694 86.9498L50.4243 86.1455Z" fill="#FAFAFA"/>
<path d="M53.2061 85.5615L51.5377 85.9137L51.6828 86.718L53.3511 86.3658L53.2061 85.5615Z" fill="#FAFAFA"/>
<path d="M42.4781 15.4305C42.6229 15.7003 42.9154 15.6837 43.2695 15.5904L42.7337 14.5911C42.395 14.8809 42.3457 15.1807 42.4781 15.4305Z" fill="#E0E0E0"/>
<path d="M44.1198 16.1233L44.6556 17.1226C45.0036 16.8228 45.0621 16.5297 44.9327 16.2865C44.8034 16.0433 44.4862 16.0233 44.1198 16.1233Z" fill="#E0E0E0"/>
<path d="M98.0524 66.3193C100.539 65.5286 101.962 62.707 101.231 60.017C100.501 57.327 97.8922 55.7873 95.4055 56.578C92.9189 57.3687 91.4956 60.1903 92.2265 62.8803C92.9574 65.5703 95.5658 67.11 98.0524 66.3193Z" fill="#F0F0F0"/>
<path d="M95.547 61.0001C95.6918 61.2733 95.9843 61.2566 96.3384 61.1634L95.7995 60.164C95.4639 60.4505 95.4146 60.7536 95.547 61.0001Z" fill="#E0E0E0"/>
<path d="M97.1984 61.7041L97.7312 62.7034C98.0791 62.4036 98.1407 62.1105 98.0114 61.8673C97.882 61.6241 97.5618 61.6041 97.1984 61.7041Z" fill="#E0E0E0"/>
<path d="M94.7303 57.6824C94.0447 58.1107 93.4919 58.7492 93.1417 59.5174C92.7916 60.2855 92.6598 61.1487 92.7632 61.9979C92.8665 62.847 93.2003 63.6439 93.7222 64.2878C94.2442 64.9318 94.931 65.3938 95.6957 65.6155C96.4605 65.8373 97.2688 65.8087 98.0185 65.5335C98.7682 65.2583 99.4257 64.7487 99.9077 64.0693C100.39 63.3899 100.675 62.5711 100.727 61.7165C100.779 60.8619 100.595 60.0098 100.199 59.268C99.9365 58.7754 99.5865 58.3436 99.1694 57.9973C98.7524 57.651 98.2763 57.397 97.7684 57.2497C97.2606 57.1025 96.7309 57.0649 96.2096 57.1392C95.6883 57.2134 95.1857 57.398 94.7303 57.6824V57.6824ZM98.0591 63.3021L98.3979 63.935L97.9667 64.1915L97.6311 63.5619C97.1613 63.8404 96.624 63.9566 96.0914 63.895L96.0206 63.1788C96.4565 63.2358 96.8984 63.1584 97.2954 62.9556L96.6796 61.823C96.0175 62.0329 95.2877 62.2195 94.8689 61.4333C94.561 60.857 94.678 60.1008 95.4478 59.5179L95.1091 58.8783L95.5371 58.6118L95.8728 59.2381C96.2527 59.0237 96.676 58.9149 97.1045 58.9216L97.1938 59.6278C96.8474 59.6248 96.5043 59.7008 96.1869 59.851L96.8027 60.9903C97.4648 60.7837 98.2039 60.5839 98.6227 61.37C98.9583 61.9563 98.832 62.6992 98.0591 63.3021Z" fill="#E0E0E0"/>
<path d="M3.06739 99.5027C5.55404 98.712 6.97735 95.8904 6.24643 93.2004C5.51551 90.5104 2.90715 88.9707 0.420505 89.7614C-2.06614 90.552 -3.48944 93.3737 -2.75852 96.0637C-2.02761 98.7537 0.580744 100.293 3.06739 99.5027Z" fill="#F0F0F0"/>
<path d="M0.546246 94.1835C0.690976 94.4567 0.980437 94.44 1.33764 94.3467L0.798754 93.3474C0.463103 93.6272 0.413833 93.9303 0.546246 94.1835Z" fill="#E0E0E0"/>
<path d="M2.19861 94.8874L2.73134 95.8868C3.07931 95.587 3.14089 95.2939 3.01156 95.0507C2.88223 94.8075 2.56197 94.7875 2.19861 94.8874Z" fill="#E0E0E0"/>
<path d="M-0.267494 90.8658C-0.953121 91.2941 -1.50596 91.9326 -1.85612 92.7008C-2.20627 93.4689 -2.33801 94.3321 -2.23467 95.1813C-2.13134 96.0304 -1.79758 96.8273 -1.27558 97.4713C-0.753593 98.1152 -0.0668141 98.5772 0.697911 98.799C1.46264 99.0207 2.27096 98.9921 3.02068 98.7169C3.77041 98.4417 4.42785 97.9321 4.90989 97.2527C5.39193 96.5733 5.67692 95.7545 5.72882 94.8999C5.78072 94.0453 5.59719 93.1932 5.20146 92.4514C4.93865 91.9588 4.5887 91.527 4.17161 91.1807C3.75452 90.8344 3.27846 90.5804 2.7706 90.4332C2.26275 90.2859 1.73305 90.2483 1.21177 90.3226C0.69049 90.3968 0.187831 90.5814 -0.267494 90.8658V90.8658ZM3.05822 96.4855L3.39695 97.1184L2.96892 97.3883L2.63327 96.7587C2.16351 97.0371 1.62621 97.1534 1.09358 97.0918L1.02276 96.3756C1.45866 96.4324 1.90053 96.355 2.29762 96.1524L1.68174 95.0231C1.01968 95.2297 0.28987 95.4162 -0.128924 94.63C-0.43686 94.0537 -0.319843 93.2976 0.449998 92.7146L0.111269 92.075L0.5393 91.8085L0.87495 92.4348C1.25545 92.222 1.67838 92.1133 2.1067 92.1183L2.196 92.8245C1.84854 92.821 1.50433 92.8971 1.18597 93.0477L1.80184 94.187C2.4639 93.9805 3.20295 93.7806 3.62174 94.5667C3.95739 95.1397 3.83114 95.8826 3.05822 96.4855Z" fill="#E0E0E0"/>
<path d="M47.0233 60.6738C51.0604 60.6151 54.2891 57.0273 54.2349 52.6601C54.1806 48.2929 50.8639 44.8001 46.8269 44.8588C42.7898 44.9175 39.5611 48.5054 39.6153 52.8726C39.6696 57.2398 42.9863 60.7325 47.0233 60.6738Z" fill="#F0F0F0"/>
<path d="M45.3303 51.5595C45.438 52.0325 45.8815 52.1424 46.4512 52.1657L46.0416 50.4102C45.4196 50.71 45.2286 51.1364 45.3303 51.5595Z" fill="#E0E0E0"/>
<path d="M47.5239 53.3695L47.9273 55.115C48.5678 54.8285 48.7742 54.4155 48.6756 53.9924C48.5617 53.5061 48.109 53.3895 47.5239 53.3695Z" fill="#E0E0E0"/>
<path d="M45.4096 46.2252C44.2128 46.5498 43.1318 47.251 42.3034 48.2401C41.475 49.2293 40.9363 50.4619 40.7554 51.7822C40.5745 53.1026 40.7596 54.4513 41.2873 55.6578C41.8149 56.8643 42.6615 57.8745 43.7198 58.5606C44.7782 59.2467 46.0008 59.5779 47.2332 59.5124C48.4656 59.4468 49.6523 58.9874 50.6433 58.1923C51.6343 57.3972 52.3852 56.302 52.8008 55.0453C53.2165 53.7886 53.2784 52.4268 52.9787 51.132C52.7796 50.2721 52.4259 49.4631 51.9378 48.7511C51.4496 48.0391 50.8366 47.4381 50.1337 46.9825C49.4309 46.5268 48.6519 46.2254 47.8413 46.0955C47.0307 45.9655 46.2044 46.0096 45.4096 46.2252ZM48.181 56.1854L48.4366 57.2914L47.6883 57.4946L47.4358 56.3986C46.6266 56.5939 45.7817 56.5196 45.0124 56.1854L45.191 55.0795C45.8214 55.3673 46.5146 55.4551 47.1895 55.3326L46.7307 53.3606C45.659 53.3606 44.4889 53.3073 44.1717 51.9348C43.9407 50.9355 44.4119 49.8695 45.8007 49.3365L45.542 48.2206L46.2903 48.0174L46.5428 49.1133C47.2031 48.9648 47.8874 48.9992 48.5321 49.2133L48.3904 50.3092C47.8708 50.1459 47.3255 50.1016 46.7892 50.1793L47.2511 52.178C48.3258 52.178 49.5082 52.2146 49.8254 53.5871C50.0564 54.5964 49.5729 55.6491 48.178 56.1954L48.181 56.1854Z" fill="#E0E0E0"/>
<rect x="9.62837" y="23.1059" width="11.1111" height="11.1111" rx="5.55555" fill="white"/>
<rect x="9.18393" y="22.6615" width="12" height="12" rx="6" fill="#E0E0E0"/>
<path d="M17.5544 31.1888C17.8559 30.3888 17.6616 29.7156 17.1681 29.2754C17.6775 29.1849 18.1273 28.8285 18.3655 28.1953C18.6636 27.4062 18.4254 26.6725 17.6499 26.1493L18.015 25.1774L17.1015 24.813L16.7612 25.7157L16.2415 25.5093L16.5801 24.6088L15.6646 24.2446L15.3243 25.1472L14.4919 24.8163L13.9167 24.5797L13.5767 25.4774L14.1569 25.7078L12.513 30.0701L11.8712 29.8149L11.534 30.7114L12.1757 30.9666L13.0092 31.2983L12.6121 32.3508L13.5257 32.7151L13.9228 31.6627L14.4425 31.8691L14.0454 32.9215L14.9608 33.2857L15.3734 32.196C16.4561 32.467 17.2129 32.0974 17.5544 31.1888ZM15.3156 26.1705L16.5541 26.664C17.2419 26.9368 17.5254 27.3747 17.3067 27.9431C17.088 28.5115 16.5991 28.6319 15.9165 28.3615L14.511 27.8024L15.1486 26.105L15.3156 26.1705ZM15.1134 31.1085L13.6155 30.5123L13.5098 30.4697L14.1779 28.6869L15.7869 29.3301C16.5351 29.6268 16.8375 30.061 16.6046 30.6762C16.3718 31.2915 15.86 31.4006 15.1085 31.1013L15.1134 31.1085Z" fill="white"/>
<rect x="35.2508" y="15.0961" width="11.1111" height="11.1111" rx="5.55555" transform="rotate(-56.2153 35.2508 15.0961)" fill="white"/>
<g clip-path="url(#clip0_6_2)">
<rect x="34.6343" y="15.2184" width="12" height="12" rx="6" transform="rotate(-56.2153 34.6343 15.2184)" fill="#E0E0E0"/>
<path d="M46.3762 13.0032C45.8789 12.3077 45.2114 12.0949 44.5711 12.2603C44.7791 11.7865 44.733 11.2145 44.3392 10.6644C43.8491 9.97785 43.1069 9.76794 42.2408 10.1215L41.6361 9.27759L40.8252 9.83426L41.3862 10.619L40.9257 10.9362L40.3655 10.154L39.5538 10.7124L40.1147 11.4971L39.3768 12.005L38.8603 12.3515L39.4174 13.1333L39.9315 12.7791L42.643 16.5712L42.0741 16.9627L42.6317 17.7415L43.2006 17.35L43.9398 16.8418L44.5937 17.7571L45.4045 17.2004L44.7506 16.2851L45.2112 15.9679L45.865 16.8832L46.6768 16.3248L46.0005 15.376C46.8279 14.6268 46.9415 13.7922 46.3762 13.0032ZM40.9604 12.0734L42.0593 11.3185C42.6684 10.8985 43.19 10.9064 43.5408 11.4043C43.8916 11.9021 43.7198 12.3754 43.1155 12.7924L41.8693 13.6496L40.8131 12.1758L40.9604 12.0734ZM44.9521 14.9874L43.6236 15.9008L43.5294 15.9649L42.4192 14.4183L43.8485 13.4387C44.5112 12.9818 45.0402 12.9719 45.422 13.5075C45.8039 14.0432 45.61 14.5292 44.9434 14.9874L44.9521 14.9874Z" fill="white"/>
</g>
<rect x="89.2222" y="62.7287" width="11.1111" height="11.1111" rx="5.55555" transform="rotate(-56.2153 89.2222 62.7287)" fill="white"/>
<g clip-path="url(#clip1_6_2)">
<rect x="88.6056" y="62.851" width="12" height="12" rx="6" transform="rotate(-56.2153 88.6056 62.851)" fill="#E0E0E0"/>
<path d="M100.348 60.6358C99.8503 59.9403 99.1827 59.7275 98.5425 59.8929C98.7505 59.4191 98.7044 58.8471 98.3106 58.297C97.8205 57.6105 97.0783 57.4005 96.2122 57.7541L95.6075 56.9102L94.7966 57.4669L95.3576 58.2516L94.897 58.5688L94.3369 57.7866L93.5251 58.345L94.0861 59.1297L93.3482 59.6376L92.8317 59.9841L93.3888 60.7659L93.9028 60.4117L96.6143 64.2038L96.0454 64.5953L96.603 65.3741L97.1719 64.9826L97.9111 64.4744L98.565 65.3897L99.3759 64.833L98.722 63.9177L99.1825 63.6005L99.8364 64.5158L100.648 63.9574L99.9718 63.0086C100.799 62.2594 100.913 61.4248 100.348 60.6358ZM94.9318 59.706L96.0306 58.9511C96.6398 58.5311 97.1614 58.539 97.5122 59.0369C97.863 59.5347 97.6912 60.008 97.0869 60.4249L95.8407 61.2822L94.7844 59.8083L94.9318 59.706ZM98.9235 62.62L97.595 63.5334L97.5008 63.5975L96.3906 62.0509L97.8199 61.0713C98.4826 60.6144 99.0115 60.6045 99.3934 61.1401C99.7753 61.6758 99.5814 62.1618 98.9147 62.62L98.9235 62.62Z" fill="white"/>
</g>
<path d="M95.5348 117.997C95.5124 117.997 95.4903 117.991 95.4705 117.98C95.4506 117.969 95.4336 117.952 95.4209 117.932C95.4082 117.912 95.4001 117.889 95.3974 117.865C95.3948 117.841 95.3975 117.817 95.4055 117.794C95.4055 117.757 96.6372 114.193 95.4548 108.763C95.0888 107.203 94.5727 105.689 93.9151 104.246C92.7572 101.528 91.7595 99.1827 93.2407 94.8022C93.6965 93.4497 94.1645 92.1839 94.6326 90.9613C96.3293 86.4509 97.6719 82.8866 96.2554 79.5887C96.2406 79.5524 96.2393 79.5112 96.252 79.474C96.2646 79.4367 96.2901 79.4062 96.3232 79.3888C96.3396 79.38 96.3576 79.3748 96.376 79.3737C96.3944 79.3726 96.4128 79.3756 96.4301 79.3825C96.4474 79.3893 96.4632 79.3999 96.4766 79.4136C96.49 79.4273 96.5006 79.4438 96.5079 79.4621C97.9737 82.8766 96.6126 86.4942 94.8912 91.0746C94.4324 92.2938 93.9674 93.5563 93.4994 94.9055C92.0582 99.1694 92.9882 101.351 94.1676 104.119C94.8357 105.581 95.362 107.114 95.7381 108.693C96.9544 114.22 95.6888 117.867 95.6765 117.904C95.6658 117.934 95.646 117.96 95.6204 117.977C95.5948 117.994 95.5647 118.001 95.5348 117.997V117.997Z" fill="#263238"/>
<path d="M97.0429 81.2129C97.0429 81.2129 97.9944 76.969 95.1275 77.1289C92.2606 77.2888 95.7095 80.8864 97.0429 81.2129Z" fill="#263238"/>
<path d="M94.7978 84.6137C94.7978 84.6137 93.6677 80.9261 91.6938 81.8954C89.72 82.8648 92.7778 84.8602 94.7978 84.6137Z" fill="#263238"/>
<path d="M98.2739 84.6781C98.2739 84.6781 97.7473 81.7033 99.8967 81.4568C102.046 81.2103 101.279 83.9319 98.2739 84.6781Z" fill="#263238"/>
<path d="M97.2877 90.9242C97.2877 90.9242 99.9729 87.8862 101.168 89.8716C102.363 91.8569 99.1723 92.5665 97.2877 90.9242Z" fill="#263238"/>
<path d="M92.1371 90.8949C92.1371 90.8949 91.2502 86.3112 89.0207 87.9635C86.7913 89.6157 90.1355 91.5378 92.1371 90.8949Z" fill="#263238"/>
<path d="M90.5709 97.6455C90.5709 97.6455 91.9473 92.8153 88.7848 93.6214C85.6223 94.4276 88.2244 96.7061 90.5709 97.6455Z" fill="#263238"/>
<path d="M95.6128 98.8837C95.6128 98.8837 98.0609 95.1994 100.21 96.1155C102.36 97.0316 100.925 100.603 95.6128 98.8837Z" fill="#263238"/>
<g opacity="0.2">
<path d="M97.0429 81.2107C97.0429 81.2107 97.9944 76.9668 95.1275 77.1267C92.2606 77.2866 95.7095 80.8842 97.0429 81.2107Z" fill="white"/>
<path d="M94.7959 84.6115C94.7959 84.6115 93.6657 80.9238 91.6919 81.8932C89.718 82.8626 92.7758 84.858 94.7959 84.6115Z" fill="white"/>
<path d="M98.2729 84.589C98.2729 84.589 97.7463 81.6143 99.8957 81.3678C102.045 81.1213 101.278 83.8428 98.2729 84.589Z" fill="white"/>
<path d="M97.2868 90.851C97.2868 90.851 99.972 87.8129 101.167 89.7983C102.362 91.7837 99.1713 92.4932 97.2868 90.851Z" fill="white"/>
<path d="M92.1361 90.8059C92.1361 90.8059 91.2493 86.2222 89.0198 87.8745C86.7903 89.5267 90.1345 91.4488 92.1361 90.8059Z" fill="white"/>
<path d="M90.5709 97.6433C90.5709 97.6433 91.9474 92.8131 88.7849 93.6192C85.6224 94.4254 88.2244 96.7039 90.5709 97.6433Z" fill="white"/>
<path d="M95.6128 98.8736C95.6128 98.8736 98.0609 95.1893 100.21 96.1054C102.36 97.0215 100.925 100.592 95.6128 98.8736Z" fill="white"/>
</g>
<path d="M96.2163 86.9893H96.1886C96.1519 86.9805 96.1199 86.9566 96.0993 86.9227C96.0993 86.8994 94.8244 84.7241 93.9591 84.2578C93.926 84.2401 93.9008 84.2089 93.8889 84.1711C93.8771 84.1333 93.8796 84.092 93.896 84.0562C93.9123 84.0204 93.9411 83.9932 93.976 83.9803C94.011 83.9675 94.0492 83.9703 94.0823 83.9879C94.8952 84.4243 95.9607 86.1299 96.2563 86.6262C97.2748 85.7721 98.1338 84.7163 98.7875 83.5149C98.8055 83.48 98.8356 83.4543 98.8711 83.4433C98.9066 83.4324 98.9447 83.4372 98.9769 83.4566C99.0092 83.4761 99.033 83.5086 99.0431 83.547C99.0532 83.5854 99.0488 83.6266 99.0308 83.6615C98.9846 83.7481 97.9099 85.7934 96.2933 86.9627C96.2707 86.9798 96.2438 86.9891 96.2163 86.9893V86.9893Z" fill="#263238"/>
<path d="M94.021 93.0002C94.0013 92.9983 93.9822 92.9917 93.9651 92.9807C93.948 92.9698 93.9335 92.9548 93.9225 92.9369C93.9225 92.9136 92.3582 90.5551 90.5352 89.6058C90.5065 89.5853 90.4856 89.5542 90.4765 89.5183C90.4674 89.4824 90.4707 89.4441 90.4858 89.4106C90.5009 89.3772 90.5268 89.3508 90.5585 89.3365C90.5903 89.3221 90.6257 89.3207 90.6584 89.3326C92.3212 90.2087 93.71 92.1141 94.0703 92.6438C96.3952 90.4952 99.4746 90.312 99.5054 90.312C99.5419 90.311 99.5774 90.3254 99.6044 90.3521C99.6313 90.3788 99.6477 90.4157 99.6501 90.4552C99.6514 90.4747 99.649 90.4943 99.6431 90.5128C99.6373 90.5314 99.628 90.5484 99.616 90.563C99.6039 90.5776 99.5893 90.5894 99.5729 90.5978C99.5566 90.6062 99.5388 90.6109 99.5208 90.6118C99.49 90.6118 96.4014 90.7983 94.1411 92.9769C94.124 92.9902 94.1043 92.9992 94.0835 93.0033C94.0627 93.0073 94.0414 93.0063 94.021 93.0002V93.0002Z" fill="#263238"/>
<path d="M92.92 100.757C92.8923 100.758 92.8653 100.749 92.843 100.731C90.9954 99.3983 89.4095 95.7773 89.3449 95.6241C89.329 95.5883 89.3269 95.5471 89.339 95.5097C89.3511 95.4722 89.3765 95.4415 89.4095 95.4242C89.426 95.4153 89.444 95.4102 89.4624 95.4091C89.4808 95.408 89.4992 95.411 89.5165 95.4178C89.5338 95.4247 89.5496 95.4353 89.563 95.449C89.5764 95.4627 89.587 95.4792 89.5943 95.4975C89.6097 95.5308 91.1802 99.0785 92.9231 100.424C93.462 100.031 96.4828 97.8993 98.9032 97.6394C98.9393 97.6366 98.9751 97.6488 99.0032 97.6736C99.0312 97.6983 99.0495 97.7338 99.0541 97.7727C99.0562 97.7924 99.0547 97.8124 99.0497 97.8314C99.0446 97.8505 99.0361 97.8683 99.0247 97.8838C99.0132 97.8993 98.999 97.9122 98.9829 97.9217C98.9668 97.9312 98.9492 97.9372 98.9309 97.9392C96.3904 98.2124 93.0339 100.707 93.0001 100.731C92.9768 100.749 92.9487 100.758 92.92 100.757V100.757Z" fill="#263238"/>
<path d="M-6.5998 72.3716L31.009 121.796L53.0767 102.145L15.468 52.7208L-6.5998 72.3716Z" fill="#002C8A"/>
<path opacity="0.1" d="M53.0824 102.158L46.8898 107.668L35.2313 118.051L31.0157 121.805L26.5968 115.993L18.7413 105.673L-6.59262 72.3774L-2.22608 68.4866L3.72941 63.19L15.4772 52.7301L19.0585 57.4404L50.9915 99.4099L53.0824 102.158Z" fill="black"/>
<g opacity="0.3">
<path d="M25.6429 84.4504L26.4836 83.7009L26.9948 84.3671L26.1572 85.1133C26.7207 85.9494 27.081 86.9388 27.0502 87.665L26.0125 87.9748C25.9812 87.2079 25.7495 86.4663 25.3442 85.8362L23.8384 87.1686C24.3219 88.2513 24.79 89.4638 23.743 90.3965C22.9731 91.0628 21.8461 91.0628 20.7652 89.9035L19.9153 90.6597L19.4072 89.9935L20.2417 89.2473C19.8203 88.6509 19.543 87.9502 19.4349 87.2086L20.448 86.8755C20.5373 87.475 20.7407 88.0478 21.0454 88.5577L22.5667 87.2019C22.0832 86.1193 21.5967 84.8968 22.6436 83.964C23.4196 83.2578 24.5467 83.2778 25.6429 84.4504ZM22.9269 87.9881L21.5905 89.1807C22.1109 89.687 22.5697 89.6903 22.8992 89.3939C23.2287 89.0974 23.1579 88.5744 22.9269 87.9881V87.9881ZM23.512 84.9234C23.1456 85.2565 23.2441 85.7662 23.4874 86.3692L24.8207 85.1833C24.2849 84.6603 23.8384 84.6369 23.512 84.9234V84.9234Z" fill="white"/>
</g>
<path opacity="0.3" d="M48.5363 98.9301L17.5148 58.1565C17.1812 58.4542 16.7966 58.6779 16.3829 58.8146C15.9693 58.9513 15.5348 58.9984 15.1043 58.9533C14.6738 58.9081 14.2558 58.7715 13.8742 58.5513C13.4926 58.3311 13.1549 58.0317 12.8804 57.6701L-1.59265 70.5618C-1.04236 71.2901 -0.780773 72.2243 -0.865007 73.1605C-0.949241 74.0966 -1.37245 74.9588 -2.04224 75.5586L28.9855 116.349C29.6587 115.754 30.5223 115.471 31.3877 115.562C32.2531 115.653 33.05 116.111 33.6045 116.835L48.0775 103.944C47.8032 103.582 47.5974 103.165 47.472 102.717C47.3466 102.27 47.304 101.8 47.3466 101.334C47.3892 100.868 47.5162 100.416 47.7204 100.004C47.9245 99.5915 48.2018 99.2266 48.5363 98.9301ZM4.65846 79.1829C4.58185 79.251 4.49359 79.302 4.39872 79.3332C4.30386 79.3644 4.20424 79.375 4.10557 79.3645C4.00691 79.3539 3.91112 79.3225 3.8237 79.2719C3.73628 79.2213 3.65893 79.1526 3.59608 79.0696L1.50211 76.3181C1.43918 76.2352 1.39196 76.1397 1.36316 76.0371C1.33436 75.9345 1.32454 75.8267 1.33427 75.72C1.34399 75.6132 1.37307 75.5096 1.41983 75.415C1.4666 75.3205 1.53013 75.2368 1.60681 75.1688V75.1688C1.68342 75.1007 1.77168 75.0497 1.86655 75.0185C1.96142 74.9873 2.06104 74.9767 2.1597 74.9872C2.25837 74.9978 2.35415 75.0292 2.44158 75.0798C2.529 75.1304 2.60634 75.1991 2.66919 75.2821L4.76316 78.0336C4.82609 78.1165 4.87331 78.212 4.90211 78.3146C4.93091 78.4172 4.94073 78.525 4.93101 78.6317C4.92129 78.7385 4.89221 78.8421 4.84545 78.9367C4.79868 79.0312 4.73514 79.1149 4.65846 79.1829V79.1829ZM27.2518 92.5309C26.287 93.3904 25.1082 93.921 23.8646 94.0558C22.621 94.1905 21.3684 93.9232 20.2652 93.2878C19.162 92.6523 18.2578 91.6773 17.6669 90.4859C17.076 89.2945 16.825 87.9403 16.9456 86.5946C17.0662 85.2488 17.553 83.972 18.3445 82.9256C19.1359 81.8792 20.1965 81.1102 21.3919 80.7158C22.5874 80.3215 23.8642 80.3195 25.0607 80.7102C26.2572 81.1008 27.3198 81.8665 28.114 82.9105C29.179 84.3091 29.6874 86.1078 29.5274 87.9116C29.3675 89.7154 28.5524 91.3768 27.261 92.5309H27.2518ZM44.8657 99.3399C44.7891 99.4079 44.7009 99.459 44.606 99.4902C44.5111 99.5213 44.4115 99.5319 44.3129 99.5214C44.2142 99.5109 44.1184 99.4795 44.031 99.4289C43.9436 99.3783 43.8662 99.3095 43.8034 99.2266L41.7094 96.475C41.6463 96.3924 41.5989 96.297 41.5699 96.1945C41.5408 96.092 41.5307 95.9844 41.5402 95.8776C41.5496 95.7709 41.5784 95.6673 41.6249 95.5726C41.6713 95.4779 41.7346 95.394 41.811 95.3258C41.8874 95.2575 41.9755 95.2063 42.0703 95.1748C42.165 95.1434 42.2646 95.1325 42.3632 95.1427C42.4619 95.1529 42.5577 95.1841 42.6453 95.2343C42.7328 95.2846 42.8103 95.353 42.8734 95.4357L44.9674 98.1906C45.0951 98.3567 45.1571 98.5706 45.1398 98.7858C45.1225 99.001 45.0273 99.2001 44.875 99.3399H44.8657Z" fill="white"/>
<path opacity="0.1" d="M50.9919 99.4029L26.5972 115.986L18.7417 105.666L-2.22571 68.4796L3.72979 63.183L19.0589 57.4334L50.9919 99.4029Z" fill="black"/>
<path d="M-3.95753 59.8462L25.6931 115.246L50.429 99.7532L20.7783 44.3535L-3.95753 59.8462Z" fill="#002C8A"/>
<path opacity="0.1" d="M50.4288 99.7503L25.6953 115.24L23.3796 110.916L17.4211 99.7869L-3.9559 59.8427L3.15435 55.389L8.8173 51.8413L20.7776 44.3494L23.5582 49.5461L50.1547 99.2406L50.4288 99.7503Z" fill="black"/>
<g opacity="0.3">
<path d="M26.0242 77.4837L26.9726 76.8907L27.3729 77.6402L26.4491 78.2265C26.8771 79.1526 27.065 80.1886 26.948 80.8915L25.8733 81.0147C25.9598 80.2524 25.8433 79.4793 25.5376 78.7862L23.8501 79.8421C24.1581 81.0014 24.4414 82.2772 23.2681 83.0134C22.409 83.5531 21.2943 83.3465 20.4074 82.0141L19.4528 82.6103L19.0525 81.8642L19.9763 81.2745C19.6521 80.6038 19.488 79.8561 19.499 79.0993L20.5521 78.9394C20.5483 79.5469 20.6627 80.1484 20.8878 80.7049L22.5937 79.6356C22.2858 78.4797 21.9779 77.1905 23.1573 76.4577C24.0133 75.908 25.1219 76.1345 26.0242 77.4837ZM22.8124 80.4817L21.3097 81.4211C21.75 82.0107 22.2027 82.0874 22.5722 81.8642C22.9417 81.641 22.954 81.1146 22.8278 80.495L22.8124 80.4817ZM23.8532 77.5603C23.4406 77.8201 23.4621 78.3431 23.613 78.9794L25.1065 78.0466C24.6569 77.4504 24.2166 77.3471 23.8532 77.5736V77.5603Z" fill="white"/>
</g>
<path opacity="0.3" d="M46.4277 95.784L21.9683 50.0836C21.5943 50.3179 21.1812 50.4701 20.7528 50.5316C20.3244 50.5931 19.889 50.5627 19.4714 50.442C19.0539 50.3214 18.6624 50.1129 18.3194 49.8284C17.9764 49.544 17.6886 49.1892 17.4724 48.7844L1.24107 58.9512C1.45765 59.3557 1.59839 59.8025 1.65525 60.266C1.7121 60.7295 1.68396 61.2005 1.57243 61.6522C1.46089 62.1039 1.26815 62.5274 1.00522 62.8984C0.7423 63.2695 0.414347 63.5808 0.0401154 63.8147L24.4995 109.518C24.8736 109.284 25.2866 109.131 25.7152 109.07C26.1437 109.008 26.5793 109.038 26.9971 109.158C27.4149 109.279 27.8066 109.487 28.15 109.771C28.4934 110.055 28.7817 110.41 28.9985 110.814L45.2267 100.651C45.0101 100.246 44.8693 99.799 44.8124 99.3352C44.7555 98.8715 44.7836 98.4002 44.8951 97.9483C45.0066 97.4963 45.1994 97.0725 45.4623 96.7012C45.7253 96.3298 46.0533 96.0182 46.4277 95.784ZM6.12494 68.5716C6.03922 68.6255 5.94453 68.6605 5.84628 68.6747C5.74803 68.689 5.64816 68.6822 5.55235 68.6546C5.45655 68.6271 5.3667 68.5794 5.28794 68.5143C5.20919 68.4492 5.14306 68.3679 5.09335 68.2751L3.44281 65.1905C3.39303 65.0977 3.36063 64.9953 3.34747 64.889C3.3343 64.7827 3.34062 64.6747 3.36607 64.571C3.39153 64.4674 3.43561 64.3702 3.4958 64.285C3.55599 64.1998 3.63112 64.1283 3.71688 64.0745V64.0745C3.8026 64.0207 3.89729 63.9856 3.99553 63.9714C4.09378 63.9571 4.19366 63.964 4.28946 63.9915C4.38527 64.019 4.47511 64.0667 4.55387 64.1318C4.63263 64.1969 4.69875 64.2782 4.74846 64.371L6.399 67.459C6.44871 67.5515 6.48105 67.6536 6.49418 67.7597C6.50731 67.8657 6.50096 67.9735 6.47549 68.0768C6.45003 68.1802 6.40596 68.2771 6.3458 68.362C6.28565 68.4469 6.21059 68.5181 6.12494 68.5716V68.5716ZM26.4026 85.7305C25.3211 86.4098 24.0777 86.7267 22.8297 86.6411C21.5817 86.5555 20.3853 86.0712 19.3918 85.2496C18.3984 84.428 17.6526 83.306 17.249 82.0257C16.8453 80.7454 16.8019 79.3642 17.1243 78.0572C17.4466 76.7501 18.1202 75.576 19.0598 74.6833C19.9993 73.7906 21.1626 73.2195 22.4024 73.0424C23.6421 72.8653 24.9025 73.0902 26.0241 73.6884C27.1457 74.2867 28.0779 75.2315 28.7028 76.4032C29.5341 77.9697 29.7588 79.8282 29.3278 81.5732C28.8968 83.3182 27.8452 84.8079 26.4026 85.7172V85.7305ZM42.754 95.5541C42.6681 95.6079 42.5732 95.6427 42.4749 95.6567C42.3765 95.6707 42.2765 95.6636 42.1807 95.6357C42.0849 95.6079 41.9951 95.5599 41.9164 95.4944C41.8378 95.429 41.7718 95.3474 41.7224 95.2543L40.0719 92.1563C40.0181 92.0634 39.9822 91.9598 39.9663 91.8515C39.9504 91.7433 39.9548 91.6327 39.9792 91.5263C40.0037 91.42 40.0477 91.32 40.1086 91.2325C40.1696 91.1449 40.2462 91.0715 40.3339 91.0167C40.4216 90.9618 40.5187 90.9267 40.6192 90.9133C40.7198 90.8999 40.8218 90.9086 40.9192 90.9388C41.0166 90.969 41.1074 91.0201 41.1861 91.089C41.2649 91.158 41.3299 91.2434 41.3775 91.3402L43.028 94.4249C43.0798 94.5181 43.1137 94.6217 43.1279 94.7294C43.1421 94.837 43.1363 94.9467 43.1108 95.0519C43.0852 95.1571 43.0405 95.2558 42.9793 95.342C42.918 95.4282 42.8414 95.5004 42.754 95.5541Z" fill="white"/>
<path opacity="0.1" d="M50.1536 99.2523L23.3785 110.928L17.42 99.7986L3.15327 55.4007L8.81623 51.853L23.5572 49.5578L50.1536 99.2523Z" fill="black"/>
<path d="M2.5359 48.7323L21.8115 109.256L48.8354 99.1846L29.5597 38.6607L2.5359 48.7323Z" fill="#002C8A"/>
<path opacity="0.1" d="M2.5359 48.7323L21.8115 109.256L48.8354 99.1846L29.5597 38.6607L2.5359 48.7323Z" fill="black"/>
<g opacity="0.3">
<path d="M28.8377 72.2708L29.8693 71.8877L30.1311 72.7038L29.1056 73.0869C29.3612 74.0863 29.3705 75.1423 29.1056 75.8152L28.034 75.7152C28.2517 74.984 28.2741 74.2011 28.0987 73.4567L26.2511 74.1463C26.3558 75.3455 26.3989 76.658 25.1179 77.1443C24.1787 77.4941 23.1224 77.061 22.4881 75.5587L21.4627 75.9351L21.2009 75.119L22.2233 74.7359C22.0247 74.0097 21.9972 73.2413 22.1432 72.5007L23.2025 72.5639C23.0926 73.1595 23.0989 73.7733 23.221 74.3661L25.084 73.6699C24.9793 72.4707 24.9177 71.1449 26.1987 70.6718C27.1379 70.3221 28.1911 70.7684 28.8377 72.2708ZM25.1425 74.5627L23.5012 75.1723C23.8307 75.8385 24.2556 76.0184 24.6621 75.8685C25.0686 75.7186 25.1764 75.2056 25.1487 74.5693L25.1425 74.5627ZM26.6822 71.8977C26.2326 72.0676 26.1587 72.5839 26.1926 73.2302L27.8246 72.6239C27.4982 71.9643 27.0856 71.7711 26.6883 71.9177L26.6822 71.8977Z" fill="white"/>
</g>
<path opacity="0.3" d="M45.6156 94.4418L29.7169 44.5141C29.3081 44.6665 28.8755 44.7302 28.4439 44.7016C28.0123 44.6731 27.5901 44.5528 27.2015 44.3477C26.8129 44.1426 26.4654 43.8567 26.179 43.5063C25.8925 43.1559 25.6727 42.7479 25.532 42.3056L7.80103 48.9113C7.94185 49.3535 8.00074 49.8215 7.97435 50.2884C7.94795 50.7553 7.83678 51.212 7.64719 51.6324C7.45759 52.0528 7.19329 52.4286 6.86938 52.7385C6.54547 53.0484 6.1683 53.2862 5.75941 53.4384L21.6582 103.369C22.067 103.217 22.4996 103.153 22.9312 103.182C23.3628 103.21 23.7849 103.331 24.1736 103.536C24.5622 103.741 24.9096 104.027 25.1961 104.377C25.4826 104.728 25.7024 105.136 25.843 105.578L43.574 98.9689C43.4332 98.5266 43.3743 98.0587 43.4007 97.5918C43.4271 97.1249 43.5383 96.6682 43.7279 96.2478C43.9175 95.8274 44.1818 95.4515 44.5057 95.1417C44.8296 94.8318 45.2068 94.594 45.6156 94.4418V94.4418ZM10.8896 59.3579C10.7001 59.428 10.4927 59.4141 10.3126 59.3192C10.1326 59.2243 9.99462 59.0562 9.92888 58.8515L8.85726 55.4837C8.79243 55.2787 8.80527 55.0543 8.89299 54.8595C8.9807 54.6648 9.13614 54.5155 9.32532 54.4444V54.4444C9.51439 54.3743 9.72142 54.3883 9.90097 54.4833C10.0805 54.5782 10.2179 54.7463 10.283 54.9507L11.3577 58.3219C11.4224 58.5264 11.4095 58.7504 11.3217 58.9446C11.234 59.1388 11.0786 59.2875 10.8896 59.3579V59.3579ZM27.7553 80.4042C26.5737 80.8446 25.2978 80.8959 24.0892 80.5518C22.8805 80.2077 21.7934 79.4835 20.9652 78.471C20.137 77.4584 19.6049 76.2029 19.4364 74.8633C19.2678 73.5236 19.4702 72.16 20.0181 70.9448C20.566 69.7296 21.4347 68.7175 22.5143 68.0364C23.594 67.3553 24.8361 67.0359 26.0835 67.1185C27.331 67.2011 28.5278 67.6821 29.5226 68.5005C30.5174 69.3189 31.2655 70.4381 31.6723 71.7165C31.9427 72.5652 32.056 73.4632 32.0055 74.3592C31.955 75.2552 31.7417 76.1316 31.378 76.9384C31.0142 77.7452 30.507 78.4666 29.8855 79.0613C29.2639 79.656 28.54 80.1123 27.7553 80.4042V80.4042ZM42.0621 93.4391C41.8726 93.5093 41.6651 93.4954 41.4851 93.4005C41.305 93.3056 41.167 93.1374 41.1013 92.9328L40.0204 89.5517C39.9832 89.4491 39.9656 89.3395 39.9686 89.2294C39.9716 89.1193 39.9952 89.011 40.0379 88.911C40.0806 88.811 40.1416 88.7214 40.2172 88.6476C40.2927 88.5738 40.3814 88.5173 40.4777 88.4815C40.574 88.4457 40.676 88.4314 40.7775 88.4394C40.8791 88.4474 40.9781 88.4776 41.0686 88.5281C41.1591 88.5786 41.2392 88.6484 41.3041 88.7333C41.369 88.8182 41.4173 88.9164 41.4462 89.022L42.5178 92.3932C42.5522 92.4948 42.5674 92.6028 42.5626 92.7109C42.5577 92.8189 42.5329 92.9249 42.4895 93.0224C42.4462 93.1199 42.3852 93.207 42.3102 93.2786C42.2352 93.3502 42.1477 93.4048 42.0528 93.4391H42.0621Z" fill="white"/>
<path opacity="0.1" d="M30.9491 99.4388C34.6424 97.301 36.0344 92.3292 34.0582 88.3338C32.082 84.3385 27.486 82.8326 23.7927 84.9704C20.0993 87.1082 18.7073 92.0801 20.6835 96.0755C22.6597 100.071 27.2558 101.577 30.9491 99.4388Z" fill="black"/>
<path d="M19.3196 113.684C23.2167 112.023 25.1308 107.258 23.5949 103.043C22.059 98.8269 17.6548 96.7563 13.7577 98.4178C9.86067 100.079 7.94655 104.844 9.48243 109.059C11.0183 113.275 15.4226 115.346 19.3196 113.684Z" fill="#002C8A"/>
<path opacity="0.5" d="M20.2751 113.178C18.9697 113.978 17.4741 114.342 15.9776 114.223C14.4811 114.103 13.0509 113.507 11.8681 112.508C10.6852 111.509 9.80284 110.153 9.33259 108.611C8.86234 107.07 8.82534 105.412 9.22629 103.848C9.62724 102.284 10.4481 100.883 11.585 99.8238C12.722 98.7644 14.1238 98.0936 15.6133 97.8964C17.1027 97.6991 18.6128 97.9842 19.9524 98.7156C21.292 99.447 22.4009 100.592 23.1389 102.005C23.6319 102.941 23.949 103.974 24.0719 105.043C24.1947 106.113 24.121 107.198 23.8548 108.236C23.5887 109.274 23.1354 110.245 22.5211 111.094C21.9067 111.942 21.1434 112.65 20.2751 113.178V113.178Z" fill="white"/>
<path opacity="0.3" d="M13.3478 99.9642C12.2364 100.647 11.3372 101.672 10.7636 102.907C10.19 104.143 9.96789 105.535 10.1252 106.907C10.2826 108.28 10.8124 109.571 11.6476 110.617C12.4829 111.664 13.5863 112.42 14.8182 112.788C16.0502 113.157 17.3556 113.123 18.5695 112.689C19.7833 112.256 20.8512 111.443 21.6383 110.353C22.4253 109.264 22.8962 107.946 22.9914 106.567C23.0866 105.188 22.8019 103.81 22.1733 102.606C21.7549 101.805 21.1946 101.101 20.5243 100.534C19.854 99.9675 19.087 99.5495 18.2672 99.3041C17.4474 99.0587 16.5909 98.9907 15.7467 99.104C14.9026 99.2173 14.0874 99.5096 13.3478 99.9642V99.9642ZM18.6628 109.098L19.2017 110.128L18.5057 110.554L17.973 109.525C17.1108 109.978 16.15 110.191 15.4941 110.034L15.3894 108.875C16.0924 108.976 16.8074 108.86 17.4526 108.542L16.4918 106.707C15.4202 107.04 14.2377 107.323 13.5695 106.04C13.0768 105.104 13.277 103.902 14.5303 102.952L13.9883 101.916L14.6842 101.49L15.217 102.509C15.84 102.163 16.5338 101.992 17.234 102.013L17.3695 103.152C16.8091 103.141 16.2526 103.254 15.7343 103.485L16.7074 105.341C17.779 105.008 18.9738 104.704 19.642 105.98C20.1316 106.936 19.9192 108.136 18.6628 109.098Z" fill="white"/>
<path d="M26.8704 98.5768C31.0388 98.1307 34.0837 94.1136 33.6713 89.6042C33.2589 85.0949 29.5454 81.8011 25.377 82.2472C21.2086 82.6933 18.1637 86.7105 18.5761 91.2198C18.9885 95.7291 22.702 99.023 26.8704 98.5768Z" fill="#002C8A"/>
<path opacity="0.5" d="M26.8704 98.5768C31.0388 98.1307 34.0837 94.1136 33.6713 89.6042C33.2589 85.0949 29.5454 81.8011 25.377 82.2472C21.2086 82.6933 18.1637 86.7105 18.5761 91.2198C18.9885 95.7291 22.702 99.023 26.8704 98.5768Z" fill="white"/>
<path opacity="0.3" d="M26.5967 91.1831V93.0519C27.308 92.9353 27.6098 92.5755 27.6098 92.1225C27.6098 91.6061 27.1818 91.363 26.5967 91.1831Z" fill="white"/>
<path opacity="0.3" d="M24.8133 88.7604C24.8133 89.2667 25.2351 89.4966 25.7987 89.6764V87.7977C25.1058 87.9143 24.8133 88.294 24.8133 88.7604Z" fill="white"/>
<path opacity="0.3" d="M26.1337 83.41C24.8548 83.41 23.6045 83.8203 22.5411 84.589C21.4776 85.3577 20.6488 86.4502 20.1593 87.7285C19.6699 89.0067 19.5418 90.4133 19.7913 91.7703C20.0408 93.1272 20.6567 94.3737 21.5611 95.3521C22.4655 96.3304 23.6177 96.9966 24.8722 97.2666C26.1266 97.5365 27.4268 97.398 28.6084 96.8685C29.7901 96.339 30.8 95.4424 31.5106 94.292C32.2211 93.1416 32.6004 91.7891 32.6004 90.4055C32.6004 88.5502 31.9191 86.7709 30.7064 85.459C29.4936 84.1471 27.8488 83.41 26.1337 83.41ZM26.5956 94.1897V95.3723H25.795V94.2031C24.8404 94.1398 23.9135 93.8033 23.4054 93.3269L23.8458 92.261C24.4119 92.7234 25.088 93.0018 25.795 93.0638V90.9552C24.7142 90.6687 23.5532 90.2889 23.5532 88.8232C23.5532 87.7472 24.2738 86.8245 25.795 86.6479V85.4554H26.5956V86.628C27.2949 86.66 27.9756 86.8811 28.5757 87.2709L28.1754 88.3368C27.691 88.0305 27.153 87.8365 26.5956 87.7672V89.8992C27.6796 90.1823 28.859 90.5654 28.859 92.0178C28.859 93.0904 28.1261 94.0198 26.5956 94.2031V94.1897Z" fill="white"/>
<path d="M25.2195 32.7984V122.915C25.0668 122.914 24.9157 122.88 24.775 122.813C24.6342 122.746 24.5066 122.648 24.3993 122.525C24.292 122.402 24.2073 122.257 24.1499 122.097C24.0924 121.937 24.0635 121.766 24.0647 121.594V34.1097C24.0647 33.7631 24.1862 33.4306 24.4026 33.1849C24.619 32.9392 24.9127 32.8002 25.2195 32.7984V32.7984Z" fill="#263238"/>
<path d="M24.8319 31.1017H24.0343C23.8081 31.1017 23.6247 31.3089 23.6247 31.5644V36.1593C23.6247 36.4148 23.8081 36.6219 24.0343 36.6219H24.8319C25.058 36.6219 25.2414 36.4148 25.2414 36.1593V31.5644C25.2414 31.3089 25.058 31.1017 24.8319 31.1017Z" fill="#263238"/>
<g opacity="0.4">
<path d="M25.2433 31.5743V36.1692C25.2425 36.2913 25.199 36.4081 25.1222 36.4941C25.0455 36.5801 24.9418 36.6283 24.8337 36.6283H24.0331C23.925 36.6283 23.8213 36.5801 23.7446 36.4941C23.6679 36.4081 23.6243 36.2913 23.6235 36.1692V31.5743C23.6235 31.4513 23.6666 31.3333 23.7433 31.2459C23.82 31.1586 23.9242 31.1091 24.0331 31.1082H24.8337C24.9426 31.1091 25.0468 31.1586 25.1235 31.2459C25.2002 31.3333 25.2433 31.4513 25.2433 31.5743Z" fill="white"/>
</g>
<g opacity="0.2">
<path d="M24.6551 31.5743V36.1692C24.6543 36.2913 24.6108 36.4081 24.5341 36.4941C24.4574 36.5801 24.3537 36.6283 24.2456 36.6283H24.0331C23.925 36.6283 23.8213 36.5801 23.7446 36.4941C23.6679 36.4081 23.6243 36.2913 23.6235 36.1692V31.5743C23.6235 31.4513 23.6666 31.3333 23.7433 31.2459C23.82 31.1586 23.9242 31.1091 24.0331 31.1082H24.2456C24.3545 31.1091 24.4586 31.1586 24.5354 31.2459C24.6121 31.3333 24.6551 31.4513 24.6551 31.5743Z" fill="white"/>
</g>
<path d="M24.019 35.9307H23.1444C22.9549 35.9312 22.7672 35.8894 22.592 35.8078C22.4168 35.7262 22.2576 35.6064 22.1234 35.4552C21.9893 35.304 21.8828 35.1244 21.8102 34.9266C21.7376 34.7289 21.7002 34.5169 21.7002 34.3029V33.3846C21.701 32.9525 21.8536 32.5385 22.1243 32.2333C22.3951 31.9281 22.762 31.7567 23.1444 31.7567H24.0344C24.0662 31.7567 24.0977 31.7638 24.127 31.7777C24.1564 31.7915 24.183 31.8118 24.2053 31.8374C24.2277 31.863 24.2453 31.8933 24.2572 31.9266C24.2691 31.9599 24.275 31.9956 24.2746 32.0315V32.4767C24.275 32.5127 24.2691 32.5483 24.2572 32.5816C24.2453 32.6149 24.2277 32.6453 24.2053 32.6708C24.183 32.6964 24.1564 32.7167 24.127 32.7305C24.0977 32.7444 24.0662 32.7515 24.0344 32.7515H23.1444C22.9955 32.7515 22.8527 32.8181 22.7471 32.9367C22.6415 33.0554 22.5817 33.2164 22.5809 33.3846V34.3133C22.5809 34.3967 22.5955 34.4793 22.6239 34.5564C22.6522 34.6334 22.6938 34.7033 22.7462 34.7622C22.7985 34.821 22.8607 34.8676 22.929 34.8992C22.9974 34.9308 23.0706 34.9468 23.1444 34.9464H24.0344C24.0984 34.9473 24.1595 34.9766 24.2044 35.0281C24.2494 35.0795 24.2746 35.1489 24.2746 35.2212V35.6699C24.2734 35.7061 24.2658 35.7417 24.2522 35.7746C24.2387 35.8075 24.2194 35.837 24.1956 35.8613C24.1718 35.8856 24.1438 35.9043 24.1135 35.9162C24.0832 35.9281 24.051 35.9331 24.019 35.9307Z" fill="#263238"/>
<g opacity="0.6">
<path d="M24.0171 35.928H23.1425C22.953 35.9284 22.7653 35.8867 22.5901 35.8051C22.4149 35.7235 22.2557 35.6036 22.1215 35.4524C21.9874 35.3012 21.8809 35.1216 21.8083 34.9239C21.7357 34.7261 21.6983 34.5142 21.6983 34.3001V33.3818C21.6991 32.9498 21.8517 32.5357 22.1224 32.2305C22.3932 31.9253 22.76 31.754 23.1425 31.754H24.0325C24.0643 31.7539 24.0958 31.7611 24.1251 31.7749C24.1545 31.7888 24.1811 31.8091 24.2034 31.8346C24.2258 31.8602 24.2434 31.8905 24.2553 31.9238C24.2672 31.9572 24.2731 31.9928 24.2727 32.0287V32.474C24.2731 32.5099 24.2672 32.5455 24.2553 32.5789C24.2434 32.6122 24.2258 32.6425 24.2034 32.6681C24.1811 32.6936 24.1545 32.7139 24.1251 32.7278C24.0958 32.7416 24.0643 32.7488 24.0325 32.7488H23.1425C22.9936 32.7488 22.8507 32.8153 22.7452 32.934C22.6396 33.0526 22.5798 33.2136 22.579 33.3818V34.3105C22.579 34.394 22.5936 34.4766 22.622 34.5536C22.6503 34.6306 22.6919 34.7006 22.7443 34.7594C22.7966 34.8182 22.8588 34.8648 22.9271 34.8964C22.9955 34.928 23.0687 34.9441 23.1425 34.9436H24.0325C24.0965 34.9445 24.1575 34.9739 24.2025 35.0253C24.2475 35.0767 24.2727 35.1461 24.2727 35.2184V35.6671C24.2715 35.7033 24.2639 35.739 24.2503 35.7719C24.2368 35.8047 24.2175 35.8342 24.1937 35.8585C24.1698 35.8829 24.1419 35.9015 24.1116 35.9135C24.0813 35.9254 24.0491 35.9303 24.0171 35.928Z" fill="white"/>
</g>
<path d="M22.6048 98.8258L24.437 99.5667V100.993L22.6048 101.4V98.8258Z" fill="#263238"/>
<path d="M22.6048 94.8091L24.437 95.5535V96.9761L22.6048 97.3866V94.8091Z" fill="#263238"/>
<path d="M22.6048 90.6898L24.437 91.4307V92.8533L22.6048 93.2638V90.6898Z" fill="#263238"/>
<path d="M22.6048 86.6731L24.437 87.414V88.8401L22.6048 89.247V86.6731Z" fill="#263238"/>
<path d="M22.6048 82.6327L24.437 83.377V84.7997L22.6048 85.2101V82.6327Z" fill="#263238"/>
<path d="M22.6048 78.6159L24.437 79.3568V80.783L22.6048 81.1899V78.6159Z" fill="#263238"/>
<path d="M22.6048 74.5913L24.437 75.3357V76.7583L22.6048 77.1653V74.5913Z" fill="#263238"/>
<path d="M22.6048 70.5509L24.437 71.2953V72.7179L22.6048 73.1284V70.5509Z" fill="#263238"/>
<path d="M22.6048 66.4631L24.437 67.204V68.6301L22.6048 69.0371V66.4631Z" fill="#263238"/>
<path d="M22.6048 62.4306L24.437 63.175V64.5976L22.6048 65.0081V62.4306Z" fill="#263238"/>
<path d="M22.6048 58.3981L24.437 59.139V60.5617L22.6048 60.9721V58.3981Z" fill="#263238"/>
<path d="M22.6048 54.3735L24.437 55.1179V56.5405L22.6048 56.9475V54.3735Z" fill="#263238"/>
<path d="M22.6048 50.3568L24.437 51.1011V52.5238L22.6048 52.9342V50.3568Z" fill="#263238"/>
<path d="M22.6048 46.3164L24.437 47.0573V48.4834L22.6048 48.8904V46.3164Z" fill="#263238"/>
<path d="M22.6048 42.2207L24.437 42.9651V44.3877L22.6048 44.7947V42.2207Z" fill="#263238"/>
<path d="M22.6048 38.1961L24.437 38.937V40.3596L22.6048 40.7701V38.1961Z" fill="#263238"/>
<path d="M22.939 23.9995H20.6911C20.531 23.9995 20.4324 24.2186 20.4786 24.4725L22.1014 33.7493C22.1415 33.9823 22.2893 34.1632 22.434 34.1632H23.9213C24.0661 34.1632 24.1646 33.9823 24.1431 33.7493L23.2778 24.4725C23.2531 24.2186 23.0992 23.9995 22.939 23.9995ZM23.0437 32.6744C23.0565 32.7675 23.0459 32.8627 23.0129 32.9492C22.9619 32.867 22.9272 32.7733 22.9113 32.6744L22.8189 31.9788C22.806 31.8846 22.8167 31.7882 22.8497 31.7005C22.9012 31.7838 22.9359 31.8788 22.9513 31.9788L23.0437 32.6744ZM21.929 24.8551C22.086 24.8551 22.2369 25.0569 22.2708 25.3038L22.3632 25.9821C22.3971 26.2291 22.2954 26.4308 22.1415 26.4308C21.9844 26.4308 21.8335 26.2291 21.7997 25.9821L21.7073 25.3038C21.6734 25.0569 21.775 24.8551 21.929 24.8551Z" fill="#263238"/>
<path opacity="0.4" d="M22.939 23.9995H20.6911C20.531 23.9995 20.4324 24.2186 20.4786 24.4725L22.1014 33.7493C22.1415 33.9823 22.2893 34.1632 22.434 34.1632H23.9213C24.0661 34.1632 24.1646 33.9823 24.1431 33.7493L23.2778 24.4725C23.2531 24.2186 23.0992 23.9995 22.939 23.9995ZM23.0437 32.6744C23.0565 32.7675 23.0459 32.8627 23.0129 32.9492C22.9619 32.867 22.9272 32.7733 22.9113 32.6744L22.8189 31.9788C22.806 31.8846 22.8167 31.7882 22.8497 31.7005C22.9012 31.7838 22.9359 31.8788 22.9513 31.9788L23.0437 32.6744ZM21.929 24.8551C22.086 24.8551 22.2369 25.0569 22.2708 25.3038L22.3632 25.9821C22.3971 26.2291 22.2954 26.4308 22.1415 26.4308C21.9844 26.4308 21.8335 26.2291 21.7997 25.9821L21.7073 25.3038C21.6734 25.0569 21.775 24.8551 21.929 24.8551Z" fill="white"/>
<path opacity="0.2" d="M22.1014 33.7493C22.1415 33.9823 22.2893 34.1632 22.434 34.1632H23.4964C23.6442 34.1632 23.7397 33.9823 23.7181 33.7493L22.8528 24.4725C22.8312 24.2186 22.6742 23.9995 22.5141 23.9995H20.6911C20.531 23.9995 20.4324 24.2186 20.4786 24.4725L22.1014 33.7493ZM23.0437 32.6744C23.0745 32.9179 22.9791 33.1162 22.8251 33.1162C22.6711 33.1162 22.5172 32.9179 22.4894 32.6744L22.3971 31.9788C22.3632 31.7318 22.4617 31.5335 22.6126 31.5335C22.7635 31.5335 22.9205 31.7318 22.9513 31.9788L23.0437 32.6744ZM21.504 24.8551H21.929C22.086 24.8551 22.2369 25.0569 22.2708 25.3038L22.3632 25.9821C22.3971 26.2291 22.2954 26.4308 22.1415 26.4308H21.7165C21.5595 26.4308 21.4086 26.2291 21.3747 25.9821L21.2823 25.3038C21.2485 25.0569 21.3501 24.8551 21.504 24.8551Z" fill="white"/>
<path d="M24.0167 34.9311H23.1421C23.0683 34.9316 22.9951 34.9155 22.9267 34.8839C22.8584 34.8523 22.7962 34.8057 22.7438 34.7469C22.6915 34.6881 22.6499 34.6181 22.6216 34.5411C22.5932 34.4641 22.5786 34.3815 22.5786 34.298V33.3798C22.579 33.2413 22.6195 33.1068 22.6941 32.9968C22.7686 32.8869 22.873 32.8076 22.9912 32.771V32.4649L22.945 32.3397C22.945 32.3397 22.945 32.3397 22.945 32.3223V32.3049C22.945 32.2736 22.8958 31.898 22.8958 31.8667C22.8943 31.8458 22.8943 31.8249 22.8958 31.8041C22.5645 31.8693 22.2641 32.0638 22.0468 32.3537C21.8296 32.6435 21.7094 33.0104 21.7071 33.3902V34.3085C21.7071 34.5225 21.7445 34.7345 21.8171 34.9322C21.8898 35.13 21.9962 35.3096 22.1303 35.4608C22.2645 35.612 22.4237 35.7318 22.5989 35.8134C22.7741 35.895 22.9618 35.9368 23.1514 35.9363H24.0413C24.105 35.9363 24.1661 35.9078 24.2111 35.8569C24.2562 35.806 24.2815 35.737 24.2815 35.665V35.2163C24.2829 35.1772 24.277 35.1382 24.264 35.1019C24.2511 35.0657 24.2314 35.0329 24.2063 35.0059C24.1812 34.9789 24.1513 34.9583 24.1186 34.9454C24.0859 34.9325 24.0512 34.9276 24.0167 34.9311V34.9311Z" fill="#263238"/>
<g opacity="0.6">
<path d="M24.0168 34.9129H23.1423C23.0684 34.9133 22.9952 34.8973 22.9268 34.8657C22.8585 34.8341 22.7963 34.7875 22.744 34.7287C22.6916 34.6698 22.65 34.5999 22.6217 34.5229C22.5933 34.4458 22.5787 34.3632 22.5787 34.2798V33.3615C22.5791 33.223 22.6197 33.0885 22.6942 32.9786C22.7687 32.8686 22.8731 32.7893 22.9914 32.7528V32.4467L22.9452 32.3215C22.9452 32.3215 22.9452 32.3215 22.9452 32.3041V32.2867C22.9452 32.2554 22.8959 31.8797 22.8959 31.8484C22.8944 31.8276 22.8944 31.8067 22.8959 31.7858C22.5647 31.851 22.2642 32.0455 22.047 32.3354C21.8297 32.6253 21.7095 32.9922 21.7073 33.372V34.2902C21.7073 34.5043 21.7447 34.7163 21.8173 34.914C21.8899 35.1117 21.9963 35.2913 22.1305 35.4425C22.2646 35.5938 22.4239 35.7136 22.5991 35.7952C22.7743 35.8768 22.962 35.9186 23.1515 35.9181H24.0414C24.1051 35.9181 24.1662 35.8895 24.2113 35.8386C24.2563 35.7878 24.2816 35.7187 24.2816 35.6468V35.1981C24.2831 35.159 24.2771 35.12 24.2642 35.0837C24.2512 35.0474 24.2315 35.0147 24.2064 34.9877C24.1814 34.9607 24.1515 34.94 24.1188 34.9271C24.0861 34.9142 24.0513 34.9094 24.0168 34.9129V34.9129Z" fill="white"/>
</g>
<path d="M71.2245 28.6238H27.8916C26.2624 28.6238 24.9416 30.1157 24.9416 31.9561V125.315C24.9416 127.155 26.2624 128.647 27.8916 128.647H71.2245C72.8537 128.647 74.1745 127.155 74.1745 125.315V31.9561C74.1745 30.1157 72.8537 28.6238 71.2245 28.6238Z" fill="#263238"/>
<path opacity="0.3" d="M71.2245 28.6238H27.8916C26.2624 28.6238 24.9416 30.1157 24.9416 31.9561V125.315C24.9416 127.155 26.2624 128.647 27.8916 128.647H71.2245C72.8537 128.647 74.1745 127.155 74.1745 125.315V31.9561C74.1745 30.1157 72.8537 28.6238 71.2245 28.6238Z" fill="white"/>
<path d="M72.5129 31.9928V125.136C72.5125 125.317 72.4802 125.497 72.4179 125.664C72.3555 125.831 72.2644 125.982 72.1497 126.109C72.0351 126.236 71.8993 126.336 71.7502 126.403C71.601 126.47 71.4416 126.503 71.2811 126.5H27.6989C27.5536 126.502 27.4093 126.471 27.2747 126.409C27.1402 126.347 27.0181 126.255 26.9157 126.138C26.8134 126.022 26.7329 125.883 26.6791 125.731C26.6253 125.578 26.5993 125.415 26.6027 125.251V31.8989C26.5918 31.609 26.6828 31.3261 26.8558 31.1117C27.0289 30.8973 27.2699 30.7689 27.5265 30.7545H38.4243C38.5776 30.7574 38.7265 30.812 38.8522 30.9111C38.9778 31.0103 39.0744 31.1495 39.1295 31.311L39.5791 32.5632C39.6343 32.7225 39.7302 32.8596 39.8548 32.9569C39.9793 33.0542 40.1267 33.1072 40.2781 33.1093H58.8621C59.0133 33.1085 59.1608 33.0567 59.2859 32.9607C59.411 32.8647 59.5078 32.7287 59.5642 32.5702L60.0137 31.311C60.069 31.1503 60.1652 31.0117 60.2902 30.9127C60.4151 30.8136 60.5632 30.7586 60.7158 30.7545H71.4597C71.7424 30.7688 72.0094 30.9053 72.2055 31.1358C72.4015 31.3663 72.5116 31.6732 72.5129 31.9928V31.9928Z" fill="#263238"/>
<path opacity="0.6" d="M49.5467 30.8346C49.5467 30.9722 49.5106 31.1067 49.443 31.2211C49.3753 31.3355 49.2791 31.4247 49.1666 31.4774C49.054 31.53 48.9302 31.5438 48.8107 31.5169C48.6913 31.4901 48.5815 31.4239 48.4954 31.3266C48.4093 31.2293 48.3506 31.1053 48.3268 30.9704C48.3031 30.8354 48.3153 30.6955 48.3619 30.5684C48.4085 30.4413 48.4874 30.3327 48.5887 30.2562C48.69 30.1798 48.8091 30.139 48.9309 30.139C49.093 30.1434 49.2474 30.2181 49.362 30.3476C49.4767 30.4771 49.5428 30.6515 49.5467 30.8346V30.8346Z" fill="white"/>
<path opacity="0.6" d="M50.8273 30.8314C50.8273 30.9215 50.8037 31.0096 50.7593 31.0845C50.715 31.1595 50.652 31.2179 50.5783 31.2524C50.5046 31.2869 50.4235 31.2959 50.3452 31.2783C50.267 31.2607 50.1951 31.2173 50.1387 31.1536C50.0823 31.0899 50.0439 31.0087 50.0283 30.9203C50.0127 30.8319 50.0207 30.7403 50.0512 30.657C50.0818 30.5738 50.1335 30.5026 50.1998 30.4525C50.2662 30.4025 50.3441 30.3757 50.4239 30.3757C50.477 30.3753 50.5297 30.3867 50.5788 30.4095C50.6279 30.4322 50.6726 30.4658 50.7101 30.5082C50.7476 30.5506 50.7773 30.601 50.7975 30.6565C50.8176 30.712 50.8277 30.7714 50.8273 30.8314Z" fill="white"/>
<path d="M71.8518 36.6494H27.2656V122.102H71.8518V36.6494Z" fill="#002C8A"/>
<path opacity="0.6" d="M71.8518 36.6494H27.2656V122.102H71.8518V36.6494Z" fill="white"/>
<path d="M69.4255 87.9909H29.6863C29.0162 87.9909 28.473 88.6045 28.473 89.3614V99.8591C28.473 100.616 29.0162 101.23 29.6863 101.23H69.4255C70.0956 101.23 70.6388 100.616 70.6388 99.8591V89.3614C70.6388 88.6045 70.0956 87.9909 69.4255 87.9909Z" fill="white"/>
<path d="M69.4255 49.9859H29.6863C29.0162 49.9859 28.473 50.5995 28.473 51.3563V85.1728C28.473 85.9297 29.0162 86.5433 29.6863 86.5433H69.4255C70.0956 86.5433 70.6388 85.9297 70.6388 85.1728V51.3563C70.6388 50.5995 70.0956 49.9859 69.4255 49.9859Z" fill="white"/>
<path d="M69.4255 38.2829H29.6863C29.0162 38.2829 28.473 38.8965 28.473 39.6534V47.3127C28.473 48.0696 29.0162 48.6832 29.6863 48.6832H69.4255C70.0956 48.6832 70.6388 48.0696 70.6388 47.3127V39.6534C70.6388 38.8965 70.0956 38.2829 69.4255 38.2829Z" fill="#002C8A"/>
<g opacity="0.5">
<path d="M49.8702 94.3814L50.2705 94.6318L50.135 94.8997L49.7255 94.6318V95.1431H49.4576V94.6353L49.0542 94.8997L48.9125 94.6318L49.3159 94.3814L48.9125 94.1275L49.0542 93.8562L49.4576 94.124V93.6161H49.7255V94.1309L50.135 93.8596L50.2705 94.1309L49.8702 94.3814Z" fill="black"/>
<path d="M51.409 94.3814L51.8094 94.6318L51.6708 94.8997L51.2643 94.6318V95.1431H50.9964V94.6353L50.5899 94.8997L50.4514 94.6318L50.8548 94.3814L50.4514 94.1275L50.5899 93.8562L50.9964 94.124V93.6161H51.2643V94.1309L51.6708 93.8596L51.8094 94.1309L51.409 94.3814Z" fill="black"/>
<path d="M52.9362 94.3858L53.3396 94.6363L53.201 94.9041L52.7914 94.6363V95.1476H52.5235V94.6397L52.1171 94.9041L51.9754 94.6363L52.3819 94.3858L51.9846 94.1354L52.1263 93.8641L52.5328 94.1319V93.6241H52.8007V94.1354L53.2102 93.8641L53.3488 94.1354L52.9362 94.3858Z" fill="black"/>
<path d="M54.4739 94.3814L54.8742 94.6318L54.7387 94.8997L54.3292 94.6318V95.1431H54.0612V94.6353L53.6579 94.8997L53.5162 94.6318L53.9196 94.3814L53.5162 94.1275L53.6579 93.8562L54.0612 94.124V93.6161H54.3292V94.1309L54.7387 93.8596L54.8742 94.1309L54.4739 94.3814Z" fill="black"/>
<path d="M56.9125 94.3858L57.3158 94.6363L57.1773 94.9041L56.7677 94.6363V95.1476H56.4998V94.6397L56.0933 94.9041L55.9517 94.6363L56.3582 94.3858L55.9609 94.1354L56.1026 93.8641L56.5091 94.1319V93.6241H56.777V94.1354L57.1865 93.8641L57.3251 94.1354L56.9125 94.3858Z" fill="black"/>
<path d="M58.4501 94.3814L58.8505 94.6318L58.715 94.8997L58.3054 94.6318V95.1431H58.0375V94.6353L57.6341 94.8997L57.4925 94.6318L57.8959 94.3814L57.4925 94.1275L57.6341 93.8562L58.0375 94.124V93.6161H58.3054V94.1309L58.715 93.8596L58.8505 94.1309L58.4501 94.3814Z" fill="black"/>
<path d="M59.9871 94.3814L60.3905 94.6318L60.2519 94.8997L59.8424 94.6318V95.1431H59.5745V94.6353L59.168 94.8997L59.0264 94.6318L59.4328 94.3814L59.0264 94.1275L59.168 93.8562L59.5745 94.124V93.6161H59.8424V94.1275L60.2519 93.8562L60.3905 94.1275L59.9871 94.3814Z" fill="black"/>
<path d="M61.5169 94.3814L61.9203 94.6318L61.7818 94.8997L61.3722 94.6318V95.1431H61.1043V94.6353L60.7009 94.8997L60.5593 94.6318L60.9657 94.3814L60.5593 94.1275L60.7009 93.8562L61.1043 94.124V93.6161H61.3722V94.1309L61.7818 93.8596L61.9203 94.1309L61.5169 94.3814Z" fill="black"/>
<path d="M63.9534 94.3814L64.3568 94.6318L64.2183 94.8997L63.8118 94.6318V95.1431H63.5439V94.6353L63.1374 94.8997L62.9958 94.6318L63.4022 94.3814L62.9958 94.1275L63.1374 93.8562L63.5439 94.124V93.6161H63.8118V94.1309L64.2183 93.8596L64.3568 94.1309L63.9534 94.3814Z" fill="black"/>
<path d="M65.4923 94.3814L65.8957 94.6318L65.7571 94.8997L65.3475 94.6318V95.1431H65.0796V94.6353L64.6762 94.8997L64.5346 94.6318L64.9411 94.3814L64.5346 94.1275L64.6762 93.8562L65.0796 94.124V93.6161H65.3475V94.1309L65.7571 93.8596L65.8957 94.1309L65.4923 94.3814Z" fill="black"/>
<path d="M67.0311 94.3814L67.4314 94.6318L67.2959 94.8997L66.8864 94.6318V95.1431H66.6184V94.6353L66.2151 94.8997L66.0734 94.6318L66.4768 94.3814L66.0734 94.1275L66.2151 93.8562L66.6184 94.124V93.6161H66.8864V94.1309L67.2959 93.8596L67.4314 94.1309L67.0311 94.3814Z" fill="black"/>
</g>
<path d="M38.4046 91.6131H32.4214C31.9792 91.6131 31.6207 92.018 31.6207 92.5175V96.3854C31.6207 96.8849 31.9792 97.2898 32.4214 97.2898H38.4046C38.8467 97.2898 39.2052 96.8849 39.2052 96.3854V92.5175C39.2052 92.018 38.8467 91.6131 38.4046 91.6131Z" fill="#002C8A"/>
<g opacity="0.5">
<path d="M39.2059 94.6844H31.6214V96.1H39.2059V94.6844Z" fill="black"/>
</g>
<g opacity="0.5">
<path d="M38.6 93.6498C38.6006 93.7346 38.5789 93.8176 38.5377 93.8885C38.4964 93.9593 38.4375 94.0146 38.3683 94.0476C38.2992 94.0805 38.2229 94.0894 38.1492 94.0733C38.0756 94.0572 38.0078 94.0167 37.9545 93.9571C37.9012 93.8974 37.8649 93.8211 37.85 93.7381C37.8351 93.655 37.8424 93.5688 37.871 93.4904C37.8996 93.412 37.9481 93.345 38.0105 93.2978C38.0728 93.2506 38.1462 93.2255 38.2212 93.2255C38.3212 93.2255 38.417 93.2701 38.488 93.3495C38.5589 93.429 38.5992 93.537 38.6 93.6498V93.6498Z" fill="black"/>
</g>
<path d="M38.1074 93.6552C38.108 93.74 38.0863 93.823 38.0451 93.8938C38.0038 93.9646 37.9449 94.02 37.8757 94.0529C37.8066 94.0858 37.7303 94.0948 37.6566 94.0787C37.583 94.0626 37.5152 94.0221 37.4619 93.9624C37.4086 93.9027 37.3723 93.8265 37.3574 93.7434C37.3425 93.6603 37.3498 93.5741 37.3784 93.4958C37.407 93.4174 37.4555 93.3504 37.5179 93.3032C37.5802 93.256 37.6536 93.2308 37.7286 93.2308C37.8286 93.2308 37.9244 93.2754 37.9954 93.3549C38.0663 93.4344 38.1066 93.5423 38.1074 93.6552V93.6552Z" fill="white"/>
<path d="M35.2282 41.8972L34.3968 44.6799H34.1227L33.3991 42.3146L32.6877 44.6833H32.4137L31.5822 41.9006H31.8501L32.5615 44.2938L33.3005 41.9006H33.5438L34.2675 44.3077L34.9911 41.9006L35.2282 41.8972Z" fill="black"/>
<path d="M34.502 44.8559H34.0185L33.3996 42.8246L32.7775 44.8559H32.2972L31.3672 41.7393H31.9461L32.5528 43.7881L33.184 41.7393H33.6367L34.2556 43.7985L34.8746 41.7393H35.435L34.502 44.8559Z" fill="white"/>
<path d="M36.9004 43.4029V44.7004H36.6633V44.3734C36.5938 44.4908 36.4978 44.585 36.3851 44.6461C36.2725 44.7073 36.1474 44.7332 36.0228 44.7212C35.604 44.7212 35.3484 44.4743 35.3484 44.1125C35.3484 43.7508 35.5301 43.5212 36.0628 43.5212H36.651V43.3751C36.651 43.0273 36.4724 42.8221 36.1275 42.8221C35.903 42.8209 35.6852 42.9082 35.5116 43.069L35.4008 42.8568C35.616 42.6674 35.8825 42.5679 36.1552 42.5751C36.2553 42.5593 36.3572 42.5697 36.4531 42.6055C36.549 42.6413 36.6364 42.7016 36.7084 42.7816C36.7804 42.8616 36.8352 42.9593 36.8685 43.067C36.9018 43.1747 36.9127 43.2897 36.9004 43.4029V43.4029ZM36.651 44.0708V43.723H36.069C35.7118 43.723 35.5948 43.883 35.5948 44.0986C35.5948 44.3143 35.7672 44.4917 36.0628 44.4917C36.1877 44.5008 36.3119 44.465 36.4176 44.3894C36.5233 44.3138 36.605 44.2022 36.651 44.0708V44.0708Z" fill="black"/>
<path d="M36.0276 44.895C35.5349 44.895 35.2054 44.582 35.2054 44.1193C35.2054 43.8932 35.2885 43.361 36.0676 43.361H36.508C36.508 43.1906 36.4433 43.0132 36.1323 43.0132C35.9428 43.0102 35.7585 43.0829 35.6119 43.2184L35.4795 43.3506L35.2116 42.8463L35.307 42.7558C35.5484 42.5396 35.8489 42.4252 36.1569 42.4323C36.2756 42.4163 36.396 42.4304 36.5093 42.4735C36.6225 42.5167 36.7259 42.5878 36.8117 42.6818C36.8976 42.7758 36.9638 42.8902 37.0055 43.0167C37.0473 43.1433 37.0635 43.2787 37.053 43.4132V44.8741H36.5203V44.7767C36.3674 44.862 36.198 44.9026 36.0276 44.895V44.895ZM36.0738 43.9037C35.7443 43.9037 35.7443 44.0393 35.7443 44.1124C35.7443 44.3106 35.9475 44.3419 36.0522 44.3419C36.1435 44.3487 36.2344 44.324 36.313 44.2712C36.3916 44.2185 36.4542 44.14 36.4926 44.0463V43.9037H36.0738Z" fill="white"/>
<path d="M37.5817 41.7393H37.8311V44.6959H37.5817V41.7393Z" fill="black"/>
<path d="M37.9837 41.5184H37.4387V44.8019H37.9837V41.5184Z" fill="white"/>
<path d="M38.5356 41.7393H38.7881V44.6959H38.5356V41.7393Z" fill="black"/>
<path d="M38.9258 41.5184H38.3807V44.8019H38.9258V41.5184Z" fill="white"/>
<path d="M41.0946 43.7357H39.5549C39.56 43.8378 39.583 43.9377 39.6226 44.0297C39.6621 44.1217 39.7174 44.2039 39.7853 44.2715C39.8532 44.3391 39.9323 44.3909 40.0181 44.4237C40.1038 44.4565 40.1944 44.4698 40.2848 44.4627C40.3913 44.4666 40.4972 44.444 40.5951 44.3965C40.6931 44.3491 40.7805 44.2778 40.8514 44.1879L40.993 44.3723C40.8596 44.5294 40.6883 44.6387 40.5004 44.6866C40.3124 44.7346 40.1161 44.719 39.9359 44.6419C39.7557 44.5648 39.5996 44.4295 39.487 44.2529C39.3743 44.0763 39.3102 43.8662 39.3024 43.6488C39.2955 43.5087 39.3145 43.3686 39.3582 43.2373C39.402 43.106 39.4694 42.9864 39.5564 42.8863C39.6433 42.7861 39.7478 42.7075 39.8631 42.6555C39.9785 42.6036 40.1021 42.5793 40.2262 42.5844C40.3484 42.5822 40.4697 42.6086 40.5824 42.662C40.6951 42.7154 40.7967 42.7946 40.8809 42.8946C40.9651 42.9946 41.0301 43.1133 41.0716 43.2431C41.1132 43.3729 41.1304 43.511 41.1223 43.6488C41.0977 43.6731 41.0946 43.7183 41.0946 43.7357ZM39.5549 43.5235H40.8698C40.8584 43.3354 40.7842 43.1591 40.6622 43.0304C40.5401 42.9016 40.3794 42.83 40.2124 42.83C40.0454 42.83 39.8847 42.9016 39.7626 43.0304C39.6406 43.1591 39.5664 43.3354 39.5549 43.5235V43.5235Z" fill="black"/>
<path d="M40.2613 44.8918C40.1156 44.8985 39.9702 44.8714 39.8341 44.8122C39.6979 44.753 39.574 44.6629 39.4699 44.5476C39.3657 44.4322 39.2836 44.294 39.2285 44.1414C39.1735 43.9889 39.1466 43.8252 39.1497 43.6605C39.142 43.4995 39.1634 43.3385 39.2126 43.1872C39.2618 43.0359 39.3377 42.8976 39.4359 42.7805C39.534 42.6635 39.6522 42.5704 39.7833 42.5067C39.9143 42.443 40.0555 42.4101 40.1982 42.4101C40.3409 42.4101 40.4821 42.443 40.6132 42.5067C40.7442 42.5704 40.8624 42.6635 40.9605 42.7805C41.0587 42.8976 41.1347 43.0359 41.1839 43.1872C41.2331 43.3385 41.2545 43.4995 41.2467 43.6605V43.9109H39.7286C39.7697 44.0361 39.8456 44.1427 39.9451 44.2149C40.0445 44.287 40.162 44.3207 40.2798 44.3109C40.3653 44.3143 40.4505 44.2964 40.5292 44.2585C40.608 44.2206 40.6784 44.1637 40.7356 44.0918L40.8464 43.9492L41.179 44.3805L41.0989 44.4918C40.9945 44.6247 40.8651 44.7296 40.7202 44.7988C40.5753 44.868 40.4185 44.8998 40.2613 44.8918V44.8918ZM39.7224 43.3822H40.6894C40.6513 43.2757 40.585 43.185 40.4996 43.1228C40.4141 43.0605 40.3137 43.0296 40.2121 43.0344C40.1082 43.0255 40.0047 43.0546 39.9165 43.1172C39.8284 43.1798 39.7604 43.2727 39.7224 43.3822V43.3822Z" fill="white"/>
<path d="M42.5783 44.5347C42.4678 44.635 42.3289 44.6869 42.1873 44.6807C42.1143 44.6901 42.0405 44.6808 41.9712 44.6536C41.9019 44.6263 41.8389 44.5818 41.7869 44.5234C41.7348 44.4649 41.6951 44.394 41.6706 44.3159C41.6461 44.2378 41.6374 44.1544 41.6453 44.072V42.8059H41.3035V42.5694H41.6361V42.1102H41.8855V42.5694H42.449V42.8059H41.8855V44.0581C41.8816 44.1064 41.8867 44.155 41.9005 44.2009C41.9142 44.2467 41.9363 44.2889 41.9653 44.3246C41.9942 44.3603 42.0295 44.3887 42.0688 44.4081C42.1081 44.4275 42.1505 44.4375 42.1934 44.4373C42.2928 44.44 42.3899 44.4031 42.4675 44.3329L42.5783 44.5347Z" fill="black"/>
<path d="M42.1917 44.8691C42.0994 44.8781 42.0064 44.8642 41.9194 44.8284C41.8323 44.7926 41.7532 44.7359 41.6875 44.662C41.6219 44.5882 41.5712 44.4991 41.5392 44.4009C41.5071 44.3027 41.4944 44.1978 41.5019 44.0935V43.0117H41.1693V42.4413H41.5019V41.9682H42.0469V42.4273H42.6105V43.0117H42.0469V44.0969C42.0469 44.2743 42.1147 44.3126 42.2194 44.3126C42.2831 44.3155 42.3455 44.292 42.3949 44.2465L42.5396 44.1004L42.7644 44.6117L42.6813 44.6987C42.5408 44.8186 42.3675 44.8789 42.1917 44.8691Z" fill="white"/>
<path d="M67.6725 42.1511H64.6332C64.5871 42.1672 64.5383 42.1709 64.4907 42.1619C64.4432 42.1528 64.3981 42.1313 64.3593 42.0989C64.3204 42.0666 64.2888 42.0244 64.2671 41.9758C64.2453 41.9271 64.2339 41.8734 64.2339 41.8189C64.2339 41.7644 64.2453 41.7106 64.2671 41.662C64.2888 41.6133 64.3204 41.5711 64.3593 41.5388C64.3981 41.5065 64.4432 41.4849 64.4907 41.4759C64.5383 41.4668 64.5871 41.4705 64.6332 41.4867H67.6725C67.7186 41.4705 67.7674 41.4668 67.815 41.4759C67.8626 41.4849 67.9077 41.5065 67.9465 41.5388C67.9854 41.5711 68.0169 41.6133 68.0387 41.662C68.0605 41.7106 68.0718 41.7644 68.0718 41.8189C68.0718 41.8734 68.0605 41.9271 68.0387 41.9758C68.0169 42.0244 67.9854 42.0666 67.9465 42.0989C67.9077 42.1313 67.8626 42.1528 67.815 42.1619C67.7674 42.1709 67.7186 42.1672 67.6725 42.1511V42.1511Z" fill="white"/>
<path d="M67.6715 45.5189H64.6321C64.5859 45.5361 64.5367 45.5407 64.4886 45.5322C64.4405 45.5237 64.3949 45.5025 64.3554 45.4703C64.316 45.438 64.2839 45.3957 64.2617 45.3467C64.2396 45.2977 64.2281 45.2435 64.2281 45.1885C64.2281 45.1335 64.2396 45.0793 64.2617 45.0303C64.2839 44.9813 64.316 44.939 64.3554 44.9068C64.3949 44.8745 64.4405 44.8533 64.4886 44.8448C64.5367 44.8363 64.5859 44.8409 64.6321 44.8581H67.6715C67.7177 44.8409 67.7669 44.8363 67.815 44.8448C67.8631 44.8533 67.9088 44.8745 67.9482 44.9068C67.9876 44.939 68.0198 44.9813 68.0419 45.0303C68.064 45.0793 68.0756 45.1335 68.0756 45.1885C68.0756 45.2435 68.064 45.2977 68.0419 45.3467C68.0198 45.3957 67.9876 45.438 67.9482 45.4703C67.9088 45.5025 67.8631 45.5237 67.815 45.5322C67.7669 45.5407 67.7177 45.5361 67.6715 45.5189V45.5189Z" fill="white"/>
<path d="M67.6725 43.8793H64.6332C64.5871 43.8954 64.5383 43.8992 64.4907 43.8901C64.4432 43.881 64.3981 43.8595 64.3593 43.8272C64.3204 43.7948 64.2888 43.7526 64.2671 43.704C64.2453 43.6554 64.2339 43.6016 64.2339 43.5471C64.2339 43.4926 64.2453 43.4388 64.2671 43.3902C64.2888 43.3415 64.3204 43.2994 64.3593 43.267C64.3981 43.2347 64.4432 43.2131 64.4907 43.2041C64.5383 43.195 64.5871 43.1987 64.6332 43.2149H67.6725C67.7186 43.1987 67.7674 43.195 67.815 43.2041C67.8626 43.2131 67.9077 43.2347 67.9465 43.267C67.9854 43.2994 68.0169 43.3415 68.0387 43.3902C68.0605 43.4388 68.0718 43.4926 68.0718 43.5471C68.0718 43.6016 68.0605 43.6554 68.0387 43.704C68.0169 43.7526 67.9854 43.7948 67.9465 43.8272C67.9077 43.8595 67.8626 43.881 67.815 43.8901C67.7674 43.8992 67.7186 43.8954 67.6725 43.8793Z" fill="white"/>
<g opacity="0.3">
<path d="M45.1698 71.8316H32.2056C32.1052 71.8389 32.0045 71.8229 31.9097 71.7846C31.815 71.7462 31.7282 71.6863 31.6548 71.6085C31.5813 71.5308 31.5228 71.4369 31.4828 71.3325C31.4427 71.2282 31.4221 71.1157 31.4221 71.002C31.4221 70.8883 31.4427 70.7758 31.4828 70.6715C31.5228 70.5672 31.5813 70.4732 31.6548 70.3955C31.7282 70.3177 31.815 70.2578 31.9097 70.2194C32.0045 70.1811 32.1052 70.1651 32.2056 70.1724H45.1698C45.3563 70.1861 45.5313 70.2794 45.6591 70.4335C45.787 70.5876 45.8582 70.7908 45.8582 71.002C45.8582 71.2132 45.787 71.4164 45.6591 71.5705C45.5313 71.7246 45.3563 71.8179 45.1698 71.8316V71.8316Z" fill="black"/>
<path d="M50.7496 76.4796H32.2056C32.1052 76.487 32.0045 76.471 31.9097 76.4326C31.815 76.3943 31.7282 76.3343 31.6548 76.2566C31.5813 76.1788 31.5228 76.0849 31.4828 75.9806C31.4427 75.8762 31.4221 75.7637 31.4221 75.65C31.4221 75.5363 31.4427 75.4239 31.4828 75.3195C31.5228 75.2152 31.5813 75.1213 31.6548 75.0435C31.7282 74.9658 31.815 74.9058 31.9097 74.8675C32.0045 74.8291 32.1052 74.8131 32.2056 74.8205H50.7496C50.9361 74.8341 51.1111 74.9275 51.239 75.0815C51.3668 75.2356 51.438 75.4389 51.438 75.65C51.438 75.8612 51.3668 76.0645 51.239 76.2186C51.1111 76.3726 50.9361 76.466 50.7496 76.4796V76.4796Z" fill="black"/>
<path d="M66.9037 76.4796H61.869C61.6824 76.466 61.5075 76.3726 61.3796 76.2186C61.2518 76.0645 61.1806 75.8612 61.1806 75.65C61.1806 75.4389 61.2518 75.2356 61.3796 75.0815C61.5075 74.9275 61.6824 74.8341 61.869 74.8205H66.9037C67.0042 74.8131 67.1049 74.8291 67.1997 74.8675C67.2944 74.9058 67.3812 74.9658 67.4546 75.0435C67.5281 75.1213 67.5866 75.2152 67.6266 75.3195C67.6666 75.4239 67.6873 75.5363 67.6873 75.65C67.6873 75.7637 67.6666 75.8762 67.6266 75.9806C67.5866 76.0849 67.5281 76.1788 67.4546 76.2566C67.3812 76.3343 67.2944 76.3943 67.1997 76.4326C67.1049 76.471 67.0042 76.487 66.9037 76.4796V76.4796Z" fill="black"/>
<path d="M40.7663 79.7783H32.2056C32.1052 79.7856 32.0045 79.7696 31.9097 79.7312C31.815 79.6929 31.7282 79.633 31.6548 79.5552C31.5813 79.4774 31.5228 79.3835 31.4828 79.2792C31.4427 79.1749 31.4221 79.0624 31.4221 78.9487C31.4221 78.835 31.4427 78.7225 31.4828 78.6182C31.5228 78.5138 31.5813 78.4199 31.6548 78.3421C31.7282 78.2644 31.815 78.2045 31.9097 78.1661C32.0045 78.1277 32.1052 78.1117 32.2056 78.1191H40.7663C40.9528 78.1327 41.1278 78.2261 41.2557 78.3802C41.3835 78.5342 41.4547 78.7375 41.4547 78.9487C41.4547 79.1598 41.3835 79.3631 41.2557 79.5172C41.1278 79.6713 40.9528 79.7646 40.7663 79.7783V79.7783Z" fill="black"/>
<path d="M66.9037 79.7783H59.8212C59.6346 79.7646 59.4596 79.6713 59.3318 79.5172C59.2039 79.3631 59.1328 79.1598 59.1328 78.9487C59.1328 78.7375 59.2039 78.5342 59.3318 78.3802C59.4596 78.2261 59.6346 78.1327 59.8212 78.1191H66.9037C67.0042 78.1117 67.1049 78.1277 67.1996 78.1661C67.2944 78.2045 67.3812 78.2644 67.4546 78.3421C67.528 78.4199 67.5866 78.5138 67.6266 78.6182C67.6666 78.7225 67.6873 78.835 67.6873 78.9487C67.6873 79.0624 67.6666 79.1749 67.6266 79.2792C67.5866 79.3835 67.528 79.4774 67.4546 79.5552C67.3812 79.633 67.2944 79.6929 67.1996 79.7312C67.1049 79.7696 67.0042 79.7856 66.9037 79.7783V79.7783Z" fill="black"/>
<path d="M49.0066 83.0795H32.224C32.0297 83.0795 31.8432 82.9923 31.7058 82.8371C31.5684 82.6818 31.4911 82.4712 31.4911 82.2517C31.4911 82.0321 31.5684 81.8215 31.7058 81.6663C31.8432 81.511 32.0297 81.4238 32.224 81.4238H49.0066C49.2009 81.4238 49.3874 81.511 49.5248 81.6663C49.6622 81.8215 49.7395 82.0321 49.7395 82.2517C49.7395 82.4712 49.6622 82.6818 49.5248 82.8371C49.3874 82.9923 49.2009 83.0795 49.0066 83.0795Z" fill="black"/>
<path d="M66.8991 83.0795H62.7451C62.5507 83.0795 62.3643 82.9923 62.2268 82.8371C62.0894 82.6818 62.0122 82.4712 62.0122 82.2517C62.0122 82.0321 62.0894 81.8215 62.2268 81.6663C62.3643 81.511 62.5507 81.4238 62.7451 81.4238H66.8991C67.0935 81.4238 67.2799 81.511 67.4174 81.6663C67.5548 81.8215 67.632 82.0321 67.632 82.2517C67.632 82.4712 67.5548 82.6818 67.4174 82.8371C67.2799 82.9923 67.0935 83.0795 66.8991 83.0795Z" fill="black"/>
</g>
<path d="M53.9991 65.5069C56.4523 62.7358 56.4523 58.2429 53.9991 55.4718C51.5458 52.7007 47.5684 52.7007 45.1151 55.4718C42.6619 58.2429 42.6619 62.7358 45.1151 65.5069C47.5684 68.278 51.5458 68.278 53.9991 65.5069Z" fill="#002C8A"/>
<path d="M50.7206 62.2035C50.4916 62.2018 50.2656 62.1438 50.0585 62.0333C49.8514 61.9229 49.6682 61.7627 49.5216 61.5639C49.3749 61.3652 49.2685 61.1327 49.2097 60.8827C49.1508 60.6327 49.141 60.3712 49.1809 60.1164C49.2617 59.6977 49.4691 59.3238 49.7675 59.059C50.066 58.7943 50.4367 58.6553 50.816 58.666H52.5528C52.5626 58.666 52.572 58.6616 52.5789 58.6537C52.5859 58.6459 52.5898 58.6353 52.5898 58.6242V57.5807C52.5898 57.4626 52.5482 57.3494 52.4743 57.2659C52.4004 57.1824 52.3001 57.1355 52.1956 57.1355H46.5419C46.4903 57.1355 46.4392 57.147 46.3915 57.1695C46.3439 57.1919 46.3006 57.2247 46.2643 57.2661C46.2279 57.3075 46.1992 57.3566 46.1797 57.4106C46.1602 57.4646 46.1504 57.5224 46.1508 57.5807V63.3061C46.1508 63.4236 46.1919 63.5363 46.2652 63.6197C46.3384 63.7031 46.4379 63.7504 46.5419 63.7513H52.1771C52.2817 63.7513 52.3819 63.7044 52.4558 63.6209C52.5298 63.5374 52.5713 63.4242 52.5713 63.3061V62.2626C52.5706 62.2518 52.5664 62.2416 52.5597 62.234C52.5529 62.2263 52.5439 62.2216 52.5343 62.2208L50.7206 62.2035Z" fill="white"/>
<path d="M52.5588 59.2662H50.7111C50.5712 59.2662 50.4327 59.2973 50.3034 59.3578C50.1741 59.4183 50.0567 59.5069 49.9578 59.6187C49.8588 59.7304 49.7803 59.8631 49.7268 60.0091C49.6732 60.1552 49.6457 60.3116 49.6457 60.4697C49.6457 60.6277 49.6732 60.7842 49.7268 60.9303C49.7803 61.0763 49.8588 61.2089 49.9578 61.3207C50.0567 61.4325 50.1741 61.5211 50.3034 61.5816C50.4327 61.6421 50.5712 61.6732 50.7111 61.6732H52.5588C52.6633 61.6732 52.7636 61.6263 52.8375 61.5428C52.9114 61.4593 52.9529 61.3461 52.9529 61.228V59.694C52.9497 59.5787 52.9067 59.4694 52.833 59.3894C52.7594 59.3094 52.6609 59.2652 52.5588 59.2662V59.2662ZM50.7881 60.9184C50.7088 60.9184 50.6313 60.8918 50.5654 60.842C50.4995 60.7921 50.4482 60.7213 50.418 60.6384C50.3878 60.5556 50.38 60.4645 50.3957 60.3767C50.4114 60.2889 50.4499 60.2083 50.5062 60.1452C50.5625 60.0821 50.6341 60.0394 50.7119 60.0223C50.7898 60.0052 50.8704 60.0147 50.9435 60.0495C51.0166 60.0842 51.0789 60.1427 51.1225 60.2175C51.1661 60.2924 51.1891 60.3801 51.1884 60.4697C51.1884 60.5289 51.1781 60.5875 51.1579 60.6422C51.1378 60.6969 51.1082 60.7465 51.071 60.7882C51.0338 60.8299 50.9896 60.8629 50.9411 60.8852C50.8925 60.9076 50.8406 60.9189 50.7881 60.9184V60.9184Z" fill="white"/>
<path opacity="0.6" d="M31.6588 34.4319H32.2254V33.5797H31.6588V34.4319Z" fill="white"/>
<path opacity="0.6" d="M30.7365 34.4319H31.3031V33.2945H30.7365V34.4319Z" fill="white"/>
<path opacity="0.6" d="M29.8073 34.4319H30.3739V33.0093H29.8073V34.4319Z" fill="white"/>
<path opacity="0.6" d="M28.8879 34.4319H29.4545V32.724H28.8879V34.4319Z" fill="white"/>
<path opacity="0.6" d="M67.3099 33.3034H66.9742V34.1556H67.3099V33.3034Z" fill="white"/>
<path opacity="0.6" d="M67.5386 34.4319H70.2176V32.9536H67.5386V34.4319Z" fill="white"/>
<path opacity="0.1" d="M70.1356 30.7466C66.0739 43.4565 52.8604 78.3617 26.6027 92.5986V31.9049C26.5918 31.6151 26.6828 31.3321 26.8558 31.1177C27.0289 30.9034 27.2699 30.775 27.5265 30.7605H38.4243C38.5776 30.7635 38.7265 30.818 38.8522 30.9172C38.9778 31.0163 39.0744 31.1555 39.1295 31.3171L39.5791 32.5693C39.6343 32.7285 39.7302 32.8656 39.8548 32.9629C39.9793 33.0602 40.1267 33.1133 40.2781 33.1154H58.8621C59.0133 33.1145 59.1608 33.0628 59.2859 32.9667C59.411 32.8707 59.5078 32.7347 59.5642 32.5762L60.0137 31.3171C60.069 31.1564 60.1652 31.0177 60.2902 30.9187C60.4151 30.8197 60.5632 30.7646 60.7158 30.7605L70.1356 30.7466Z" fill="white"/>
<path opacity="0.1" d="M72.5123 76.3827V125.114C72.5119 125.296 72.4796 125.475 72.4173 125.642C72.3549 125.809 72.2638 125.96 72.1492 126.087C72.0346 126.214 71.8987 126.314 71.7496 126.381C71.6005 126.448 71.441 126.481 71.2806 126.478H27.6983C27.553 126.48 27.4087 126.449 27.2742 126.387C27.1396 126.325 27.0175 126.233 26.9152 126.117C26.8128 126 26.7323 125.861 26.6785 125.709C26.6247 125.556 26.5987 125.393 26.6021 125.229V103.062C38.7317 85.0264 59.5759 78.6366 72.5123 76.3827Z" fill="white"/>
<path d="M84.2395 50.6299C85.2249 53.055 86.3335 55.9598 87.5622 58.0385C87.4461 57.9596 87.314 57.9127 87.1772 57.9019C86.8939 57.9019 86.8693 58.0018 86.9124 57.9719C87.3866 57.6387 87.7531 57.0425 88.1442 56.4462C88.8236 55.3445 89.4506 54.206 90.0226 53.0351C90.1103 52.8561 90.2571 52.7195 90.4338 52.6524C90.6104 52.5852 90.804 52.5925 90.9759 52.6727C91.1478 52.7528 91.2855 52.9001 91.3617 53.0851C91.4378 53.2702 91.4468 53.4795 91.3867 53.6713C90.9554 55.0001 90.441 56.2956 89.8471 57.5488C89.2312 58.8546 87.9163 61.283 86.2165 60.1271C85.3419 59.4076 84.8523 58.3616 84.295 57.4622C83.2849 55.6733 82.3796 53.8579 81.5051 51.9891C80.6459 49.9904 83.3527 48.6112 84.2272 50.6299H84.2395Z" fill="#EBC0BB"/>
<path d="M83.3696 49.5372C84.7122 49.6271 86.9571 54.2008 86.9571 54.2008L82.8431 57.4987C82.8431 57.4987 82.1102 50.7497 82.1102 50.7397C82.1102 50.7297 83.3696 49.5372 83.3696 49.5372Z" fill="#263238"/>
<path opacity="0.7" d="M86.9573 54.2154L84.9096 55.8576L83.4838 56.9936L82.8371 57.5132C82.8371 57.5132 82.3937 53.4359 82.1997 51.6171C82.1412 51.0941 82.1042 50.7576 82.1042 50.7543C82.1042 50.7509 83.3637 49.5451 83.3637 49.5451C84.4723 49.6183 86.1998 52.763 86.7664 53.8523C86.8896 54.0788 86.9573 54.2154 86.9573 54.2154Z" fill="white"/>
<path d="M86.9596 53.7196L87.5385 54.4325L83.7817 57.5038L83.135 56.3246L86.9596 53.7196Z" fill="#263238"/>
<path opacity="0.8" d="M87.5355 54.4325L85.0473 56.4678L83.7817 57.5038L83.4953 56.9842L83.135 56.3246L84.7209 55.242L86.7779 53.8429L86.9596 53.7196L87.5355 54.4325Z" fill="white"/>
<path d="M87.5437 52.7098C87.536 52.7403 87.5344 52.7723 87.5392 52.8036C87.5439 52.8348 87.5549 52.8646 87.5713 52.8909C87.5876 52.9171 87.6091 52.9392 87.6341 52.9557C87.6591 52.9722 87.6871 52.9826 87.7162 52.9863L89.9826 53.3194C90.0457 53.3281 90.1097 53.3116 90.1624 53.2729C90.2151 53.2343 90.253 53.1762 90.269 53.1095L91.3899 48.3526C91.3982 48.32 91.4004 48.2859 91.3963 48.2524C91.3923 48.2189 91.382 48.1866 91.3663 48.1574C91.3505 48.1282 91.3294 48.1027 91.3044 48.0825C91.2794 48.0622 91.2508 48.0476 91.2205 48.0395L88.9541 47.7064C88.8881 47.708 88.8244 47.7325 88.7723 47.7763C88.7201 47.8201 88.6824 47.8808 88.6646 47.9495L87.5437 52.7098Z" fill="#263238"/>
<path opacity="0.5" d="M88.9151 47.9561L87.7942 52.7597C87.7832 52.7872 87.7786 52.8171 87.7806 52.8469C87.7826 52.8768 87.7912 52.9056 87.8057 52.9311C87.8202 52.9566 87.8402 52.9779 87.8639 52.9933C87.8876 53.0087 87.9144 53.0177 87.942 53.0195L89.8635 53.3027C89.9928 53.3227 90.2361 53.2794 90.27 53.1461L91.4032 48.3226C91.4371 48.186 91.2307 48.0461 91.0952 48.0261L89.1737 47.7396C89.113 47.732 89.052 47.7504 89.0036 47.7909C88.9553 47.8313 88.9235 47.8906 88.9151 47.9561V47.9561Z" fill="white"/>
<path d="M91.4462 53.4779L91.1629 50.713L89.5031 52.7983C89.5031 52.7983 89.1459 54.5838 90.6456 54.4639L91.4462 53.4779Z" fill="#FFBF9D"/>
<path d="M89.5564 50.1843L89.0082 52.2163L89.5102 52.7892L91.17 50.7039L89.5564 50.1843Z" fill="#FFBF9D"/>
<path opacity="0.1" d="M85.7393 55.8749L83.7901 57.4772L83.5037 56.9576L82.8571 57.4772C82.8571 57.4772 82.4136 53.3999 82.2196 51.5811C82.5768 51.9042 85.3852 52.3639 85.7393 55.8749Z" fill="black"/>
<path d="M74.492 99.8172L75.3173 101.523C75.3173 101.523 76.0255 101.116 77.1495 100.45C77.4728 100.26 77.83 100.05 78.2119 99.8172C79.2773 99.1843 80.5552 98.4148 81.9071 97.5886L82.7909 97.039C87.4746 94.1375 91.3145 91.3527 91.3145 89.8303C91.3145 87.2786 89.6055 82.4251 87.1913 77.5682C85.5777 74.3237 84.2351 71.712 84.2351 71.712L78.5013 75.5096C78.5013 75.5096 80.4536 78.3344 82.4552 81.4457C84.7894 85.0734 87.1882 89.0841 86.6401 89.4839C86.2213 89.787 84.0873 91.5925 81.7285 93.6112L81.3005 93.9743C80.0287 95.0636 78.7138 96.1895 77.5806 97.1656L76.6568 97.9484L74.492 99.8172Z" fill="#FFBF9D"/>
<path opacity="0.2" d="M78.4969 75.5096C78.4969 75.5096 80.4492 78.3344 82.4508 81.4457L87.1776 77.5682C85.564 74.3237 84.2214 71.712 84.2214 71.712L78.4969 75.5096Z" fill="black"/>
<path opacity="0.2" d="M76.6611 97.94L77.1477 100.442C78.558 99.609 80.6212 98.3764 82.786 97.0306C82.4195 95.8247 81.9977 94.4656 81.7236 93.6028C79.9622 95.1052 78.0715 96.7308 76.6611 97.94Z" fill="black"/>
<path d="M71.9638 78.6723L73.0693 82.3166L73.2941 83.0661L74.9785 88.6125L75.1694 89.2488L76.2841 92.9131L77.5775 97.177L78.1749 99.149C78.1749 99.3722 78.1964 99.5987 78.2118 99.8153C78.7784 109.236 83.3143 121.548 83.3143 121.548L84.9341 121.072C84.3582 113.673 83.1296 105.049 81.904 97.5867C81.7007 96.3475 81.5006 95.1383 81.2881 93.9724C81.1742 93.3061 81.0633 92.6765 80.9555 92.0536C80.7215 90.7211 80.4998 89.4753 80.2811 88.3094C80.1795 87.7564 80.081 87.2267 79.9886 86.7104C79.7515 85.4379 79.5359 84.3053 79.345 83.3326C79.1541 82.3599 79.0032 81.5571 78.88 80.9408C78.7014 80.0447 78.6029 79.545 78.6029 79.545L71.9638 78.6723Z" fill="#FFBF9D"/>
<path d="M76.4436 97.9613C76.653 97.9613 76.5267 100.76 76.5267 100.76C76.5267 100.76 74.9347 102.505 74.596 104.181C74.2572 105.856 73.318 104.937 73.2903 103.071C73.2626 101.206 73.2441 99.7835 73.2256 98.4577C73.2072 97.1319 74.2634 97.9413 76.4436 97.9613Z" fill="#263238"/>
<path opacity="0.7" d="M81.0221 80.6593L81.3978 81.039L86.9715 76.9484L86.257 75.0896C86.2672 75.7447 86.1787 76.3972 85.9953 77.0216C85.6843 77.7978 81.9921 80.0664 81.0221 80.6593Z" fill="white"/>
<path opacity="0.2" d="M71.9638 78.6723L73.0693 82.3166C76.1148 83.0994 78.0856 83.3526 79.3543 83.3426C79.1695 82.3732 79.0124 81.5671 78.8893 80.9508C78.7107 80.0547 78.6121 79.555 78.6121 79.555L71.9638 78.6723Z" fill="black"/>
<path d="M86.9546 76.945L81.3779 81.0357L81.0207 80.6559L79.755 79.3634V82.598L72.0566 81.1056C70.8895 75.5159 71.0373 71.3753 71.5424 68.5304C71.7762 67.098 72.1961 65.7084 72.7895 64.4031V64.4031L72.888 63.3471L83.3025 64.5164L83.4041 65.2526L83.906 68.8935L86.2494 75.0895L86.9546 76.945Z" fill="#002C8A"/>
<path opacity="0.2" d="M79.7408 79.3659V75.7682C79.7408 75.7682 81.2281 78.4598 81.0064 80.6551L79.7408 79.3659Z" fill="black"/>
<path d="M80.7518 80.6437L86.7012 75.9734L87.2062 76.8695L81.2168 81.4066L80.7518 80.6437Z" fill="#002C8A"/>
<path opacity="0.7" d="M80.7518 80.6437L86.7012 75.9734L87.2062 76.8695L81.2168 81.4066L80.7518 80.6437Z" fill="white"/>
<path d="M71.7211 80.3847L79.8999 81.947V82.8165L71.9674 81.4274L71.7211 80.3847Z" fill="#002C8A"/>
<path opacity="0.7" d="M71.7211 80.3847L79.8999 81.947V82.8165L71.9674 81.4274L71.7211 80.3847Z" fill="white"/>
<path opacity="0.2" d="M74.9878 64.7663C74.9878 64.7663 74.221 67.8177 71.5327 68.5872C71.7665 67.1547 72.1864 65.7652 72.7799 64.4598V64.4598L74.9878 64.7663Z" fill="black"/>
<path opacity="0.2" d="M83.9041 68.9294C82.9095 67.8901 82.6231 65.2885 82.6231 65.2885H83.4022L83.9041 68.9294Z" fill="black"/>
<path opacity="0.2" d="M80.0592 65.0891C80.0592 65.1828 80.0248 65.2726 79.9636 65.3388C79.9024 65.405 79.8194 65.4422 79.7328 65.4422C79.6462 65.4422 79.5632 65.405 79.502 65.3388C79.4408 65.2726 79.4064 65.1828 79.4064 65.0891C79.4064 64.9955 79.4408 64.9057 79.502 64.8394C79.5632 64.7732 79.6462 64.736 79.7328 64.736C79.8194 64.736 79.9024 64.7732 79.9636 64.8394C80.0248 64.9057 80.0592 64.9955 80.0592 65.0891V65.0891Z" fill="black"/>
<path d="M72.9928 63.7733C70.5847 63.1804 72.962 63.217 72.1798 51.448C72.129 50.8525 72.1727 50.252 72.3091 49.6725C72.4334 49.2138 72.7039 48.8176 73.0726 48.5542C73.4413 48.2907 73.8843 48.1771 74.3231 48.2334C74.7418 48.2834 75.1144 48.33 75.1976 48.3333C75.4224 48.3333 75.6533 48.35 75.8843 48.3666C77.4542 48.4355 79.0174 48.627 80.5618 48.9396C80.9437 49.0229 81.3348 49.1228 81.7166 49.2194C81.8398 49.2527 83.2563 49.4893 83.3671 49.5226C83.3671 49.5226 84.9869 52.2441 84.8391 54.2162C84.7559 55.3155 84.411 56.125 84.3833 58.7633C84.3217 64.7594 85.4796 64.5762 83.0746 64.7594L72.9928 63.7733Z" fill="#263238"/>
<path opacity="0.7" d="M84.3835 58.7514C84.3219 64.7475 85.4797 64.5676 83.0747 64.7475L72.9929 63.7781C71.0098 63.2951 72.2723 63.2318 72.3401 56.6361C72.3401 55.5035 72.3401 54.181 72.2538 52.6386C72.2323 52.2589 72.2076 51.8625 72.1799 51.4561C72.1289 50.8617 72.1727 50.2622 72.3093 49.6839C72.4324 49.2242 72.7025 48.8269 73.0714 48.5627C73.4403 48.2985 73.8839 48.1847 74.3232 48.2415C74.742 48.2915 75.1146 48.3381 75.1977 48.3381C75.4194 48.3381 75.6535 48.3581 75.8844 48.3747C77.454 48.446 79.017 48.6364 80.562 48.9444C80.9438 49.0343 81.3318 49.1276 81.7198 49.2275C81.843 49.2608 83.2595 49.4973 83.3673 49.534C83.3673 49.534 84.987 52.2522 84.8423 54.221C84.7561 55.3036 84.405 56.1131 84.3835 58.7514Z" fill="white"/>
<path opacity="0.1" d="M78.084 56.4589C78.084 56.4589 75.9469 58.9673 72.341 56.6122C72.341 55.4796 72.341 54.1571 72.2548 52.6147C73.6499 52.0745 75.0955 51.7014 76.5659 51.5021L78.084 56.4589Z" fill="black"/>
<path d="M82.704 51.2195L84.9488 49.8371L85.7402 52.1256C85.7402 52.1256 84.296 53.3315 83.0088 52.492L82.704 51.2195Z" fill="#FFBF9D"/>
<path d="M86.7865 49.7818L86.9959 51.6406L85.7395 52.1303L84.9481 49.8418L86.7865 49.7818Z" fill="#FFBF9D"/>
<path d="M75.3 50.0127C75.8977 52.5902 76.8407 55.0592 78.0991 57.3413L78.1638 57.4579C78.098 57.353 78.0144 57.2626 77.9174 57.1914C77.807 57.1019 77.6787 57.0417 77.5429 57.0157C77.407 56.9896 77.2674 56.9985 77.1353 57.0415C78.1022 56.4919 78.8659 55.5059 79.6727 54.6631C80.6303 53.5871 81.5911 52.4612 82.5365 51.3319C82.6619 51.1905 82.8304 51.1031 83.0109 51.0859C83.1913 51.0688 83.3714 51.123 83.5177 51.2385C83.664 51.3541 83.7666 51.5231 83.8064 51.7142C83.8462 51.9054 83.8206 52.1057 83.7344 52.2779C82.6661 54.3459 81.4052 56.2903 79.9714 58.0809C79.4644 58.741 78.843 59.2876 78.1422 59.6898C77.7424 59.9021 77.2835 59.9443 76.8564 59.808C76.4292 59.6716 76.065 59.3667 75.8358 58.9536C74.1446 56.4561 72.958 53.6016 72.353 50.5757C72.0451 48.4338 74.8873 47.8641 75.3 49.9894V50.0127Z" fill="#EBC0BB"/>
<path d="M74.0879 48.2181C72.4558 48.0082 71.4581 50.0635 71.9724 54.7838H77.0749C77.0749 54.7838 76.7731 48.5512 74.0879 48.2181Z" fill="#263238"/>
<path opacity="0.7" d="M74.0879 48.2181C72.4558 48.0082 71.4581 50.0635 71.9724 54.7838H77.0749C77.0749 54.7838 76.7731 48.5512 74.0879 48.2181Z" fill="white"/>
<path d="M71.7142 53.7196L77.2478 54.4325L77.2663 55.2386H71.8374L71.7142 53.7196Z" fill="#263238"/>
<path opacity="0.8" d="M71.7142 53.7196L77.2478 54.4325L77.2663 55.2386H71.8374L71.7142 53.7196Z" fill="white"/>
<path d="M78.2128 34.7458C78.2128 34.7458 79.3861 33.8297 81.3692 34.5326C83.3523 35.2355 85.4124 37.5473 84.504 40.8618C83.5956 44.1764 83.7095 46.2917 83.7095 46.2917C83.7095 46.2917 76.8918 45.0691 75.4352 43.6267C73.9787 42.1843 74.2097 33.893 78.2128 34.7458Z" fill="#263238"/>
<path d="M76.8084 42.7032C77.0455 44.3688 77.2364 47.4268 76.1432 48.3962C77.5237 49.2608 78.9487 50.0393 80.4112 50.728C81.4305 49.4755 80.8239 48.9625 80.8239 48.9625C79.161 48.3196 79.2503 46.9638 79.5921 45.7279L76.8084 42.7032Z" fill="#FFBF9D"/>
<path opacity="0.2" d="M77.946 43.9027L79.5904 45.6916C79.5082 45.982 79.4494 46.2795 79.4149 46.581C78.7775 46.4011 77.9245 45.525 77.8752 44.7855C77.8484 44.489 77.8724 44.1897 77.946 43.9027V43.9027Z" fill="black"/>
<path d="M77.145 38.45C76.6523 41.0883 76.3905 42.1942 77.2435 43.9364C78.5245 46.5614 81.5546 46.7979 82.7433 44.4128C83.818 42.2642 84.4461 38.3067 82.4138 36.4713C81.9896 36.0611 81.4719 35.7811 80.914 35.6602C80.3562 35.5394 79.7787 35.5821 79.2413 35.7839C78.7039 35.9858 78.2261 36.3394 77.8575 36.8081C77.4889 37.2769 77.2429 37.8438 77.145 38.45Z" fill="#FFBF9D"/>
<path d="M77.7075 40.3944C77.7075 40.3944 79.5058 39.2019 79.7244 36.2571C79.7244 36.2571 82.7237 36.1538 83.7769 39.0286C83.7769 39.0286 83.4012 34.8946 79.1209 34.7214C74.8406 34.5482 76.02 39.6382 76.3494 40.1679C76.6789 40.6976 77.7075 40.3944 77.7075 40.3944Z" fill="#263238"/>
<path d="M75.8471 40.2982C75.9672 40.8513 76.285 41.3304 76.7309 41.6307C77.3129 42.0038 77.7655 41.4175 77.7378 40.668C77.7162 40.0018 77.3868 38.9824 76.737 38.9191C76.0873 38.8558 75.6931 39.592 75.8471 40.2982Z" fill="#FFBF9D"/>
</g>
<defs>
<clipPath id="clip0_6_2">
<rect x="34.6343" y="15.2184" width="12" height="12" rx="6" transform="rotate(-56.2153 34.6343 15.2184)" fill="white"/>
</clipPath>
<clipPath id="clip1_6_2">
<rect x="88.6056" y="62.851" width="12" height="12" rx="6" transform="rotate(-56.2153 88.6056 62.851)" fill="white"/>
</clipPath>
</defs>
</svg>
